G04 (created by PCBNEW (2013-07-07 BZR 4022)-stable) date 2015/9/10 11:53:31*
%MOIN*%
G04 Gerber Fmt 3.4, Leading zero omitted, Abs format*
%FSLAX34Y34*%
G01*
G70*
G90*
G04 APERTURE LIST*
%ADD10C,0.00590551*%
%ADD11R,0.045X0.025*%
%ADD12R,0.025X0.045*%
%ADD13R,0.16X0.06*%
%ADD14R,0.0748X0.0433*%
%ADD15R,0.0236X0.0098*%
%ADD16R,0.0098X0.0236*%
%ADD17R,0.02X0.03*%
%ADD18R,0.03X0.02*%
%ADD19R,0.0394X0.0236*%
%ADD20R,0.0314X0.0314*%
%ADD21R,0.0768X0.0402*%
%ADD22R,0.1024X0.0315*%
%ADD23R,0.0236X0.0157*%
%ADD24R,0.0157X0.0236*%
G04 APERTURE END LIST*
G54D10*
G54D11*
X10236Y-5694D03*
X10236Y-5094D03*
X10236Y-6717D03*
X10236Y-6117D03*
G54D12*
X5615Y-3819D03*
X5015Y-3819D03*
X8480Y-433D03*
X9080Y-433D03*
X5615Y-4488D03*
X5015Y-4488D03*
X3568Y-3031D03*
X2968Y-3031D03*
X3568Y-3661D03*
X2968Y-3661D03*
G54D11*
X2638Y-6039D03*
X2638Y-6639D03*
G54D13*
X12028Y-3543D03*
X12028Y-2543D03*
X12028Y-4543D03*
G54D14*
X3385Y-453D03*
X4803Y-453D03*
X3385Y-1437D03*
X4803Y-1437D03*
G54D15*
X6495Y-1593D03*
X6495Y-1790D03*
X6495Y-1987D03*
X6495Y-2184D03*
X6495Y-2380D03*
X6495Y-2577D03*
X6495Y-2774D03*
X6495Y-2971D03*
G54D16*
X7537Y-3227D03*
X7733Y-3227D03*
X7930Y-3227D03*
X8127Y-3227D03*
X6750Y-3227D03*
X6947Y-3227D03*
X7144Y-3227D03*
X7340Y-3227D03*
G54D15*
X8383Y-2969D03*
X8384Y-2772D03*
X8384Y-2576D03*
X8384Y-2379D03*
X8384Y-2182D03*
X8384Y-1985D03*
X8384Y-1788D03*
X8384Y-1591D03*
G54D16*
X8128Y-1336D03*
X7931Y-1336D03*
X7734Y-1336D03*
X7538Y-1336D03*
X7341Y-1336D03*
X7144Y-1336D03*
X6947Y-1336D03*
X6750Y-1336D03*
G54D17*
X3601Y-5894D03*
X4351Y-5894D03*
X3601Y-4894D03*
X3976Y-5894D03*
X4351Y-4894D03*
G54D18*
X8886Y-4548D03*
X8886Y-3798D03*
X7886Y-4548D03*
X8886Y-4173D03*
X7886Y-3798D03*
G54D11*
X2992Y-5576D03*
X2992Y-4976D03*
X4331Y-4394D03*
X4331Y-3794D03*
G54D12*
X3568Y-4291D03*
X2968Y-4291D03*
X7456Y-433D03*
X8056Y-433D03*
X7032Y-433D03*
X6432Y-433D03*
X3676Y-2087D03*
X4276Y-2087D03*
G54D11*
X5748Y-330D03*
X5748Y-930D03*
X5591Y-1590D03*
X5591Y-2190D03*
X6535Y-3834D03*
X6535Y-4434D03*
G54D12*
X8834Y-1063D03*
X9434Y-1063D03*
G54D19*
X2008Y-6575D03*
X1142Y-6575D03*
X3347Y-6575D03*
X4213Y-6575D03*
G54D20*
X10807Y-6181D03*
X11397Y-6181D03*
X10807Y-6693D03*
X11397Y-6693D03*
G54D21*
X2165Y-3149D03*
X2165Y-3937D03*
X2165Y-2165D03*
X2165Y-4921D03*
G54D22*
X1132Y-1232D03*
X1117Y-5854D03*
G54D23*
X9547Y-3366D03*
X9547Y-3720D03*
G54D24*
X10728Y-2441D03*
X10374Y-2441D03*
G54D23*
X10748Y-2027D03*
X10748Y-1673D03*
X9094Y-1949D03*
X9094Y-2303D03*
G54D24*
X9980Y-2441D03*
X9626Y-2441D03*
G54D23*
X9094Y-3149D03*
X9094Y-2795D03*
G54D12*
X9543Y-4567D03*
X10143Y-4567D03*
M02*
