M48
;DRILL file {Pcbnew (2013-07-07 BZR 4022)-stable} date 2015/9/10 11:53:41
;FORMAT={-:-/ absolute / inch / decimal}
FMAT,2
INCH,TZ
T1C0.015
T2C0.020
T3C0.021
T4C0.040
T5C0.047
%
G90
G05
M72
T1
X0.5315Y-0.4134
X0.5906Y-0.4882
X0.7559Y-0.4921
X0.8268Y-0.3622
X0.9882Y-0.6417
T2
X0.248Y-0.5433
X0.252Y-0.1732
X0.2795Y-0.2165
X0.3425Y-0.0906
X0.3701Y-0.626
X0.4331Y-0.3386
X0.4685Y-0.2087
X0.4882Y-0.3386
X0.4961Y-0.185
X0.5157Y-0.2402
X0.5362Y-0.3201
X0.6181Y-0.1063
X0.6457Y-0.4764
X0.6732Y-0.0787
X0.7087Y-0.0945
X0.7323Y-0.2874
X0.7795Y-0.0787
X0.7992Y-0.2756
X0.8071Y-0.0984
X0.8622Y-0.3189
X0.8696Y-0.149
X0.9055Y-0.3543
X0.9449Y-0.0433
X0.98Y-0.09
X0.98Y-0.13
X0.98Y-0.17
X0.9823Y-0.3799
X0.99Y-0.04
X1.0039Y-0.2953
X1.0039Y-0.3543
X1.0236Y-0.4134
X1.03Y-0.17
X1.04Y-0.04
X1.0433Y-0.2953
X1.0433Y-0.3346
X1.08Y-0.44
X1.08Y-0.49
X1.08Y-0.54
X1.0827Y-0.374
X1.09Y-0.04
X1.13Y-0.54
X1.14Y-0.04
X1.14Y-0.19
X1.1772Y-0.6417
X1.1772Y-0.6732
X1.18Y-0.54
X1.19Y-0.04
X1.19Y-0.19
X1.23Y-0.54
X1.23Y-0.67
X1.24Y-0.04
X1.24Y-0.09
X1.24Y-0.14
X1.24Y-0.19
X1.27Y-0.54
X1.27Y-0.59
X1.27Y-0.64
T4
X0.5323Y-0.5445
X0.5323Y-0.6445
X0.6323Y-0.5445
X0.6323Y-0.6445
X0.7323Y-0.5445
X0.7323Y-0.6445
X0.8323Y-0.5445
X0.8323Y-0.6445
X0.9323Y-0.5445
X0.9323Y-0.6445
T5
X0.1132Y-0.2657
X0.1132Y-0.4429
T3
X0.079Y-0.5854G85X0.1444Y-0.5854
G05
X0.0805Y-0.1232G85X0.1459Y-0.1232
G05
T0
M30
