G04 (created by PCBNEW (2013-07-07 BZR 4022)-stable) date 2015/9/10 11:53:42*
%MOIN*%
G04 Gerber Fmt 3.4, Leading zero omitted, Abs format*
%FSLAX34Y34*%
G01*
G70*
G90*
G04 APERTURE LIST*
%ADD10C,0.005*%
%ADD11C,0.015*%
%ADD12C,0.00787402*%
%ADD13C,0.011811*%
G04 APERTURE END LIST*
G54D10*
G54D11*
X13031Y0D02*
X13031Y-7087D01*
X13032Y0D02*
X39Y0D01*
X39Y-7087D02*
X13032Y-7087D01*
X39Y-6693D02*
X39Y-7087D01*
X39Y0D02*
X39Y-6693D01*
G54D12*
X5240Y-4059D02*
X5390Y-4209D01*
X5390Y-4059D02*
X5240Y-4209D01*
X5831Y-4807D02*
X5981Y-4957D01*
X5981Y-4807D02*
X5831Y-4957D01*
X7484Y-4846D02*
X7634Y-4996D01*
X7634Y-4846D02*
X7484Y-4996D01*
X8193Y-3547D02*
X8343Y-3697D01*
X8343Y-3547D02*
X8193Y-3697D01*
X9807Y-6342D02*
X9957Y-6492D01*
X9957Y-6342D02*
X9807Y-6492D01*
X2580Y-5433D02*
G75*
G03X2580Y-5433I-100J0D01*
G74*
G01*
X2620Y-1732D02*
G75*
G03X2620Y-1732I-100J0D01*
G74*
G01*
X2895Y-2165D02*
G75*
G03X2895Y-2165I-100J0D01*
G74*
G01*
X3525Y-906D02*
G75*
G03X3525Y-906I-100J0D01*
G74*
G01*
X3801Y-6260D02*
G75*
G03X3801Y-6260I-100J0D01*
G74*
G01*
X4431Y-3386D02*
G75*
G03X4431Y-3386I-100J0D01*
G74*
G01*
X4785Y-2087D02*
G75*
G03X4785Y-2087I-100J0D01*
G74*
G01*
X4982Y-3386D02*
G75*
G03X4982Y-3386I-100J0D01*
G74*
G01*
X5061Y-1850D02*
G75*
G03X5061Y-1850I-100J0D01*
G74*
G01*
X5257Y-2402D02*
G75*
G03X5257Y-2402I-100J0D01*
G74*
G01*
X5462Y-3201D02*
G75*
G03X5462Y-3201I-100J0D01*
G74*
G01*
X6281Y-1063D02*
G75*
G03X6281Y-1063I-100J0D01*
G74*
G01*
X6557Y-4764D02*
G75*
G03X6557Y-4764I-100J0D01*
G74*
G01*
X6832Y-787D02*
G75*
G03X6832Y-787I-100J0D01*
G74*
G01*
X7187Y-945D02*
G75*
G03X7187Y-945I-100J0D01*
G74*
G01*
X7423Y-2874D02*
G75*
G03X7423Y-2874I-100J0D01*
G74*
G01*
X7895Y-787D02*
G75*
G03X7895Y-787I-100J0D01*
G74*
G01*
X8092Y-2756D02*
G75*
G03X8092Y-2756I-100J0D01*
G74*
G01*
X8171Y-984D02*
G75*
G03X8171Y-984I-100J0D01*
G74*
G01*
X8722Y-3189D02*
G75*
G03X8722Y-3189I-100J0D01*
G74*
G01*
X8796Y-1490D02*
G75*
G03X8796Y-1490I-100J0D01*
G74*
G01*
X9155Y-3543D02*
G75*
G03X9155Y-3543I-100J0D01*
G74*
G01*
X9549Y-433D02*
G75*
G03X9549Y-433I-100J0D01*
G74*
G01*
X9900Y-900D02*
G75*
G03X9900Y-900I-100J0D01*
G74*
G01*
X9900Y-1300D02*
G75*
G03X9900Y-1300I-100J0D01*
G74*
G01*
X9900Y-1700D02*
G75*
G03X9900Y-1700I-100J0D01*
G74*
G01*
X9923Y-3799D02*
G75*
G03X9923Y-3799I-100J0D01*
G74*
G01*
X10000Y-400D02*
G75*
G03X10000Y-400I-100J0D01*
G74*
G01*
X10139Y-2953D02*
G75*
G03X10139Y-2953I-100J0D01*
G74*
G01*
X10139Y-3543D02*
G75*
G03X10139Y-3543I-100J0D01*
G74*
G01*
X10336Y-4134D02*
G75*
G03X10336Y-4134I-100J0D01*
G74*
G01*
X10400Y-1700D02*
G75*
G03X10400Y-1700I-100J0D01*
G74*
G01*
X10500Y-400D02*
G75*
G03X10500Y-400I-100J0D01*
G74*
G01*
X10533Y-2953D02*
G75*
G03X10533Y-2953I-100J0D01*
G74*
G01*
X10533Y-3346D02*
G75*
G03X10533Y-3346I-100J0D01*
G74*
G01*
X10900Y-4400D02*
G75*
G03X10900Y-4400I-100J0D01*
G74*
G01*
X10900Y-4900D02*
G75*
G03X10900Y-4900I-100J0D01*
G74*
G01*
X10900Y-5400D02*
G75*
G03X10900Y-5400I-100J0D01*
G74*
G01*
X10927Y-3740D02*
G75*
G03X10927Y-3740I-100J0D01*
G74*
G01*
X11000Y-400D02*
G75*
G03X11000Y-400I-100J0D01*
G74*
G01*
X11400Y-5400D02*
G75*
G03X11400Y-5400I-100J0D01*
G74*
G01*
X11500Y-400D02*
G75*
G03X11500Y-400I-100J0D01*
G74*
G01*
X11500Y-1900D02*
G75*
G03X11500Y-1900I-100J0D01*
G74*
G01*
X11872Y-6417D02*
G75*
G03X11872Y-6417I-100J0D01*
G74*
G01*
X11872Y-6732D02*
G75*
G03X11872Y-6732I-100J0D01*
G74*
G01*
X11900Y-5400D02*
G75*
G03X11900Y-5400I-100J0D01*
G74*
G01*
X12000Y-400D02*
G75*
G03X12000Y-400I-100J0D01*
G74*
G01*
X12000Y-1900D02*
G75*
G03X12000Y-1900I-100J0D01*
G74*
G01*
X12400Y-5400D02*
G75*
G03X12400Y-5400I-100J0D01*
G74*
G01*
X12400Y-6700D02*
G75*
G03X12400Y-6700I-100J0D01*
G74*
G01*
X12500Y-400D02*
G75*
G03X12500Y-400I-100J0D01*
G74*
G01*
X12500Y-900D02*
G75*
G03X12500Y-900I-100J0D01*
G74*
G01*
X12500Y-1400D02*
G75*
G03X12500Y-1400I-100J0D01*
G74*
G01*
X12500Y-1900D02*
G75*
G03X12500Y-1900I-100J0D01*
G74*
G01*
X12800Y-5400D02*
G75*
G03X12800Y-5400I-100J0D01*
G74*
G01*
X12800Y-5900D02*
G75*
G03X12800Y-5900I-100J0D01*
G74*
G01*
X12800Y-6400D02*
G75*
G03X12800Y-6400I-100J0D01*
G74*
G01*
X1117Y-5747D02*
X1117Y-5960D01*
X1010Y-5854D02*
X1223Y-5854D01*
X790Y-5921D02*
X1443Y-5921D01*
X790Y-5786D02*
X1443Y-5786D01*
X1443Y-5921D02*
G75*
G03X1443Y-5786I0J67D01*
G74*
G01*
X790Y-5786D02*
G75*
G03X790Y-5921I0J-67D01*
G74*
G01*
X1132Y-1125D02*
X1132Y-1338D01*
X1025Y-1232D02*
X1238Y-1232D01*
X805Y-1299D02*
X1458Y-1299D01*
X805Y-1164D02*
X1458Y-1164D01*
X1458Y-1299D02*
G75*
G03X1458Y-1164I0J67D01*
G74*
G01*
X805Y-1164D02*
G75*
G03X805Y-1299I0J-67D01*
G74*
G01*
X5464Y-5586D02*
X5464Y-5303D01*
X5181Y-5303D01*
X5181Y-5586D01*
X5464Y-5586D01*
X5464Y-6586D02*
X5464Y-6303D01*
X5181Y-6303D01*
X5181Y-6586D01*
X5464Y-6586D01*
X6464Y-5586D02*
X6464Y-5303D01*
X6181Y-5303D01*
X6181Y-5586D01*
X6464Y-5586D01*
X6464Y-6586D02*
X6464Y-6303D01*
X6181Y-6303D01*
X6181Y-6586D01*
X6464Y-6586D01*
X7464Y-5586D02*
X7464Y-5303D01*
X7181Y-5303D01*
X7181Y-5586D01*
X7464Y-5586D01*
X7464Y-6586D02*
X7464Y-6303D01*
X7181Y-6303D01*
X7181Y-6586D01*
X7464Y-6586D01*
X8464Y-5586D02*
X8464Y-5303D01*
X8181Y-5303D01*
X8181Y-5586D01*
X8464Y-5586D01*
X8464Y-6586D02*
X8464Y-6303D01*
X8181Y-6303D01*
X8181Y-6586D01*
X8464Y-6586D01*
X9464Y-5586D02*
X9464Y-5303D01*
X9181Y-5303D01*
X9181Y-5586D01*
X9464Y-5586D01*
X9464Y-6586D02*
X9464Y-6303D01*
X9181Y-6303D01*
X9181Y-6586D01*
X9464Y-6586D01*
X1132Y-2893D02*
X1368Y-2657D01*
X1132Y-2421D01*
X896Y-2657D01*
X1132Y-2893D01*
X1132Y-4665D02*
X1368Y-4429D01*
X1132Y-4193D01*
X896Y-4429D01*
X1132Y-4665D01*
G54D13*
X1032Y-8939D02*
X1032Y-7758D01*
X1313Y-7758D01*
X1482Y-7814D01*
X1595Y-7926D01*
X1651Y-8039D01*
X1707Y-8264D01*
X1707Y-8433D01*
X1651Y-8658D01*
X1595Y-8770D01*
X1482Y-8883D01*
X1313Y-8939D01*
X1032Y-8939D01*
X2213Y-8939D02*
X2213Y-8151D01*
X2213Y-8376D02*
X2269Y-8264D01*
X2326Y-8208D01*
X2438Y-8151D01*
X2551Y-8151D01*
X2944Y-8939D02*
X2944Y-8151D01*
X2944Y-7758D02*
X2888Y-7814D01*
X2944Y-7870D01*
X3001Y-7814D01*
X2944Y-7758D01*
X2944Y-7870D01*
X3676Y-8939D02*
X3563Y-8883D01*
X3507Y-8770D01*
X3507Y-7758D01*
X4294Y-8939D02*
X4182Y-8883D01*
X4125Y-8770D01*
X4125Y-7758D01*
X5644Y-8939D02*
X5644Y-7758D01*
X6038Y-8601D01*
X6431Y-7758D01*
X6431Y-8939D01*
X7500Y-8939D02*
X7500Y-8320D01*
X7444Y-8208D01*
X7331Y-8151D01*
X7106Y-8151D01*
X6994Y-8208D01*
X7500Y-8883D02*
X7388Y-8939D01*
X7106Y-8939D01*
X6994Y-8883D01*
X6938Y-8770D01*
X6938Y-8658D01*
X6994Y-8545D01*
X7106Y-8489D01*
X7388Y-8489D01*
X7500Y-8433D01*
X8062Y-8151D02*
X8062Y-9332D01*
X8062Y-8208D02*
X8175Y-8151D01*
X8400Y-8151D01*
X8512Y-8208D01*
X8569Y-8264D01*
X8625Y-8376D01*
X8625Y-8714D01*
X8569Y-8826D01*
X8512Y-8883D01*
X8400Y-8939D01*
X8175Y-8939D01*
X8062Y-8883D01*
X9131Y-8826D02*
X9187Y-8883D01*
X9131Y-8939D01*
X9075Y-8883D01*
X9131Y-8826D01*
X9131Y-8939D01*
X9131Y-8208D02*
X9187Y-8264D01*
X9131Y-8320D01*
X9075Y-8264D01*
X9131Y-8208D01*
X9131Y-8320D01*
X-186Y-10866D02*
X-36Y-11016D01*
X-36Y-10866D02*
X-186Y-11016D01*
X1257Y-10238D02*
X1370Y-10238D01*
X1482Y-10294D01*
X1538Y-10350D01*
X1595Y-10463D01*
X1651Y-10688D01*
X1651Y-10969D01*
X1595Y-11194D01*
X1538Y-11307D01*
X1482Y-11363D01*
X1370Y-11419D01*
X1257Y-11419D01*
X1145Y-11363D01*
X1088Y-11307D01*
X1032Y-11194D01*
X976Y-10969D01*
X976Y-10688D01*
X1032Y-10463D01*
X1088Y-10350D01*
X1145Y-10294D01*
X1257Y-10238D01*
X2157Y-11307D02*
X2213Y-11363D01*
X2157Y-11419D01*
X2101Y-11363D01*
X2157Y-11307D01*
X2157Y-11419D01*
X2607Y-10238D02*
X3338Y-10238D01*
X2944Y-10688D01*
X3113Y-10688D01*
X3226Y-10744D01*
X3282Y-10800D01*
X3338Y-10913D01*
X3338Y-11194D01*
X3282Y-11307D01*
X3226Y-11363D01*
X3113Y-11419D01*
X2776Y-11419D01*
X2663Y-11363D01*
X2607Y-11307D01*
X4013Y-10744D02*
X3901Y-10688D01*
X3844Y-10632D01*
X3788Y-10519D01*
X3788Y-10463D01*
X3844Y-10350D01*
X3901Y-10294D01*
X4013Y-10238D01*
X4238Y-10238D01*
X4350Y-10294D01*
X4407Y-10350D01*
X4463Y-10463D01*
X4463Y-10519D01*
X4407Y-10632D01*
X4350Y-10688D01*
X4238Y-10744D01*
X4013Y-10744D01*
X3901Y-10800D01*
X3844Y-10857D01*
X3788Y-10969D01*
X3788Y-11194D01*
X3844Y-11307D01*
X3901Y-11363D01*
X4013Y-11419D01*
X4238Y-11419D01*
X4350Y-11363D01*
X4407Y-11307D01*
X4463Y-11194D01*
X4463Y-10969D01*
X4407Y-10857D01*
X4350Y-10800D01*
X4238Y-10744D01*
X4969Y-11419D02*
X4969Y-10632D01*
X4969Y-10744D02*
X5025Y-10688D01*
X5138Y-10632D01*
X5307Y-10632D01*
X5419Y-10688D01*
X5475Y-10800D01*
X5475Y-11419D01*
X5475Y-10800D02*
X5532Y-10688D01*
X5644Y-10632D01*
X5813Y-10632D01*
X5925Y-10688D01*
X5981Y-10800D01*
X5981Y-11419D01*
X6544Y-11419D02*
X6544Y-10632D01*
X6544Y-10744D02*
X6600Y-10688D01*
X6713Y-10632D01*
X6881Y-10632D01*
X6994Y-10688D01*
X7050Y-10800D01*
X7050Y-11419D01*
X7050Y-10800D02*
X7106Y-10688D01*
X7219Y-10632D01*
X7388Y-10632D01*
X7500Y-10688D01*
X7556Y-10800D01*
X7556Y-11419D01*
X9862Y-10182D02*
X8850Y-11700D01*
X11381Y-10238D02*
X11493Y-10238D01*
X11606Y-10294D01*
X11662Y-10350D01*
X11718Y-10463D01*
X11775Y-10688D01*
X11775Y-10969D01*
X11718Y-11194D01*
X11662Y-11307D01*
X11606Y-11363D01*
X11493Y-11419D01*
X11381Y-11419D01*
X11268Y-11363D01*
X11212Y-11307D01*
X11156Y-11194D01*
X11100Y-10969D01*
X11100Y-10688D01*
X11156Y-10463D01*
X11212Y-10350D01*
X11268Y-10294D01*
X11381Y-10238D01*
X12281Y-11307D02*
X12337Y-11363D01*
X12281Y-11419D01*
X12224Y-11363D01*
X12281Y-11307D01*
X12281Y-11419D01*
X13068Y-10238D02*
X13181Y-10238D01*
X13293Y-10294D01*
X13349Y-10350D01*
X13406Y-10463D01*
X13462Y-10688D01*
X13462Y-10969D01*
X13406Y-11194D01*
X13349Y-11307D01*
X13293Y-11363D01*
X13181Y-11419D01*
X13068Y-11419D01*
X12956Y-11363D01*
X12899Y-11307D01*
X12843Y-11194D01*
X12787Y-10969D01*
X12787Y-10688D01*
X12843Y-10463D01*
X12899Y-10350D01*
X12956Y-10294D01*
X13068Y-10238D01*
X14587Y-11419D02*
X13912Y-11419D01*
X14249Y-11419D02*
X14249Y-10238D01*
X14137Y-10407D01*
X14024Y-10519D01*
X13912Y-10575D01*
X15655Y-10238D02*
X15093Y-10238D01*
X15037Y-10800D01*
X15093Y-10744D01*
X15205Y-10688D01*
X15487Y-10688D01*
X15599Y-10744D01*
X15655Y-10800D01*
X15712Y-10913D01*
X15712Y-11194D01*
X15655Y-11307D01*
X15599Y-11363D01*
X15487Y-11419D01*
X15205Y-11419D01*
X15093Y-11363D01*
X15037Y-11307D01*
X16161Y-10238D02*
X16161Y-10463D01*
X16611Y-10238D02*
X16611Y-10463D01*
X18355Y-11869D02*
X18299Y-11813D01*
X18186Y-11644D01*
X18130Y-11532D01*
X18074Y-11363D01*
X18017Y-11082D01*
X18017Y-10857D01*
X18074Y-10575D01*
X18130Y-10407D01*
X18186Y-10294D01*
X18299Y-10126D01*
X18355Y-10069D01*
X19367Y-10238D02*
X18805Y-10238D01*
X18749Y-10800D01*
X18805Y-10744D01*
X18917Y-10688D01*
X19199Y-10688D01*
X19311Y-10744D01*
X19367Y-10800D01*
X19424Y-10913D01*
X19424Y-11194D01*
X19367Y-11307D01*
X19311Y-11363D01*
X19199Y-11419D01*
X18917Y-11419D01*
X18805Y-11363D01*
X18749Y-11307D01*
X20830Y-11419D02*
X20830Y-10238D01*
X21336Y-11419D02*
X21336Y-10800D01*
X21280Y-10688D01*
X21167Y-10632D01*
X20998Y-10632D01*
X20886Y-10688D01*
X20830Y-10744D01*
X22067Y-11419D02*
X21955Y-11363D01*
X21898Y-11307D01*
X21842Y-11194D01*
X21842Y-10857D01*
X21898Y-10744D01*
X21955Y-10688D01*
X22067Y-10632D01*
X22236Y-10632D01*
X22348Y-10688D01*
X22404Y-10744D01*
X22461Y-10857D01*
X22461Y-11194D01*
X22404Y-11307D01*
X22348Y-11363D01*
X22236Y-11419D01*
X22067Y-11419D01*
X23136Y-11419D02*
X23023Y-11363D01*
X22967Y-11250D01*
X22967Y-10238D01*
X24035Y-11363D02*
X23923Y-11419D01*
X23698Y-11419D01*
X23586Y-11363D01*
X23529Y-11250D01*
X23529Y-10800D01*
X23586Y-10688D01*
X23698Y-10632D01*
X23923Y-10632D01*
X24035Y-10688D01*
X24092Y-10800D01*
X24092Y-10913D01*
X23529Y-11025D01*
X24542Y-11363D02*
X24654Y-11419D01*
X24879Y-11419D01*
X24992Y-11363D01*
X25048Y-11250D01*
X25048Y-11194D01*
X24992Y-11082D01*
X24879Y-11025D01*
X24710Y-11025D01*
X24598Y-10969D01*
X24542Y-10857D01*
X24542Y-10800D01*
X24598Y-10688D01*
X24710Y-10632D01*
X24879Y-10632D01*
X24992Y-10688D01*
X25442Y-11869D02*
X25498Y-11813D01*
X25610Y-11644D01*
X25667Y-11532D01*
X25723Y-11363D01*
X25779Y-11082D01*
X25779Y-10857D01*
X25723Y-10575D01*
X25667Y-10407D01*
X25610Y-10294D01*
X25498Y-10126D01*
X25442Y-10069D01*
G54D12*
X-36Y-12500D02*
G75*
G03X-36Y-12500I-100J0D01*
G74*
G01*
G54D13*
X1257Y-11797D02*
X1370Y-11797D01*
X1482Y-11853D01*
X1538Y-11910D01*
X1595Y-12022D01*
X1651Y-12247D01*
X1651Y-12528D01*
X1595Y-12753D01*
X1538Y-12866D01*
X1482Y-12922D01*
X1370Y-12978D01*
X1257Y-12978D01*
X1145Y-12922D01*
X1088Y-12866D01*
X1032Y-12753D01*
X976Y-12528D01*
X976Y-12247D01*
X1032Y-12022D01*
X1088Y-11910D01*
X1145Y-11853D01*
X1257Y-11797D01*
X2157Y-12866D02*
X2213Y-12922D01*
X2157Y-12978D01*
X2101Y-12922D01*
X2157Y-12866D01*
X2157Y-12978D01*
X3282Y-11797D02*
X2719Y-11797D01*
X2663Y-12359D01*
X2719Y-12303D01*
X2832Y-12247D01*
X3113Y-12247D01*
X3226Y-12303D01*
X3282Y-12359D01*
X3338Y-12472D01*
X3338Y-12753D01*
X3282Y-12866D01*
X3226Y-12922D01*
X3113Y-12978D01*
X2832Y-12978D01*
X2719Y-12922D01*
X2663Y-12866D01*
X4463Y-12978D02*
X3788Y-12978D01*
X4125Y-12978D02*
X4125Y-11797D01*
X4013Y-11966D01*
X3901Y-12078D01*
X3788Y-12135D01*
X4969Y-12978D02*
X4969Y-12191D01*
X4969Y-12303D02*
X5025Y-12247D01*
X5138Y-12191D01*
X5307Y-12191D01*
X5419Y-12247D01*
X5475Y-12359D01*
X5475Y-12978D01*
X5475Y-12359D02*
X5532Y-12247D01*
X5644Y-12191D01*
X5813Y-12191D01*
X5925Y-12247D01*
X5981Y-12359D01*
X5981Y-12978D01*
X6544Y-12978D02*
X6544Y-12191D01*
X6544Y-12303D02*
X6600Y-12247D01*
X6713Y-12191D01*
X6881Y-12191D01*
X6994Y-12247D01*
X7050Y-12359D01*
X7050Y-12978D01*
X7050Y-12359D02*
X7106Y-12247D01*
X7219Y-12191D01*
X7388Y-12191D01*
X7500Y-12247D01*
X7556Y-12359D01*
X7556Y-12978D01*
X9862Y-11741D02*
X8850Y-13259D01*
X11381Y-11797D02*
X11493Y-11797D01*
X11606Y-11853D01*
X11662Y-11910D01*
X11718Y-12022D01*
X11775Y-12247D01*
X11775Y-12528D01*
X11718Y-12753D01*
X11662Y-12866D01*
X11606Y-12922D01*
X11493Y-12978D01*
X11381Y-12978D01*
X11268Y-12922D01*
X11212Y-12866D01*
X11156Y-12753D01*
X11100Y-12528D01*
X11100Y-12247D01*
X11156Y-12022D01*
X11212Y-11910D01*
X11268Y-11853D01*
X11381Y-11797D01*
X12281Y-12866D02*
X12337Y-12922D01*
X12281Y-12978D01*
X12224Y-12922D01*
X12281Y-12866D01*
X12281Y-12978D01*
X13068Y-11797D02*
X13181Y-11797D01*
X13293Y-11853D01*
X13349Y-11910D01*
X13406Y-12022D01*
X13462Y-12247D01*
X13462Y-12528D01*
X13406Y-12753D01*
X13349Y-12866D01*
X13293Y-12922D01*
X13181Y-12978D01*
X13068Y-12978D01*
X12956Y-12922D01*
X12899Y-12866D01*
X12843Y-12753D01*
X12787Y-12528D01*
X12787Y-12247D01*
X12843Y-12022D01*
X12899Y-11910D01*
X12956Y-11853D01*
X13068Y-11797D01*
X13912Y-11910D02*
X13968Y-11853D01*
X14080Y-11797D01*
X14362Y-11797D01*
X14474Y-11853D01*
X14530Y-11910D01*
X14587Y-12022D01*
X14587Y-12135D01*
X14530Y-12303D01*
X13856Y-12978D01*
X14587Y-12978D01*
X15318Y-11797D02*
X15430Y-11797D01*
X15543Y-11853D01*
X15599Y-11910D01*
X15655Y-12022D01*
X15712Y-12247D01*
X15712Y-12528D01*
X15655Y-12753D01*
X15599Y-12866D01*
X15543Y-12922D01*
X15430Y-12978D01*
X15318Y-12978D01*
X15205Y-12922D01*
X15149Y-12866D01*
X15093Y-12753D01*
X15037Y-12528D01*
X15037Y-12247D01*
X15093Y-12022D01*
X15149Y-11910D01*
X15205Y-11853D01*
X15318Y-11797D01*
X16161Y-11797D02*
X16161Y-12022D01*
X16611Y-11797D02*
X16611Y-12022D01*
X18355Y-13428D02*
X18299Y-13372D01*
X18186Y-13203D01*
X18130Y-13091D01*
X18074Y-12922D01*
X18017Y-12641D01*
X18017Y-12416D01*
X18074Y-12135D01*
X18130Y-11966D01*
X18186Y-11853D01*
X18299Y-11685D01*
X18355Y-11628D01*
X19367Y-11797D02*
X18805Y-11797D01*
X18749Y-12359D01*
X18805Y-12303D01*
X18917Y-12247D01*
X19199Y-12247D01*
X19311Y-12303D01*
X19367Y-12359D01*
X19424Y-12472D01*
X19424Y-12753D01*
X19367Y-12866D01*
X19311Y-12922D01*
X19199Y-12978D01*
X18917Y-12978D01*
X18805Y-12922D01*
X18749Y-12866D01*
X19817Y-11797D02*
X20605Y-11797D01*
X20098Y-12978D01*
X21955Y-12978D02*
X21955Y-11797D01*
X22461Y-12978D02*
X22461Y-12359D01*
X22404Y-12247D01*
X22292Y-12191D01*
X22123Y-12191D01*
X22011Y-12247D01*
X21955Y-12303D01*
X23192Y-12978D02*
X23079Y-12922D01*
X23023Y-12866D01*
X22967Y-12753D01*
X22967Y-12416D01*
X23023Y-12303D01*
X23079Y-12247D01*
X23192Y-12191D01*
X23361Y-12191D01*
X23473Y-12247D01*
X23529Y-12303D01*
X23586Y-12416D01*
X23586Y-12753D01*
X23529Y-12866D01*
X23473Y-12922D01*
X23361Y-12978D01*
X23192Y-12978D01*
X24260Y-12978D02*
X24148Y-12922D01*
X24092Y-12809D01*
X24092Y-11797D01*
X25160Y-12922D02*
X25048Y-12978D01*
X24823Y-12978D01*
X24710Y-12922D01*
X24654Y-12809D01*
X24654Y-12359D01*
X24710Y-12247D01*
X24823Y-12191D01*
X25048Y-12191D01*
X25160Y-12247D01*
X25217Y-12359D01*
X25217Y-12472D01*
X24654Y-12584D01*
X25667Y-12922D02*
X25779Y-12978D01*
X26004Y-12978D01*
X26116Y-12922D01*
X26173Y-12809D01*
X26173Y-12753D01*
X26116Y-12641D01*
X26004Y-12584D01*
X25835Y-12584D01*
X25723Y-12528D01*
X25667Y-12416D01*
X25667Y-12359D01*
X25723Y-12247D01*
X25835Y-12191D01*
X26004Y-12191D01*
X26116Y-12247D01*
X26566Y-13428D02*
X26623Y-13372D01*
X26735Y-13203D01*
X26791Y-13091D01*
X26848Y-12922D01*
X26904Y-12641D01*
X26904Y-12416D01*
X26848Y-12135D01*
X26791Y-11966D01*
X26735Y-11853D01*
X26623Y-11685D01*
X26566Y-11628D01*
X-142Y-13953D02*
X-142Y-14166D01*
X-249Y-14059D02*
X-36Y-14059D01*
X1257Y-13356D02*
X1370Y-13356D01*
X1482Y-13412D01*
X1538Y-13469D01*
X1595Y-13581D01*
X1651Y-13806D01*
X1651Y-14087D01*
X1595Y-14312D01*
X1538Y-14425D01*
X1482Y-14481D01*
X1370Y-14537D01*
X1257Y-14537D01*
X1145Y-14481D01*
X1088Y-14425D01*
X1032Y-14312D01*
X976Y-14087D01*
X976Y-13806D01*
X1032Y-13581D01*
X1088Y-13469D01*
X1145Y-13412D01*
X1257Y-13356D01*
X2157Y-14425D02*
X2213Y-14481D01*
X2157Y-14537D01*
X2101Y-14481D01*
X2157Y-14425D01*
X2157Y-14537D01*
X3282Y-13356D02*
X2719Y-13356D01*
X2663Y-13919D01*
X2719Y-13862D01*
X2832Y-13806D01*
X3113Y-13806D01*
X3226Y-13862D01*
X3282Y-13919D01*
X3338Y-14031D01*
X3338Y-14312D01*
X3282Y-14425D01*
X3226Y-14481D01*
X3113Y-14537D01*
X2832Y-14537D01*
X2719Y-14481D01*
X2663Y-14425D01*
X4350Y-13750D02*
X4350Y-14537D01*
X4069Y-13300D02*
X3788Y-14144D01*
X4519Y-14144D01*
X4969Y-14537D02*
X4969Y-13750D01*
X4969Y-13862D02*
X5025Y-13806D01*
X5138Y-13750D01*
X5307Y-13750D01*
X5419Y-13806D01*
X5475Y-13919D01*
X5475Y-14537D01*
X5475Y-13919D02*
X5532Y-13806D01*
X5644Y-13750D01*
X5813Y-13750D01*
X5925Y-13806D01*
X5981Y-13919D01*
X5981Y-14537D01*
X6544Y-14537D02*
X6544Y-13750D01*
X6544Y-13862D02*
X6600Y-13806D01*
X6713Y-13750D01*
X6881Y-13750D01*
X6994Y-13806D01*
X7050Y-13919D01*
X7050Y-14537D01*
X7050Y-13919D02*
X7106Y-13806D01*
X7219Y-13750D01*
X7388Y-13750D01*
X7500Y-13806D01*
X7556Y-13919D01*
X7556Y-14537D01*
X9862Y-13300D02*
X8850Y-14818D01*
X11381Y-13356D02*
X11493Y-13356D01*
X11606Y-13412D01*
X11662Y-13469D01*
X11718Y-13581D01*
X11775Y-13806D01*
X11775Y-14087D01*
X11718Y-14312D01*
X11662Y-14425D01*
X11606Y-14481D01*
X11493Y-14537D01*
X11381Y-14537D01*
X11268Y-14481D01*
X11212Y-14425D01*
X11156Y-14312D01*
X11100Y-14087D01*
X11100Y-13806D01*
X11156Y-13581D01*
X11212Y-13469D01*
X11268Y-13412D01*
X11381Y-13356D01*
X12281Y-14425D02*
X12337Y-14481D01*
X12281Y-14537D01*
X12224Y-14481D01*
X12281Y-14425D01*
X12281Y-14537D01*
X13068Y-13356D02*
X13181Y-13356D01*
X13293Y-13412D01*
X13349Y-13469D01*
X13406Y-13581D01*
X13462Y-13806D01*
X13462Y-14087D01*
X13406Y-14312D01*
X13349Y-14425D01*
X13293Y-14481D01*
X13181Y-14537D01*
X13068Y-14537D01*
X12956Y-14481D01*
X12899Y-14425D01*
X12843Y-14312D01*
X12787Y-14087D01*
X12787Y-13806D01*
X12843Y-13581D01*
X12899Y-13469D01*
X12956Y-13412D01*
X13068Y-13356D01*
X13912Y-13469D02*
X13968Y-13412D01*
X14080Y-13356D01*
X14362Y-13356D01*
X14474Y-13412D01*
X14530Y-13469D01*
X14587Y-13581D01*
X14587Y-13694D01*
X14530Y-13862D01*
X13856Y-14537D01*
X14587Y-14537D01*
X15712Y-14537D02*
X15037Y-14537D01*
X15374Y-14537D02*
X15374Y-13356D01*
X15262Y-13525D01*
X15149Y-13637D01*
X15037Y-13694D01*
X16161Y-13356D02*
X16161Y-13581D01*
X16611Y-13356D02*
X16611Y-13581D01*
X18355Y-14987D02*
X18299Y-14931D01*
X18186Y-14762D01*
X18130Y-14650D01*
X18074Y-14481D01*
X18017Y-14200D01*
X18017Y-13975D01*
X18074Y-13694D01*
X18130Y-13525D01*
X18186Y-13412D01*
X18299Y-13244D01*
X18355Y-13187D01*
X19030Y-13356D02*
X19142Y-13356D01*
X19255Y-13412D01*
X19311Y-13469D01*
X19367Y-13581D01*
X19424Y-13806D01*
X19424Y-14087D01*
X19367Y-14312D01*
X19311Y-14425D01*
X19255Y-14481D01*
X19142Y-14537D01*
X19030Y-14537D01*
X18917Y-14481D01*
X18861Y-14425D01*
X18805Y-14312D01*
X18749Y-14087D01*
X18749Y-13806D01*
X18805Y-13581D01*
X18861Y-13469D01*
X18917Y-13412D01*
X19030Y-13356D01*
X20830Y-14537D02*
X20830Y-13356D01*
X21336Y-14537D02*
X21336Y-13919D01*
X21280Y-13806D01*
X21167Y-13750D01*
X20998Y-13750D01*
X20886Y-13806D01*
X20830Y-13862D01*
X22067Y-14537D02*
X21955Y-14481D01*
X21898Y-14425D01*
X21842Y-14312D01*
X21842Y-13975D01*
X21898Y-13862D01*
X21955Y-13806D01*
X22067Y-13750D01*
X22236Y-13750D01*
X22348Y-13806D01*
X22404Y-13862D01*
X22461Y-13975D01*
X22461Y-14312D01*
X22404Y-14425D01*
X22348Y-14481D01*
X22236Y-14537D01*
X22067Y-14537D01*
X23136Y-14537D02*
X23023Y-14481D01*
X22967Y-14368D01*
X22967Y-13356D01*
X24035Y-14481D02*
X23923Y-14537D01*
X23698Y-14537D01*
X23586Y-14481D01*
X23529Y-14368D01*
X23529Y-13919D01*
X23586Y-13806D01*
X23698Y-13750D01*
X23923Y-13750D01*
X24035Y-13806D01*
X24092Y-13919D01*
X24092Y-14031D01*
X23529Y-14144D01*
X24542Y-14481D02*
X24654Y-14537D01*
X24879Y-14537D01*
X24992Y-14481D01*
X25048Y-14368D01*
X25048Y-14312D01*
X24992Y-14200D01*
X24879Y-14144D01*
X24710Y-14144D01*
X24598Y-14087D01*
X24542Y-13975D01*
X24542Y-13919D01*
X24598Y-13806D01*
X24710Y-13750D01*
X24879Y-13750D01*
X24992Y-13806D01*
X26454Y-14087D02*
X27354Y-14087D01*
X26904Y-14537D02*
X26904Y-13637D01*
X28760Y-13469D02*
X28816Y-13412D01*
X28929Y-13356D01*
X29210Y-13356D01*
X29322Y-13412D01*
X29379Y-13469D01*
X29435Y-13581D01*
X29435Y-13694D01*
X29379Y-13862D01*
X28704Y-14537D01*
X29435Y-14537D01*
X30785Y-14481D02*
X30897Y-14537D01*
X31122Y-14537D01*
X31235Y-14481D01*
X31291Y-14368D01*
X31291Y-14312D01*
X31235Y-14200D01*
X31122Y-14144D01*
X30953Y-14144D01*
X30841Y-14087D01*
X30785Y-13975D01*
X30785Y-13919D01*
X30841Y-13806D01*
X30953Y-13750D01*
X31122Y-13750D01*
X31235Y-13806D01*
X31966Y-14537D02*
X31853Y-14481D01*
X31797Y-14368D01*
X31797Y-13356D01*
X32584Y-14537D02*
X32472Y-14481D01*
X32416Y-14425D01*
X32359Y-14312D01*
X32359Y-13975D01*
X32416Y-13862D01*
X32472Y-13806D01*
X32584Y-13750D01*
X32753Y-13750D01*
X32866Y-13806D01*
X32922Y-13862D01*
X32978Y-13975D01*
X32978Y-14312D01*
X32922Y-14425D01*
X32866Y-14481D01*
X32753Y-14537D01*
X32584Y-14537D01*
X33316Y-13750D02*
X33766Y-13750D01*
X33484Y-13356D02*
X33484Y-14368D01*
X33541Y-14481D01*
X33653Y-14537D01*
X33766Y-14537D01*
X34103Y-14481D02*
X34215Y-14537D01*
X34440Y-14537D01*
X34553Y-14481D01*
X34609Y-14368D01*
X34609Y-14312D01*
X34553Y-14200D01*
X34440Y-14144D01*
X34272Y-14144D01*
X34159Y-14087D01*
X34103Y-13975D01*
X34103Y-13919D01*
X34159Y-13806D01*
X34272Y-13750D01*
X34440Y-13750D01*
X34553Y-13806D01*
X35003Y-14987D02*
X35059Y-14931D01*
X35172Y-14762D01*
X35228Y-14650D01*
X35284Y-14481D01*
X35340Y-14200D01*
X35340Y-13975D01*
X35284Y-13694D01*
X35228Y-13525D01*
X35172Y-13412D01*
X35059Y-13244D01*
X35003Y-13187D01*
G54D12*
X-94Y-15760D02*
X-94Y-15477D01*
X-377Y-15477D01*
X-377Y-15760D01*
X-94Y-15760D01*
G54D13*
X1651Y-16096D02*
X976Y-16096D01*
X1313Y-16096D02*
X1313Y-14915D01*
X1201Y-15084D01*
X1088Y-15196D01*
X976Y-15253D01*
X2157Y-15984D02*
X2213Y-16040D01*
X2157Y-16096D01*
X2101Y-16040D01*
X2157Y-15984D01*
X2157Y-16096D01*
X2944Y-14915D02*
X3057Y-14915D01*
X3169Y-14971D01*
X3226Y-15028D01*
X3282Y-15140D01*
X3338Y-15365D01*
X3338Y-15646D01*
X3282Y-15871D01*
X3226Y-15984D01*
X3169Y-16040D01*
X3057Y-16096D01*
X2944Y-16096D01*
X2832Y-16040D01*
X2776Y-15984D01*
X2719Y-15871D01*
X2663Y-15646D01*
X2663Y-15365D01*
X2719Y-15140D01*
X2776Y-15028D01*
X2832Y-14971D01*
X2944Y-14915D01*
X3788Y-15028D02*
X3844Y-14971D01*
X3957Y-14915D01*
X4238Y-14915D01*
X4350Y-14971D01*
X4407Y-15028D01*
X4463Y-15140D01*
X4463Y-15253D01*
X4407Y-15421D01*
X3732Y-16096D01*
X4463Y-16096D01*
X4969Y-16096D02*
X4969Y-15309D01*
X4969Y-15421D02*
X5025Y-15365D01*
X5138Y-15309D01*
X5307Y-15309D01*
X5419Y-15365D01*
X5475Y-15478D01*
X5475Y-16096D01*
X5475Y-15478D02*
X5532Y-15365D01*
X5644Y-15309D01*
X5813Y-15309D01*
X5925Y-15365D01*
X5981Y-15478D01*
X5981Y-16096D01*
X6544Y-16096D02*
X6544Y-15309D01*
X6544Y-15421D02*
X6600Y-15365D01*
X6713Y-15309D01*
X6881Y-15309D01*
X6994Y-15365D01*
X7050Y-15478D01*
X7050Y-16096D01*
X7050Y-15478D02*
X7106Y-15365D01*
X7219Y-15309D01*
X7388Y-15309D01*
X7500Y-15365D01*
X7556Y-15478D01*
X7556Y-16096D01*
X9862Y-14859D02*
X8850Y-16377D01*
X11381Y-14915D02*
X11493Y-14915D01*
X11606Y-14971D01*
X11662Y-15028D01*
X11718Y-15140D01*
X11775Y-15365D01*
X11775Y-15646D01*
X11718Y-15871D01*
X11662Y-15984D01*
X11606Y-16040D01*
X11493Y-16096D01*
X11381Y-16096D01*
X11268Y-16040D01*
X11212Y-15984D01*
X11156Y-15871D01*
X11100Y-15646D01*
X11100Y-15365D01*
X11156Y-15140D01*
X11212Y-15028D01*
X11268Y-14971D01*
X11381Y-14915D01*
X12281Y-15984D02*
X12337Y-16040D01*
X12281Y-16096D01*
X12224Y-16040D01*
X12281Y-15984D01*
X12281Y-16096D01*
X13068Y-14915D02*
X13181Y-14915D01*
X13293Y-14971D01*
X13349Y-15028D01*
X13406Y-15140D01*
X13462Y-15365D01*
X13462Y-15646D01*
X13406Y-15871D01*
X13349Y-15984D01*
X13293Y-16040D01*
X13181Y-16096D01*
X13068Y-16096D01*
X12956Y-16040D01*
X12899Y-15984D01*
X12843Y-15871D01*
X12787Y-15646D01*
X12787Y-15365D01*
X12843Y-15140D01*
X12899Y-15028D01*
X12956Y-14971D01*
X13068Y-14915D01*
X14474Y-15309D02*
X14474Y-16096D01*
X14193Y-14859D02*
X13912Y-15703D01*
X14643Y-15703D01*
X15318Y-14915D02*
X15430Y-14915D01*
X15543Y-14971D01*
X15599Y-15028D01*
X15655Y-15140D01*
X15712Y-15365D01*
X15712Y-15646D01*
X15655Y-15871D01*
X15599Y-15984D01*
X15543Y-16040D01*
X15430Y-16096D01*
X15318Y-16096D01*
X15205Y-16040D01*
X15149Y-15984D01*
X15093Y-15871D01*
X15037Y-15646D01*
X15037Y-15365D01*
X15093Y-15140D01*
X15149Y-15028D01*
X15205Y-14971D01*
X15318Y-14915D01*
X16161Y-14915D02*
X16161Y-15140D01*
X16611Y-14915D02*
X16611Y-15140D01*
X18355Y-16546D02*
X18299Y-16490D01*
X18186Y-16321D01*
X18130Y-16209D01*
X18074Y-16040D01*
X18017Y-15759D01*
X18017Y-15534D01*
X18074Y-15253D01*
X18130Y-15084D01*
X18186Y-14971D01*
X18299Y-14803D01*
X18355Y-14746D01*
X19424Y-16096D02*
X18749Y-16096D01*
X19086Y-16096D02*
X19086Y-14915D01*
X18974Y-15084D01*
X18861Y-15196D01*
X18749Y-15253D01*
X20155Y-14915D02*
X20267Y-14915D01*
X20380Y-14971D01*
X20436Y-15028D01*
X20492Y-15140D01*
X20548Y-15365D01*
X20548Y-15646D01*
X20492Y-15871D01*
X20436Y-15984D01*
X20380Y-16040D01*
X20267Y-16096D01*
X20155Y-16096D01*
X20042Y-16040D01*
X19986Y-15984D01*
X19930Y-15871D01*
X19874Y-15646D01*
X19874Y-15365D01*
X19930Y-15140D01*
X19986Y-15028D01*
X20042Y-14971D01*
X20155Y-14915D01*
X21955Y-16096D02*
X21955Y-14915D01*
X22461Y-16096D02*
X22461Y-15478D01*
X22404Y-15365D01*
X22292Y-15309D01*
X22123Y-15309D01*
X22011Y-15365D01*
X21955Y-15421D01*
X23192Y-16096D02*
X23079Y-16040D01*
X23023Y-15984D01*
X22967Y-15871D01*
X22967Y-15534D01*
X23023Y-15421D01*
X23079Y-15365D01*
X23192Y-15309D01*
X23361Y-15309D01*
X23473Y-15365D01*
X23529Y-15421D01*
X23586Y-15534D01*
X23586Y-15871D01*
X23529Y-15984D01*
X23473Y-16040D01*
X23361Y-16096D01*
X23192Y-16096D01*
X24260Y-16096D02*
X24148Y-16040D01*
X24092Y-15928D01*
X24092Y-14915D01*
X25160Y-16040D02*
X25048Y-16096D01*
X24823Y-16096D01*
X24710Y-16040D01*
X24654Y-15928D01*
X24654Y-15478D01*
X24710Y-15365D01*
X24823Y-15309D01*
X25048Y-15309D01*
X25160Y-15365D01*
X25217Y-15478D01*
X25217Y-15590D01*
X24654Y-15703D01*
X25667Y-16040D02*
X25779Y-16096D01*
X26004Y-16096D01*
X26116Y-16040D01*
X26173Y-15928D01*
X26173Y-15871D01*
X26116Y-15759D01*
X26004Y-15703D01*
X25835Y-15703D01*
X25723Y-15646D01*
X25667Y-15534D01*
X25667Y-15478D01*
X25723Y-15365D01*
X25835Y-15309D01*
X26004Y-15309D01*
X26116Y-15365D01*
X26566Y-16546D02*
X26623Y-16490D01*
X26735Y-16321D01*
X26791Y-16209D01*
X26848Y-16040D01*
X26904Y-15759D01*
X26904Y-15534D01*
X26848Y-15253D01*
X26791Y-15084D01*
X26735Y-14971D01*
X26623Y-14803D01*
X26566Y-14746D01*
G54D12*
X-272Y-17413D02*
X-36Y-17177D01*
X-272Y-16941D01*
X-508Y-17177D01*
X-272Y-17413D01*
G54D13*
X1651Y-17655D02*
X976Y-17655D01*
X1313Y-17655D02*
X1313Y-16474D01*
X1201Y-16643D01*
X1088Y-16755D01*
X976Y-16812D01*
X2157Y-17543D02*
X2213Y-17599D01*
X2157Y-17655D01*
X2101Y-17599D01*
X2157Y-17543D01*
X2157Y-17655D01*
X2663Y-16587D02*
X2719Y-16530D01*
X2832Y-16474D01*
X3113Y-16474D01*
X3226Y-16530D01*
X3282Y-16587D01*
X3338Y-16699D01*
X3338Y-16812D01*
X3282Y-16980D01*
X2607Y-17655D01*
X3338Y-17655D01*
X4069Y-16474D02*
X4182Y-16474D01*
X4294Y-16530D01*
X4350Y-16587D01*
X4407Y-16699D01*
X4463Y-16924D01*
X4463Y-17205D01*
X4407Y-17430D01*
X4350Y-17543D01*
X4294Y-17599D01*
X4182Y-17655D01*
X4069Y-17655D01*
X3957Y-17599D01*
X3901Y-17543D01*
X3844Y-17430D01*
X3788Y-17205D01*
X3788Y-16924D01*
X3844Y-16699D01*
X3901Y-16587D01*
X3957Y-16530D01*
X4069Y-16474D01*
X4969Y-17655D02*
X4969Y-16868D01*
X4969Y-16980D02*
X5025Y-16924D01*
X5138Y-16868D01*
X5307Y-16868D01*
X5419Y-16924D01*
X5475Y-17037D01*
X5475Y-17655D01*
X5475Y-17037D02*
X5532Y-16924D01*
X5644Y-16868D01*
X5813Y-16868D01*
X5925Y-16924D01*
X5981Y-17037D01*
X5981Y-17655D01*
X6544Y-17655D02*
X6544Y-16868D01*
X6544Y-16980D02*
X6600Y-16924D01*
X6713Y-16868D01*
X6881Y-16868D01*
X6994Y-16924D01*
X7050Y-17037D01*
X7050Y-17655D01*
X7050Y-17037D02*
X7106Y-16924D01*
X7219Y-16868D01*
X7388Y-16868D01*
X7500Y-16924D01*
X7556Y-17037D01*
X7556Y-17655D01*
X9862Y-16418D02*
X8850Y-17937D01*
X11381Y-16474D02*
X11493Y-16474D01*
X11606Y-16530D01*
X11662Y-16587D01*
X11718Y-16699D01*
X11775Y-16924D01*
X11775Y-17205D01*
X11718Y-17430D01*
X11662Y-17543D01*
X11606Y-17599D01*
X11493Y-17655D01*
X11381Y-17655D01*
X11268Y-17599D01*
X11212Y-17543D01*
X11156Y-17430D01*
X11100Y-17205D01*
X11100Y-16924D01*
X11156Y-16699D01*
X11212Y-16587D01*
X11268Y-16530D01*
X11381Y-16474D01*
X12281Y-17543D02*
X12337Y-17599D01*
X12281Y-17655D01*
X12224Y-17599D01*
X12281Y-17543D01*
X12281Y-17655D01*
X13068Y-16474D02*
X13181Y-16474D01*
X13293Y-16530D01*
X13349Y-16587D01*
X13406Y-16699D01*
X13462Y-16924D01*
X13462Y-17205D01*
X13406Y-17430D01*
X13349Y-17543D01*
X13293Y-17599D01*
X13181Y-17655D01*
X13068Y-17655D01*
X12956Y-17599D01*
X12899Y-17543D01*
X12843Y-17430D01*
X12787Y-17205D01*
X12787Y-16924D01*
X12843Y-16699D01*
X12899Y-16587D01*
X12956Y-16530D01*
X13068Y-16474D01*
X14474Y-16868D02*
X14474Y-17655D01*
X14193Y-16418D02*
X13912Y-17262D01*
X14643Y-17262D01*
X14980Y-16474D02*
X15768Y-16474D01*
X15262Y-17655D01*
X16161Y-16474D02*
X16161Y-16699D01*
X16611Y-16474D02*
X16611Y-16699D01*
X18355Y-18105D02*
X18299Y-18049D01*
X18186Y-17880D01*
X18130Y-17768D01*
X18074Y-17599D01*
X18017Y-17318D01*
X18017Y-17093D01*
X18074Y-16812D01*
X18130Y-16643D01*
X18186Y-16530D01*
X18299Y-16362D01*
X18355Y-16305D01*
X18749Y-16587D02*
X18805Y-16530D01*
X18917Y-16474D01*
X19199Y-16474D01*
X19311Y-16530D01*
X19367Y-16587D01*
X19424Y-16699D01*
X19424Y-16812D01*
X19367Y-16980D01*
X18692Y-17655D01*
X19424Y-17655D01*
X20830Y-17655D02*
X20830Y-16474D01*
X21336Y-17655D02*
X21336Y-17037D01*
X21280Y-16924D01*
X21167Y-16868D01*
X20998Y-16868D01*
X20886Y-16924D01*
X20830Y-16980D01*
X22067Y-17655D02*
X21955Y-17599D01*
X21898Y-17543D01*
X21842Y-17430D01*
X21842Y-17093D01*
X21898Y-16980D01*
X21955Y-16924D01*
X22067Y-16868D01*
X22236Y-16868D01*
X22348Y-16924D01*
X22404Y-16980D01*
X22461Y-17093D01*
X22461Y-17430D01*
X22404Y-17543D01*
X22348Y-17599D01*
X22236Y-17655D01*
X22067Y-17655D01*
X23136Y-17655D02*
X23023Y-17599D01*
X22967Y-17487D01*
X22967Y-16474D01*
X24035Y-17599D02*
X23923Y-17655D01*
X23698Y-17655D01*
X23586Y-17599D01*
X23529Y-17487D01*
X23529Y-17037D01*
X23586Y-16924D01*
X23698Y-16868D01*
X23923Y-16868D01*
X24035Y-16924D01*
X24092Y-17037D01*
X24092Y-17149D01*
X23529Y-17262D01*
X24542Y-17599D02*
X24654Y-17655D01*
X24879Y-17655D01*
X24992Y-17599D01*
X25048Y-17487D01*
X25048Y-17430D01*
X24992Y-17318D01*
X24879Y-17262D01*
X24710Y-17262D01*
X24598Y-17205D01*
X24542Y-17093D01*
X24542Y-17037D01*
X24598Y-16924D01*
X24710Y-16868D01*
X24879Y-16868D01*
X24992Y-16924D01*
X25442Y-18105D02*
X25498Y-18049D01*
X25610Y-17880D01*
X25667Y-17768D01*
X25723Y-17599D01*
X25779Y-17318D01*
X25779Y-17093D01*
X25723Y-16812D01*
X25667Y-16643D01*
X25610Y-16530D01*
X25498Y-16362D01*
X25442Y-16305D01*
M02*
