G04 (created by PCBNEW (2013-07-07 BZR 4022)-stable) date 2015/9/10 11:53:31*
%MOIN*%
G04 Gerber Fmt 3.4, Leading zero omitted, Abs format*
%FSLAX34Y34*%
G01*
G70*
G90*
G04 APERTURE LIST*
%ADD10C,0.00590551*%
%ADD11R,0.045X0.025*%
%ADD12R,0.025X0.045*%
%ADD13R,0.16X0.06*%
%ADD14R,0.0748X0.0433*%
%ADD15R,0.0236X0.0098*%
%ADD16R,0.0098X0.0236*%
%ADD17R,0.02X0.03*%
%ADD18R,0.03X0.02*%
%ADD19R,0.06X0.06*%
%ADD20C,0.06*%
%ADD21R,0.0394X0.0236*%
%ADD22R,0.0314X0.0314*%
%ADD23R,0.0768X0.0402*%
%ADD24R,0.1024X0.0315*%
%ADD25C,0.0472*%
%ADD26R,0.0236X0.0157*%
%ADD27R,0.0157X0.0236*%
%ADD28C,0.025*%
%ADD29C,0.01*%
%ADD30C,0.02*%
G04 APERTURE END LIST*
G54D10*
G54D11*
X10236Y-5694D03*
X10236Y-5094D03*
X10236Y-6717D03*
X10236Y-6117D03*
G54D12*
X5615Y-3819D03*
X5015Y-3819D03*
X8480Y-433D03*
X9080Y-433D03*
X5615Y-4488D03*
X5015Y-4488D03*
X3568Y-3031D03*
X2968Y-3031D03*
X3568Y-3661D03*
X2968Y-3661D03*
G54D11*
X2638Y-6039D03*
X2638Y-6639D03*
G54D13*
X12028Y-3543D03*
X12028Y-2543D03*
X12028Y-4543D03*
G54D14*
X3385Y-453D03*
X4803Y-453D03*
X3385Y-1437D03*
X4803Y-1437D03*
G54D15*
X6495Y-1593D03*
X6495Y-1790D03*
X6495Y-1987D03*
X6495Y-2184D03*
X6495Y-2380D03*
X6495Y-2577D03*
X6495Y-2774D03*
X6495Y-2971D03*
G54D16*
X7537Y-3227D03*
X7733Y-3227D03*
X7930Y-3227D03*
X8127Y-3227D03*
X6750Y-3227D03*
X6947Y-3227D03*
X7144Y-3227D03*
X7340Y-3227D03*
G54D15*
X8383Y-2969D03*
X8384Y-2772D03*
X8384Y-2576D03*
X8384Y-2379D03*
X8384Y-2182D03*
X8384Y-1985D03*
X8384Y-1788D03*
X8384Y-1591D03*
G54D16*
X8128Y-1336D03*
X7931Y-1336D03*
X7734Y-1336D03*
X7538Y-1336D03*
X7341Y-1336D03*
X7144Y-1336D03*
X6947Y-1336D03*
X6750Y-1336D03*
G54D17*
X3601Y-5894D03*
X4351Y-5894D03*
X3601Y-4894D03*
X3976Y-5894D03*
X4351Y-4894D03*
G54D18*
X8886Y-4548D03*
X8886Y-3798D03*
X7886Y-4548D03*
X8886Y-4173D03*
X7886Y-3798D03*
G54D11*
X2992Y-5576D03*
X2992Y-4976D03*
X4331Y-4394D03*
X4331Y-3794D03*
G54D12*
X3568Y-4291D03*
X2968Y-4291D03*
G54D19*
X5323Y-6445D03*
G54D20*
X5323Y-5445D03*
X6323Y-6445D03*
X6323Y-5445D03*
X7323Y-6445D03*
X7323Y-5445D03*
X8323Y-6445D03*
X8323Y-5445D03*
X9323Y-6445D03*
X9323Y-5445D03*
G54D12*
X7456Y-433D03*
X8056Y-433D03*
X7032Y-433D03*
X6432Y-433D03*
X3676Y-2087D03*
X4276Y-2087D03*
G54D11*
X5748Y-330D03*
X5748Y-930D03*
X5591Y-1590D03*
X5591Y-2190D03*
X6535Y-3834D03*
X6535Y-4434D03*
G54D12*
X8834Y-1063D03*
X9434Y-1063D03*
G54D21*
X2008Y-6575D03*
X1142Y-6575D03*
X3347Y-6575D03*
X4213Y-6575D03*
G54D22*
X10807Y-6181D03*
X11397Y-6181D03*
X10807Y-6693D03*
X11397Y-6693D03*
G54D23*
X2165Y-3149D03*
X2165Y-3937D03*
X2165Y-2165D03*
X2165Y-4921D03*
G54D24*
X1132Y-1232D03*
X1117Y-5854D03*
G54D25*
X1132Y-2657D03*
X1132Y-4429D03*
G54D26*
X9547Y-3366D03*
X9547Y-3720D03*
G54D27*
X10728Y-2441D03*
X10374Y-2441D03*
G54D26*
X10748Y-2027D03*
X10748Y-1673D03*
X9094Y-1949D03*
X9094Y-2303D03*
G54D27*
X9980Y-2441D03*
X9626Y-2441D03*
G54D26*
X9094Y-3149D03*
X9094Y-2795D03*
G54D12*
X9543Y-4567D03*
X10143Y-4567D03*
G54D28*
X7559Y-4921D03*
X5315Y-4134D03*
X5906Y-4882D03*
X2520Y-1732D03*
X7323Y-2874D03*
X6457Y-4764D03*
X10039Y-2953D03*
X5157Y-2402D03*
X11300Y-5400D03*
X4331Y-3386D03*
X3701Y-6260D03*
X9900Y-400D03*
X12400Y-900D03*
X7795Y-787D03*
X9823Y-3799D03*
X9800Y-1300D03*
X4685Y-2087D03*
X6181Y-1063D03*
X11772Y-6417D03*
X3425Y-906D03*
X10433Y-2953D03*
X8071Y-984D03*
X10900Y-400D03*
X9055Y-3543D03*
X10433Y-3346D03*
X7992Y-2756D03*
X12700Y-5400D03*
X12400Y-1900D03*
X10300Y-1700D03*
X10800Y-5400D03*
X12700Y-5900D03*
X12300Y-6700D03*
X12300Y-5400D03*
X10800Y-4900D03*
X10827Y-3740D03*
X11772Y-6732D03*
X12700Y-6400D03*
X9800Y-1700D03*
X11400Y-1900D03*
X10236Y-4134D03*
X6732Y-787D03*
X11800Y-5400D03*
X12400Y-400D03*
X8622Y-3189D03*
X10039Y-3543D03*
X2795Y-2165D03*
X12400Y-1400D03*
X4961Y-1850D03*
X9449Y-433D03*
X11400Y-400D03*
X10400Y-400D03*
X9800Y-900D03*
X11900Y-400D03*
X5362Y-3201D03*
X7087Y-945D03*
X8696Y-1490D03*
X11900Y-1900D03*
X10800Y-4400D03*
X4882Y-3386D03*
X2480Y-5433D03*
X8268Y-3622D03*
X9882Y-6417D03*
G54D29*
X8071Y-4134D02*
X7886Y-3949D01*
X8425Y-4134D02*
X8071Y-4134D01*
X8583Y-3976D02*
X8425Y-4134D01*
X7886Y-3673D02*
X7733Y-3520D01*
X7886Y-3798D02*
X7886Y-3673D01*
X8583Y-3543D02*
X8583Y-3976D01*
X7733Y-3520D02*
X7733Y-3227D01*
X7886Y-3949D02*
X7886Y-3798D01*
X8127Y-3227D02*
X8267Y-3227D01*
X8267Y-3227D02*
X8583Y-3543D01*
X8594Y-5445D02*
X9094Y-5945D01*
X7537Y-4899D02*
X7559Y-4921D01*
X9843Y-5275D02*
X10024Y-5094D01*
X9094Y-5945D02*
X9606Y-5945D01*
X9843Y-5708D02*
X9843Y-5275D01*
X8323Y-5445D02*
X8594Y-5445D01*
X9606Y-5945D02*
X9843Y-5708D01*
X10024Y-5094D02*
X10236Y-5094D01*
X7537Y-3227D02*
X7537Y-4899D01*
X7144Y-5266D02*
X7323Y-5445D01*
X7144Y-3227D02*
X7144Y-5266D01*
X5615Y-3819D02*
X5615Y-3834D01*
X6495Y-2774D02*
X6320Y-2774D01*
X5615Y-3479D02*
X5615Y-3819D01*
X6320Y-2774D02*
X5615Y-3479D01*
X5615Y-3834D02*
X5315Y-4134D01*
X5615Y-4591D02*
X5906Y-4882D01*
X6495Y-2971D02*
X6439Y-2971D01*
X5945Y-4158D02*
X5615Y-4488D01*
X5945Y-3465D02*
X5945Y-4158D01*
X6439Y-2971D02*
X5945Y-3465D01*
X5615Y-4488D02*
X5615Y-4591D01*
X6947Y-4943D02*
X6445Y-5445D01*
X6445Y-5445D02*
X6323Y-5445D01*
X6947Y-3227D02*
X6947Y-4943D01*
X3568Y-3597D02*
X4291Y-2874D01*
X5710Y-2874D02*
X6204Y-2380D01*
X6204Y-2380D02*
X6495Y-2380D01*
X4291Y-2874D02*
X5710Y-2874D01*
X3568Y-3661D02*
X3568Y-3597D01*
X3819Y-3031D02*
X4173Y-2677D01*
X4173Y-2677D02*
X5630Y-2677D01*
X5630Y-2677D02*
X6123Y-2184D01*
X6123Y-2184D02*
X6495Y-2184D01*
X3568Y-3031D02*
X3819Y-3031D01*
X8662Y-1063D02*
X8834Y-1063D01*
X6495Y-1987D02*
X6672Y-1987D01*
X5276Y-1929D02*
X5276Y-1771D01*
X8384Y-1341D02*
X8662Y-1063D01*
X8186Y-2576D02*
X7990Y-2380D01*
X8208Y-1591D02*
X8384Y-1591D01*
X6535Y-3622D02*
X6750Y-3407D01*
X7835Y-5787D02*
X7835Y-4599D01*
X3544Y-2480D02*
X4725Y-2480D01*
X4684Y-4094D02*
X5015Y-4425D01*
X7811Y-1591D02*
X8384Y-1591D01*
X6809Y-1711D02*
X6809Y-1887D01*
X3601Y-4894D02*
X3601Y-4324D01*
X4527Y-5512D02*
X4960Y-5945D01*
X3601Y-4324D02*
X3568Y-4291D01*
X6672Y-1987D02*
X6750Y-2065D01*
X6750Y-3407D02*
X6750Y-3227D01*
X6023Y-5945D02*
X7677Y-5945D01*
X5684Y-1590D02*
X6081Y-1987D01*
X5827Y-5158D02*
X5827Y-5749D01*
X3976Y-4094D02*
X4684Y-4094D01*
X7734Y-1336D02*
X7734Y-1514D01*
X5827Y-5749D02*
X6023Y-5945D01*
X6142Y-6890D02*
X6878Y-6890D01*
X5015Y-4543D02*
X5433Y-4961D01*
X5669Y-5945D02*
X5827Y-6103D01*
X4960Y-5945D02*
X5669Y-5945D01*
X6709Y-1987D02*
X6495Y-1987D01*
X5433Y-4961D02*
X5630Y-4961D01*
X3976Y-5078D02*
X4410Y-5512D01*
X7990Y-2380D02*
X7990Y-1809D01*
X3568Y-4291D02*
X3568Y-4316D01*
X5827Y-6103D02*
X5827Y-6575D01*
X8384Y-1591D02*
X8384Y-1341D01*
X6691Y-1593D02*
X6809Y-1711D01*
X5457Y-1590D02*
X5591Y-1590D01*
X8384Y-2576D02*
X8186Y-2576D01*
X4725Y-2480D02*
X5276Y-1929D01*
X3568Y-4277D02*
X3268Y-3977D01*
X5276Y-1771D02*
X5457Y-1590D01*
X3568Y-4291D02*
X3779Y-4291D01*
X6750Y-2065D02*
X6750Y-3227D01*
X3976Y-4724D02*
X3976Y-5078D01*
X7835Y-4599D02*
X7886Y-4548D01*
X5015Y-4425D02*
X5015Y-4488D01*
X3268Y-3977D02*
X3268Y-2756D01*
X7677Y-5945D02*
X7835Y-5787D01*
X4410Y-5512D02*
X4527Y-5512D01*
X6878Y-6890D02*
X7323Y-6445D01*
X3568Y-4291D02*
X3568Y-4277D01*
X5827Y-6575D02*
X6142Y-6890D01*
X6495Y-1593D02*
X6691Y-1593D01*
X6809Y-1887D02*
X6709Y-1987D01*
X6535Y-3834D02*
X6535Y-3622D01*
X3268Y-2756D02*
X3544Y-2480D01*
X7809Y-1593D02*
X7811Y-1591D01*
X3779Y-4291D02*
X3976Y-4094D01*
X5630Y-4961D02*
X5827Y-5158D01*
X5591Y-1590D02*
X5684Y-1590D01*
X7734Y-1514D02*
X7811Y-1591D01*
X3568Y-4316D02*
X3976Y-4724D01*
X6495Y-1593D02*
X7809Y-1593D01*
X7990Y-1809D02*
X8208Y-1591D01*
X6081Y-1987D02*
X6495Y-1987D01*
X5015Y-4488D02*
X5015Y-4543D01*
X2937Y-4976D02*
X2480Y-5433D01*
X6495Y-2577D02*
X6253Y-2577D01*
X9800Y-1700D02*
X9800Y-1300D01*
X7931Y-1124D02*
X8071Y-984D01*
X5015Y-3819D02*
X5015Y-3519D01*
X7144Y-1336D02*
X7144Y-1002D01*
X5748Y-930D02*
X6048Y-930D01*
X7144Y-1002D02*
X7087Y-945D01*
X10400Y-400D02*
X9900Y-400D01*
X2165Y-2165D02*
X2795Y-2165D01*
X8383Y-2969D02*
X8402Y-2969D01*
X6432Y-433D02*
X6432Y-487D01*
X8886Y-3798D02*
X8886Y-3712D01*
X6432Y-487D02*
X6732Y-787D01*
X5015Y-3519D02*
X4882Y-3386D01*
X10721Y-1700D02*
X10748Y-1673D01*
X4803Y-1692D02*
X4961Y-1850D01*
X11279Y-1673D02*
X10748Y-1673D01*
X11400Y-400D02*
X10900Y-400D01*
X8056Y-526D02*
X7795Y-787D01*
X4803Y-1437D02*
X4803Y-1692D01*
X7931Y-1336D02*
X7931Y-1124D01*
X8384Y-2772D02*
X8008Y-2772D01*
X2992Y-4976D02*
X2937Y-4976D01*
X12400Y-1400D02*
X12400Y-900D01*
X3385Y-866D02*
X3425Y-906D01*
X9823Y-3799D02*
X9823Y-3759D01*
X5591Y-2190D02*
X5369Y-2190D01*
X3976Y-5894D02*
X3976Y-5985D01*
X9547Y-3720D02*
X9744Y-3720D01*
X6048Y-930D02*
X6181Y-1063D01*
X10039Y-2953D02*
X10433Y-2953D01*
X8558Y-1788D02*
X8696Y-1650D01*
X7340Y-3227D02*
X7340Y-2891D01*
X9800Y-900D02*
X9637Y-1063D01*
X8008Y-2772D02*
X7992Y-2756D01*
X5516Y-3047D02*
X5362Y-3201D01*
X9823Y-3759D02*
X10039Y-3543D01*
X11397Y-6181D02*
X11536Y-6181D01*
X6253Y-2577D02*
X5783Y-3047D01*
X4331Y-3794D02*
X4331Y-3386D01*
X2165Y-2087D02*
X2520Y-1732D01*
X8056Y-433D02*
X8056Y-526D01*
X9744Y-3720D02*
X9823Y-3799D01*
X3385Y-453D02*
X3385Y-866D01*
X7340Y-2891D02*
X7323Y-2874D01*
X10433Y-3346D02*
X10827Y-3740D01*
X8886Y-3712D02*
X9055Y-3543D01*
X10120Y-3720D02*
X9547Y-3720D01*
X11397Y-6693D02*
X11733Y-6693D01*
X3976Y-5985D02*
X3701Y-6260D01*
X10800Y-4400D02*
X10120Y-3720D01*
X11900Y-1900D02*
X12400Y-1900D01*
X12400Y-400D02*
X11900Y-400D01*
X10800Y-4900D02*
X10800Y-5400D01*
X10143Y-4567D02*
X10143Y-4227D01*
X11733Y-6693D02*
X11772Y-6732D01*
X11536Y-6181D02*
X11772Y-6417D01*
X10300Y-1700D02*
X10721Y-1700D01*
X12268Y-6732D02*
X11772Y-6732D01*
X5783Y-3047D02*
X5516Y-3047D01*
X12300Y-5400D02*
X12700Y-5400D01*
X12300Y-6700D02*
X12268Y-6732D01*
X11300Y-5400D02*
X11800Y-5400D01*
X10143Y-4227D02*
X10236Y-4134D01*
X12700Y-5900D02*
X12700Y-6400D01*
X4276Y-2087D02*
X4685Y-2087D01*
X9449Y-433D02*
X9080Y-433D01*
X11400Y-1794D02*
X11279Y-1673D01*
X6535Y-4686D02*
X6457Y-4764D01*
X8384Y-1788D02*
X8558Y-1788D01*
X5369Y-2190D02*
X5157Y-2402D01*
X2165Y-2165D02*
X2165Y-2087D01*
X9637Y-1063D02*
X9434Y-1063D01*
X8696Y-1650D02*
X8696Y-1490D01*
X11400Y-1900D02*
X11400Y-1794D01*
X8402Y-2969D02*
X8622Y-3189D01*
X6535Y-4434D02*
X6535Y-4686D01*
X6850Y-1063D02*
X6535Y-1063D01*
X6947Y-1336D02*
X6947Y-1160D01*
X5748Y-330D02*
X4926Y-330D01*
X6535Y-1063D02*
X5802Y-330D01*
X4926Y-330D02*
X4803Y-453D01*
X5802Y-330D02*
X5748Y-330D01*
X6947Y-1160D02*
X6850Y-1063D01*
X4252Y-1063D02*
X3878Y-1437D01*
X3878Y-1437D02*
X3385Y-1437D01*
X5236Y-1063D02*
X4252Y-1063D01*
X5509Y-1336D02*
X5236Y-1063D01*
X3385Y-1437D02*
X3385Y-1796D01*
X6750Y-1336D02*
X5509Y-1336D01*
X3385Y-1796D02*
X3676Y-2087D01*
X2678Y-3149D02*
X2796Y-3031D01*
X2165Y-3149D02*
X2678Y-3149D01*
X2796Y-3031D02*
X2968Y-3031D01*
X2165Y-3937D02*
X2559Y-3937D01*
X2835Y-3661D02*
X2968Y-3661D01*
X2559Y-3937D02*
X2835Y-3661D01*
X4351Y-4894D02*
X4351Y-4414D01*
X4351Y-4414D02*
X4331Y-4394D01*
X1969Y-5866D02*
X1969Y-5117D01*
X1969Y-5117D02*
X2165Y-4921D01*
X1693Y-6142D02*
X1969Y-5866D01*
X1259Y-6142D02*
X1693Y-6142D01*
X1142Y-6575D02*
X1142Y-6259D01*
X1142Y-6259D02*
X1259Y-6142D01*
X5193Y-6575D02*
X5323Y-6445D01*
X4213Y-6575D02*
X5193Y-6575D01*
X7538Y-767D02*
X7456Y-685D01*
X7456Y-685D02*
X7456Y-433D01*
X7538Y-1336D02*
X7538Y-767D01*
X7032Y-536D02*
X7341Y-845D01*
X7341Y-845D02*
X7341Y-1336D01*
X7032Y-433D02*
X7032Y-536D01*
X8128Y-1336D02*
X8128Y-1321D01*
X8480Y-969D02*
X8480Y-433D01*
X8128Y-1321D02*
X8480Y-969D01*
X9058Y-1985D02*
X9094Y-1949D01*
G54D30*
X9094Y-1949D02*
X9390Y-1949D01*
X9626Y-2185D02*
X9626Y-2441D01*
G54D29*
X8384Y-1985D02*
X9058Y-1985D01*
G54D30*
X9390Y-1949D02*
X9626Y-2185D01*
X9980Y-2441D02*
X10374Y-2441D01*
X9094Y-2303D02*
X9094Y-2795D01*
G54D29*
X8384Y-2182D02*
X8875Y-2182D01*
X8875Y-2182D02*
X8996Y-2303D01*
X8996Y-2303D02*
X9094Y-2303D01*
X7930Y-3227D02*
X7930Y-3402D01*
X8150Y-3622D02*
X8268Y-3622D01*
X9882Y-6417D02*
X10182Y-6117D01*
X7930Y-3402D02*
X8150Y-3622D01*
X10182Y-6117D02*
X10236Y-6117D01*
X10783Y-6717D02*
X10807Y-6693D01*
X10236Y-6717D02*
X10783Y-6717D01*
X10379Y-5694D02*
X10807Y-6122D01*
X10236Y-5694D02*
X10379Y-5694D01*
X10807Y-6122D02*
X10807Y-6181D01*
X11062Y-3543D02*
X12028Y-3543D01*
G54D30*
X10748Y-2421D02*
X10728Y-2441D01*
G54D29*
X10728Y-2441D02*
X10728Y-3209D01*
G54D30*
X10748Y-2027D02*
X10748Y-2421D01*
G54D29*
X10728Y-3209D02*
X11062Y-3543D01*
X2638Y-5930D02*
X2992Y-5576D01*
X4351Y-5729D02*
X4351Y-5894D01*
X4213Y-5591D02*
X4351Y-5729D01*
X3601Y-5690D02*
X3700Y-5591D01*
X3700Y-5591D02*
X4213Y-5591D01*
X2992Y-5576D02*
X2992Y-5670D01*
X3216Y-5894D02*
X3601Y-5894D01*
X2992Y-5670D02*
X3216Y-5894D01*
X2638Y-6039D02*
X2638Y-5930D01*
X3601Y-5894D02*
X3601Y-5690D01*
X2008Y-6575D02*
X2574Y-6575D01*
X2574Y-6575D02*
X2638Y-6639D01*
X3347Y-6575D02*
X2702Y-6575D01*
X2702Y-6575D02*
X2638Y-6639D01*
X9543Y-4306D02*
X9543Y-4567D01*
X8886Y-4173D02*
X9410Y-4173D01*
X9543Y-4567D02*
X9543Y-5225D01*
X9410Y-4173D02*
X9543Y-4306D01*
X9543Y-5225D02*
X9323Y-5445D01*
X9094Y-3149D02*
X8976Y-3149D01*
X8600Y-2379D02*
X8384Y-2379D01*
X8780Y-2559D02*
X8600Y-2379D01*
X8780Y-2953D02*
X8780Y-2559D01*
X8976Y-3149D02*
X8780Y-2953D01*
G54D30*
X9094Y-3149D02*
X9448Y-3149D01*
X9547Y-3248D02*
X9547Y-3366D01*
X9448Y-3149D02*
X9547Y-3248D01*
G54D10*
G36*
X4927Y-6862D02*
X2977Y-6862D01*
X2990Y-6849D01*
X3012Y-6793D01*
X3012Y-6775D01*
X3021Y-6775D01*
X3022Y-6777D01*
X3064Y-6820D01*
X3120Y-6842D01*
X3179Y-6843D01*
X3573Y-6843D01*
X3628Y-6820D01*
X3671Y-6778D01*
X3693Y-6722D01*
X3694Y-6663D01*
X3694Y-6427D01*
X3671Y-6372D01*
X3629Y-6329D01*
X3573Y-6307D01*
X3514Y-6306D01*
X3120Y-6306D01*
X3065Y-6329D01*
X3022Y-6371D01*
X3021Y-6375D01*
X2919Y-6375D01*
X2892Y-6364D01*
X2833Y-6363D01*
X2383Y-6363D01*
X2356Y-6375D01*
X2333Y-6375D01*
X2332Y-6372D01*
X2290Y-6329D01*
X2234Y-6307D01*
X2175Y-6306D01*
X1799Y-6306D01*
X1834Y-6283D01*
X2110Y-6007D01*
X2153Y-5942D01*
X2153Y-5942D01*
X2156Y-5929D01*
X2168Y-5866D01*
X2169Y-5866D01*
X2169Y-5272D01*
X2578Y-5272D01*
X2632Y-5249D01*
X2653Y-5270D01*
X2727Y-5300D01*
X2737Y-5300D01*
X2682Y-5323D01*
X2639Y-5365D01*
X2617Y-5421D01*
X2616Y-5480D01*
X2616Y-5668D01*
X2521Y-5763D01*
X2383Y-5763D01*
X2328Y-5786D01*
X2285Y-5828D01*
X2263Y-5884D01*
X2262Y-5943D01*
X2262Y-6193D01*
X2285Y-6248D01*
X2327Y-6291D01*
X2383Y-6313D01*
X2442Y-6314D01*
X2892Y-6314D01*
X2947Y-6291D01*
X2990Y-6249D01*
X3012Y-6193D01*
X3013Y-6134D01*
X3013Y-5973D01*
X3074Y-6035D01*
X3074Y-6035D01*
X3117Y-6064D01*
X3139Y-6078D01*
X3139Y-6078D01*
X3215Y-6093D01*
X3216Y-6094D01*
X3359Y-6094D01*
X3373Y-6128D01*
X3415Y-6171D01*
X3471Y-6193D01*
X3530Y-6194D01*
X3730Y-6194D01*
X3739Y-6190D01*
X3762Y-6213D01*
X3836Y-6244D01*
X3876Y-6244D01*
X3926Y-6194D01*
X3926Y-5944D01*
X3918Y-5944D01*
X3918Y-5844D01*
X3926Y-5844D01*
X3926Y-5836D01*
X4026Y-5836D01*
X4026Y-5844D01*
X4033Y-5844D01*
X4033Y-5944D01*
X4026Y-5944D01*
X4026Y-6194D01*
X4076Y-6244D01*
X4115Y-6244D01*
X4189Y-6213D01*
X4212Y-6190D01*
X4221Y-6193D01*
X4280Y-6194D01*
X4480Y-6194D01*
X4535Y-6171D01*
X4578Y-6129D01*
X4600Y-6073D01*
X4601Y-6014D01*
X4601Y-5868D01*
X4818Y-6086D01*
X4873Y-6122D01*
X4872Y-6174D01*
X4872Y-6375D01*
X4538Y-6375D01*
X4537Y-6372D01*
X4495Y-6329D01*
X4439Y-6307D01*
X4380Y-6306D01*
X3986Y-6306D01*
X3931Y-6329D01*
X3888Y-6371D01*
X3866Y-6427D01*
X3865Y-6486D01*
X3865Y-6722D01*
X3888Y-6777D01*
X3930Y-6820D01*
X3986Y-6842D01*
X4045Y-6843D01*
X4439Y-6843D01*
X4494Y-6820D01*
X4537Y-6778D01*
X4538Y-6775D01*
X4873Y-6775D01*
X4895Y-6829D01*
X4927Y-6862D01*
X4927Y-6862D01*
G37*
G54D29*
X4927Y-6862D02*
X2977Y-6862D01*
X2990Y-6849D01*
X3012Y-6793D01*
X3012Y-6775D01*
X3021Y-6775D01*
X3022Y-6777D01*
X3064Y-6820D01*
X3120Y-6842D01*
X3179Y-6843D01*
X3573Y-6843D01*
X3628Y-6820D01*
X3671Y-6778D01*
X3693Y-6722D01*
X3694Y-6663D01*
X3694Y-6427D01*
X3671Y-6372D01*
X3629Y-6329D01*
X3573Y-6307D01*
X3514Y-6306D01*
X3120Y-6306D01*
X3065Y-6329D01*
X3022Y-6371D01*
X3021Y-6375D01*
X2919Y-6375D01*
X2892Y-6364D01*
X2833Y-6363D01*
X2383Y-6363D01*
X2356Y-6375D01*
X2333Y-6375D01*
X2332Y-6372D01*
X2290Y-6329D01*
X2234Y-6307D01*
X2175Y-6306D01*
X1799Y-6306D01*
X1834Y-6283D01*
X2110Y-6007D01*
X2153Y-5942D01*
X2153Y-5942D01*
X2156Y-5929D01*
X2168Y-5866D01*
X2169Y-5866D01*
X2169Y-5272D01*
X2578Y-5272D01*
X2632Y-5249D01*
X2653Y-5270D01*
X2727Y-5300D01*
X2737Y-5300D01*
X2682Y-5323D01*
X2639Y-5365D01*
X2617Y-5421D01*
X2616Y-5480D01*
X2616Y-5668D01*
X2521Y-5763D01*
X2383Y-5763D01*
X2328Y-5786D01*
X2285Y-5828D01*
X2263Y-5884D01*
X2262Y-5943D01*
X2262Y-6193D01*
X2285Y-6248D01*
X2327Y-6291D01*
X2383Y-6313D01*
X2442Y-6314D01*
X2892Y-6314D01*
X2947Y-6291D01*
X2990Y-6249D01*
X3012Y-6193D01*
X3013Y-6134D01*
X3013Y-5973D01*
X3074Y-6035D01*
X3074Y-6035D01*
X3117Y-6064D01*
X3139Y-6078D01*
X3139Y-6078D01*
X3215Y-6093D01*
X3216Y-6094D01*
X3359Y-6094D01*
X3373Y-6128D01*
X3415Y-6171D01*
X3471Y-6193D01*
X3530Y-6194D01*
X3730Y-6194D01*
X3739Y-6190D01*
X3762Y-6213D01*
X3836Y-6244D01*
X3876Y-6244D01*
X3926Y-6194D01*
X3926Y-5944D01*
X3918Y-5944D01*
X3918Y-5844D01*
X3926Y-5844D01*
X3926Y-5836D01*
X4026Y-5836D01*
X4026Y-5844D01*
X4033Y-5844D01*
X4033Y-5944D01*
X4026Y-5944D01*
X4026Y-6194D01*
X4076Y-6244D01*
X4115Y-6244D01*
X4189Y-6213D01*
X4212Y-6190D01*
X4221Y-6193D01*
X4280Y-6194D01*
X4480Y-6194D01*
X4535Y-6171D01*
X4578Y-6129D01*
X4600Y-6073D01*
X4601Y-6014D01*
X4601Y-5868D01*
X4818Y-6086D01*
X4873Y-6122D01*
X4872Y-6174D01*
X4872Y-6375D01*
X4538Y-6375D01*
X4537Y-6372D01*
X4495Y-6329D01*
X4439Y-6307D01*
X4380Y-6306D01*
X3986Y-6306D01*
X3931Y-6329D01*
X3888Y-6371D01*
X3866Y-6427D01*
X3865Y-6486D01*
X3865Y-6722D01*
X3888Y-6777D01*
X3930Y-6820D01*
X3986Y-6842D01*
X4045Y-6843D01*
X4439Y-6843D01*
X4494Y-6820D01*
X4537Y-6778D01*
X4538Y-6775D01*
X4873Y-6775D01*
X4895Y-6829D01*
X4927Y-6862D01*
G54D10*
G36*
X5068Y-1853D02*
X4753Y-2169D01*
X4642Y-2280D01*
X4601Y-2280D01*
X4601Y-2272D01*
X4601Y-2187D01*
X4551Y-2137D01*
X4326Y-2137D01*
X4326Y-2144D01*
X4226Y-2144D01*
X4226Y-2137D01*
X4218Y-2137D01*
X4218Y-2037D01*
X4226Y-2037D01*
X4226Y-2029D01*
X4326Y-2029D01*
X4326Y-2037D01*
X4551Y-2037D01*
X4601Y-1987D01*
X4601Y-1901D01*
X4600Y-1853D01*
X4703Y-1853D01*
X4753Y-1803D01*
X4753Y-1487D01*
X4279Y-1487D01*
X4229Y-1537D01*
X4228Y-1613D01*
X4229Y-1662D01*
X4225Y-1662D01*
X4225Y-1711D01*
X4176Y-1662D01*
X4111Y-1661D01*
X4037Y-1692D01*
X3981Y-1748D01*
X3951Y-1822D01*
X3951Y-1832D01*
X3928Y-1777D01*
X3887Y-1735D01*
X3908Y-1683D01*
X3909Y-1630D01*
X3954Y-1621D01*
X4019Y-1578D01*
X4244Y-1352D01*
X4279Y-1387D01*
X4753Y-1387D01*
X4753Y-1379D01*
X4853Y-1379D01*
X4853Y-1387D01*
X4860Y-1387D01*
X4860Y-1487D01*
X4853Y-1487D01*
X4853Y-1803D01*
X4903Y-1853D01*
X5068Y-1853D01*
X5068Y-1853D01*
G37*
G54D29*
X5068Y-1853D02*
X4753Y-2169D01*
X4642Y-2280D01*
X4601Y-2280D01*
X4601Y-2272D01*
X4601Y-2187D01*
X4551Y-2137D01*
X4326Y-2137D01*
X4326Y-2144D01*
X4226Y-2144D01*
X4226Y-2137D01*
X4218Y-2137D01*
X4218Y-2037D01*
X4226Y-2037D01*
X4226Y-2029D01*
X4326Y-2029D01*
X4326Y-2037D01*
X4551Y-2037D01*
X4601Y-1987D01*
X4601Y-1901D01*
X4600Y-1853D01*
X4703Y-1853D01*
X4753Y-1803D01*
X4753Y-1487D01*
X4279Y-1487D01*
X4229Y-1537D01*
X4228Y-1613D01*
X4229Y-1662D01*
X4225Y-1662D01*
X4225Y-1711D01*
X4176Y-1662D01*
X4111Y-1661D01*
X4037Y-1692D01*
X3981Y-1748D01*
X3951Y-1822D01*
X3951Y-1832D01*
X3928Y-1777D01*
X3887Y-1735D01*
X3908Y-1683D01*
X3909Y-1630D01*
X3954Y-1621D01*
X4019Y-1578D01*
X4244Y-1352D01*
X4279Y-1387D01*
X4753Y-1387D01*
X4753Y-1379D01*
X4853Y-1379D01*
X4853Y-1387D01*
X4860Y-1387D01*
X4860Y-1487D01*
X4853Y-1487D01*
X4853Y-1803D01*
X4903Y-1853D01*
X5068Y-1853D01*
G54D10*
G36*
X5245Y-2477D02*
X5010Y-2477D01*
X5165Y-2321D01*
X5165Y-2354D01*
X5196Y-2428D01*
X5245Y-2477D01*
X5245Y-2477D01*
G37*
G54D29*
X5245Y-2477D02*
X5010Y-2477D01*
X5165Y-2321D01*
X5165Y-2354D01*
X5196Y-2428D01*
X5245Y-2477D01*
G54D10*
G36*
X5522Y-604D02*
X5483Y-605D01*
X5409Y-635D01*
X5353Y-691D01*
X5322Y-765D01*
X5323Y-830D01*
X5372Y-879D01*
X5323Y-879D01*
X5323Y-885D01*
X5312Y-878D01*
X5236Y-863D01*
X4252Y-863D01*
X4188Y-875D01*
X4175Y-878D01*
X4110Y-921D01*
X3959Y-1073D01*
X3959Y-629D01*
X3959Y-553D01*
X3909Y-503D01*
X3435Y-503D01*
X3435Y-819D01*
X3485Y-869D01*
X3798Y-869D01*
X3872Y-839D01*
X3928Y-782D01*
X3958Y-709D01*
X3959Y-629D01*
X3959Y-1073D01*
X3889Y-1142D01*
X3886Y-1135D01*
X3844Y-1093D01*
X3788Y-1070D01*
X3729Y-1070D01*
X3335Y-1070D01*
X3335Y-819D01*
X3335Y-503D01*
X2861Y-503D01*
X2811Y-553D01*
X2810Y-629D01*
X2811Y-709D01*
X2841Y-782D01*
X2897Y-839D01*
X2971Y-869D01*
X3285Y-869D01*
X3335Y-819D01*
X3335Y-1070D01*
X2981Y-1070D01*
X2926Y-1093D01*
X2883Y-1135D01*
X2861Y-1190D01*
X2860Y-1250D01*
X2860Y-1683D01*
X2883Y-1738D01*
X2925Y-1780D01*
X2981Y-1803D01*
X3040Y-1803D01*
X3186Y-1803D01*
X3200Y-1872D01*
X3243Y-1937D01*
X3400Y-2094D01*
X3400Y-2340D01*
X3126Y-2614D01*
X3098Y-2656D01*
X3063Y-2655D01*
X2813Y-2655D01*
X2758Y-2678D01*
X2749Y-2687D01*
X2749Y-2405D01*
X2749Y-1924D01*
X2718Y-1850D01*
X2662Y-1794D01*
X2588Y-1764D01*
X2509Y-1763D01*
X2265Y-1764D01*
X2215Y-1814D01*
X2215Y-2115D01*
X2699Y-2115D01*
X2749Y-2065D01*
X2749Y-1924D01*
X2749Y-2405D01*
X2749Y-2265D01*
X2699Y-2215D01*
X2215Y-2215D01*
X2215Y-2516D01*
X2265Y-2566D01*
X2509Y-2566D01*
X2588Y-2565D01*
X2662Y-2535D01*
X2718Y-2479D01*
X2749Y-2405D01*
X2749Y-2687D01*
X2715Y-2720D01*
X2693Y-2776D01*
X2692Y-2835D01*
X2692Y-2863D01*
X2680Y-2872D01*
X2676Y-2863D01*
X2634Y-2820D01*
X2578Y-2798D01*
X2519Y-2797D01*
X2115Y-2797D01*
X2115Y-2516D01*
X2115Y-2215D01*
X2115Y-2115D01*
X2115Y-1814D01*
X2065Y-1764D01*
X1820Y-1763D01*
X1794Y-1763D01*
X1794Y-1359D01*
X1794Y-1044D01*
X1771Y-989D01*
X1729Y-947D01*
X1673Y-924D01*
X1614Y-924D01*
X590Y-924D01*
X535Y-947D01*
X492Y-989D01*
X470Y-1044D01*
X469Y-1104D01*
X469Y-1419D01*
X492Y-1474D01*
X534Y-1516D01*
X590Y-1539D01*
X649Y-1539D01*
X1673Y-1539D01*
X1728Y-1516D01*
X1771Y-1474D01*
X1793Y-1419D01*
X1794Y-1359D01*
X1794Y-1763D01*
X1741Y-1764D01*
X1667Y-1794D01*
X1611Y-1850D01*
X1580Y-1924D01*
X1581Y-2065D01*
X1631Y-2115D01*
X2115Y-2115D01*
X2115Y-2215D01*
X1631Y-2215D01*
X1581Y-2265D01*
X1580Y-2405D01*
X1611Y-2479D01*
X1667Y-2535D01*
X1741Y-2565D01*
X1820Y-2566D01*
X2065Y-2566D01*
X2115Y-2516D01*
X2115Y-2797D01*
X1751Y-2797D01*
X1696Y-2820D01*
X1653Y-2862D01*
X1631Y-2918D01*
X1630Y-2977D01*
X1630Y-3379D01*
X1653Y-3434D01*
X1695Y-3477D01*
X1751Y-3499D01*
X1810Y-3500D01*
X2578Y-3500D01*
X2633Y-3477D01*
X2676Y-3435D01*
X2698Y-3379D01*
X2699Y-3344D01*
X2716Y-3341D01*
X2720Y-3345D01*
X2715Y-3350D01*
X2693Y-3406D01*
X2692Y-3465D01*
X2692Y-3520D01*
X2613Y-3600D01*
X2578Y-3586D01*
X2519Y-3585D01*
X1751Y-3585D01*
X1696Y-3608D01*
X1653Y-3650D01*
X1631Y-3706D01*
X1630Y-3765D01*
X1630Y-4167D01*
X1653Y-4222D01*
X1695Y-4265D01*
X1751Y-4287D01*
X1810Y-4288D01*
X2578Y-4288D01*
X2633Y-4265D01*
X2675Y-4223D01*
X2693Y-4241D01*
X2918Y-4241D01*
X2918Y-4233D01*
X3018Y-4233D01*
X3018Y-4241D01*
X3025Y-4241D01*
X3025Y-4341D01*
X3018Y-4341D01*
X3018Y-4666D01*
X3047Y-4695D01*
X3042Y-4701D01*
X3042Y-4926D01*
X3049Y-4926D01*
X3049Y-5026D01*
X3042Y-5026D01*
X3042Y-5033D01*
X2942Y-5033D01*
X2942Y-5026D01*
X2934Y-5026D01*
X2934Y-4926D01*
X2942Y-4926D01*
X2942Y-4701D01*
X2912Y-4671D01*
X2918Y-4666D01*
X2918Y-4341D01*
X2693Y-4341D01*
X2643Y-4391D01*
X2642Y-4476D01*
X2643Y-4555D01*
X2673Y-4629D01*
X2704Y-4660D01*
X2689Y-4666D01*
X2676Y-4635D01*
X2634Y-4592D01*
X2578Y-4570D01*
X2519Y-4569D01*
X1751Y-4569D01*
X1696Y-4592D01*
X1653Y-4634D01*
X1631Y-4690D01*
X1630Y-4749D01*
X1630Y-5151D01*
X1653Y-5206D01*
X1695Y-5249D01*
X1751Y-5271D01*
X1769Y-5271D01*
X1769Y-5642D01*
X1756Y-5611D01*
X1714Y-5569D01*
X1658Y-5546D01*
X1599Y-5546D01*
X1518Y-5546D01*
X1518Y-4352D01*
X1518Y-2580D01*
X1459Y-2438D01*
X1350Y-2329D01*
X1209Y-2271D01*
X1055Y-2270D01*
X913Y-2329D01*
X804Y-2438D01*
X746Y-2579D01*
X745Y-2733D01*
X804Y-2875D01*
X913Y-2984D01*
X1054Y-3042D01*
X1208Y-3043D01*
X1350Y-2984D01*
X1459Y-2875D01*
X1517Y-2734D01*
X1518Y-2580D01*
X1518Y-4352D01*
X1459Y-4210D01*
X1350Y-4101D01*
X1209Y-4043D01*
X1055Y-4042D01*
X913Y-4101D01*
X804Y-4210D01*
X746Y-4351D01*
X745Y-4505D01*
X804Y-4647D01*
X913Y-4756D01*
X1054Y-4814D01*
X1208Y-4815D01*
X1350Y-4756D01*
X1459Y-4647D01*
X1517Y-4506D01*
X1518Y-4352D01*
X1518Y-5546D01*
X575Y-5546D01*
X520Y-5569D01*
X477Y-5611D01*
X455Y-5666D01*
X454Y-5726D01*
X454Y-6041D01*
X477Y-6096D01*
X519Y-6138D01*
X575Y-6161D01*
X634Y-6161D01*
X971Y-6161D01*
X957Y-6182D01*
X942Y-6259D01*
X942Y-6306D01*
X915Y-6306D01*
X860Y-6329D01*
X817Y-6371D01*
X795Y-6427D01*
X794Y-6486D01*
X794Y-6722D01*
X817Y-6777D01*
X859Y-6820D01*
X915Y-6842D01*
X974Y-6843D01*
X1368Y-6843D01*
X1423Y-6820D01*
X1466Y-6778D01*
X1488Y-6722D01*
X1489Y-6663D01*
X1489Y-6427D01*
X1466Y-6372D01*
X1436Y-6342D01*
X1693Y-6342D01*
X1719Y-6336D01*
X1683Y-6371D01*
X1661Y-6427D01*
X1660Y-6486D01*
X1660Y-6722D01*
X1683Y-6777D01*
X1725Y-6820D01*
X1781Y-6842D01*
X1840Y-6843D01*
X2234Y-6843D01*
X2276Y-6825D01*
X2285Y-6848D01*
X2298Y-6862D01*
X483Y-6862D01*
X264Y-6642D01*
X264Y-485D01*
X524Y-225D01*
X2811Y-225D01*
X2810Y-276D01*
X2811Y-353D01*
X2861Y-403D01*
X3335Y-403D01*
X3335Y-395D01*
X3435Y-395D01*
X3435Y-403D01*
X3909Y-403D01*
X3959Y-353D01*
X3959Y-276D01*
X3958Y-225D01*
X4279Y-225D01*
X4278Y-266D01*
X4278Y-699D01*
X4301Y-754D01*
X4343Y-796D01*
X4399Y-819D01*
X4458Y-819D01*
X5206Y-819D01*
X5261Y-796D01*
X5304Y-754D01*
X5326Y-699D01*
X5327Y-639D01*
X5327Y-530D01*
X5391Y-530D01*
X5395Y-539D01*
X5437Y-582D01*
X5493Y-604D01*
X5522Y-604D01*
X5522Y-604D01*
G37*
G54D29*
X5522Y-604D02*
X5483Y-605D01*
X5409Y-635D01*
X5353Y-691D01*
X5322Y-765D01*
X5323Y-830D01*
X5372Y-879D01*
X5323Y-879D01*
X5323Y-885D01*
X5312Y-878D01*
X5236Y-863D01*
X4252Y-863D01*
X4188Y-875D01*
X4175Y-878D01*
X4110Y-921D01*
X3959Y-1073D01*
X3959Y-629D01*
X3959Y-553D01*
X3909Y-503D01*
X3435Y-503D01*
X3435Y-819D01*
X3485Y-869D01*
X3798Y-869D01*
X3872Y-839D01*
X3928Y-782D01*
X3958Y-709D01*
X3959Y-629D01*
X3959Y-1073D01*
X3889Y-1142D01*
X3886Y-1135D01*
X3844Y-1093D01*
X3788Y-1070D01*
X3729Y-1070D01*
X3335Y-1070D01*
X3335Y-819D01*
X3335Y-503D01*
X2861Y-503D01*
X2811Y-553D01*
X2810Y-629D01*
X2811Y-709D01*
X2841Y-782D01*
X2897Y-839D01*
X2971Y-869D01*
X3285Y-869D01*
X3335Y-819D01*
X3335Y-1070D01*
X2981Y-1070D01*
X2926Y-1093D01*
X2883Y-1135D01*
X2861Y-1190D01*
X2860Y-1250D01*
X2860Y-1683D01*
X2883Y-1738D01*
X2925Y-1780D01*
X2981Y-1803D01*
X3040Y-1803D01*
X3186Y-1803D01*
X3200Y-1872D01*
X3243Y-1937D01*
X3400Y-2094D01*
X3400Y-2340D01*
X3126Y-2614D01*
X3098Y-2656D01*
X3063Y-2655D01*
X2813Y-2655D01*
X2758Y-2678D01*
X2749Y-2687D01*
X2749Y-2405D01*
X2749Y-1924D01*
X2718Y-1850D01*
X2662Y-1794D01*
X2588Y-1764D01*
X2509Y-1763D01*
X2265Y-1764D01*
X2215Y-1814D01*
X2215Y-2115D01*
X2699Y-2115D01*
X2749Y-2065D01*
X2749Y-1924D01*
X2749Y-2405D01*
X2749Y-2265D01*
X2699Y-2215D01*
X2215Y-2215D01*
X2215Y-2516D01*
X2265Y-2566D01*
X2509Y-2566D01*
X2588Y-2565D01*
X2662Y-2535D01*
X2718Y-2479D01*
X2749Y-2405D01*
X2749Y-2687D01*
X2715Y-2720D01*
X2693Y-2776D01*
X2692Y-2835D01*
X2692Y-2863D01*
X2680Y-2872D01*
X2676Y-2863D01*
X2634Y-2820D01*
X2578Y-2798D01*
X2519Y-2797D01*
X2115Y-2797D01*
X2115Y-2516D01*
X2115Y-2215D01*
X2115Y-2115D01*
X2115Y-1814D01*
X2065Y-1764D01*
X1820Y-1763D01*
X1794Y-1763D01*
X1794Y-1359D01*
X1794Y-1044D01*
X1771Y-989D01*
X1729Y-947D01*
X1673Y-924D01*
X1614Y-924D01*
X590Y-924D01*
X535Y-947D01*
X492Y-989D01*
X470Y-1044D01*
X469Y-1104D01*
X469Y-1419D01*
X492Y-1474D01*
X534Y-1516D01*
X590Y-1539D01*
X649Y-1539D01*
X1673Y-1539D01*
X1728Y-1516D01*
X1771Y-1474D01*
X1793Y-1419D01*
X1794Y-1359D01*
X1794Y-1763D01*
X1741Y-1764D01*
X1667Y-1794D01*
X1611Y-1850D01*
X1580Y-1924D01*
X1581Y-2065D01*
X1631Y-2115D01*
X2115Y-2115D01*
X2115Y-2215D01*
X1631Y-2215D01*
X1581Y-2265D01*
X1580Y-2405D01*
X1611Y-2479D01*
X1667Y-2535D01*
X1741Y-2565D01*
X1820Y-2566D01*
X2065Y-2566D01*
X2115Y-2516D01*
X2115Y-2797D01*
X1751Y-2797D01*
X1696Y-2820D01*
X1653Y-2862D01*
X1631Y-2918D01*
X1630Y-2977D01*
X1630Y-3379D01*
X1653Y-3434D01*
X1695Y-3477D01*
X1751Y-3499D01*
X1810Y-3500D01*
X2578Y-3500D01*
X2633Y-3477D01*
X2676Y-3435D01*
X2698Y-3379D01*
X2699Y-3344D01*
X2716Y-3341D01*
X2720Y-3345D01*
X2715Y-3350D01*
X2693Y-3406D01*
X2692Y-3465D01*
X2692Y-3520D01*
X2613Y-3600D01*
X2578Y-3586D01*
X2519Y-3585D01*
X1751Y-3585D01*
X1696Y-3608D01*
X1653Y-3650D01*
X1631Y-3706D01*
X1630Y-3765D01*
X1630Y-4167D01*
X1653Y-4222D01*
X1695Y-4265D01*
X1751Y-4287D01*
X1810Y-4288D01*
X2578Y-4288D01*
X2633Y-4265D01*
X2675Y-4223D01*
X2693Y-4241D01*
X2918Y-4241D01*
X2918Y-4233D01*
X3018Y-4233D01*
X3018Y-4241D01*
X3025Y-4241D01*
X3025Y-4341D01*
X3018Y-4341D01*
X3018Y-4666D01*
X3047Y-4695D01*
X3042Y-4701D01*
X3042Y-4926D01*
X3049Y-4926D01*
X3049Y-5026D01*
X3042Y-5026D01*
X3042Y-5033D01*
X2942Y-5033D01*
X2942Y-5026D01*
X2934Y-5026D01*
X2934Y-4926D01*
X2942Y-4926D01*
X2942Y-4701D01*
X2912Y-4671D01*
X2918Y-4666D01*
X2918Y-4341D01*
X2693Y-4341D01*
X2643Y-4391D01*
X2642Y-4476D01*
X2643Y-4555D01*
X2673Y-4629D01*
X2704Y-4660D01*
X2689Y-4666D01*
X2676Y-4635D01*
X2634Y-4592D01*
X2578Y-4570D01*
X2519Y-4569D01*
X1751Y-4569D01*
X1696Y-4592D01*
X1653Y-4634D01*
X1631Y-4690D01*
X1630Y-4749D01*
X1630Y-5151D01*
X1653Y-5206D01*
X1695Y-5249D01*
X1751Y-5271D01*
X1769Y-5271D01*
X1769Y-5642D01*
X1756Y-5611D01*
X1714Y-5569D01*
X1658Y-5546D01*
X1599Y-5546D01*
X1518Y-5546D01*
X1518Y-4352D01*
X1518Y-2580D01*
X1459Y-2438D01*
X1350Y-2329D01*
X1209Y-2271D01*
X1055Y-2270D01*
X913Y-2329D01*
X804Y-2438D01*
X746Y-2579D01*
X745Y-2733D01*
X804Y-2875D01*
X913Y-2984D01*
X1054Y-3042D01*
X1208Y-3043D01*
X1350Y-2984D01*
X1459Y-2875D01*
X1517Y-2734D01*
X1518Y-2580D01*
X1518Y-4352D01*
X1459Y-4210D01*
X1350Y-4101D01*
X1209Y-4043D01*
X1055Y-4042D01*
X913Y-4101D01*
X804Y-4210D01*
X746Y-4351D01*
X745Y-4505D01*
X804Y-4647D01*
X913Y-4756D01*
X1054Y-4814D01*
X1208Y-4815D01*
X1350Y-4756D01*
X1459Y-4647D01*
X1517Y-4506D01*
X1518Y-4352D01*
X1518Y-5546D01*
X575Y-5546D01*
X520Y-5569D01*
X477Y-5611D01*
X455Y-5666D01*
X454Y-5726D01*
X454Y-6041D01*
X477Y-6096D01*
X519Y-6138D01*
X575Y-6161D01*
X634Y-6161D01*
X971Y-6161D01*
X957Y-6182D01*
X942Y-6259D01*
X942Y-6306D01*
X915Y-6306D01*
X860Y-6329D01*
X817Y-6371D01*
X795Y-6427D01*
X794Y-6486D01*
X794Y-6722D01*
X817Y-6777D01*
X859Y-6820D01*
X915Y-6842D01*
X974Y-6843D01*
X1368Y-6843D01*
X1423Y-6820D01*
X1466Y-6778D01*
X1488Y-6722D01*
X1489Y-6663D01*
X1489Y-6427D01*
X1466Y-6372D01*
X1436Y-6342D01*
X1693Y-6342D01*
X1719Y-6336D01*
X1683Y-6371D01*
X1661Y-6427D01*
X1660Y-6486D01*
X1660Y-6722D01*
X1683Y-6777D01*
X1725Y-6820D01*
X1781Y-6842D01*
X1840Y-6843D01*
X2234Y-6843D01*
X2276Y-6825D01*
X2285Y-6848D01*
X2298Y-6862D01*
X483Y-6862D01*
X264Y-6642D01*
X264Y-485D01*
X524Y-225D01*
X2811Y-225D01*
X2810Y-276D01*
X2811Y-353D01*
X2861Y-403D01*
X3335Y-403D01*
X3335Y-395D01*
X3435Y-395D01*
X3435Y-403D01*
X3909Y-403D01*
X3959Y-353D01*
X3959Y-276D01*
X3958Y-225D01*
X4279Y-225D01*
X4278Y-266D01*
X4278Y-699D01*
X4301Y-754D01*
X4343Y-796D01*
X4399Y-819D01*
X4458Y-819D01*
X5206Y-819D01*
X5261Y-796D01*
X5304Y-754D01*
X5326Y-699D01*
X5327Y-639D01*
X5327Y-530D01*
X5391Y-530D01*
X5395Y-539D01*
X5437Y-582D01*
X5493Y-604D01*
X5522Y-604D01*
G54D10*
G36*
X5648Y-2240D02*
X5641Y-2240D01*
X5641Y-2247D01*
X5541Y-2247D01*
X5541Y-2240D01*
X5533Y-2240D01*
X5533Y-2140D01*
X5541Y-2140D01*
X5541Y-2132D01*
X5641Y-2132D01*
X5641Y-2140D01*
X5648Y-2140D01*
X5648Y-2240D01*
X5648Y-2240D01*
G37*
G54D29*
X5648Y-2240D02*
X5641Y-2240D01*
X5641Y-2247D01*
X5541Y-2247D01*
X5541Y-2240D01*
X5533Y-2240D01*
X5533Y-2140D01*
X5541Y-2140D01*
X5541Y-2132D01*
X5641Y-2132D01*
X5641Y-2140D01*
X5648Y-2140D01*
X5648Y-2240D01*
G54D10*
G36*
X5743Y-3067D02*
X5473Y-3337D01*
X5430Y-3402D01*
X5418Y-3461D01*
X5405Y-3466D01*
X5362Y-3508D01*
X5340Y-3564D01*
X5340Y-3593D01*
X5339Y-3554D01*
X5309Y-3480D01*
X5253Y-3424D01*
X5179Y-3393D01*
X5115Y-3394D01*
X5065Y-3444D01*
X5065Y-3769D01*
X5072Y-3769D01*
X5072Y-3869D01*
X5065Y-3869D01*
X5065Y-3876D01*
X4965Y-3876D01*
X4965Y-3869D01*
X4965Y-3769D01*
X4965Y-3444D01*
X4915Y-3394D01*
X4850Y-3393D01*
X4776Y-3424D01*
X4720Y-3480D01*
X4699Y-3530D01*
X4669Y-3499D01*
X4595Y-3469D01*
X4516Y-3468D01*
X4431Y-3469D01*
X4381Y-3519D01*
X4381Y-3744D01*
X4706Y-3744D01*
X4710Y-3739D01*
X4740Y-3769D01*
X4965Y-3769D01*
X4965Y-3869D01*
X4740Y-3869D01*
X4735Y-3873D01*
X4706Y-3844D01*
X4381Y-3844D01*
X4381Y-3851D01*
X4281Y-3851D01*
X4281Y-3844D01*
X4281Y-3744D01*
X4281Y-3519D01*
X4231Y-3469D01*
X4145Y-3468D01*
X4066Y-3469D01*
X3992Y-3499D01*
X3936Y-3555D01*
X3905Y-3629D01*
X3906Y-3694D01*
X3956Y-3744D01*
X4281Y-3744D01*
X4281Y-3844D01*
X3956Y-3844D01*
X3906Y-3894D01*
X3905Y-3907D01*
X3899Y-3909D01*
X3834Y-3952D01*
X3822Y-3964D01*
X3842Y-3915D01*
X3843Y-3856D01*
X3843Y-3604D01*
X4373Y-3074D01*
X5710Y-3074D01*
X5743Y-3067D01*
X5743Y-3067D01*
G37*
G54D29*
X5743Y-3067D02*
X5473Y-3337D01*
X5430Y-3402D01*
X5418Y-3461D01*
X5405Y-3466D01*
X5362Y-3508D01*
X5340Y-3564D01*
X5340Y-3593D01*
X5339Y-3554D01*
X5309Y-3480D01*
X5253Y-3424D01*
X5179Y-3393D01*
X5115Y-3394D01*
X5065Y-3444D01*
X5065Y-3769D01*
X5072Y-3769D01*
X5072Y-3869D01*
X5065Y-3869D01*
X5065Y-3876D01*
X4965Y-3876D01*
X4965Y-3869D01*
X4965Y-3769D01*
X4965Y-3444D01*
X4915Y-3394D01*
X4850Y-3393D01*
X4776Y-3424D01*
X4720Y-3480D01*
X4699Y-3530D01*
X4669Y-3499D01*
X4595Y-3469D01*
X4516Y-3468D01*
X4431Y-3469D01*
X4381Y-3519D01*
X4381Y-3744D01*
X4706Y-3744D01*
X4710Y-3739D01*
X4740Y-3769D01*
X4965Y-3769D01*
X4965Y-3869D01*
X4740Y-3869D01*
X4735Y-3873D01*
X4706Y-3844D01*
X4381Y-3844D01*
X4381Y-3851D01*
X4281Y-3851D01*
X4281Y-3844D01*
X4281Y-3744D01*
X4281Y-3519D01*
X4231Y-3469D01*
X4145Y-3468D01*
X4066Y-3469D01*
X3992Y-3499D01*
X3936Y-3555D01*
X3905Y-3629D01*
X3906Y-3694D01*
X3956Y-3744D01*
X4281Y-3744D01*
X4281Y-3844D01*
X3956Y-3844D01*
X3906Y-3894D01*
X3905Y-3907D01*
X3899Y-3909D01*
X3834Y-3952D01*
X3822Y-3964D01*
X3842Y-3915D01*
X3843Y-3856D01*
X3843Y-3604D01*
X4373Y-3074D01*
X5710Y-3074D01*
X5743Y-3067D01*
G54D10*
G36*
X5805Y-980D02*
X5798Y-980D01*
X5798Y-987D01*
X5698Y-987D01*
X5698Y-980D01*
X5690Y-980D01*
X5690Y-880D01*
X5698Y-880D01*
X5698Y-872D01*
X5798Y-872D01*
X5798Y-880D01*
X5805Y-880D01*
X5805Y-980D01*
X5805Y-980D01*
G37*
G54D29*
X5805Y-980D02*
X5798Y-980D01*
X5798Y-987D01*
X5698Y-987D01*
X5698Y-980D01*
X5690Y-980D01*
X5690Y-880D01*
X5698Y-880D01*
X5698Y-872D01*
X5798Y-872D01*
X5798Y-880D01*
X5805Y-880D01*
X5805Y-980D01*
G54D10*
G36*
X6325Y-1136D02*
X6155Y-1136D01*
X6173Y-1094D01*
X6173Y-1030D01*
X6123Y-980D01*
X6169Y-980D01*
X6325Y-1136D01*
X6325Y-1136D01*
G37*
G54D29*
X6325Y-1136D02*
X6155Y-1136D01*
X6173Y-1094D01*
X6173Y-1030D01*
X6123Y-980D01*
X6169Y-980D01*
X6325Y-1136D01*
G54D10*
G36*
X6489Y-483D02*
X6482Y-483D01*
X6482Y-490D01*
X6382Y-490D01*
X6382Y-483D01*
X6374Y-483D01*
X6374Y-383D01*
X6382Y-383D01*
X6382Y-375D01*
X6482Y-375D01*
X6482Y-383D01*
X6489Y-383D01*
X6489Y-483D01*
X6489Y-483D01*
G37*
G54D29*
X6489Y-483D02*
X6482Y-483D01*
X6482Y-490D01*
X6382Y-490D01*
X6382Y-483D01*
X6374Y-483D01*
X6374Y-383D01*
X6382Y-383D01*
X6382Y-375D01*
X6482Y-375D01*
X6482Y-383D01*
X6489Y-383D01*
X6489Y-483D01*
G54D10*
G36*
X6747Y-4860D02*
X6553Y-5053D01*
X6485Y-5025D01*
X6485Y-4709D01*
X6485Y-4484D01*
X6160Y-4484D01*
X6110Y-4534D01*
X6109Y-4598D01*
X6140Y-4672D01*
X6196Y-4728D01*
X6270Y-4758D01*
X6349Y-4759D01*
X6435Y-4759D01*
X6485Y-4709D01*
X6485Y-5025D01*
X6412Y-4995D01*
X6233Y-4994D01*
X6140Y-5033D01*
X6180Y-4936D01*
X6181Y-4827D01*
X6139Y-4726D01*
X6061Y-4649D01*
X5960Y-4607D01*
X5913Y-4607D01*
X5890Y-4583D01*
X5890Y-4495D01*
X6086Y-4299D01*
X6086Y-4299D01*
X6115Y-4256D01*
X6115Y-4255D01*
X6109Y-4269D01*
X6110Y-4334D01*
X6160Y-4384D01*
X6485Y-4384D01*
X6485Y-4376D01*
X6585Y-4376D01*
X6585Y-4384D01*
X6592Y-4384D01*
X6592Y-4484D01*
X6585Y-4484D01*
X6585Y-4709D01*
X6635Y-4759D01*
X6720Y-4759D01*
X6747Y-4759D01*
X6747Y-4860D01*
X6747Y-4860D01*
G37*
G54D29*
X6747Y-4860D02*
X6553Y-5053D01*
X6485Y-5025D01*
X6485Y-4709D01*
X6485Y-4484D01*
X6160Y-4484D01*
X6110Y-4534D01*
X6109Y-4598D01*
X6140Y-4672D01*
X6196Y-4728D01*
X6270Y-4758D01*
X6349Y-4759D01*
X6435Y-4759D01*
X6485Y-4709D01*
X6485Y-5025D01*
X6412Y-4995D01*
X6233Y-4994D01*
X6140Y-5033D01*
X6180Y-4936D01*
X6181Y-4827D01*
X6139Y-4726D01*
X6061Y-4649D01*
X5960Y-4607D01*
X5913Y-4607D01*
X5890Y-4583D01*
X5890Y-4495D01*
X6086Y-4299D01*
X6086Y-4299D01*
X6115Y-4256D01*
X6115Y-4255D01*
X6109Y-4269D01*
X6110Y-4334D01*
X6160Y-4384D01*
X6485Y-4384D01*
X6485Y-4376D01*
X6585Y-4376D01*
X6585Y-4384D01*
X6592Y-4384D01*
X6592Y-4484D01*
X6585Y-4484D01*
X6585Y-4709D01*
X6635Y-4759D01*
X6720Y-4759D01*
X6747Y-4759D01*
X6747Y-4860D01*
G54D10*
G36*
X7141Y-1018D02*
X7093Y-1018D01*
X7093Y-1026D01*
X7088Y-1018D01*
X7088Y-1018D01*
X6991Y-921D01*
X6926Y-878D01*
X6850Y-863D01*
X6617Y-863D01*
X6608Y-853D01*
X6670Y-827D01*
X6726Y-771D01*
X6756Y-697D01*
X6756Y-687D01*
X6779Y-742D01*
X6821Y-785D01*
X6877Y-807D01*
X6936Y-808D01*
X7021Y-808D01*
X7141Y-927D01*
X7141Y-1018D01*
X7141Y-1018D01*
G37*
G54D29*
X7141Y-1018D02*
X7093Y-1018D01*
X7093Y-1026D01*
X7088Y-1018D01*
X7088Y-1018D01*
X6991Y-921D01*
X6926Y-878D01*
X6850Y-863D01*
X6617Y-863D01*
X6608Y-853D01*
X6670Y-827D01*
X6726Y-771D01*
X6756Y-697D01*
X6756Y-687D01*
X6779Y-742D01*
X6821Y-785D01*
X6877Y-807D01*
X6936Y-808D01*
X7021Y-808D01*
X7141Y-927D01*
X7141Y-1018D01*
G54D10*
G36*
X8136Y-2766D02*
X8095Y-2806D01*
X8088Y-2824D01*
X8066Y-2846D01*
X8066Y-2860D01*
X8069Y-2869D01*
X8065Y-2880D01*
X8065Y-2894D01*
X8089Y-2918D01*
X8065Y-2918D01*
X8065Y-2958D01*
X8064Y-2958D01*
X8064Y-2958D01*
X8048Y-2958D01*
X8028Y-2967D01*
X8008Y-2959D01*
X7949Y-2958D01*
X7851Y-2958D01*
X7831Y-2967D01*
X7811Y-2959D01*
X7752Y-2958D01*
X7654Y-2958D01*
X7635Y-2966D01*
X7615Y-2959D01*
X7556Y-2958D01*
X7521Y-2958D01*
X7502Y-2939D01*
X7428Y-2908D01*
X7414Y-2909D01*
X7364Y-2959D01*
X7364Y-3020D01*
X7360Y-3023D01*
X7340Y-3073D01*
X7320Y-3024D01*
X7315Y-3019D01*
X7315Y-2959D01*
X7265Y-2909D01*
X7251Y-2908D01*
X7177Y-2939D01*
X7158Y-2958D01*
X7065Y-2958D01*
X7045Y-2967D01*
X7025Y-2959D01*
X6966Y-2958D01*
X6950Y-2958D01*
X6950Y-2065D01*
X6949Y-2064D01*
X6944Y-2034D01*
X6950Y-2028D01*
X6993Y-1963D01*
X6993Y-1963D01*
X6996Y-1950D01*
X7008Y-1887D01*
X7009Y-1887D01*
X7009Y-1793D01*
X7793Y-1793D01*
X7790Y-1809D01*
X7790Y-2380D01*
X7805Y-2456D01*
X7848Y-2521D01*
X8044Y-2717D01*
X8065Y-2731D01*
X8065Y-2731D01*
X8065Y-2731D01*
X8109Y-2760D01*
X8109Y-2760D01*
X8136Y-2766D01*
X8136Y-2766D01*
G37*
G54D29*
X8136Y-2766D02*
X8095Y-2806D01*
X8088Y-2824D01*
X8066Y-2846D01*
X8066Y-2860D01*
X8069Y-2869D01*
X8065Y-2880D01*
X8065Y-2894D01*
X8089Y-2918D01*
X8065Y-2918D01*
X8065Y-2958D01*
X8064Y-2958D01*
X8064Y-2958D01*
X8048Y-2958D01*
X8028Y-2967D01*
X8008Y-2959D01*
X7949Y-2958D01*
X7851Y-2958D01*
X7831Y-2967D01*
X7811Y-2959D01*
X7752Y-2958D01*
X7654Y-2958D01*
X7635Y-2966D01*
X7615Y-2959D01*
X7556Y-2958D01*
X7521Y-2958D01*
X7502Y-2939D01*
X7428Y-2908D01*
X7414Y-2909D01*
X7364Y-2959D01*
X7364Y-3020D01*
X7360Y-3023D01*
X7340Y-3073D01*
X7320Y-3024D01*
X7315Y-3019D01*
X7315Y-2959D01*
X7265Y-2909D01*
X7251Y-2908D01*
X7177Y-2939D01*
X7158Y-2958D01*
X7065Y-2958D01*
X7045Y-2967D01*
X7025Y-2959D01*
X6966Y-2958D01*
X6950Y-2958D01*
X6950Y-2065D01*
X6949Y-2064D01*
X6944Y-2034D01*
X6950Y-2028D01*
X6993Y-1963D01*
X6993Y-1963D01*
X6996Y-1950D01*
X7008Y-1887D01*
X7009Y-1887D01*
X7009Y-1793D01*
X7793Y-1793D01*
X7790Y-1809D01*
X7790Y-2380D01*
X7805Y-2456D01*
X7848Y-2521D01*
X8044Y-2717D01*
X8065Y-2731D01*
X8065Y-2731D01*
X8065Y-2731D01*
X8109Y-2760D01*
X8109Y-2760D01*
X8136Y-2766D01*
G54D10*
G36*
X8280Y-886D02*
X8105Y-1060D01*
X8093Y-1048D01*
X8019Y-1017D01*
X8005Y-1018D01*
X7955Y-1068D01*
X7955Y-1129D01*
X7951Y-1132D01*
X7930Y-1183D01*
X7910Y-1133D01*
X7906Y-1129D01*
X7906Y-1068D01*
X7856Y-1018D01*
X7842Y-1017D01*
X7768Y-1048D01*
X7749Y-1067D01*
X7738Y-1067D01*
X7738Y-767D01*
X7725Y-703D01*
X7725Y-702D01*
X7730Y-687D01*
X7730Y-658D01*
X7731Y-697D01*
X7761Y-771D01*
X7817Y-827D01*
X7891Y-858D01*
X7956Y-858D01*
X8006Y-808D01*
X8006Y-483D01*
X7998Y-483D01*
X7998Y-383D01*
X8006Y-383D01*
X8006Y-375D01*
X8106Y-375D01*
X8106Y-383D01*
X8113Y-383D01*
X8113Y-483D01*
X8106Y-483D01*
X8106Y-808D01*
X8156Y-858D01*
X8220Y-858D01*
X8280Y-833D01*
X8280Y-886D01*
X8280Y-886D01*
G37*
G54D29*
X8280Y-886D02*
X8105Y-1060D01*
X8093Y-1048D01*
X8019Y-1017D01*
X8005Y-1018D01*
X7955Y-1068D01*
X7955Y-1129D01*
X7951Y-1132D01*
X7930Y-1183D01*
X7910Y-1133D01*
X7906Y-1129D01*
X7906Y-1068D01*
X7856Y-1018D01*
X7842Y-1017D01*
X7768Y-1048D01*
X7749Y-1067D01*
X7738Y-1067D01*
X7738Y-767D01*
X7725Y-703D01*
X7725Y-702D01*
X7730Y-687D01*
X7730Y-658D01*
X7731Y-697D01*
X7761Y-771D01*
X7817Y-827D01*
X7891Y-858D01*
X7956Y-858D01*
X8006Y-808D01*
X8006Y-483D01*
X7998Y-483D01*
X7998Y-383D01*
X8006Y-383D01*
X8006Y-375D01*
X8106Y-375D01*
X8106Y-383D01*
X8113Y-383D01*
X8113Y-483D01*
X8106Y-483D01*
X8106Y-808D01*
X8156Y-858D01*
X8220Y-858D01*
X8280Y-833D01*
X8280Y-886D01*
G54D10*
G36*
X8440Y-2993D02*
X8433Y-2993D01*
X8433Y-3018D01*
X8333Y-3018D01*
X8333Y-2993D01*
X8325Y-2993D01*
X8325Y-2979D01*
X8334Y-2971D01*
X8334Y-2920D01*
X8433Y-2920D01*
X8433Y-2944D01*
X8434Y-2944D01*
X8434Y-2971D01*
X8440Y-2977D01*
X8440Y-2993D01*
X8440Y-2993D01*
G37*
G54D29*
X8440Y-2993D02*
X8433Y-2993D01*
X8433Y-3018D01*
X8333Y-3018D01*
X8333Y-2993D01*
X8325Y-2993D01*
X8325Y-2979D01*
X8334Y-2971D01*
X8334Y-2920D01*
X8433Y-2920D01*
X8433Y-2944D01*
X8434Y-2944D01*
X8434Y-2971D01*
X8440Y-2977D01*
X8440Y-2993D01*
G54D10*
G36*
X9860Y-6862D02*
X9589Y-6862D01*
X9610Y-6803D01*
X9323Y-6515D01*
X9252Y-6586D01*
X9035Y-6803D01*
X9056Y-6862D01*
X8492Y-6862D01*
X8577Y-6826D01*
X8704Y-6700D01*
X8772Y-6534D01*
X8773Y-6355D01*
X8704Y-6190D01*
X8578Y-6063D01*
X8412Y-5995D01*
X8233Y-5994D01*
X8068Y-6063D01*
X7941Y-6189D01*
X7873Y-6355D01*
X7872Y-6534D01*
X7941Y-6699D01*
X8067Y-6826D01*
X8153Y-6862D01*
X7492Y-6862D01*
X7577Y-6826D01*
X7704Y-6700D01*
X7772Y-6534D01*
X7773Y-6355D01*
X7704Y-6190D01*
X7659Y-6145D01*
X7677Y-6145D01*
X7753Y-6129D01*
X7818Y-6086D01*
X7976Y-5928D01*
X8019Y-5863D01*
X8019Y-5863D01*
X8033Y-5792D01*
X8067Y-5826D01*
X8233Y-5894D01*
X8412Y-5895D01*
X8577Y-5826D01*
X8635Y-5769D01*
X8952Y-6086D01*
X8958Y-6090D01*
X8927Y-6120D01*
X8964Y-6157D01*
X8883Y-6187D01*
X8818Y-6375D01*
X8829Y-6573D01*
X8883Y-6702D01*
X8964Y-6732D01*
X9252Y-6445D01*
X9246Y-6439D01*
X9317Y-6368D01*
X9323Y-6374D01*
X9328Y-6368D01*
X9399Y-6439D01*
X9393Y-6445D01*
X9681Y-6732D01*
X9762Y-6702D01*
X9774Y-6669D01*
X9827Y-6691D01*
X9860Y-6691D01*
X9860Y-6862D01*
X9860Y-6862D01*
G37*
G54D29*
X9860Y-6862D02*
X9589Y-6862D01*
X9610Y-6803D01*
X9323Y-6515D01*
X9252Y-6586D01*
X9035Y-6803D01*
X9056Y-6862D01*
X8492Y-6862D01*
X8577Y-6826D01*
X8704Y-6700D01*
X8772Y-6534D01*
X8773Y-6355D01*
X8704Y-6190D01*
X8578Y-6063D01*
X8412Y-5995D01*
X8233Y-5994D01*
X8068Y-6063D01*
X7941Y-6189D01*
X7873Y-6355D01*
X7872Y-6534D01*
X7941Y-6699D01*
X8067Y-6826D01*
X8153Y-6862D01*
X7492Y-6862D01*
X7577Y-6826D01*
X7704Y-6700D01*
X7772Y-6534D01*
X7773Y-6355D01*
X7704Y-6190D01*
X7659Y-6145D01*
X7677Y-6145D01*
X7753Y-6129D01*
X7818Y-6086D01*
X7976Y-5928D01*
X8019Y-5863D01*
X8019Y-5863D01*
X8033Y-5792D01*
X8067Y-5826D01*
X8233Y-5894D01*
X8412Y-5895D01*
X8577Y-5826D01*
X8635Y-5769D01*
X8952Y-6086D01*
X8958Y-6090D01*
X8927Y-6120D01*
X8964Y-6157D01*
X8883Y-6187D01*
X8818Y-6375D01*
X8829Y-6573D01*
X8883Y-6702D01*
X8964Y-6732D01*
X9252Y-6445D01*
X9246Y-6439D01*
X9317Y-6368D01*
X9323Y-6374D01*
X9328Y-6368D01*
X9399Y-6439D01*
X9393Y-6445D01*
X9681Y-6732D01*
X9762Y-6702D01*
X9774Y-6669D01*
X9827Y-6691D01*
X9860Y-6691D01*
X9860Y-6862D01*
G54D10*
G36*
X12806Y-3092D02*
X12798Y-3092D01*
X11198Y-3092D01*
X11192Y-3095D01*
X11143Y-3115D01*
X11100Y-3157D01*
X11078Y-3213D01*
X11077Y-3272D01*
X11077Y-3276D01*
X10928Y-3126D01*
X10928Y-2758D01*
X11027Y-2658D01*
X11027Y-2882D01*
X11058Y-2956D01*
X11114Y-3012D01*
X11188Y-3042D01*
X11192Y-3042D01*
X11267Y-3043D01*
X11928Y-3043D01*
X11978Y-2993D01*
X11978Y-2593D01*
X11970Y-2593D01*
X11970Y-2493D01*
X11978Y-2493D01*
X11978Y-2093D01*
X11928Y-2043D01*
X11267Y-2042D01*
X11188Y-2043D01*
X11114Y-2073D01*
X11075Y-2112D01*
X11016Y-2053D01*
X11016Y-1918D01*
X11005Y-1894D01*
X11035Y-1864D01*
X11066Y-1791D01*
X11066Y-1554D01*
X11035Y-1481D01*
X10979Y-1425D01*
X10905Y-1394D01*
X10826Y-1394D01*
X10848Y-1394D01*
X10798Y-1444D01*
X10798Y-1633D01*
X11016Y-1633D01*
X11066Y-1583D01*
X11066Y-1554D01*
X11066Y-1791D01*
X11066Y-1762D01*
X11016Y-1712D01*
X10798Y-1712D01*
X10798Y-1730D01*
X10698Y-1730D01*
X10698Y-1712D01*
X10698Y-1633D01*
X10698Y-1444D01*
X10648Y-1394D01*
X10669Y-1394D01*
X10590Y-1394D01*
X10516Y-1425D01*
X10460Y-1481D01*
X10429Y-1554D01*
X10430Y-1583D01*
X10480Y-1633D01*
X10698Y-1633D01*
X10698Y-1712D01*
X10480Y-1712D01*
X10430Y-1762D01*
X10429Y-1791D01*
X10433Y-1800D01*
X9784Y-1800D01*
X9759Y-1774D01*
X9759Y-1248D01*
X9759Y-877D01*
X9758Y-798D01*
X9728Y-724D01*
X9672Y-668D01*
X9598Y-637D01*
X9534Y-638D01*
X9484Y-688D01*
X9484Y-1013D01*
X9709Y-1013D01*
X9759Y-963D01*
X9759Y-877D01*
X9759Y-1248D01*
X9759Y-1163D01*
X9709Y-1113D01*
X9484Y-1113D01*
X9484Y-1438D01*
X9534Y-1488D01*
X9598Y-1488D01*
X9672Y-1457D01*
X9728Y-1401D01*
X9758Y-1327D01*
X9759Y-1248D01*
X9759Y-1774D01*
X9681Y-1696D01*
X9548Y-1564D01*
X9251Y-1564D01*
X9116Y-1699D01*
X9094Y-1699D01*
X8998Y-1718D01*
X8994Y-1720D01*
X8946Y-1720D01*
X8891Y-1743D01*
X8849Y-1785D01*
X8702Y-1785D01*
X8702Y-1737D01*
X8677Y-1737D01*
X8701Y-1713D01*
X8701Y-1699D01*
X8671Y-1625D01*
X8652Y-1606D01*
X8652Y-1512D01*
X8629Y-1457D01*
X8590Y-1417D01*
X8608Y-1399D01*
X8623Y-1415D01*
X8679Y-1437D01*
X8738Y-1438D01*
X8988Y-1438D01*
X9043Y-1415D01*
X9086Y-1373D01*
X9108Y-1317D01*
X9108Y-1288D01*
X9109Y-1327D01*
X9139Y-1401D01*
X9195Y-1457D01*
X9269Y-1488D01*
X9334Y-1488D01*
X9384Y-1438D01*
X9384Y-1113D01*
X9376Y-1113D01*
X9376Y-1013D01*
X9384Y-1013D01*
X9384Y-748D01*
X9404Y-697D01*
X9405Y-618D01*
X9405Y-533D01*
X9355Y-483D01*
X9130Y-483D01*
X9130Y-490D01*
X9030Y-490D01*
X9030Y-483D01*
X9022Y-483D01*
X9022Y-383D01*
X9030Y-383D01*
X9030Y-375D01*
X9130Y-375D01*
X9130Y-383D01*
X9355Y-383D01*
X9405Y-333D01*
X9405Y-247D01*
X9405Y-225D01*
X12550Y-225D01*
X12806Y-480D01*
X12806Y-2042D01*
X12788Y-2042D01*
X12128Y-2043D01*
X12078Y-2093D01*
X12078Y-2493D01*
X12085Y-2493D01*
X12085Y-2593D01*
X12078Y-2593D01*
X12078Y-2993D01*
X12128Y-3043D01*
X12788Y-3043D01*
X12806Y-3043D01*
X12806Y-3092D01*
X12806Y-3092D01*
G37*
G54D29*
X12806Y-3092D02*
X12798Y-3092D01*
X11198Y-3092D01*
X11192Y-3095D01*
X11143Y-3115D01*
X11100Y-3157D01*
X11078Y-3213D01*
X11077Y-3272D01*
X11077Y-3276D01*
X10928Y-3126D01*
X10928Y-2758D01*
X11027Y-2658D01*
X11027Y-2882D01*
X11058Y-2956D01*
X11114Y-3012D01*
X11188Y-3042D01*
X11192Y-3042D01*
X11267Y-3043D01*
X11928Y-3043D01*
X11978Y-2993D01*
X11978Y-2593D01*
X11970Y-2593D01*
X11970Y-2493D01*
X11978Y-2493D01*
X11978Y-2093D01*
X11928Y-2043D01*
X11267Y-2042D01*
X11188Y-2043D01*
X11114Y-2073D01*
X11075Y-2112D01*
X11016Y-2053D01*
X11016Y-1918D01*
X11005Y-1894D01*
X11035Y-1864D01*
X11066Y-1791D01*
X11066Y-1554D01*
X11035Y-1481D01*
X10979Y-1425D01*
X10905Y-1394D01*
X10826Y-1394D01*
X10848Y-1394D01*
X10798Y-1444D01*
X10798Y-1633D01*
X11016Y-1633D01*
X11066Y-1583D01*
X11066Y-1554D01*
X11066Y-1791D01*
X11066Y-1762D01*
X11016Y-1712D01*
X10798Y-1712D01*
X10798Y-1730D01*
X10698Y-1730D01*
X10698Y-1712D01*
X10698Y-1633D01*
X10698Y-1444D01*
X10648Y-1394D01*
X10669Y-1394D01*
X10590Y-1394D01*
X10516Y-1425D01*
X10460Y-1481D01*
X10429Y-1554D01*
X10430Y-1583D01*
X10480Y-1633D01*
X10698Y-1633D01*
X10698Y-1712D01*
X10480Y-1712D01*
X10430Y-1762D01*
X10429Y-1791D01*
X10433Y-1800D01*
X9784Y-1800D01*
X9759Y-1774D01*
X9759Y-1248D01*
X9759Y-877D01*
X9758Y-798D01*
X9728Y-724D01*
X9672Y-668D01*
X9598Y-637D01*
X9534Y-638D01*
X9484Y-688D01*
X9484Y-1013D01*
X9709Y-1013D01*
X9759Y-963D01*
X9759Y-877D01*
X9759Y-1248D01*
X9759Y-1163D01*
X9709Y-1113D01*
X9484Y-1113D01*
X9484Y-1438D01*
X9534Y-1488D01*
X9598Y-1488D01*
X9672Y-1457D01*
X9728Y-1401D01*
X9758Y-1327D01*
X9759Y-1248D01*
X9759Y-1774D01*
X9681Y-1696D01*
X9548Y-1564D01*
X9251Y-1564D01*
X9116Y-1699D01*
X9094Y-1699D01*
X8998Y-1718D01*
X8994Y-1720D01*
X8946Y-1720D01*
X8891Y-1743D01*
X8849Y-1785D01*
X8702Y-1785D01*
X8702Y-1737D01*
X8677Y-1737D01*
X8701Y-1713D01*
X8701Y-1699D01*
X8671Y-1625D01*
X8652Y-1606D01*
X8652Y-1512D01*
X8629Y-1457D01*
X8590Y-1417D01*
X8608Y-1399D01*
X8623Y-1415D01*
X8679Y-1437D01*
X8738Y-1438D01*
X8988Y-1438D01*
X9043Y-1415D01*
X9086Y-1373D01*
X9108Y-1317D01*
X9108Y-1288D01*
X9109Y-1327D01*
X9139Y-1401D01*
X9195Y-1457D01*
X9269Y-1488D01*
X9334Y-1488D01*
X9384Y-1438D01*
X9384Y-1113D01*
X9376Y-1113D01*
X9376Y-1013D01*
X9384Y-1013D01*
X9384Y-748D01*
X9404Y-697D01*
X9405Y-618D01*
X9405Y-533D01*
X9355Y-483D01*
X9130Y-483D01*
X9130Y-490D01*
X9030Y-490D01*
X9030Y-483D01*
X9022Y-483D01*
X9022Y-383D01*
X9030Y-383D01*
X9030Y-375D01*
X9130Y-375D01*
X9130Y-383D01*
X9355Y-383D01*
X9405Y-333D01*
X9405Y-247D01*
X9405Y-225D01*
X12550Y-225D01*
X12806Y-480D01*
X12806Y-2042D01*
X12788Y-2042D01*
X12128Y-2043D01*
X12078Y-2093D01*
X12078Y-2493D01*
X12085Y-2493D01*
X12085Y-2593D01*
X12078Y-2593D01*
X12078Y-2993D01*
X12128Y-3043D01*
X12788Y-3043D01*
X12806Y-3043D01*
X12806Y-3092D01*
G54D10*
G36*
X12806Y-6683D02*
X12627Y-6862D01*
X11978Y-6862D01*
X11978Y-4993D01*
X11978Y-4593D01*
X11978Y-4493D01*
X11978Y-4093D01*
X11928Y-4043D01*
X11267Y-4042D01*
X11192Y-4043D01*
X11188Y-4043D01*
X11114Y-4073D01*
X11058Y-4129D01*
X11027Y-4203D01*
X11028Y-4443D01*
X11078Y-4493D01*
X11192Y-4493D01*
X11978Y-4493D01*
X11978Y-4593D01*
X11192Y-4593D01*
X11078Y-4593D01*
X11028Y-4643D01*
X11027Y-4882D01*
X11058Y-4956D01*
X11114Y-5012D01*
X11188Y-5042D01*
X11192Y-5042D01*
X11267Y-5043D01*
X11928Y-5043D01*
X11978Y-4993D01*
X11978Y-6862D01*
X11753Y-6862D01*
X11754Y-6810D01*
X11754Y-6575D01*
X11753Y-6496D01*
X11729Y-6437D01*
X11753Y-6377D01*
X11754Y-6298D01*
X11754Y-6063D01*
X11753Y-5984D01*
X11723Y-5910D01*
X11667Y-5854D01*
X11593Y-5823D01*
X11497Y-5824D01*
X11447Y-5874D01*
X11447Y-6131D01*
X11704Y-6131D01*
X11754Y-6081D01*
X11754Y-6063D01*
X11754Y-6298D01*
X11754Y-6281D01*
X11704Y-6231D01*
X11447Y-6231D01*
X11447Y-6386D01*
X11447Y-6488D01*
X11447Y-6643D01*
X11704Y-6643D01*
X11754Y-6593D01*
X11754Y-6575D01*
X11754Y-6810D01*
X11754Y-6793D01*
X11704Y-6743D01*
X11447Y-6743D01*
X11447Y-6750D01*
X11347Y-6750D01*
X11347Y-6743D01*
X11339Y-6743D01*
X11339Y-6643D01*
X11347Y-6643D01*
X11347Y-6488D01*
X11347Y-6386D01*
X11347Y-6231D01*
X11339Y-6231D01*
X11339Y-6131D01*
X11347Y-6131D01*
X11347Y-5874D01*
X11297Y-5824D01*
X11200Y-5823D01*
X11192Y-5827D01*
X11126Y-5854D01*
X11070Y-5910D01*
X11068Y-5916D01*
X11049Y-5896D01*
X10993Y-5874D01*
X10934Y-5873D01*
X10841Y-5873D01*
X10611Y-5643D01*
X10611Y-5539D01*
X10588Y-5484D01*
X10546Y-5441D01*
X10490Y-5419D01*
X10431Y-5418D01*
X10043Y-5418D01*
X10043Y-5369D01*
X10490Y-5369D01*
X10545Y-5346D01*
X10588Y-5304D01*
X10610Y-5248D01*
X10611Y-5189D01*
X10611Y-4939D01*
X10588Y-4884D01*
X10546Y-4841D01*
X10490Y-4819D01*
X10467Y-4819D01*
X10468Y-4752D01*
X10468Y-4381D01*
X10467Y-4302D01*
X10437Y-4228D01*
X10381Y-4172D01*
X10307Y-4141D01*
X10243Y-4142D01*
X10193Y-4192D01*
X10193Y-4517D01*
X10418Y-4517D01*
X10468Y-4467D01*
X10468Y-4381D01*
X10468Y-4752D01*
X10468Y-4667D01*
X10418Y-4617D01*
X10193Y-4617D01*
X10193Y-4624D01*
X10093Y-4624D01*
X10093Y-4617D01*
X10085Y-4617D01*
X10085Y-4517D01*
X10093Y-4517D01*
X10093Y-4192D01*
X10043Y-4142D01*
X9978Y-4141D01*
X9904Y-4172D01*
X9865Y-4212D01*
X9865Y-3838D01*
X9865Y-3809D01*
X9815Y-3759D01*
X9597Y-3759D01*
X9597Y-3948D01*
X9647Y-3998D01*
X9625Y-3998D01*
X9704Y-3998D01*
X9778Y-3967D01*
X9834Y-3911D01*
X9865Y-3838D01*
X9865Y-4212D01*
X9848Y-4228D01*
X9818Y-4302D01*
X9818Y-4312D01*
X9795Y-4257D01*
X9753Y-4214D01*
X9704Y-4194D01*
X9684Y-4164D01*
X9684Y-4164D01*
X9551Y-4031D01*
X9486Y-3988D01*
X9462Y-3983D01*
X9497Y-3948D01*
X9497Y-3759D01*
X9279Y-3759D01*
X9236Y-3802D01*
X9236Y-3658D01*
X9205Y-3584D01*
X9149Y-3528D01*
X9075Y-3498D01*
X8996Y-3497D01*
X8986Y-3498D01*
X8936Y-3548D01*
X8936Y-3748D01*
X9186Y-3748D01*
X9236Y-3698D01*
X9236Y-3658D01*
X9236Y-3802D01*
X9229Y-3809D01*
X9228Y-3838D01*
X9259Y-3911D01*
X9315Y-3967D01*
X9327Y-3973D01*
X9221Y-3973D01*
X9236Y-3937D01*
X9236Y-3898D01*
X9186Y-3848D01*
X8936Y-3848D01*
X8936Y-3855D01*
X8836Y-3855D01*
X8836Y-3848D01*
X8828Y-3848D01*
X8828Y-3748D01*
X8836Y-3748D01*
X8836Y-3548D01*
X8786Y-3498D01*
X8775Y-3497D01*
X8774Y-3497D01*
X8770Y-3479D01*
X8767Y-3466D01*
X8767Y-3466D01*
X8724Y-3401D01*
X8724Y-3401D01*
X8540Y-3217D01*
X8614Y-3187D01*
X8670Y-3131D01*
X8671Y-3127D01*
X8834Y-3290D01*
X8841Y-3295D01*
X8841Y-3295D01*
X8848Y-3312D01*
X8890Y-3354D01*
X8946Y-3377D01*
X8994Y-3377D01*
X8998Y-3379D01*
X9080Y-3396D01*
X9245Y-3561D01*
X9228Y-3601D01*
X9229Y-3630D01*
X9279Y-3680D01*
X9497Y-3680D01*
X9497Y-3662D01*
X9597Y-3662D01*
X9597Y-3680D01*
X9815Y-3680D01*
X9865Y-3630D01*
X9865Y-3601D01*
X9834Y-3528D01*
X9804Y-3498D01*
X9814Y-3474D01*
X9815Y-3414D01*
X9815Y-3307D01*
X9878Y-3243D01*
X10198Y-2924D01*
X10528Y-2924D01*
X10528Y-3209D01*
X10543Y-3285D01*
X10586Y-3350D01*
X10920Y-3684D01*
X10985Y-3727D01*
X10985Y-3727D01*
X10998Y-3730D01*
X11062Y-3743D01*
X11077Y-3743D01*
X11077Y-3872D01*
X11100Y-3927D01*
X11142Y-3970D01*
X11192Y-3990D01*
X11198Y-3992D01*
X11257Y-3993D01*
X12806Y-3993D01*
X12806Y-4042D01*
X12788Y-4042D01*
X12128Y-4043D01*
X12078Y-4093D01*
X12078Y-4493D01*
X12085Y-4493D01*
X12085Y-4593D01*
X12078Y-4593D01*
X12078Y-4993D01*
X12128Y-5043D01*
X12788Y-5043D01*
X12806Y-5043D01*
X12806Y-6683D01*
X12806Y-6683D01*
G37*
G54D29*
X12806Y-6683D02*
X12627Y-6862D01*
X11978Y-6862D01*
X11978Y-4993D01*
X11978Y-4593D01*
X11978Y-4493D01*
X11978Y-4093D01*
X11928Y-4043D01*
X11267Y-4042D01*
X11192Y-4043D01*
X11188Y-4043D01*
X11114Y-4073D01*
X11058Y-4129D01*
X11027Y-4203D01*
X11028Y-4443D01*
X11078Y-4493D01*
X11192Y-4493D01*
X11978Y-4493D01*
X11978Y-4593D01*
X11192Y-4593D01*
X11078Y-4593D01*
X11028Y-4643D01*
X11027Y-4882D01*
X11058Y-4956D01*
X11114Y-5012D01*
X11188Y-5042D01*
X11192Y-5042D01*
X11267Y-5043D01*
X11928Y-5043D01*
X11978Y-4993D01*
X11978Y-6862D01*
X11753Y-6862D01*
X11754Y-6810D01*
X11754Y-6575D01*
X11753Y-6496D01*
X11729Y-6437D01*
X11753Y-6377D01*
X11754Y-6298D01*
X11754Y-6063D01*
X11753Y-5984D01*
X11723Y-5910D01*
X11667Y-5854D01*
X11593Y-5823D01*
X11497Y-5824D01*
X11447Y-5874D01*
X11447Y-6131D01*
X11704Y-6131D01*
X11754Y-6081D01*
X11754Y-6063D01*
X11754Y-6298D01*
X11754Y-6281D01*
X11704Y-6231D01*
X11447Y-6231D01*
X11447Y-6386D01*
X11447Y-6488D01*
X11447Y-6643D01*
X11704Y-6643D01*
X11754Y-6593D01*
X11754Y-6575D01*
X11754Y-6810D01*
X11754Y-6793D01*
X11704Y-6743D01*
X11447Y-6743D01*
X11447Y-6750D01*
X11347Y-6750D01*
X11347Y-6743D01*
X11339Y-6743D01*
X11339Y-6643D01*
X11347Y-6643D01*
X11347Y-6488D01*
X11347Y-6386D01*
X11347Y-6231D01*
X11339Y-6231D01*
X11339Y-6131D01*
X11347Y-6131D01*
X11347Y-5874D01*
X11297Y-5824D01*
X11200Y-5823D01*
X11192Y-5827D01*
X11126Y-5854D01*
X11070Y-5910D01*
X11068Y-5916D01*
X11049Y-5896D01*
X10993Y-5874D01*
X10934Y-5873D01*
X10841Y-5873D01*
X10611Y-5643D01*
X10611Y-5539D01*
X10588Y-5484D01*
X10546Y-5441D01*
X10490Y-5419D01*
X10431Y-5418D01*
X10043Y-5418D01*
X10043Y-5369D01*
X10490Y-5369D01*
X10545Y-5346D01*
X10588Y-5304D01*
X10610Y-5248D01*
X10611Y-5189D01*
X10611Y-4939D01*
X10588Y-4884D01*
X10546Y-4841D01*
X10490Y-4819D01*
X10467Y-4819D01*
X10468Y-4752D01*
X10468Y-4381D01*
X10467Y-4302D01*
X10437Y-4228D01*
X10381Y-4172D01*
X10307Y-4141D01*
X10243Y-4142D01*
X10193Y-4192D01*
X10193Y-4517D01*
X10418Y-4517D01*
X10468Y-4467D01*
X10468Y-4381D01*
X10468Y-4752D01*
X10468Y-4667D01*
X10418Y-4617D01*
X10193Y-4617D01*
X10193Y-4624D01*
X10093Y-4624D01*
X10093Y-4617D01*
X10085Y-4617D01*
X10085Y-4517D01*
X10093Y-4517D01*
X10093Y-4192D01*
X10043Y-4142D01*
X9978Y-4141D01*
X9904Y-4172D01*
X9865Y-4212D01*
X9865Y-3838D01*
X9865Y-3809D01*
X9815Y-3759D01*
X9597Y-3759D01*
X9597Y-3948D01*
X9647Y-3998D01*
X9625Y-3998D01*
X9704Y-3998D01*
X9778Y-3967D01*
X9834Y-3911D01*
X9865Y-3838D01*
X9865Y-4212D01*
X9848Y-4228D01*
X9818Y-4302D01*
X9818Y-4312D01*
X9795Y-4257D01*
X9753Y-4214D01*
X9704Y-4194D01*
X9684Y-4164D01*
X9684Y-4164D01*
X9551Y-4031D01*
X9486Y-3988D01*
X9462Y-3983D01*
X9497Y-3948D01*
X9497Y-3759D01*
X9279Y-3759D01*
X9236Y-3802D01*
X9236Y-3658D01*
X9205Y-3584D01*
X9149Y-3528D01*
X9075Y-3498D01*
X8996Y-3497D01*
X8986Y-3498D01*
X8936Y-3548D01*
X8936Y-3748D01*
X9186Y-3748D01*
X9236Y-3698D01*
X9236Y-3658D01*
X9236Y-3802D01*
X9229Y-3809D01*
X9228Y-3838D01*
X9259Y-3911D01*
X9315Y-3967D01*
X9327Y-3973D01*
X9221Y-3973D01*
X9236Y-3937D01*
X9236Y-3898D01*
X9186Y-3848D01*
X8936Y-3848D01*
X8936Y-3855D01*
X8836Y-3855D01*
X8836Y-3848D01*
X8828Y-3848D01*
X8828Y-3748D01*
X8836Y-3748D01*
X8836Y-3548D01*
X8786Y-3498D01*
X8775Y-3497D01*
X8774Y-3497D01*
X8770Y-3479D01*
X8767Y-3466D01*
X8767Y-3466D01*
X8724Y-3401D01*
X8724Y-3401D01*
X8540Y-3217D01*
X8614Y-3187D01*
X8670Y-3131D01*
X8671Y-3127D01*
X8834Y-3290D01*
X8841Y-3295D01*
X8841Y-3295D01*
X8848Y-3312D01*
X8890Y-3354D01*
X8946Y-3377D01*
X8994Y-3377D01*
X8998Y-3379D01*
X9080Y-3396D01*
X9245Y-3561D01*
X9228Y-3601D01*
X9229Y-3630D01*
X9279Y-3680D01*
X9497Y-3680D01*
X9497Y-3662D01*
X9597Y-3662D01*
X9597Y-3680D01*
X9815Y-3680D01*
X9865Y-3630D01*
X9865Y-3601D01*
X9834Y-3528D01*
X9804Y-3498D01*
X9814Y-3474D01*
X9815Y-3414D01*
X9815Y-3307D01*
X9878Y-3243D01*
X10198Y-2924D01*
X10528Y-2924D01*
X10528Y-3209D01*
X10543Y-3285D01*
X10586Y-3350D01*
X10920Y-3684D01*
X10985Y-3727D01*
X10985Y-3727D01*
X10998Y-3730D01*
X11062Y-3743D01*
X11077Y-3743D01*
X11077Y-3872D01*
X11100Y-3927D01*
X11142Y-3970D01*
X11192Y-3990D01*
X11198Y-3992D01*
X11257Y-3993D01*
X12806Y-3993D01*
X12806Y-4042D01*
X12788Y-4042D01*
X12128Y-4043D01*
X12078Y-4093D01*
X12078Y-4493D01*
X12085Y-4493D01*
X12085Y-4593D01*
X12078Y-4593D01*
X12078Y-4993D01*
X12128Y-5043D01*
X12788Y-5043D01*
X12806Y-5043D01*
X12806Y-6683D01*
M02*
