G04 (created by PCBNEW (2013-07-07 BZR 4022)-stable) date 2015/9/10 11:53:31*
%MOIN*%
G04 Gerber Fmt 3.4, Leading zero omitted, Abs format*
%FSLAX34Y34*%
G01*
G70*
G90*
G04 APERTURE LIST*
%ADD10C,0.00590551*%
%ADD11C,0.007875*%
%ADD12C,0.0079*%
%ADD13C,0.0177*%
%ADD14C,0.0118*%
%ADD15C,0.0001*%
G04 APERTURE END LIST*
G54D10*
G54D11*
X1414Y-678D02*
X1519Y-528D01*
X1594Y-678D02*
X1594Y-363D01*
X1474Y-363D01*
X1444Y-378D01*
X1429Y-393D01*
X1414Y-423D01*
X1414Y-468D01*
X1429Y-498D01*
X1444Y-513D01*
X1474Y-528D01*
X1594Y-528D01*
X1159Y-663D02*
X1189Y-678D01*
X1249Y-678D01*
X1279Y-663D01*
X1294Y-633D01*
X1294Y-513D01*
X1279Y-483D01*
X1249Y-468D01*
X1189Y-468D01*
X1159Y-483D01*
X1144Y-513D01*
X1144Y-543D01*
X1294Y-573D01*
X1039Y-468D02*
X964Y-678D01*
X889Y-468D01*
X769Y-648D02*
X754Y-663D01*
X769Y-678D01*
X784Y-663D01*
X769Y-648D01*
X769Y-678D01*
X619Y-678D02*
X619Y-363D01*
X544Y-363D01*
X499Y-378D01*
X469Y-408D01*
X454Y-438D01*
X439Y-498D01*
X439Y-543D01*
X454Y-603D01*
X469Y-633D01*
X499Y-663D01*
X544Y-678D01*
X619Y-678D01*
G54D12*
G54D11*
X10139Y-5599D02*
X10319Y-5599D01*
X10229Y-5599D02*
X10229Y-5284D01*
X10259Y-5329D01*
X10289Y-5359D01*
X10319Y-5374D01*
X9944Y-5284D02*
X9914Y-5284D01*
X9884Y-5299D01*
X9869Y-5314D01*
X9854Y-5344D01*
X9839Y-5404D01*
X9839Y-5479D01*
X9854Y-5539D01*
X9869Y-5569D01*
X9884Y-5584D01*
X9914Y-5599D01*
X9944Y-5599D01*
X9974Y-5584D01*
X9989Y-5569D01*
X10004Y-5539D01*
X10019Y-5479D01*
X10019Y-5404D01*
X10004Y-5344D01*
X9989Y-5314D01*
X9974Y-5299D01*
X9944Y-5284D01*
G54D12*
G54D11*
X10257Y-6584D02*
X10197Y-6584D01*
X10167Y-6569D01*
X10152Y-6554D01*
X10122Y-6509D01*
X10107Y-6449D01*
X10107Y-6329D01*
X10122Y-6299D01*
X10137Y-6284D01*
X10167Y-6269D01*
X10227Y-6269D01*
X10257Y-6284D01*
X10272Y-6299D01*
X10287Y-6329D01*
X10287Y-6404D01*
X10272Y-6434D01*
X10257Y-6449D01*
X10227Y-6464D01*
X10167Y-6464D01*
X10137Y-6449D01*
X10122Y-6434D01*
X10107Y-6404D01*
G54D12*
G54D11*
X4775Y-5275D02*
X4760Y-5260D01*
X4730Y-5245D01*
X4655Y-5245D01*
X4625Y-5260D01*
X4610Y-5275D01*
X4595Y-5305D01*
X4595Y-5335D01*
X4610Y-5380D01*
X4790Y-5560D01*
X4595Y-5560D01*
G54D12*
G54D11*
X4595Y-6544D02*
X4775Y-6544D01*
X4685Y-6544D02*
X4685Y-6229D01*
X4715Y-6274D01*
X4745Y-6304D01*
X4775Y-6319D01*
G54D12*
G54D13*
X9509Y-4438D02*
X9556Y-4485D01*
X9697Y-4532D01*
X9790Y-4532D01*
X9931Y-4485D01*
X10025Y-4391D01*
X10071Y-4298D01*
X10118Y-4110D01*
X10118Y-3970D01*
X10071Y-3782D01*
X10025Y-3688D01*
X9931Y-3595D01*
X9790Y-3548D01*
X9697Y-3548D01*
X9556Y-3595D01*
X9509Y-3642D01*
X9087Y-4532D02*
X9087Y-3876D01*
X9087Y-4063D02*
X9041Y-3970D01*
X8994Y-3923D01*
X8900Y-3876D01*
X8806Y-3876D01*
X8057Y-4532D02*
X8057Y-4016D01*
X8103Y-3923D01*
X8197Y-3876D01*
X8385Y-3876D01*
X8478Y-3923D01*
X8057Y-4485D02*
X8150Y-4532D01*
X8385Y-4532D01*
X8478Y-4485D01*
X8525Y-4391D01*
X8525Y-4298D01*
X8478Y-4204D01*
X8385Y-4157D01*
X8150Y-4157D01*
X8057Y-4110D01*
X7682Y-3876D02*
X7166Y-3876D01*
X7682Y-4532D01*
X7166Y-4532D01*
X6885Y-3876D02*
X6651Y-4532D01*
X6417Y-3876D02*
X6651Y-4532D01*
X6745Y-4766D01*
X6791Y-4813D01*
X6885Y-4860D01*
X6042Y-4532D02*
X6042Y-3876D01*
X6042Y-4063D02*
X5995Y-3970D01*
X5948Y-3923D01*
X5854Y-3876D01*
X5761Y-3876D01*
X5011Y-4532D02*
X5011Y-4016D01*
X5058Y-3923D01*
X5151Y-3876D01*
X5339Y-3876D01*
X5433Y-3923D01*
X5011Y-4485D02*
X5105Y-4532D01*
X5339Y-4532D01*
X5433Y-4485D01*
X5479Y-4391D01*
X5479Y-4298D01*
X5433Y-4204D01*
X5339Y-4157D01*
X5105Y-4157D01*
X5011Y-4110D01*
X4121Y-4532D02*
X4121Y-3548D01*
X4121Y-4485D02*
X4214Y-4532D01*
X4402Y-4532D01*
X4495Y-4485D01*
X4542Y-4438D01*
X4589Y-4344D01*
X4589Y-4063D01*
X4542Y-3970D01*
X4495Y-3923D01*
X4402Y-3876D01*
X4214Y-3876D01*
X4121Y-3923D01*
X3652Y-4532D02*
X3652Y-3876D01*
X3652Y-3548D02*
X3699Y-3595D01*
X3652Y-3642D01*
X3605Y-3595D01*
X3652Y-3548D01*
X3652Y-3642D01*
X3043Y-4532D02*
X3137Y-4485D01*
X3183Y-4438D01*
X3230Y-4344D01*
X3230Y-4063D01*
X3183Y-3970D01*
X3137Y-3923D01*
X3043Y-3876D01*
X2902Y-3876D01*
X2809Y-3923D01*
X2762Y-3970D01*
X2715Y-4063D01*
X2715Y-4344D01*
X2762Y-4438D01*
X2809Y-4485D01*
X2902Y-4532D01*
X3043Y-4532D01*
G54D14*
X8148Y-2829D02*
X8148Y-2357D01*
X8148Y-2536D02*
X8103Y-2514D01*
X8013Y-2514D01*
X7968Y-2536D01*
X7946Y-2559D01*
X7923Y-2604D01*
X7923Y-2739D01*
X7946Y-2784D01*
X7968Y-2806D01*
X8013Y-2829D01*
X8103Y-2829D01*
X8148Y-2806D01*
X7721Y-2829D02*
X7721Y-2514D01*
X7721Y-2357D02*
X7743Y-2379D01*
X7721Y-2402D01*
X7698Y-2379D01*
X7721Y-2357D01*
X7721Y-2402D01*
X7563Y-2514D02*
X7384Y-2514D01*
X7496Y-2357D02*
X7496Y-2761D01*
X7474Y-2806D01*
X7429Y-2829D01*
X7384Y-2829D01*
X7024Y-2806D02*
X7069Y-2829D01*
X7159Y-2829D01*
X7204Y-2806D01*
X7226Y-2784D01*
X7249Y-2739D01*
X7249Y-2604D01*
X7226Y-2559D01*
X7204Y-2536D01*
X7159Y-2514D01*
X7069Y-2514D01*
X7024Y-2536D01*
X6822Y-2829D02*
X6822Y-2514D01*
X6822Y-2604D02*
X6799Y-2559D01*
X6777Y-2536D01*
X6732Y-2514D01*
X6687Y-2514D01*
X6327Y-2829D02*
X6327Y-2581D01*
X6350Y-2536D01*
X6395Y-2514D01*
X6485Y-2514D01*
X6530Y-2536D01*
X6327Y-2806D02*
X6372Y-2829D01*
X6485Y-2829D01*
X6530Y-2806D01*
X6552Y-2761D01*
X6552Y-2716D01*
X6530Y-2671D01*
X6485Y-2649D01*
X6372Y-2649D01*
X6327Y-2626D01*
X6147Y-2514D02*
X5900Y-2514D01*
X6147Y-2829D01*
X5900Y-2829D01*
X5541Y-2806D02*
X5586Y-2829D01*
X5675Y-2829D01*
X5720Y-2806D01*
X5743Y-2761D01*
X5743Y-2581D01*
X5720Y-2536D01*
X5675Y-2514D01*
X5586Y-2514D01*
X5541Y-2536D01*
X5518Y-2581D01*
X5518Y-2626D01*
X5743Y-2671D01*
X5316Y-2784D02*
X5293Y-2806D01*
X5316Y-2829D01*
X5338Y-2806D01*
X5316Y-2784D01*
X5316Y-2829D01*
X5114Y-2806D02*
X5069Y-2829D01*
X4979Y-2829D01*
X4934Y-2806D01*
X4911Y-2761D01*
X4911Y-2739D01*
X4934Y-2694D01*
X4979Y-2671D01*
X5046Y-2671D01*
X5091Y-2649D01*
X5114Y-2604D01*
X5114Y-2581D01*
X5091Y-2536D01*
X5046Y-2514D01*
X4979Y-2514D01*
X4934Y-2536D01*
X4529Y-2806D02*
X4574Y-2829D01*
X4664Y-2829D01*
X4709Y-2806D01*
X4731Y-2761D01*
X4731Y-2581D01*
X4709Y-2536D01*
X4664Y-2514D01*
X4574Y-2514D01*
X4529Y-2536D01*
X4507Y-2581D01*
X4507Y-2626D01*
X4731Y-2671D01*
G54D15*
G36*
X7376Y-2212D02*
X7376Y-1997D01*
X7600Y-1996D01*
X7600Y-682D01*
X6622Y-681D01*
X6622Y-466D01*
X6069Y-466D01*
X6069Y-681D01*
X5100Y-681D01*
X5100Y-1997D01*
X5230Y-1997D01*
X5230Y-1867D01*
X5230Y-811D01*
X6199Y-811D01*
X6199Y-682D01*
X6199Y-596D01*
X6492Y-596D01*
X6492Y-682D01*
X6199Y-682D01*
X6199Y-811D01*
X7470Y-811D01*
X7470Y-1867D01*
X5230Y-1867D01*
X5230Y-1997D01*
X5315Y-1997D01*
X5315Y-2212D01*
X5445Y-2212D01*
X5445Y-2082D01*
X5445Y-1996D01*
X5738Y-1996D01*
X5738Y-2082D01*
X5445Y-2082D01*
X5445Y-2212D01*
X5867Y-2212D01*
X5867Y-1997D01*
X6824Y-1997D01*
X6824Y-2212D01*
X6953Y-2212D01*
X6953Y-2082D01*
X6953Y-1996D01*
X7246Y-1996D01*
X7246Y-2082D01*
X6953Y-2082D01*
X6953Y-2212D01*
X7376Y-2212D01*
X7376Y-2212D01*
G37*
G36*
X5618Y-1643D02*
X5625Y-1643D01*
X5632Y-1643D01*
X5659Y-1641D01*
X5687Y-1638D01*
X5714Y-1632D01*
X5740Y-1624D01*
X5764Y-1614D01*
X5786Y-1601D01*
X5807Y-1586D01*
X5813Y-1581D01*
X5820Y-1575D01*
X5827Y-1567D01*
X5834Y-1560D01*
X5840Y-1554D01*
X5846Y-1546D01*
X5860Y-1526D01*
X5871Y-1505D01*
X5880Y-1483D01*
X5886Y-1459D01*
X5890Y-1433D01*
X5891Y-1427D01*
X5892Y-1408D01*
X5892Y-1388D01*
X5891Y-1367D01*
X5890Y-1345D01*
X5887Y-1325D01*
X5883Y-1308D01*
X5875Y-1276D01*
X5865Y-1246D01*
X5852Y-1217D01*
X5836Y-1188D01*
X5818Y-1162D01*
X5798Y-1137D01*
X5776Y-1113D01*
X5766Y-1104D01*
X5746Y-1086D01*
X5724Y-1071D01*
X5701Y-1057D01*
X5696Y-1054D01*
X5668Y-1040D01*
X5639Y-1029D01*
X5608Y-1020D01*
X5577Y-1014D01*
X5544Y-1010D01*
X5542Y-1010D01*
X5534Y-1009D01*
X5524Y-1009D01*
X5514Y-1009D01*
X5503Y-1009D01*
X5492Y-1009D01*
X5483Y-1010D01*
X5476Y-1010D01*
X5469Y-1011D01*
X5435Y-1017D01*
X5401Y-1025D01*
X5367Y-1035D01*
X5333Y-1049D01*
X5331Y-1049D01*
X5326Y-1052D01*
X5323Y-1053D01*
X5322Y-1054D01*
X5321Y-1055D01*
X5321Y-1056D01*
X5321Y-1056D01*
X5322Y-1059D01*
X5323Y-1064D01*
X5324Y-1071D01*
X5326Y-1079D01*
X5327Y-1088D01*
X5329Y-1099D01*
X5332Y-1110D01*
X5334Y-1121D01*
X5336Y-1132D01*
X5338Y-1143D01*
X5340Y-1153D01*
X5342Y-1162D01*
X5343Y-1169D01*
X5345Y-1175D01*
X5345Y-1179D01*
X5346Y-1180D01*
X5346Y-1180D01*
X5347Y-1179D01*
X5350Y-1177D01*
X5354Y-1174D01*
X5367Y-1166D01*
X5388Y-1153D01*
X5410Y-1143D01*
X5432Y-1135D01*
X5454Y-1129D01*
X5478Y-1125D01*
X5481Y-1124D01*
X5487Y-1124D01*
X5496Y-1124D01*
X5505Y-1123D01*
X5513Y-1123D01*
X5521Y-1123D01*
X5527Y-1124D01*
X5537Y-1125D01*
X5559Y-1129D01*
X5579Y-1135D01*
X5599Y-1144D01*
X5607Y-1148D01*
X5623Y-1158D01*
X5638Y-1169D01*
X5653Y-1183D01*
X5667Y-1198D01*
X5683Y-1218D01*
X5696Y-1240D01*
X5707Y-1263D01*
X5716Y-1287D01*
X5723Y-1313D01*
X5727Y-1341D01*
X5727Y-1345D01*
X5728Y-1353D01*
X5728Y-1364D01*
X5729Y-1374D01*
X5729Y-1385D01*
X5728Y-1394D01*
X5728Y-1401D01*
X5727Y-1404D01*
X5724Y-1423D01*
X5719Y-1441D01*
X5713Y-1457D01*
X5704Y-1471D01*
X5702Y-1474D01*
X5695Y-1483D01*
X5687Y-1491D01*
X5679Y-1498D01*
X5679Y-1499D01*
X5664Y-1509D01*
X5648Y-1517D01*
X5629Y-1523D01*
X5609Y-1527D01*
X5605Y-1527D01*
X5598Y-1528D01*
X5589Y-1528D01*
X5580Y-1528D01*
X5571Y-1528D01*
X5563Y-1528D01*
X5556Y-1527D01*
X5545Y-1526D01*
X5523Y-1521D01*
X5501Y-1516D01*
X5479Y-1508D01*
X5455Y-1498D01*
X5430Y-1487D01*
X5404Y-1474D01*
X5401Y-1472D01*
X5397Y-1470D01*
X5394Y-1468D01*
X5392Y-1468D01*
X5392Y-1468D01*
X5393Y-1470D01*
X5393Y-1474D01*
X5395Y-1480D01*
X5396Y-1488D01*
X5398Y-1497D01*
X5400Y-1508D01*
X5402Y-1519D01*
X5405Y-1530D01*
X5407Y-1542D01*
X5409Y-1554D01*
X5411Y-1565D01*
X5413Y-1575D01*
X5415Y-1584D01*
X5417Y-1592D01*
X5418Y-1597D01*
X5419Y-1601D01*
X5419Y-1603D01*
X5420Y-1603D01*
X5422Y-1604D01*
X5427Y-1605D01*
X5432Y-1607D01*
X5439Y-1609D01*
X5446Y-1612D01*
X5453Y-1614D01*
X5460Y-1616D01*
X5465Y-1617D01*
X5472Y-1620D01*
X5508Y-1629D01*
X5542Y-1636D01*
X5576Y-1640D01*
X5609Y-1643D01*
X5613Y-1643D01*
X5618Y-1643D01*
X5618Y-1643D01*
G37*
G36*
X7219Y-1636D02*
X7226Y-1636D01*
X7233Y-1636D01*
X7240Y-1635D01*
X7246Y-1635D01*
X7251Y-1634D01*
X7256Y-1633D01*
X7271Y-1630D01*
X7285Y-1624D01*
X7296Y-1617D01*
X7306Y-1609D01*
X7310Y-1604D01*
X7320Y-1591D01*
X7328Y-1576D01*
X7334Y-1560D01*
X7335Y-1557D01*
X7338Y-1541D01*
X7341Y-1522D01*
X7342Y-1502D01*
X7342Y-1479D01*
X7341Y-1455D01*
X7338Y-1428D01*
X7335Y-1399D01*
X7330Y-1368D01*
X7324Y-1335D01*
X7316Y-1299D01*
X7313Y-1283D01*
X7305Y-1250D01*
X7297Y-1220D01*
X7288Y-1191D01*
X7280Y-1166D01*
X7270Y-1142D01*
X7261Y-1121D01*
X7251Y-1102D01*
X7240Y-1085D01*
X7229Y-1070D01*
X7226Y-1066D01*
X7220Y-1060D01*
X7214Y-1054D01*
X7208Y-1048D01*
X7203Y-1043D01*
X7199Y-1039D01*
X7196Y-1037D01*
X7180Y-1027D01*
X7164Y-1019D01*
X7146Y-1013D01*
X7127Y-1009D01*
X7107Y-1008D01*
X7101Y-1007D01*
X7082Y-1008D01*
X7065Y-1011D01*
X7049Y-1016D01*
X7035Y-1023D01*
X7023Y-1032D01*
X7013Y-1043D01*
X7004Y-1056D01*
X6997Y-1072D01*
X6992Y-1090D01*
X6990Y-1096D01*
X6987Y-1114D01*
X6985Y-1135D01*
X6985Y-1158D01*
X6986Y-1184D01*
X6988Y-1212D01*
X6992Y-1241D01*
X6997Y-1274D01*
X7003Y-1308D01*
X7010Y-1344D01*
X7014Y-1359D01*
X7022Y-1394D01*
X7030Y-1425D01*
X7039Y-1454D01*
X7049Y-1481D01*
X7058Y-1505D01*
X7068Y-1526D01*
X7078Y-1545D01*
X7079Y-1546D01*
X7089Y-1562D01*
X7101Y-1576D01*
X7113Y-1590D01*
X7125Y-1602D01*
X7138Y-1611D01*
X7146Y-1616D01*
X7160Y-1623D01*
X7176Y-1629D01*
X7193Y-1633D01*
X7211Y-1636D01*
X7211Y-1577D01*
X7198Y-1576D01*
X7185Y-1571D01*
X7172Y-1565D01*
X7160Y-1556D01*
X7150Y-1545D01*
X7144Y-1537D01*
X7135Y-1522D01*
X7125Y-1504D01*
X7116Y-1484D01*
X7107Y-1461D01*
X7099Y-1436D01*
X7090Y-1408D01*
X7083Y-1378D01*
X7075Y-1347D01*
X7068Y-1313D01*
X7062Y-1277D01*
X7061Y-1272D01*
X7060Y-1264D01*
X7059Y-1255D01*
X7057Y-1246D01*
X7056Y-1237D01*
X7055Y-1229D01*
X7054Y-1222D01*
X7053Y-1216D01*
X7053Y-1212D01*
X7053Y-1211D01*
X7054Y-1212D01*
X7056Y-1215D01*
X7060Y-1220D01*
X7065Y-1227D01*
X7072Y-1235D01*
X7079Y-1244D01*
X7087Y-1255D01*
X7097Y-1267D01*
X7107Y-1280D01*
X7117Y-1294D01*
X7128Y-1308D01*
X7140Y-1323D01*
X7151Y-1338D01*
X7163Y-1353D01*
X7187Y-1384D01*
X7198Y-1399D01*
X7209Y-1413D01*
X7220Y-1427D01*
X7230Y-1440D01*
X7239Y-1452D01*
X7248Y-1463D01*
X7255Y-1473D01*
X7262Y-1481D01*
X7267Y-1488D01*
X7271Y-1493D01*
X7272Y-1494D01*
X7272Y-1418D01*
X7272Y-1417D01*
X7270Y-1415D01*
X7267Y-1411D01*
X7262Y-1405D01*
X7256Y-1398D01*
X7249Y-1389D01*
X7241Y-1378D01*
X7232Y-1367D01*
X7223Y-1354D01*
X7212Y-1341D01*
X7201Y-1327D01*
X7190Y-1313D01*
X7179Y-1298D01*
X7167Y-1283D01*
X7155Y-1267D01*
X7143Y-1252D01*
X7132Y-1237D01*
X7121Y-1223D01*
X7110Y-1209D01*
X7100Y-1196D01*
X7090Y-1184D01*
X7082Y-1173D01*
X7074Y-1163D01*
X7067Y-1154D01*
X7062Y-1147D01*
X7058Y-1141D01*
X7055Y-1137D01*
X7054Y-1136D01*
X7053Y-1135D01*
X7053Y-1133D01*
X7054Y-1128D01*
X7055Y-1122D01*
X7056Y-1115D01*
X7059Y-1108D01*
X7061Y-1102D01*
X7063Y-1097D01*
X7069Y-1086D01*
X7077Y-1078D01*
X7086Y-1072D01*
X7097Y-1068D01*
X7110Y-1066D01*
X7118Y-1066D01*
X7132Y-1068D01*
X7145Y-1073D01*
X7157Y-1081D01*
X7169Y-1091D01*
X7175Y-1096D01*
X7180Y-1102D01*
X7185Y-1109D01*
X7190Y-1118D01*
X7190Y-1118D01*
X7200Y-1136D01*
X7209Y-1156D01*
X7218Y-1178D01*
X7227Y-1203D01*
X7235Y-1231D01*
X7243Y-1260D01*
X7250Y-1292D01*
X7257Y-1325D01*
X7263Y-1360D01*
X7269Y-1397D01*
X7270Y-1400D01*
X7271Y-1407D01*
X7271Y-1412D01*
X7272Y-1416D01*
X7272Y-1418D01*
X7272Y-1494D01*
X7273Y-1496D01*
X7274Y-1497D01*
X7274Y-1498D01*
X7275Y-1500D01*
X7274Y-1505D01*
X7273Y-1511D01*
X7272Y-1517D01*
X7271Y-1524D01*
X7269Y-1531D01*
X7267Y-1536D01*
X7267Y-1538D01*
X7264Y-1545D01*
X7261Y-1550D01*
X7258Y-1555D01*
X7253Y-1562D01*
X7244Y-1569D01*
X7234Y-1574D01*
X7222Y-1577D01*
X7211Y-1577D01*
X7211Y-1636D01*
X7212Y-1636D01*
X7214Y-1636D01*
X7219Y-1636D01*
X7219Y-1636D01*
G37*
G36*
X6463Y-1631D02*
X6478Y-1631D01*
X6491Y-1631D01*
X6502Y-1631D01*
X6511Y-1631D01*
X6518Y-1631D01*
X6524Y-1631D01*
X6529Y-1631D01*
X6532Y-1631D01*
X6535Y-1631D01*
X6537Y-1631D01*
X6538Y-1631D01*
X6538Y-1630D01*
X6538Y-1630D01*
X6538Y-1630D01*
X6538Y-1627D01*
X6537Y-1621D01*
X6535Y-1613D01*
X6533Y-1603D01*
X6531Y-1591D01*
X6528Y-1578D01*
X6525Y-1562D01*
X6518Y-1526D01*
X6514Y-1506D01*
X6506Y-1463D01*
X6502Y-1440D01*
X6493Y-1393D01*
X6483Y-1343D01*
X6473Y-1294D01*
X6464Y-1245D01*
X6459Y-1221D01*
X6451Y-1175D01*
X6442Y-1133D01*
X6439Y-1114D01*
X6435Y-1096D01*
X6432Y-1080D01*
X6429Y-1065D01*
X6427Y-1053D01*
X6425Y-1042D01*
X6423Y-1033D01*
X6422Y-1026D01*
X6421Y-1022D01*
X6421Y-1021D01*
X6421Y-1021D01*
X6420Y-1021D01*
X6420Y-1020D01*
X6419Y-1020D01*
X6417Y-1020D01*
X6415Y-1020D01*
X6411Y-1020D01*
X6407Y-1020D01*
X6401Y-1020D01*
X6393Y-1020D01*
X6385Y-1020D01*
X6374Y-1020D01*
X6361Y-1020D01*
X6346Y-1020D01*
X6329Y-1020D01*
X6310Y-1020D01*
X6270Y-1020D01*
X6249Y-1020D01*
X6231Y-1020D01*
X6215Y-1020D01*
X6201Y-1020D01*
X6189Y-1020D01*
X6179Y-1020D01*
X6170Y-1020D01*
X6162Y-1021D01*
X6156Y-1021D01*
X6150Y-1021D01*
X6146Y-1021D01*
X6141Y-1021D01*
X6137Y-1022D01*
X6133Y-1022D01*
X6130Y-1022D01*
X6126Y-1023D01*
X6111Y-1025D01*
X6087Y-1029D01*
X6065Y-1035D01*
X6046Y-1042D01*
X6030Y-1050D01*
X6015Y-1060D01*
X6003Y-1071D01*
X5993Y-1084D01*
X5985Y-1098D01*
X5979Y-1114D01*
X5976Y-1131D01*
X5976Y-1133D01*
X5975Y-1146D01*
X5975Y-1160D01*
X5976Y-1174D01*
X5978Y-1187D01*
X5980Y-1195D01*
X5986Y-1214D01*
X5995Y-1232D01*
X6005Y-1248D01*
X6017Y-1263D01*
X6031Y-1277D01*
X6046Y-1287D01*
X6048Y-1289D01*
X6056Y-1293D01*
X6066Y-1297D01*
X6075Y-1301D01*
X6078Y-1302D01*
X6081Y-1303D01*
X6083Y-1304D01*
X6083Y-1304D01*
X6082Y-1305D01*
X6078Y-1306D01*
X6066Y-1311D01*
X6052Y-1319D01*
X6040Y-1328D01*
X6030Y-1337D01*
X6022Y-1348D01*
X6014Y-1361D01*
X6009Y-1376D01*
X6004Y-1392D01*
X6004Y-1394D01*
X6003Y-1397D01*
X6003Y-1400D01*
X6002Y-1404D01*
X6002Y-1408D01*
X6002Y-1414D01*
X6002Y-1422D01*
X6002Y-1427D01*
X6002Y-1437D01*
X6003Y-1445D01*
X6003Y-1450D01*
X6005Y-1463D01*
X6010Y-1483D01*
X6017Y-1502D01*
X6025Y-1519D01*
X6035Y-1536D01*
X6038Y-1540D01*
X6043Y-1545D01*
X6047Y-1550D01*
X6053Y-1556D01*
X6060Y-1564D01*
X6078Y-1578D01*
X6098Y-1591D01*
X6119Y-1602D01*
X6143Y-1611D01*
X6169Y-1619D01*
X6196Y-1625D01*
X6225Y-1629D01*
X6256Y-1631D01*
X6257Y-1631D01*
X6261Y-1631D01*
X6268Y-1631D01*
X6277Y-1631D01*
X6288Y-1631D01*
X6300Y-1631D01*
X6315Y-1631D01*
X6331Y-1631D01*
X6332Y-1631D01*
X6332Y-1524D01*
X6322Y-1524D01*
X6310Y-1524D01*
X6299Y-1524D01*
X6286Y-1524D01*
X6274Y-1524D01*
X6265Y-1523D01*
X6257Y-1523D01*
X6251Y-1523D01*
X6245Y-1522D01*
X6241Y-1522D01*
X6236Y-1521D01*
X6232Y-1520D01*
X6228Y-1519D01*
X6218Y-1516D01*
X6204Y-1509D01*
X6191Y-1501D01*
X6180Y-1491D01*
X6172Y-1479D01*
X6165Y-1465D01*
X6161Y-1449D01*
X6160Y-1445D01*
X6159Y-1434D01*
X6159Y-1424D01*
X6159Y-1414D01*
X6161Y-1406D01*
X6161Y-1404D01*
X6163Y-1400D01*
X6165Y-1395D01*
X6166Y-1392D01*
X6169Y-1388D01*
X6173Y-1384D01*
X6175Y-1381D01*
X6184Y-1375D01*
X6195Y-1370D01*
X6208Y-1367D01*
X6223Y-1365D01*
X6226Y-1364D01*
X6232Y-1364D01*
X6241Y-1364D01*
X6252Y-1364D01*
X6266Y-1364D01*
X6269Y-1364D01*
X6269Y-1256D01*
X6258Y-1256D01*
X6248Y-1256D01*
X6239Y-1256D01*
X6230Y-1256D01*
X6222Y-1256D01*
X6216Y-1256D01*
X6212Y-1256D01*
X6210Y-1256D01*
X6202Y-1255D01*
X6188Y-1251D01*
X6176Y-1247D01*
X6165Y-1240D01*
X6156Y-1232D01*
X6148Y-1223D01*
X6141Y-1211D01*
X6137Y-1198D01*
X6136Y-1195D01*
X6135Y-1188D01*
X6135Y-1179D01*
X6135Y-1172D01*
X6136Y-1165D01*
X6137Y-1160D01*
X6142Y-1151D01*
X6148Y-1142D01*
X6157Y-1136D01*
X6168Y-1131D01*
X6181Y-1128D01*
X6183Y-1128D01*
X6186Y-1128D01*
X6190Y-1128D01*
X6196Y-1128D01*
X6203Y-1127D01*
X6212Y-1127D01*
X6223Y-1127D01*
X6237Y-1127D01*
X6247Y-1127D01*
X6258Y-1127D01*
X6267Y-1127D01*
X6275Y-1127D01*
X6281Y-1128D01*
X6285Y-1128D01*
X6286Y-1128D01*
X6286Y-1129D01*
X6287Y-1133D01*
X6288Y-1139D01*
X6290Y-1147D01*
X6291Y-1156D01*
X6293Y-1167D01*
X6296Y-1179D01*
X6301Y-1204D01*
X6303Y-1216D01*
X6305Y-1227D01*
X6307Y-1237D01*
X6309Y-1245D01*
X6310Y-1251D01*
X6310Y-1255D01*
X6311Y-1256D01*
X6310Y-1256D01*
X6308Y-1256D01*
X6303Y-1256D01*
X6296Y-1256D01*
X6288Y-1256D01*
X6279Y-1256D01*
X6269Y-1256D01*
X6269Y-1364D01*
X6282Y-1364D01*
X6332Y-1364D01*
X6350Y-1457D01*
X6357Y-1495D01*
X6359Y-1504D01*
X6361Y-1518D01*
X6362Y-1522D01*
X6362Y-1524D01*
X6362Y-1524D01*
X6361Y-1524D01*
X6356Y-1524D01*
X6350Y-1524D01*
X6342Y-1524D01*
X6332Y-1524D01*
X6332Y-1631D01*
X6348Y-1631D01*
X6366Y-1631D01*
X6385Y-1631D01*
X6404Y-1631D01*
X6426Y-1631D01*
X6445Y-1631D01*
X6463Y-1631D01*
X6463Y-1631D01*
G37*
G36*
X6954Y-1628D02*
X6962Y-1628D01*
X6972Y-1628D01*
X6980Y-1628D01*
X6986Y-1628D01*
X6990Y-1627D01*
X6991Y-1627D01*
X6991Y-1627D01*
X6989Y-1625D01*
X6986Y-1621D01*
X6982Y-1614D01*
X6976Y-1607D01*
X6969Y-1598D01*
X6961Y-1587D01*
X6952Y-1575D01*
X6942Y-1562D01*
X6932Y-1548D01*
X6921Y-1534D01*
X6905Y-1512D01*
X6893Y-1497D01*
X6882Y-1482D01*
X6872Y-1468D01*
X6863Y-1456D01*
X6854Y-1444D01*
X6847Y-1434D01*
X6840Y-1426D01*
X6835Y-1419D01*
X6832Y-1413D01*
X6829Y-1410D01*
X6828Y-1409D01*
X6829Y-1408D01*
X6830Y-1406D01*
X6831Y-1401D01*
X6834Y-1394D01*
X6837Y-1384D01*
X6841Y-1374D01*
X6845Y-1361D01*
X6850Y-1348D01*
X6855Y-1333D01*
X6861Y-1317D01*
X6867Y-1301D01*
X6870Y-1292D01*
X6875Y-1276D01*
X6881Y-1261D01*
X6886Y-1247D01*
X6890Y-1234D01*
X6895Y-1222D01*
X6898Y-1212D01*
X6901Y-1204D01*
X6903Y-1198D01*
X6904Y-1194D01*
X6905Y-1193D01*
X6905Y-1192D01*
X6905Y-1192D01*
X6904Y-1192D01*
X6902Y-1192D01*
X6899Y-1192D01*
X6894Y-1192D01*
X6887Y-1191D01*
X6878Y-1191D01*
X6867Y-1191D01*
X6829Y-1191D01*
X6829Y-1193D01*
X6828Y-1194D01*
X6827Y-1198D01*
X6825Y-1204D01*
X6823Y-1212D01*
X6821Y-1221D01*
X6818Y-1232D01*
X6814Y-1243D01*
X6811Y-1256D01*
X6807Y-1269D01*
X6803Y-1282D01*
X6800Y-1296D01*
X6796Y-1309D01*
X6792Y-1321D01*
X6789Y-1333D01*
X6786Y-1344D01*
X6783Y-1353D01*
X6781Y-1361D01*
X6780Y-1367D01*
X6779Y-1370D01*
X6778Y-1372D01*
X6778Y-1372D01*
X6778Y-1372D01*
X6776Y-1370D01*
X6775Y-1368D01*
X6772Y-1365D01*
X6769Y-1360D01*
X6765Y-1354D01*
X6759Y-1347D01*
X6753Y-1337D01*
X6746Y-1327D01*
X6737Y-1314D01*
X6727Y-1299D01*
X6715Y-1282D01*
X6654Y-1192D01*
X6618Y-1192D01*
X6610Y-1192D01*
X6600Y-1192D01*
X6593Y-1192D01*
X6588Y-1192D01*
X6585Y-1192D01*
X6583Y-1192D01*
X6582Y-1192D01*
X6582Y-1192D01*
X6582Y-1193D01*
X6582Y-1193D01*
X6584Y-1195D01*
X6587Y-1199D01*
X6591Y-1205D01*
X6597Y-1213D01*
X6612Y-1233D01*
X6631Y-1258D01*
X6669Y-1308D01*
X6680Y-1323D01*
X6691Y-1338D01*
X6701Y-1351D01*
X6710Y-1363D01*
X6718Y-1375D01*
X6726Y-1385D01*
X6732Y-1393D01*
X6737Y-1400D01*
X6741Y-1405D01*
X6743Y-1408D01*
X6744Y-1410D01*
X6744Y-1410D01*
X6743Y-1413D01*
X6742Y-1418D01*
X6739Y-1425D01*
X6736Y-1435D01*
X6732Y-1445D01*
X6728Y-1458D01*
X6723Y-1471D01*
X6718Y-1486D01*
X6712Y-1502D01*
X6706Y-1519D01*
X6703Y-1528D01*
X6697Y-1544D01*
X6692Y-1560D01*
X6687Y-1574D01*
X6682Y-1587D01*
X6678Y-1598D01*
X6675Y-1608D01*
X6672Y-1616D01*
X6670Y-1622D01*
X6668Y-1626D01*
X6668Y-1627D01*
X6669Y-1627D01*
X6672Y-1628D01*
X6677Y-1628D01*
X6685Y-1628D01*
X6695Y-1628D01*
X6707Y-1628D01*
X6746Y-1628D01*
X6758Y-1582D01*
X6764Y-1559D01*
X6770Y-1539D01*
X6775Y-1521D01*
X6779Y-1505D01*
X6783Y-1492D01*
X6786Y-1481D01*
X6788Y-1471D01*
X6790Y-1464D01*
X6792Y-1458D01*
X6793Y-1453D01*
X6794Y-1450D01*
X6795Y-1448D01*
X6795Y-1448D01*
X6796Y-1448D01*
X6796Y-1448D01*
X6797Y-1449D01*
X6800Y-1453D01*
X6804Y-1459D01*
X6809Y-1467D01*
X6815Y-1476D01*
X6822Y-1486D01*
X6830Y-1498D01*
X6838Y-1510D01*
X6847Y-1524D01*
X6857Y-1538D01*
X6917Y-1628D01*
X6954Y-1628D01*
X6954Y-1628D01*
G37*
M02*
