G04 (created by PCBNEW (2013-07-07 BZR 4022)-stable) date 2015/9/10 11:53:31*
%MOIN*%
G04 Gerber Fmt 3.4, Leading zero omitted, Abs format*
%FSLAX34Y34*%
G01*
G70*
G90*
G04 APERTURE LIST*
%ADD10C,0.00590551*%
%ADD11C,0.007875*%
%ADD12C,0.0079*%
%ADD13C,0.005*%
%ADD14C,0.006*%
%ADD15C,0.012*%
%ADD16C,0.015*%
G04 APERTURE END LIST*
G54D10*
G54D11*
X634Y-678D02*
X529Y-528D01*
X454Y-678D02*
X454Y-363D01*
X574Y-363D01*
X604Y-378D01*
X619Y-393D01*
X634Y-423D01*
X634Y-468D01*
X619Y-498D01*
X604Y-513D01*
X574Y-528D01*
X454Y-528D01*
X889Y-663D02*
X859Y-678D01*
X799Y-678D01*
X769Y-663D01*
X754Y-633D01*
X754Y-513D01*
X769Y-483D01*
X799Y-468D01*
X859Y-468D01*
X889Y-483D01*
X904Y-513D01*
X904Y-543D01*
X754Y-573D01*
X1009Y-468D02*
X1084Y-678D01*
X1159Y-468D01*
X1279Y-648D02*
X1294Y-663D01*
X1279Y-678D01*
X1264Y-663D01*
X1279Y-648D01*
X1279Y-678D01*
X1429Y-678D02*
X1429Y-363D01*
X1504Y-363D01*
X1549Y-378D01*
X1579Y-408D01*
X1594Y-438D01*
X1609Y-498D01*
X1609Y-543D01*
X1594Y-603D01*
X1579Y-633D01*
X1549Y-663D01*
X1504Y-678D01*
X1429Y-678D01*
G54D12*
G54D11*
X10012Y-993D02*
X10012Y-678D01*
X10012Y-798D02*
X10042Y-783D01*
X10102Y-783D01*
X10132Y-798D01*
X10147Y-813D01*
X10162Y-843D01*
X10162Y-933D01*
X10147Y-963D01*
X10132Y-978D01*
X10102Y-993D01*
X10042Y-993D01*
X10012Y-978D01*
X10297Y-993D02*
X10297Y-783D01*
X10297Y-678D02*
X10282Y-693D01*
X10297Y-708D01*
X10312Y-693D01*
X10297Y-678D01*
X10297Y-708D01*
X10402Y-783D02*
X10522Y-783D01*
X10447Y-678D02*
X10447Y-948D01*
X10462Y-978D01*
X10492Y-993D01*
X10522Y-993D01*
X10762Y-978D02*
X10732Y-993D01*
X10672Y-993D01*
X10642Y-978D01*
X10627Y-963D01*
X10612Y-933D01*
X10612Y-843D01*
X10627Y-813D01*
X10642Y-798D01*
X10672Y-783D01*
X10732Y-783D01*
X10762Y-798D01*
X10897Y-993D02*
X10897Y-783D01*
X10897Y-843D02*
X10912Y-813D01*
X10927Y-798D01*
X10957Y-783D01*
X10987Y-783D01*
X11227Y-993D02*
X11227Y-828D01*
X11212Y-798D01*
X11182Y-783D01*
X11122Y-783D01*
X11092Y-798D01*
X11227Y-978D02*
X11197Y-993D01*
X11122Y-993D01*
X11092Y-978D01*
X11077Y-948D01*
X11077Y-918D01*
X11092Y-888D01*
X11122Y-873D01*
X11197Y-873D01*
X11227Y-858D01*
X11347Y-783D02*
X11512Y-783D01*
X11347Y-993D01*
X11512Y-993D01*
X11752Y-978D02*
X11722Y-993D01*
X11662Y-993D01*
X11632Y-978D01*
X11617Y-948D01*
X11617Y-828D01*
X11632Y-798D01*
X11662Y-783D01*
X11722Y-783D01*
X11752Y-798D01*
X11767Y-828D01*
X11767Y-858D01*
X11617Y-888D01*
X11902Y-963D02*
X11917Y-978D01*
X11902Y-993D01*
X11887Y-978D01*
X11902Y-963D01*
X11902Y-993D01*
X12037Y-978D02*
X12067Y-993D01*
X12127Y-993D01*
X12157Y-978D01*
X12172Y-948D01*
X12172Y-933D01*
X12157Y-903D01*
X12127Y-888D01*
X12082Y-888D01*
X12052Y-873D01*
X12037Y-843D01*
X12037Y-828D01*
X12052Y-798D01*
X12082Y-783D01*
X12127Y-783D01*
X12157Y-798D01*
X12427Y-978D02*
X12397Y-993D01*
X12337Y-993D01*
X12307Y-978D01*
X12292Y-948D01*
X12292Y-828D01*
X12307Y-798D01*
X12337Y-783D01*
X12397Y-783D01*
X12427Y-798D01*
X12442Y-828D01*
X12442Y-858D01*
X12292Y-888D01*
G54D12*
G54D13*
X9986Y-5844D02*
X9986Y-4944D01*
X9986Y-4944D02*
X10486Y-4944D01*
X10486Y-4944D02*
X10486Y-5844D01*
X10486Y-5844D02*
X9986Y-5844D01*
X9986Y-6867D02*
X9986Y-5967D01*
X9986Y-5967D02*
X10486Y-5967D01*
X10486Y-5967D02*
X10486Y-6867D01*
X10486Y-6867D02*
X9986Y-6867D01*
X5765Y-4069D02*
X4865Y-4069D01*
X4865Y-4069D02*
X4865Y-3569D01*
X4865Y-3569D02*
X5765Y-3569D01*
X5765Y-3569D02*
X5765Y-4069D01*
X8330Y-183D02*
X9230Y-183D01*
X9230Y-183D02*
X9230Y-683D01*
X9230Y-683D02*
X8330Y-683D01*
X8330Y-683D02*
X8330Y-183D01*
X5765Y-4738D02*
X4865Y-4738D01*
X4865Y-4738D02*
X4865Y-4238D01*
X4865Y-4238D02*
X5765Y-4238D01*
X5765Y-4238D02*
X5765Y-4738D01*
X3718Y-3281D02*
X2818Y-3281D01*
X2818Y-3281D02*
X2818Y-2781D01*
X2818Y-2781D02*
X3718Y-2781D01*
X3718Y-2781D02*
X3718Y-3281D01*
X3718Y-3911D02*
X2818Y-3911D01*
X2818Y-3911D02*
X2818Y-3411D01*
X2818Y-3411D02*
X3718Y-3411D01*
X3718Y-3411D02*
X3718Y-3911D01*
X2888Y-5889D02*
X2888Y-6789D01*
X2888Y-6789D02*
X2388Y-6789D01*
X2388Y-6789D02*
X2388Y-5889D01*
X2388Y-5889D02*
X2888Y-5889D01*
G54D12*
X6652Y-1297D02*
X6573Y-1297D01*
X6573Y-1297D02*
X6455Y-1415D01*
X6455Y-1415D02*
X6455Y-1494D01*
X6652Y-3265D02*
X6455Y-3265D01*
X6455Y-3265D02*
X6455Y-3068D01*
X8423Y-3068D02*
X8423Y-3265D01*
X8423Y-3265D02*
X8226Y-3265D01*
X8423Y-1297D02*
X8423Y-1494D01*
X8226Y-1297D02*
X8423Y-1297D01*
G54D14*
X6947Y-1689D02*
G75*
G03X6947Y-1689I-99J0D01*
G74*
G01*
G54D13*
X4576Y-5044D02*
X4576Y-5744D01*
X4576Y-5744D02*
X3376Y-5744D01*
X3376Y-5744D02*
X3376Y-5044D01*
X3376Y-5044D02*
X4576Y-5044D01*
X8036Y-3573D02*
X8736Y-3573D01*
X8736Y-3573D02*
X8736Y-4773D01*
X8736Y-4773D02*
X8036Y-4773D01*
X8036Y-4773D02*
X8036Y-3573D01*
X2742Y-5726D02*
X2742Y-4826D01*
X2742Y-4826D02*
X3242Y-4826D01*
X3242Y-4826D02*
X3242Y-5726D01*
X3242Y-5726D02*
X2742Y-5726D01*
X4081Y-4544D02*
X4081Y-3644D01*
X4081Y-3644D02*
X4581Y-3644D01*
X4581Y-3644D02*
X4581Y-4544D01*
X4581Y-4544D02*
X4081Y-4544D01*
X3718Y-4541D02*
X2818Y-4541D01*
X2818Y-4541D02*
X2818Y-4041D01*
X2818Y-4041D02*
X3718Y-4041D01*
X3718Y-4041D02*
X3718Y-4541D01*
G54D15*
X4823Y-4945D02*
X9823Y-4945D01*
X9823Y-4945D02*
X9823Y-6945D01*
X9823Y-6945D02*
X4823Y-6945D01*
X4823Y-6945D02*
X4823Y-4945D01*
G54D13*
X7306Y-183D02*
X8206Y-183D01*
X8206Y-183D02*
X8206Y-683D01*
X8206Y-683D02*
X7306Y-683D01*
X7306Y-683D02*
X7306Y-183D01*
X7182Y-683D02*
X6282Y-683D01*
X6282Y-683D02*
X6282Y-183D01*
X6282Y-183D02*
X7182Y-183D01*
X7182Y-183D02*
X7182Y-683D01*
X3526Y-1837D02*
X4426Y-1837D01*
X4426Y-1837D02*
X4426Y-2337D01*
X4426Y-2337D02*
X3526Y-2337D01*
X3526Y-2337D02*
X3526Y-1837D01*
X5998Y-180D02*
X5998Y-1080D01*
X5998Y-1080D02*
X5498Y-1080D01*
X5498Y-1080D02*
X5498Y-180D01*
X5498Y-180D02*
X5998Y-180D01*
X5841Y-1440D02*
X5841Y-2340D01*
X5841Y-2340D02*
X5341Y-2340D01*
X5341Y-2340D02*
X5341Y-1440D01*
X5341Y-1440D02*
X5841Y-1440D01*
X6785Y-3684D02*
X6785Y-4584D01*
X6785Y-4584D02*
X6285Y-4584D01*
X6285Y-4584D02*
X6285Y-3684D01*
X6285Y-3684D02*
X6785Y-3684D01*
X8684Y-813D02*
X9584Y-813D01*
X9584Y-813D02*
X9584Y-1313D01*
X9584Y-1313D02*
X8684Y-1313D01*
X8684Y-1313D02*
X8684Y-813D01*
X1693Y-6299D02*
X1693Y-6851D01*
X1221Y-6378D02*
X1221Y-6299D01*
X1221Y-6851D02*
X1221Y-6772D01*
X1929Y-6772D02*
X1929Y-6851D01*
X1929Y-6299D02*
X1929Y-6378D01*
X1929Y-6299D02*
X1221Y-6299D01*
X1221Y-6851D02*
X1929Y-6851D01*
X3662Y-6851D02*
X3662Y-6299D01*
X4134Y-6772D02*
X4134Y-6851D01*
X4134Y-6299D02*
X4134Y-6378D01*
X3426Y-6378D02*
X3426Y-6299D01*
X3426Y-6851D02*
X3426Y-6772D01*
X3426Y-6851D02*
X4134Y-6851D01*
X4134Y-6299D02*
X3426Y-6299D01*
X11161Y-6043D02*
X11161Y-6319D01*
X11640Y-5945D02*
G75*
G03X11640Y-5945I-26J0D01*
G74*
G01*
X10748Y-6398D02*
X11456Y-6398D01*
X11456Y-6398D02*
X11456Y-6358D01*
X10748Y-6358D02*
X10748Y-6398D01*
X10748Y-6004D02*
X10748Y-5964D01*
X10748Y-5964D02*
X11456Y-5964D01*
X11456Y-5964D02*
X11456Y-6004D01*
X11161Y-6555D02*
X11161Y-6831D01*
X11640Y-6457D02*
G75*
G03X11640Y-6457I-26J0D01*
G74*
G01*
X10748Y-6910D02*
X11456Y-6910D01*
X11456Y-6910D02*
X11456Y-6870D01*
X10748Y-6870D02*
X10748Y-6910D01*
X10748Y-6516D02*
X10748Y-6476D01*
X10748Y-6476D02*
X11456Y-6476D01*
X11456Y-6476D02*
X11456Y-6516D01*
G54D16*
X-10Y-6102D02*
X2165Y-6102D01*
X2165Y-6102D02*
X2165Y-5305D01*
X-10Y-984D02*
X2165Y-984D01*
X2165Y-984D02*
X2165Y-1781D01*
X-10Y-6102D02*
X-10Y-984D01*
G54D13*
X9697Y-3443D02*
X9697Y-3243D01*
X9697Y-3243D02*
X9397Y-3243D01*
X9397Y-3243D02*
X9397Y-3443D01*
X9697Y-3643D02*
X9697Y-3843D01*
X9697Y-3843D02*
X9397Y-3843D01*
X9397Y-3843D02*
X9397Y-3643D01*
X10651Y-2591D02*
X10851Y-2591D01*
X10851Y-2591D02*
X10851Y-2291D01*
X10851Y-2291D02*
X10651Y-2291D01*
X10451Y-2591D02*
X10251Y-2591D01*
X10251Y-2591D02*
X10251Y-2291D01*
X10251Y-2291D02*
X10451Y-2291D01*
X10598Y-1950D02*
X10598Y-2150D01*
X10598Y-2150D02*
X10898Y-2150D01*
X10898Y-2150D02*
X10898Y-1950D01*
X10598Y-1750D02*
X10598Y-1550D01*
X10598Y-1550D02*
X10898Y-1550D01*
X10898Y-1550D02*
X10898Y-1750D01*
X9244Y-2026D02*
X9244Y-1826D01*
X9244Y-1826D02*
X8944Y-1826D01*
X8944Y-1826D02*
X8944Y-2026D01*
X9244Y-2226D02*
X9244Y-2426D01*
X9244Y-2426D02*
X8944Y-2426D01*
X8944Y-2426D02*
X8944Y-2226D01*
X9903Y-2591D02*
X10103Y-2591D01*
X10103Y-2591D02*
X10103Y-2291D01*
X10103Y-2291D02*
X9903Y-2291D01*
X9703Y-2591D02*
X9503Y-2591D01*
X9503Y-2591D02*
X9503Y-2291D01*
X9503Y-2291D02*
X9703Y-2291D01*
X8944Y-3072D02*
X8944Y-3272D01*
X8944Y-3272D02*
X9244Y-3272D01*
X9244Y-3272D02*
X9244Y-3072D01*
X8944Y-2872D02*
X8944Y-2672D01*
X8944Y-2672D02*
X9244Y-2672D01*
X9244Y-2672D02*
X9244Y-2872D01*
X9393Y-4317D02*
X10293Y-4317D01*
X10293Y-4317D02*
X10293Y-4817D01*
X10293Y-4817D02*
X9393Y-4817D01*
X9393Y-4817D02*
X9393Y-4317D01*
G54D11*
X10954Y-4895D02*
X10804Y-5000D01*
X10954Y-5075D02*
X10639Y-5075D01*
X10639Y-4955D01*
X10654Y-4925D01*
X10669Y-4910D01*
X10699Y-4895D01*
X10744Y-4895D01*
X10774Y-4910D01*
X10789Y-4925D01*
X10804Y-4955D01*
X10804Y-5075D01*
X10639Y-4790D02*
X10639Y-4580D01*
X10954Y-4715D01*
G54D12*
G54D11*
X10954Y-5603D02*
X10804Y-5708D01*
X10954Y-5783D02*
X10639Y-5783D01*
X10639Y-5663D01*
X10654Y-5633D01*
X10669Y-5618D01*
X10699Y-5603D01*
X10744Y-5603D01*
X10774Y-5618D01*
X10789Y-5633D01*
X10804Y-5663D01*
X10804Y-5783D01*
X10774Y-5423D02*
X10759Y-5453D01*
X10744Y-5468D01*
X10714Y-5483D01*
X10699Y-5483D01*
X10669Y-5468D01*
X10654Y-5453D01*
X10639Y-5423D01*
X10639Y-5363D01*
X10654Y-5333D01*
X10669Y-5318D01*
X10699Y-5303D01*
X10714Y-5303D01*
X10744Y-5318D01*
X10759Y-5333D01*
X10774Y-5363D01*
X10774Y-5423D01*
X10789Y-5453D01*
X10804Y-5468D01*
X10834Y-5483D01*
X10894Y-5483D01*
X10924Y-5468D01*
X10939Y-5453D01*
X10954Y-5423D01*
X10954Y-5363D01*
X10939Y-5333D01*
X10924Y-5318D01*
X10894Y-5303D01*
X10834Y-5303D01*
X10804Y-5318D01*
X10789Y-5333D01*
X10774Y-5363D01*
G54D12*
G54D11*
X5223Y-3001D02*
X5118Y-2851D01*
X5043Y-3001D02*
X5043Y-2686D01*
X5163Y-2686D01*
X5193Y-2701D01*
X5208Y-2716D01*
X5223Y-2746D01*
X5223Y-2791D01*
X5208Y-2821D01*
X5193Y-2836D01*
X5163Y-2851D01*
X5043Y-2851D01*
X5493Y-2686D02*
X5433Y-2686D01*
X5403Y-2701D01*
X5388Y-2716D01*
X5358Y-2761D01*
X5343Y-2821D01*
X5343Y-2941D01*
X5358Y-2971D01*
X5373Y-2986D01*
X5403Y-3001D01*
X5463Y-3001D01*
X5493Y-2986D01*
X5508Y-2971D01*
X5523Y-2941D01*
X5523Y-2866D01*
X5508Y-2836D01*
X5493Y-2821D01*
X5463Y-2806D01*
X5403Y-2806D01*
X5373Y-2821D01*
X5358Y-2836D01*
X5343Y-2866D01*
G54D12*
G54D11*
X9514Y-560D02*
X9409Y-410D01*
X9334Y-560D02*
X9334Y-245D01*
X9454Y-245D01*
X9484Y-260D01*
X9499Y-275D01*
X9514Y-305D01*
X9514Y-350D01*
X9499Y-380D01*
X9484Y-395D01*
X9454Y-410D01*
X9334Y-410D01*
X9799Y-245D02*
X9649Y-245D01*
X9634Y-395D01*
X9649Y-380D01*
X9679Y-365D01*
X9754Y-365D01*
X9784Y-380D01*
X9799Y-395D01*
X9814Y-425D01*
X9814Y-500D01*
X9799Y-530D01*
X9784Y-545D01*
X9754Y-560D01*
X9679Y-560D01*
X9649Y-545D01*
X9634Y-530D01*
G54D12*
G54D11*
X5223Y-3473D02*
X5118Y-3323D01*
X5043Y-3473D02*
X5043Y-3158D01*
X5163Y-3158D01*
X5193Y-3173D01*
X5208Y-3188D01*
X5223Y-3218D01*
X5223Y-3263D01*
X5208Y-3293D01*
X5193Y-3308D01*
X5163Y-3323D01*
X5043Y-3323D01*
X5493Y-3263D02*
X5493Y-3473D01*
X5418Y-3143D02*
X5343Y-3368D01*
X5538Y-3368D01*
G54D12*
G54D11*
X4002Y-2922D02*
X3897Y-2772D01*
X3822Y-2922D02*
X3822Y-2607D01*
X3942Y-2607D01*
X3972Y-2622D01*
X3987Y-2637D01*
X4002Y-2667D01*
X4002Y-2712D01*
X3987Y-2742D01*
X3972Y-2757D01*
X3942Y-2772D01*
X3822Y-2772D01*
X4122Y-2637D02*
X4137Y-2622D01*
X4167Y-2607D01*
X4242Y-2607D01*
X4272Y-2622D01*
X4287Y-2637D01*
X4302Y-2667D01*
X4302Y-2697D01*
X4287Y-2742D01*
X4107Y-2922D01*
X4302Y-2922D01*
G54D12*
G54D11*
X4041Y-3473D02*
X3936Y-3323D01*
X3861Y-3473D02*
X3861Y-3158D01*
X3981Y-3158D01*
X4011Y-3173D01*
X4026Y-3188D01*
X4041Y-3218D01*
X4041Y-3263D01*
X4026Y-3293D01*
X4011Y-3308D01*
X3981Y-3323D01*
X3861Y-3323D01*
X4341Y-3473D02*
X4161Y-3473D01*
X4251Y-3473D02*
X4251Y-3158D01*
X4221Y-3203D01*
X4191Y-3233D01*
X4161Y-3248D01*
G54D12*
G54D11*
X3316Y-6154D02*
X3166Y-6259D01*
X3316Y-6334D02*
X3001Y-6334D01*
X3001Y-6214D01*
X3016Y-6184D01*
X3031Y-6169D01*
X3061Y-6154D01*
X3106Y-6154D01*
X3136Y-6169D01*
X3151Y-6184D01*
X3166Y-6214D01*
X3166Y-6334D01*
X3001Y-6049D02*
X3001Y-5854D01*
X3121Y-5959D01*
X3121Y-5914D01*
X3136Y-5884D01*
X3151Y-5869D01*
X3181Y-5854D01*
X3256Y-5854D01*
X3286Y-5869D01*
X3301Y-5884D01*
X3316Y-5914D01*
X3316Y-6004D01*
X3301Y-6034D01*
X3286Y-6049D01*
G54D12*
G54D11*
X12024Y-5307D02*
X12174Y-5307D01*
X11859Y-5412D02*
X12024Y-5307D01*
X11859Y-5202D01*
X12174Y-4932D02*
X12174Y-5112D01*
X12174Y-5022D02*
X11859Y-5022D01*
X11904Y-5052D01*
X11934Y-5082D01*
X11949Y-5112D01*
G54D12*
G54D11*
X2383Y-757D02*
X2593Y-1072D01*
X2593Y-757D02*
X2383Y-1072D01*
X2878Y-1072D02*
X2698Y-1072D01*
X2788Y-1072D02*
X2788Y-757D01*
X2758Y-802D01*
X2728Y-832D01*
X2698Y-847D01*
G54D12*
G54D11*
X5875Y-2957D02*
X6130Y-2957D01*
X6160Y-2942D01*
X6175Y-2927D01*
X6190Y-2897D01*
X6190Y-2837D01*
X6175Y-2807D01*
X6160Y-2792D01*
X6130Y-2777D01*
X5875Y-2777D01*
X5875Y-2657D02*
X5875Y-2462D01*
X5995Y-2567D01*
X5995Y-2522D01*
X6010Y-2492D01*
X6025Y-2477D01*
X6055Y-2462D01*
X6130Y-2462D01*
X6160Y-2477D01*
X6175Y-2492D01*
X6190Y-2522D01*
X6190Y-2612D01*
X6175Y-2642D01*
X6160Y-2657D01*
G54D12*
G54D11*
X3776Y-5245D02*
X3776Y-5500D01*
X3791Y-5530D01*
X3806Y-5545D01*
X3836Y-5560D01*
X3896Y-5560D01*
X3926Y-5545D01*
X3941Y-5530D01*
X3956Y-5500D01*
X3956Y-5245D01*
X4271Y-5560D02*
X4091Y-5560D01*
X4181Y-5560D02*
X4181Y-5245D01*
X4151Y-5290D01*
X4121Y-5320D01*
X4091Y-5335D01*
G54D12*
G54D11*
X8198Y-4453D02*
X8453Y-4453D01*
X8483Y-4438D01*
X8498Y-4423D01*
X8513Y-4393D01*
X8513Y-4333D01*
X8498Y-4303D01*
X8483Y-4288D01*
X8453Y-4273D01*
X8198Y-4273D01*
X8228Y-4138D02*
X8213Y-4123D01*
X8198Y-4093D01*
X8198Y-4018D01*
X8213Y-3988D01*
X8228Y-3973D01*
X8258Y-3958D01*
X8288Y-3958D01*
X8333Y-3973D01*
X8513Y-4153D01*
X8513Y-3958D01*
G54D12*
G54D11*
X2577Y-5564D02*
X2592Y-5579D01*
X2607Y-5624D01*
X2607Y-5654D01*
X2592Y-5699D01*
X2562Y-5729D01*
X2532Y-5744D01*
X2472Y-5759D01*
X2427Y-5759D01*
X2367Y-5744D01*
X2337Y-5729D01*
X2307Y-5699D01*
X2292Y-5654D01*
X2292Y-5624D01*
X2307Y-5579D01*
X2322Y-5564D01*
X2292Y-5279D02*
X2292Y-5429D01*
X2442Y-5444D01*
X2427Y-5429D01*
X2412Y-5399D01*
X2412Y-5324D01*
X2427Y-5294D01*
X2442Y-5279D01*
X2472Y-5264D01*
X2547Y-5264D01*
X2577Y-5279D01*
X2592Y-5294D01*
X2607Y-5324D01*
X2607Y-5399D01*
X2592Y-5429D01*
X2577Y-5444D01*
G54D12*
G54D11*
X4782Y-3241D02*
X4797Y-3256D01*
X4812Y-3301D01*
X4812Y-3331D01*
X4797Y-3376D01*
X4767Y-3406D01*
X4737Y-3421D01*
X4677Y-3436D01*
X4632Y-3436D01*
X4572Y-3421D01*
X4542Y-3406D01*
X4512Y-3376D01*
X4497Y-3331D01*
X4497Y-3301D01*
X4512Y-3256D01*
X4527Y-3241D01*
X4812Y-3091D02*
X4812Y-3031D01*
X4797Y-3001D01*
X4782Y-2986D01*
X4737Y-2956D01*
X4677Y-2941D01*
X4557Y-2941D01*
X4527Y-2956D01*
X4512Y-2971D01*
X4497Y-3001D01*
X4497Y-3061D01*
X4512Y-3091D01*
X4527Y-3106D01*
X4557Y-3121D01*
X4632Y-3121D01*
X4662Y-3106D01*
X4677Y-3091D01*
X4692Y-3061D01*
X4692Y-3001D01*
X4677Y-2971D01*
X4662Y-2956D01*
X4632Y-2941D01*
G54D12*
G54D11*
X2080Y-4546D02*
X2065Y-4561D01*
X2020Y-4576D01*
X1990Y-4576D01*
X1945Y-4561D01*
X1915Y-4531D01*
X1900Y-4501D01*
X1885Y-4441D01*
X1885Y-4396D01*
X1900Y-4336D01*
X1915Y-4306D01*
X1945Y-4276D01*
X1990Y-4261D01*
X2020Y-4261D01*
X2065Y-4276D01*
X2080Y-4291D01*
X2380Y-4576D02*
X2200Y-4576D01*
X2290Y-4576D02*
X2290Y-4261D01*
X2260Y-4306D01*
X2230Y-4336D01*
X2200Y-4351D01*
X2575Y-4261D02*
X2605Y-4261D01*
X2635Y-4276D01*
X2650Y-4291D01*
X2665Y-4321D01*
X2680Y-4381D01*
X2680Y-4456D01*
X2665Y-4516D01*
X2650Y-4546D01*
X2635Y-4561D01*
X2605Y-4576D01*
X2575Y-4576D01*
X2545Y-4561D01*
X2530Y-4546D01*
X2515Y-4516D01*
X2500Y-4456D01*
X2500Y-4381D01*
X2515Y-4321D01*
X2530Y-4291D01*
X2545Y-4276D01*
X2575Y-4261D01*
G54D12*
G54D11*
X6932Y-4812D02*
X6932Y-4497D01*
X7052Y-4497D01*
X7082Y-4512D01*
X7097Y-4527D01*
X7112Y-4557D01*
X7112Y-4602D01*
X7097Y-4632D01*
X7082Y-4647D01*
X7052Y-4662D01*
X6932Y-4662D01*
X7232Y-4527D02*
X7247Y-4512D01*
X7277Y-4497D01*
X7352Y-4497D01*
X7382Y-4512D01*
X7397Y-4527D01*
X7412Y-4557D01*
X7412Y-4587D01*
X7397Y-4632D01*
X7217Y-4812D01*
X7412Y-4812D01*
G54D12*
G54D11*
X7585Y-1042D02*
X7570Y-1057D01*
X7525Y-1072D01*
X7495Y-1072D01*
X7450Y-1057D01*
X7420Y-1027D01*
X7405Y-997D01*
X7390Y-937D01*
X7390Y-892D01*
X7405Y-832D01*
X7420Y-802D01*
X7450Y-772D01*
X7495Y-757D01*
X7525Y-757D01*
X7570Y-772D01*
X7585Y-787D01*
X7885Y-1072D02*
X7705Y-1072D01*
X7795Y-1072D02*
X7795Y-757D01*
X7765Y-802D01*
X7735Y-832D01*
X7705Y-847D01*
G54D12*
G54D11*
X6719Y-1042D02*
X6704Y-1057D01*
X6659Y-1072D01*
X6629Y-1072D01*
X6584Y-1057D01*
X6554Y-1027D01*
X6539Y-997D01*
X6524Y-937D01*
X6524Y-892D01*
X6539Y-832D01*
X6554Y-802D01*
X6584Y-772D01*
X6629Y-757D01*
X6659Y-757D01*
X6704Y-772D01*
X6719Y-787D01*
X6839Y-787D02*
X6854Y-772D01*
X6884Y-757D01*
X6959Y-757D01*
X6989Y-772D01*
X7004Y-787D01*
X7019Y-817D01*
X7019Y-847D01*
X7004Y-892D01*
X6824Y-1072D01*
X7019Y-1072D01*
G54D12*
G54D11*
X3018Y-2262D02*
X3003Y-2277D01*
X2958Y-2292D01*
X2928Y-2292D01*
X2883Y-2277D01*
X2853Y-2247D01*
X2838Y-2217D01*
X2823Y-2157D01*
X2823Y-2112D01*
X2838Y-2052D01*
X2853Y-2022D01*
X2883Y-1992D01*
X2928Y-1977D01*
X2958Y-1977D01*
X3003Y-1992D01*
X3018Y-2007D01*
X3123Y-1977D02*
X3318Y-1977D01*
X3213Y-2097D01*
X3258Y-2097D01*
X3288Y-2112D01*
X3303Y-2127D01*
X3318Y-2157D01*
X3318Y-2232D01*
X3303Y-2262D01*
X3288Y-2277D01*
X3258Y-2292D01*
X3168Y-2292D01*
X3138Y-2277D01*
X3123Y-2262D01*
G54D12*
G54D11*
X6436Y-1076D02*
X6451Y-1091D01*
X6466Y-1136D01*
X6466Y-1166D01*
X6451Y-1211D01*
X6421Y-1241D01*
X6391Y-1256D01*
X6331Y-1271D01*
X6286Y-1271D01*
X6226Y-1256D01*
X6196Y-1241D01*
X6166Y-1211D01*
X6151Y-1166D01*
X6151Y-1136D01*
X6166Y-1091D01*
X6181Y-1076D01*
X6256Y-806D02*
X6466Y-806D01*
X6136Y-881D02*
X6361Y-956D01*
X6361Y-761D01*
G54D12*
G54D11*
X5176Y-2099D02*
X5191Y-2114D01*
X5206Y-2159D01*
X5206Y-2189D01*
X5191Y-2234D01*
X5161Y-2264D01*
X5131Y-2279D01*
X5071Y-2294D01*
X5026Y-2294D01*
X4966Y-2279D01*
X4936Y-2264D01*
X4906Y-2234D01*
X4891Y-2189D01*
X4891Y-2159D01*
X4906Y-2114D01*
X4921Y-2099D01*
X4891Y-1829D02*
X4891Y-1889D01*
X4906Y-1919D01*
X4921Y-1934D01*
X4966Y-1964D01*
X5026Y-1979D01*
X5146Y-1979D01*
X5176Y-1964D01*
X5191Y-1949D01*
X5206Y-1919D01*
X5206Y-1859D01*
X5191Y-1829D01*
X5176Y-1814D01*
X5146Y-1799D01*
X5071Y-1799D01*
X5041Y-1814D01*
X5026Y-1829D01*
X5011Y-1859D01*
X5011Y-1919D01*
X5026Y-1949D01*
X5041Y-1964D01*
X5071Y-1979D01*
G54D12*
G54D11*
X7223Y-3792D02*
X7238Y-3807D01*
X7253Y-3852D01*
X7253Y-3882D01*
X7238Y-3927D01*
X7208Y-3957D01*
X7178Y-3972D01*
X7118Y-3987D01*
X7073Y-3987D01*
X7013Y-3972D01*
X6983Y-3957D01*
X6953Y-3927D01*
X6938Y-3882D01*
X6938Y-3852D01*
X6953Y-3807D01*
X6968Y-3792D01*
X6938Y-3687D02*
X6938Y-3477D01*
X7253Y-3612D01*
G54D12*
G54D11*
X8333Y-1042D02*
X8318Y-1057D01*
X8273Y-1072D01*
X8243Y-1072D01*
X8198Y-1057D01*
X8168Y-1027D01*
X8153Y-997D01*
X8138Y-937D01*
X8138Y-892D01*
X8153Y-832D01*
X8168Y-802D01*
X8198Y-772D01*
X8243Y-757D01*
X8273Y-757D01*
X8318Y-772D01*
X8333Y-787D01*
X8513Y-892D02*
X8483Y-877D01*
X8468Y-862D01*
X8453Y-832D01*
X8453Y-817D01*
X8468Y-787D01*
X8483Y-772D01*
X8513Y-757D01*
X8573Y-757D01*
X8603Y-772D01*
X8618Y-787D01*
X8633Y-817D01*
X8633Y-832D01*
X8618Y-862D01*
X8603Y-877D01*
X8573Y-892D01*
X8513Y-892D01*
X8483Y-907D01*
X8468Y-922D01*
X8453Y-952D01*
X8453Y-1012D01*
X8468Y-1042D01*
X8483Y-1057D01*
X8513Y-1072D01*
X8573Y-1072D01*
X8603Y-1057D01*
X8618Y-1042D01*
X8633Y-1012D01*
X8633Y-952D01*
X8618Y-922D01*
X8603Y-907D01*
X8573Y-892D01*
G54D12*
G54D11*
X279Y-6702D02*
X279Y-6387D01*
X354Y-6387D01*
X399Y-6402D01*
X429Y-6432D01*
X444Y-6462D01*
X459Y-6522D01*
X459Y-6567D01*
X444Y-6627D01*
X429Y-6657D01*
X399Y-6687D01*
X354Y-6702D01*
X279Y-6702D01*
X759Y-6702D02*
X579Y-6702D01*
X669Y-6702D02*
X669Y-6387D01*
X639Y-6432D01*
X609Y-6462D01*
X579Y-6477D01*
G54D12*
G54D11*
X4851Y-6610D02*
X4536Y-6610D01*
X4536Y-6535D01*
X4551Y-6490D01*
X4581Y-6460D01*
X4611Y-6445D01*
X4671Y-6430D01*
X4716Y-6430D01*
X4776Y-6445D01*
X4806Y-6460D01*
X4836Y-6490D01*
X4851Y-6535D01*
X4851Y-6610D01*
X4566Y-6310D02*
X4551Y-6295D01*
X4536Y-6265D01*
X4536Y-6190D01*
X4551Y-6160D01*
X4566Y-6145D01*
X4596Y-6130D01*
X4626Y-6130D01*
X4671Y-6145D01*
X4851Y-6325D01*
X4851Y-6130D01*
G54D12*
G54D11*
X11736Y-6308D02*
X11736Y-5993D01*
X11811Y-5993D01*
X11856Y-6008D01*
X11886Y-6038D01*
X11901Y-6068D01*
X11916Y-6128D01*
X11916Y-6173D01*
X11901Y-6233D01*
X11886Y-6263D01*
X11856Y-6293D01*
X11811Y-6308D01*
X11736Y-6308D01*
X12021Y-5993D02*
X12216Y-5993D01*
X12111Y-6113D01*
X12156Y-6113D01*
X12186Y-6128D01*
X12201Y-6143D01*
X12216Y-6173D01*
X12216Y-6248D01*
X12201Y-6278D01*
X12186Y-6293D01*
X12156Y-6308D01*
X12066Y-6308D01*
X12036Y-6293D01*
X12021Y-6278D01*
G54D12*
G54D11*
X11736Y-6859D02*
X11736Y-6544D01*
X11811Y-6544D01*
X11856Y-6559D01*
X11886Y-6589D01*
X11901Y-6619D01*
X11916Y-6679D01*
X11916Y-6724D01*
X11901Y-6784D01*
X11886Y-6814D01*
X11856Y-6844D01*
X11811Y-6859D01*
X11736Y-6859D01*
X12186Y-6649D02*
X12186Y-6859D01*
X12111Y-6529D02*
X12036Y-6754D01*
X12231Y-6754D01*
G54D12*
G54D11*
X2174Y-783D02*
X1859Y-783D01*
X1859Y-663D01*
X1874Y-633D01*
X1889Y-618D01*
X1919Y-603D01*
X1964Y-603D01*
X1994Y-618D01*
X2009Y-633D01*
X2024Y-663D01*
X2024Y-783D01*
X2174Y-303D02*
X2174Y-483D01*
X2174Y-393D02*
X1859Y-393D01*
X1904Y-423D01*
X1934Y-453D01*
X1949Y-483D01*
G54D12*
G54D11*
X10136Y-3824D02*
X10151Y-3839D01*
X10166Y-3884D01*
X10166Y-3914D01*
X10151Y-3959D01*
X10121Y-3989D01*
X10091Y-4004D01*
X10031Y-4019D01*
X9986Y-4019D01*
X9926Y-4004D01*
X9896Y-3989D01*
X9866Y-3959D01*
X9851Y-3914D01*
X9851Y-3884D01*
X9866Y-3839D01*
X9881Y-3824D01*
X10166Y-3524D02*
X10166Y-3704D01*
X10166Y-3614D02*
X9851Y-3614D01*
X9896Y-3644D01*
X9926Y-3674D01*
X9941Y-3704D01*
X10166Y-3224D02*
X10166Y-3404D01*
X10166Y-3314D02*
X9851Y-3314D01*
X9896Y-3344D01*
X9926Y-3374D01*
X9941Y-3404D01*
G54D12*
G54D11*
X10388Y-3050D02*
X10373Y-3065D01*
X10328Y-3080D01*
X10298Y-3080D01*
X10253Y-3065D01*
X10223Y-3035D01*
X10208Y-3005D01*
X10193Y-2945D01*
X10193Y-2900D01*
X10208Y-2840D01*
X10223Y-2810D01*
X10253Y-2780D01*
X10298Y-2765D01*
X10328Y-2765D01*
X10373Y-2780D01*
X10388Y-2795D01*
X10688Y-3080D02*
X10508Y-3080D01*
X10598Y-3080D02*
X10598Y-2765D01*
X10568Y-2810D01*
X10538Y-2840D01*
X10508Y-2855D01*
X10808Y-2795D02*
X10823Y-2780D01*
X10853Y-2765D01*
X10928Y-2765D01*
X10958Y-2780D01*
X10973Y-2795D01*
X10988Y-2825D01*
X10988Y-2855D01*
X10973Y-2900D01*
X10793Y-3080D01*
X10988Y-3080D01*
G54D12*
G54D11*
X10451Y-1895D02*
X10466Y-1910D01*
X10481Y-1955D01*
X10481Y-1985D01*
X10466Y-2030D01*
X10436Y-2060D01*
X10406Y-2075D01*
X10346Y-2090D01*
X10301Y-2090D01*
X10241Y-2075D01*
X10211Y-2060D01*
X10181Y-2030D01*
X10166Y-1985D01*
X10166Y-1955D01*
X10181Y-1910D01*
X10196Y-1895D01*
X10481Y-1595D02*
X10481Y-1775D01*
X10481Y-1685D02*
X10166Y-1685D01*
X10211Y-1715D01*
X10241Y-1745D01*
X10256Y-1775D01*
X10166Y-1490D02*
X10166Y-1295D01*
X10286Y-1400D01*
X10286Y-1355D01*
X10301Y-1325D01*
X10316Y-1310D01*
X10346Y-1295D01*
X10421Y-1295D01*
X10451Y-1310D01*
X10466Y-1325D01*
X10481Y-1355D01*
X10481Y-1445D01*
X10466Y-1475D01*
X10451Y-1490D01*
G54D12*
G54D11*
X8921Y-2178D02*
X8921Y-2328D01*
X8606Y-2328D01*
X8921Y-1908D02*
X8921Y-2088D01*
X8921Y-1998D02*
X8606Y-1998D01*
X8651Y-2028D01*
X8681Y-2058D01*
X8696Y-2088D01*
G54D12*
G54D11*
X9750Y-2174D02*
X9600Y-2174D01*
X9600Y-1859D01*
X9840Y-1889D02*
X9855Y-1874D01*
X9885Y-1859D01*
X9960Y-1859D01*
X9990Y-1874D01*
X10005Y-1889D01*
X10020Y-1919D01*
X10020Y-1949D01*
X10005Y-1994D01*
X9825Y-2174D01*
X10020Y-2174D01*
G54D12*
G54D11*
X9694Y-2965D02*
X9694Y-3115D01*
X9379Y-3115D01*
X9379Y-2890D02*
X9379Y-2695D01*
X9499Y-2800D01*
X9499Y-2755D01*
X9514Y-2725D01*
X9529Y-2710D01*
X9559Y-2695D01*
X9634Y-2695D01*
X9664Y-2710D01*
X9679Y-2725D01*
X9694Y-2755D01*
X9694Y-2845D01*
X9679Y-2875D01*
X9664Y-2890D01*
G54D12*
G54D11*
X10577Y-4458D02*
X10472Y-4308D01*
X10397Y-4458D02*
X10397Y-4143D01*
X10517Y-4143D01*
X10547Y-4158D01*
X10562Y-4173D01*
X10577Y-4203D01*
X10577Y-4248D01*
X10562Y-4278D01*
X10547Y-4293D01*
X10517Y-4308D01*
X10397Y-4308D01*
X10727Y-4458D02*
X10787Y-4458D01*
X10817Y-4443D01*
X10832Y-4428D01*
X10862Y-4383D01*
X10877Y-4323D01*
X10877Y-4203D01*
X10862Y-4173D01*
X10847Y-4158D01*
X10817Y-4143D01*
X10757Y-4143D01*
X10727Y-4158D01*
X10712Y-4173D01*
X10697Y-4203D01*
X10697Y-4278D01*
X10712Y-4308D01*
X10727Y-4323D01*
X10757Y-4338D01*
X10817Y-4338D01*
X10847Y-4323D01*
X10862Y-4308D01*
X10877Y-4278D01*
G54D12*
M02*
