M48
;DRILL file {Pcbnew (2013-07-07 BZR 4022)-stable} date 07/06/2014 15:44:39
;FORMAT={-:-/ absolute / inch / decimal}
FMAT,2
INCH,TZ
T1C0.015
T2C0.024
T3C0.028
%
G90
G05
M72
T1
X0.9433Y0.5307
X1.0236Y-0.1181
X1.0236Y-0.1772
X1.0236Y-0.2362
X1.0236Y-0.2953
X1.0512Y0.0945
X1.0531Y-0.0508
X1.063Y-0.2953
X1.063Y-0.3346
X1.0748Y0.3071
X1.1024Y-0.2953
X1.1169Y0.3661
X1.122Y-0.3346
X1.1417Y-0.2953
X1.1732Y-0.3425
X1.1811Y-0.2953
X1.2043Y0.2031
X1.2165Y0.0945
X1.2165Y-0.248
X1.2165Y-0.2953
X1.2165Y-0.3307
X1.2205Y-0.4921
X1.2335Y-0.1646
X1.2441Y-0.2244
X1.2598Y-0.4921
X1.2606Y0.1803
X1.2646Y-0.0898
X1.2677Y-0.248
X1.2795Y-0.5512
X1.2953Y0.2874
X1.2992Y-0.2205
X1.2992Y-0.4921
X1.3138Y0.2594
X1.3232Y0.4291
X1.3386Y-0.2559
X1.3386Y-0.4921
X1.345Y-0.0215
X1.3543Y0.2874
X1.3602Y0.163
X1.3661Y-0.2205
X1.3661Y-0.2953
X1.3665Y0.1217
X1.374Y0.374
X1.3807Y0.2646
X1.3937Y0.3335
X1.4016Y-0.2559
X1.4055Y-0.3228
X1.4134Y-0.5
X1.4291Y0.5394
X1.4405Y-0.5433
X1.4409Y-0.4134
X1.4441Y-0.089
X1.4461Y0.2894
X1.4646Y0.5394
X1.4661Y0.0929
X1.469Y0.2671
X1.4764Y0.3386
X1.4764Y-0.3583
X1.4819Y-0.1524
X1.4858Y0.1177
X1.4921Y-0.4134
X1.4988Y0.302
X1.5177Y0.1185
X1.5424Y-0.0394
X1.552Y-0.0024
X1.5551Y-0.4724
X1.5738Y-0.0292
X1.5835Y-0.2622
X1.5905Y-0.437
X1.5957Y0.0788
X1.599Y0.1525
X1.6Y0.265
X1.6016Y-0.2323
X1.6024Y-0.5433
X1.6049Y0.0254
X1.6102Y-0.3858
X1.6142Y-0.3031
X1.6142Y-0.3465
X1.6161Y-0.0047
X1.6165Y-0.4173
X1.629Y0.1179
X1.6406Y0.5379
X1.6409Y0.0567
X1.6409Y-0.5063
X1.6496Y0.3071
X1.656Y0.1429
X1.672Y0.0457
X1.676Y0.5327
X1.6768Y0.0141
X1.6811Y0.2913
X1.683Y0.3878
X1.7126Y-0.0748
X1.7177Y0.2084
X1.752Y0.287
X1.765Y0.5358
X1.7835Y0.311
X1.8031Y0.2122
X1.8169Y0.3142
X1.8193Y0.5402
X1.8279Y0.0583
X1.8303Y0.0906
X1.8335Y0.122
X1.8425Y0.2724
X1.8577Y0.2131
X1.8693Y0.563
X1.8709Y0.0213
X1.874Y0.2614
X1.8842Y0.1708
X1.8898Y-0.4193
X1.8925Y-0.5539
X1.8961Y-0.4752
X1.8976Y-0.1614
X1.9094Y0.0984
X1.9094Y0.059
X1.9098Y0.2563
X1.9122Y0.4622
X1.9201Y-0.5713
X1.9252Y-0.0236
X1.9291Y0.0787
X1.9291Y-0.1732
X1.9488Y0.0984
X1.9488Y0.059
X1.9689Y0.2224
X1.9717Y0.1547
X1.9724Y0.563
X2.0039Y-0.0945
X2.0079Y0.5551
X2.0276Y-0.4449
X2.0315Y0.3661
X2.0354Y0.1496
X2.0772Y-0.2697
X2.0839Y-0.4512
X2.0894Y-0.5118
X2.0905Y0.5551
X2.1142Y0.5787
X2.122Y-0.3071
X2.126Y-0.2756
X2.1299Y-0.3898
X2.1299Y-0.4291
X2.1339Y-0.3425
X2.1362Y0.3474
X2.1457Y0.5709
X2.1575Y0.0303
X2.1575Y-0.0079
X2.1823Y0.5643
T2
X1.0223Y0.4056
X1.0723Y0.4056
X1.1089Y0.225
X1.1089Y0.175
X1.1089Y0.125
X1.1089Y0.075
X1.1089Y0.025
X1.1089Y-0.025
X1.1089Y-0.075
X1.1089Y-0.125
X1.1089Y-0.175
X1.1089Y-0.225
X1.1589Y0.225
X1.1589Y0.175
X1.1589Y0.125
X1.1589Y0.075
X1.1589Y0.025
X1.1589Y-0.025
X1.1589Y-0.075
X1.1589Y-0.125
X1.1589Y-0.175
X1.1589Y-0.225
X1.4632Y-0.2165
X1.5132Y-0.2165
X1.7663Y-0.1378
X1.7663Y-0.2559
X1.7663Y-0.374
X1.7663Y-0.4921
X1.8163Y-0.1378
X1.8163Y-0.2559
X1.8163Y-0.374
X1.8163Y-0.4921
T3
X2.0748Y0.1359
X2.0748Y0.0769
X2.0827Y-0.1732
T0
M30
