G04 (created by PCBNEW (2013-07-07 BZR 4022)-stable) date 07/06/2014 15:45:15*
%MOIN*%
G04 Gerber Fmt 3.4, Leading zero omitted, Abs format*
%FSLAX34Y34*%
G01*
G70*
G90*
G04 APERTURE LIST*
%ADD10C,0.00590551*%
%ADD11R,0.0765X0.0804*%
%ADD12R,0.0765X0.0489*%
%ADD13R,0.0804X0.0804*%
%ADD14R,0.0883X0.0686*%
%ADD15R,0.0213X0.0607*%
%ADD16R,0.0528X0.0804*%
%ADD17R,0.0332X0.045*%
%ADD18R,0.0506X0.0306*%
%ADD19R,0.0416X0.0416*%
%ADD20O,0.0686X0.0528*%
%ADD21R,0.0607X0.045*%
%ADD22O,0.0607X0.045*%
%ADD23O,0.0528X0.0371*%
%ADD24R,0.0528X0.0371*%
%ADD25R,0.0174X0.0568*%
%ADD26R,0.0568X0.0174*%
%ADD27R,0.045X0.0292*%
%ADD28R,0.0306X0.0506*%
%ADD29R,0.0804X0.0489*%
%ADD30C,0.0206*%
%ADD31R,0.0213X0.0256*%
%ADD32R,0.0528X0.0686*%
%ADD33O,0.0528X0.0686*%
G04 APERTURE END LIST*
G54D10*
G54D11*
X9980Y6477D03*
G54D12*
X13110Y6320D03*
G54D13*
X11083Y6477D03*
X12027Y6477D03*
G54D14*
X12775Y5473D03*
X10335Y5473D03*
G54D15*
X11555Y5414D03*
X11811Y5414D03*
X12067Y5414D03*
X11299Y5414D03*
X11043Y5414D03*
G54D16*
X12992Y6477D03*
G54D17*
X20097Y-4044D03*
X20472Y-4044D03*
X20847Y-4044D03*
X20847Y-3044D03*
X20472Y-3044D03*
X20097Y-3044D03*
X20058Y5225D03*
X19683Y5225D03*
X19308Y5225D03*
X19308Y4225D03*
X19683Y4225D03*
X20058Y4225D03*
G54D18*
X21772Y-5418D03*
X21772Y-4818D03*
G54D19*
X20112Y2909D03*
X20112Y2209D03*
X20912Y2559D03*
X20477Y-1030D03*
X21177Y-1030D03*
X20827Y-230D03*
G54D20*
X20827Y-1732D03*
G54D21*
X10802Y4056D03*
G54D22*
X10144Y4056D03*
G54D18*
X21024Y3607D03*
X21024Y3007D03*
G54D21*
X17584Y-2559D03*
G54D22*
X18242Y-2559D03*
G54D21*
X15211Y-2165D03*
G54D22*
X14553Y-2165D03*
G54D21*
X17584Y-4921D03*
G54D22*
X18242Y-4921D03*
G54D21*
X17584Y-1378D03*
G54D22*
X18242Y-1378D03*
G54D21*
X17584Y-3740D03*
G54D22*
X18242Y-3740D03*
G54D23*
X11628Y2250D03*
X11628Y1750D03*
X11050Y2250D03*
X11050Y1750D03*
G54D24*
X11628Y-2250D03*
G54D23*
X11050Y-2250D03*
X11050Y-1750D03*
X11050Y-1250D03*
X11050Y-750D03*
X11050Y-250D03*
X11050Y250D03*
X11050Y750D03*
X11050Y1250D03*
X11628Y-1750D03*
X11628Y-1250D03*
X11628Y-750D03*
X11628Y-250D03*
X11628Y250D03*
X11628Y750D03*
X11628Y1250D03*
G54D25*
X15256Y2205D03*
X15453Y2205D03*
X15650Y2205D03*
X15846Y2205D03*
X16043Y2205D03*
X14665Y2205D03*
X14862Y2205D03*
X15059Y2205D03*
G54D26*
X17362Y1674D03*
X17362Y1477D03*
X17362Y1280D03*
X17362Y1083D03*
X17362Y886D03*
X17362Y689D03*
X17362Y493D03*
X17362Y296D03*
G54D25*
X16831Y-1023D03*
X16634Y-1023D03*
X16437Y-1023D03*
X16240Y-1023D03*
X16043Y-1023D03*
X15846Y-1023D03*
X15650Y-1023D03*
X15453Y-1023D03*
G54D26*
X14134Y-492D03*
X14134Y-295D03*
X14134Y-98D03*
X14134Y99D03*
X14134Y296D03*
X14134Y493D03*
X14134Y689D03*
X14134Y886D03*
G54D25*
X16240Y2205D03*
X16437Y2205D03*
X16634Y2205D03*
X16831Y2205D03*
G54D26*
X17362Y99D03*
X17362Y-98D03*
X17362Y-295D03*
X17362Y-492D03*
G54D25*
X15256Y-1023D03*
X15059Y-1023D03*
X14862Y-1023D03*
X14665Y-1023D03*
G54D26*
X14134Y1083D03*
X14134Y1280D03*
X14134Y1477D03*
X14134Y1674D03*
G54D27*
X17480Y-5512D03*
X18346Y-5512D03*
X17480Y-4331D03*
X18346Y-4331D03*
X17480Y-3150D03*
X18346Y-3150D03*
X17480Y-1969D03*
X18346Y-1969D03*
G54D18*
X19724Y-1166D03*
X19724Y-566D03*
G54D28*
X20221Y-78D03*
X19621Y-78D03*
X19385Y-2363D03*
X19985Y-2363D03*
X13568Y787D03*
X12968Y787D03*
G54D18*
X18897Y-4435D03*
X18897Y-3835D03*
X19488Y-3450D03*
X19488Y-2850D03*
X18898Y-2850D03*
X18898Y-3450D03*
X19488Y-3835D03*
X19488Y-4435D03*
G54D28*
X20566Y4134D03*
X21166Y4134D03*
X19670Y2953D03*
X19070Y2953D03*
X18204Y4921D03*
X18804Y4921D03*
X18401Y3543D03*
X19001Y3543D03*
X14670Y-5433D03*
X14070Y-5433D03*
X17180Y4330D03*
X17780Y4330D03*
X17180Y3739D03*
X17780Y3739D03*
X13568Y2047D03*
X12968Y2047D03*
X14079Y-1181D03*
X13479Y-1181D03*
G54D18*
X18110Y-891D03*
X18110Y-291D03*
G54D28*
X17180Y4920D03*
X17780Y4920D03*
G54D18*
X13976Y5024D03*
X13976Y4424D03*
X12480Y684D03*
X12480Y1284D03*
X19173Y-566D03*
X19173Y-1166D03*
X21193Y-4818D03*
X21193Y-5418D03*
X20039Y410D03*
X20039Y1010D03*
G54D28*
X20969Y-2363D03*
X20369Y-2363D03*
G54D18*
X19488Y-4819D03*
X19488Y-5419D03*
G54D28*
X11039Y3071D03*
X11639Y3071D03*
X19976Y-4921D03*
X20576Y-4921D03*
X18804Y4331D03*
X18204Y4331D03*
X19983Y3544D03*
X19383Y3544D03*
X20566Y5315D03*
X21166Y5315D03*
X21166Y4725D03*
X20566Y4725D03*
G54D29*
X14763Y3957D03*
X16181Y3957D03*
X14763Y4941D03*
X16181Y4941D03*
G54D30*
X19291Y787D03*
X19094Y590D03*
X19488Y590D03*
X19094Y984D03*
X19488Y984D03*
G54D31*
X12579Y3051D03*
X12067Y3051D03*
X12323Y3799D03*
X12323Y3051D03*
X12067Y3799D03*
X12579Y3799D03*
G54D10*
G36*
X22058Y-5631D02*
X22320Y-5893D01*
X22058Y-6155D01*
X21796Y-5893D01*
X22058Y-5631D01*
X22058Y-5631D01*
G37*
G36*
X21641Y-6048D02*
X21903Y-6310D01*
X21641Y-6572D01*
X21379Y-6310D01*
X21641Y-6048D01*
X21641Y-6048D01*
G37*
G54D32*
X20748Y690D03*
G54D33*
X20748Y1438D03*
M02*
