G04 (created by PCBNEW (2013-07-07 BZR 4022)-stable) date 07/06/2014 15:45:14*
%MOIN*%
G04 Gerber Fmt 3.4, Leading zero omitted, Abs format*
%FSLAX34Y34*%
G01*
G70*
G90*
G04 APERTURE LIST*
%ADD10C,0.00590551*%
%ADD11C,0.007875*%
%ADD12C,0.0079*%
%ADD13O,0.063X0.0472*%
%ADD14R,0.0551X0.0394*%
%ADD15O,0.0551X0.0394*%
%ADD16O,0.0472X0.0315*%
%ADD17R,0.0472X0.0315*%
%ADD18R,0.0669X0.0669*%
%ADD19C,0.015*%
%ADD20R,0.0472X0.063*%
%ADD21O,0.0472X0.063*%
%ADD22C,0.025*%
%ADD23C,0.0591*%
%ADD24C,0.0394*%
%ADD25C,0.012*%
%ADD26C,0.015*%
%ADD27C,0.01*%
G04 APERTURE END LIST*
G54D10*
G54D11*
X15560Y-6404D02*
X15560Y-6209D01*
X15680Y-6314D01*
X15680Y-6269D01*
X15695Y-6239D01*
X15710Y-6224D01*
X15740Y-6209D01*
X15815Y-6209D01*
X15845Y-6224D01*
X15860Y-6239D01*
X15875Y-6269D01*
X15875Y-6359D01*
X15860Y-6389D01*
X15845Y-6404D01*
G54D12*
G54D13*
X20827Y-1732D03*
G54D14*
X10802Y4056D03*
G54D15*
X10144Y4056D03*
G54D14*
X17584Y-2559D03*
G54D15*
X18242Y-2559D03*
G54D14*
X15211Y-2165D03*
G54D15*
X14553Y-2165D03*
G54D14*
X17584Y-4921D03*
G54D15*
X18242Y-4921D03*
G54D14*
X17584Y-1378D03*
G54D15*
X18242Y-1378D03*
G54D14*
X17584Y-3740D03*
G54D15*
X18242Y-3740D03*
G54D16*
X11628Y2250D03*
X11628Y1750D03*
X11050Y2250D03*
X11050Y1750D03*
G54D17*
X11628Y-2250D03*
G54D16*
X11050Y-2250D03*
X11050Y-1750D03*
X11050Y-1250D03*
X11050Y-750D03*
X11050Y-250D03*
X11050Y250D03*
X11050Y750D03*
X11050Y1250D03*
X11628Y-1750D03*
X11628Y-1250D03*
X11628Y-750D03*
X11628Y-250D03*
X11628Y250D03*
X11628Y750D03*
X11628Y1250D03*
G54D18*
X19291Y787D03*
G54D19*
X19291Y787D03*
X19094Y590D03*
X19488Y590D03*
X19094Y984D03*
X19488Y984D03*
G54D20*
X20748Y690D03*
G54D21*
X20748Y1438D03*
G54D22*
X15738Y-292D03*
X15424Y-394D03*
X16560Y1429D03*
X15957Y788D03*
X16049Y254D03*
X16290Y1179D03*
X13232Y4291D03*
X14661Y929D03*
X16406Y5379D03*
X13138Y2594D03*
X18693Y5630D03*
X13807Y2646D03*
X10531Y-508D03*
X16720Y457D03*
X16409Y567D03*
X16161Y-47D03*
X15520Y-24D03*
X16768Y141D03*
X14690Y2671D03*
X19717Y1547D03*
X17177Y2084D03*
X18842Y1708D03*
X18577Y2131D03*
X14858Y1177D03*
X12606Y1803D03*
X15177Y1185D03*
X12043Y2031D03*
X13937Y3335D03*
X11169Y3661D03*
X16811Y2913D03*
X14461Y2894D03*
X18031Y2122D03*
X10748Y3071D03*
X18709Y213D03*
X15990Y1525D03*
X12165Y945D03*
X13450Y-215D03*
X16142Y-3031D03*
X16142Y-3465D03*
X16102Y-3858D03*
X15905Y-4370D03*
X16016Y-2323D03*
X16165Y-4173D03*
X15835Y-2622D03*
X20905Y5551D03*
X19122Y4622D03*
X14764Y3386D03*
X18193Y5402D03*
X13543Y2874D03*
X21142Y5787D03*
X18169Y3142D03*
X16000Y2650D03*
X14646Y5394D03*
X14988Y3020D03*
X21457Y5709D03*
X16760Y5327D03*
X10236Y-2953D03*
X12598Y-4921D03*
X18976Y-1614D03*
X10630Y-2953D03*
X12165Y-3307D03*
X19201Y-5713D03*
X16024Y-5433D03*
X12335Y-1646D03*
X18925Y-5539D03*
X10236Y-2362D03*
X14921Y-4134D03*
X11732Y-3425D03*
X11220Y-3346D03*
X14764Y-3583D03*
X15551Y-4724D03*
X14055Y-3228D03*
X13665Y1217D03*
X11024Y-2953D03*
X13386Y-4921D03*
X12677Y-2480D03*
X12441Y-2244D03*
X12992Y-2205D03*
X10236Y-1772D03*
X18898Y-4193D03*
X12165Y-2953D03*
X11811Y-2953D03*
X14819Y-1524D03*
X10236Y-1181D03*
X19291Y-1732D03*
X12205Y-4921D03*
X13661Y-2953D03*
X12992Y-4921D03*
X13386Y-2559D03*
X10630Y-3346D03*
X14016Y-2559D03*
X12795Y-5512D03*
X13661Y-2205D03*
X14409Y-4134D03*
X14134Y-5000D03*
X11417Y-2953D03*
X12165Y-2480D03*
X20276Y-4449D03*
X20354Y1496D03*
X20839Y-4512D03*
X19689Y2224D03*
X21220Y-3071D03*
X21339Y-3425D03*
X21260Y-2756D03*
X20039Y-945D03*
X17835Y3110D03*
X18740Y2614D03*
X18425Y2724D03*
X17520Y2870D03*
X19252Y-236D03*
X21362Y3474D03*
X13602Y1630D03*
X21575Y303D03*
X17126Y-748D03*
X14405Y-5433D03*
X20894Y-5118D03*
X10512Y945D03*
X16409Y-5063D03*
X21823Y5643D03*
X18961Y-4752D03*
X14441Y-890D03*
X12646Y-898D03*
X9433Y5307D03*
X12953Y2874D03*
X14291Y5394D03*
X17650Y5358D03*
X16830Y3878D03*
X20079Y5551D03*
X19724Y5630D03*
X16496Y3071D03*
X20315Y3661D03*
X13740Y3740D03*
X18335Y1220D03*
X19098Y2563D03*
X21299Y-4291D03*
X21575Y-79D03*
X21299Y-3898D03*
X20772Y-2697D03*
X18279Y583D03*
X18303Y906D03*
G54D23*
X19468Y-767D02*
X20571Y336D01*
X17895Y-767D02*
X19468Y-767D01*
G54D24*
X17663Y-2559D02*
X17663Y-3740D01*
G54D23*
X20571Y336D02*
X20709Y474D01*
G54D24*
X20571Y592D02*
X20748Y769D01*
X17663Y-1378D02*
X17663Y-2559D01*
G54D25*
X20748Y769D02*
X20709Y474D01*
G54D24*
X17663Y-3740D02*
X17663Y-4921D01*
X20571Y336D02*
X20571Y592D01*
X17895Y-767D02*
X17663Y-999D01*
X17663Y-1378D02*
X17663Y-999D01*
G54D26*
X18150Y2003D02*
X18031Y2122D01*
X18150Y1811D02*
X18150Y2003D01*
X17008Y1811D02*
X18150Y1811D01*
X18709Y1252D02*
X18709Y213D01*
X16811Y2008D02*
X17008Y1811D01*
X10748Y3071D02*
X12244Y3071D01*
X14645Y2008D02*
X16811Y2008D01*
X18150Y1811D02*
X18709Y1252D01*
X12992Y2323D02*
X14330Y2323D01*
X12244Y3071D02*
X12992Y2323D01*
X14330Y2323D02*
X14645Y2008D01*
G54D25*
X12167Y2794D02*
X12867Y2094D01*
X12167Y2795D02*
X12167Y2794D01*
X10630Y2795D02*
X12167Y2795D01*
G54D26*
X18303Y906D02*
X17914Y906D01*
G54D25*
X11089Y1250D02*
X10680Y1250D01*
X14512Y1783D02*
X16643Y1783D01*
X14201Y2094D02*
X14512Y1783D01*
X16643Y1783D02*
X17520Y906D01*
X10276Y1654D02*
X10276Y2441D01*
X10680Y1250D02*
X10276Y1654D01*
X17520Y906D02*
X17914Y906D01*
X12867Y2094D02*
X14201Y2094D01*
X10276Y2441D02*
X10630Y2795D01*
G54D10*
G36*
X12527Y2137D02*
X12296Y2137D01*
X12276Y2186D01*
X12198Y2263D01*
X12097Y2305D01*
X12010Y2306D01*
X11998Y2367D01*
X11931Y2467D01*
X11831Y2534D01*
X11714Y2557D01*
X11541Y2557D01*
X11424Y2534D01*
X11324Y2467D01*
X11257Y2367D01*
X11234Y2250D01*
X11256Y2137D01*
X10486Y2137D01*
X10486Y2354D01*
X10716Y2585D01*
X12079Y2585D01*
X12527Y2137D01*
X12527Y2137D01*
G37*
G54D27*
X12527Y2137D02*
X12296Y2137D01*
X12276Y2186D01*
X12198Y2263D01*
X12097Y2305D01*
X12010Y2306D01*
X11998Y2367D01*
X11931Y2467D01*
X11831Y2534D01*
X11714Y2557D01*
X11541Y2557D01*
X11424Y2534D01*
X11324Y2467D01*
X11257Y2367D01*
X11234Y2250D01*
X11256Y2137D01*
X10486Y2137D01*
X10486Y2354D01*
X10716Y2585D01*
X12079Y2585D01*
X12527Y2137D01*
G54D10*
G36*
X22267Y5833D02*
X22098Y5225D01*
X22098Y5697D01*
X22056Y5798D01*
X21978Y5875D01*
X21877Y5917D01*
X21768Y5918D01*
X21675Y5879D01*
X21612Y5941D01*
X21511Y5983D01*
X21402Y5984D01*
X21353Y5963D01*
X21297Y6019D01*
X21196Y6061D01*
X21087Y6062D01*
X20986Y6020D01*
X20909Y5942D01*
X20867Y5841D01*
X20867Y5826D01*
X20850Y5826D01*
X20749Y5784D01*
X20672Y5706D01*
X20630Y5605D01*
X20629Y5496D01*
X20671Y5395D01*
X20749Y5318D01*
X20850Y5276D01*
X20959Y5275D01*
X21060Y5317D01*
X21137Y5395D01*
X21179Y5496D01*
X21179Y5511D01*
X21196Y5511D01*
X21245Y5532D01*
X21301Y5476D01*
X21402Y5434D01*
X21511Y5433D01*
X21604Y5472D01*
X21667Y5410D01*
X21768Y5368D01*
X21877Y5367D01*
X21978Y5409D01*
X22055Y5487D01*
X22097Y5588D01*
X22098Y5697D01*
X22098Y5225D01*
X21629Y3547D01*
X21595Y3629D01*
X21517Y3706D01*
X21416Y3748D01*
X21307Y3749D01*
X21206Y3707D01*
X21129Y3629D01*
X21087Y3528D01*
X21086Y3419D01*
X21112Y3357D01*
X19397Y3357D01*
X19397Y4676D01*
X19355Y4777D01*
X19277Y4854D01*
X19176Y4896D01*
X19067Y4897D01*
X18966Y4855D01*
X18889Y4777D01*
X18847Y4676D01*
X18846Y4567D01*
X18888Y4466D01*
X18966Y4389D01*
X19067Y4347D01*
X19176Y4346D01*
X19277Y4388D01*
X19354Y4466D01*
X19396Y4567D01*
X19397Y4676D01*
X19397Y3357D01*
X18342Y3357D01*
X18324Y3374D01*
X18223Y3416D01*
X18114Y3417D01*
X18013Y3375D01*
X17995Y3357D01*
X17957Y3357D01*
X17889Y3384D01*
X17780Y3385D01*
X17712Y3357D01*
X16750Y3357D01*
X16564Y3170D01*
X16564Y3035D01*
X16536Y2967D01*
X16535Y2858D01*
X16564Y2790D01*
X16564Y2264D01*
X16532Y2233D01*
X16275Y2233D01*
X16275Y2704D01*
X16233Y2805D01*
X16155Y2882D01*
X16054Y2924D01*
X15945Y2925D01*
X15844Y2883D01*
X15767Y2805D01*
X15725Y2704D01*
X15724Y2595D01*
X15766Y2494D01*
X15844Y2417D01*
X15945Y2375D01*
X16054Y2374D01*
X16155Y2416D01*
X16232Y2494D01*
X16274Y2595D01*
X16275Y2704D01*
X16275Y2233D01*
X15263Y2233D01*
X15263Y3074D01*
X15221Y3175D01*
X15143Y3252D01*
X15042Y3294D01*
X15023Y3294D01*
X15038Y3331D01*
X15039Y3440D01*
X14997Y3541D01*
X14919Y3618D01*
X14818Y3660D01*
X14709Y3661D01*
X14608Y3619D01*
X14531Y3541D01*
X14489Y3440D01*
X14488Y3331D01*
X14530Y3230D01*
X14608Y3153D01*
X14709Y3111D01*
X14728Y3111D01*
X14713Y3074D01*
X14712Y3004D01*
X14694Y3049D01*
X14616Y3126D01*
X14515Y3168D01*
X14406Y3169D01*
X14305Y3127D01*
X14228Y3049D01*
X14212Y3011D01*
X14212Y3389D01*
X14170Y3490D01*
X14092Y3567D01*
X13991Y3609D01*
X13882Y3610D01*
X13781Y3568D01*
X13704Y3490D01*
X13662Y3389D01*
X13661Y3280D01*
X13703Y3179D01*
X13781Y3102D01*
X13882Y3060D01*
X13991Y3059D01*
X14092Y3101D01*
X14169Y3179D01*
X14211Y3280D01*
X14212Y3389D01*
X14212Y3011D01*
X14186Y2948D01*
X14185Y2839D01*
X14227Y2738D01*
X14305Y2661D01*
X14406Y2619D01*
X14414Y2619D01*
X14414Y2616D01*
X14456Y2515D01*
X14534Y2438D01*
X14635Y2396D01*
X14744Y2395D01*
X14845Y2437D01*
X14922Y2515D01*
X14964Y2616D01*
X14965Y2725D01*
X14956Y2745D01*
X15042Y2744D01*
X15143Y2786D01*
X15220Y2864D01*
X15262Y2965D01*
X15263Y3074D01*
X15263Y2233D01*
X14738Y2233D01*
X14489Y2482D01*
X14416Y2530D01*
X14401Y2533D01*
X14330Y2548D01*
X14329Y2548D01*
X14064Y2548D01*
X14081Y2591D01*
X14082Y2700D01*
X14040Y2801D01*
X13962Y2878D01*
X13861Y2920D01*
X13818Y2920D01*
X13818Y2928D01*
X13776Y3029D01*
X13698Y3106D01*
X13597Y3148D01*
X13507Y3149D01*
X13507Y4345D01*
X13465Y4446D01*
X13387Y4523D01*
X13286Y4565D01*
X13177Y4566D01*
X13076Y4524D01*
X12999Y4446D01*
X12957Y4345D01*
X12956Y4236D01*
X12998Y4135D01*
X13076Y4058D01*
X13177Y4016D01*
X13286Y4015D01*
X13387Y4057D01*
X13464Y4135D01*
X13506Y4236D01*
X13507Y4345D01*
X13507Y3149D01*
X13488Y3149D01*
X13387Y3107D01*
X13310Y3029D01*
X13268Y2928D01*
X13267Y2837D01*
X13192Y2868D01*
X13083Y2869D01*
X12982Y2827D01*
X12905Y2749D01*
X12898Y2734D01*
X12403Y3230D01*
X12330Y3278D01*
X12315Y3281D01*
X12244Y3296D01*
X12243Y3296D01*
X10911Y3296D01*
X10903Y3303D01*
X10802Y3345D01*
X10693Y3346D01*
X10592Y3304D01*
X10515Y3226D01*
X10473Y3125D01*
X10472Y3016D01*
X10498Y2954D01*
X10481Y2943D01*
X10129Y2590D01*
X10129Y3116D01*
X10064Y3427D01*
X9932Y3733D01*
X10057Y3709D01*
X10230Y3709D01*
X10363Y3735D01*
X10408Y3765D01*
X10441Y3731D01*
X10496Y3709D01*
X10556Y3708D01*
X10894Y3708D01*
X10893Y3606D01*
X10935Y3505D01*
X11013Y3428D01*
X11114Y3386D01*
X11223Y3385D01*
X11324Y3427D01*
X11401Y3505D01*
X11443Y3606D01*
X11444Y3715D01*
X11402Y3816D01*
X11324Y3893D01*
X11227Y3934D01*
X11227Y4282D01*
X11204Y4337D01*
X11162Y4380D01*
X11107Y4402D01*
X11047Y4403D01*
X10496Y4403D01*
X10441Y4380D01*
X10408Y4346D01*
X10363Y4376D01*
X10230Y4403D01*
X10057Y4403D01*
X9924Y4376D01*
X9811Y4301D01*
X9736Y4188D01*
X9736Y4188D01*
X9372Y5034D01*
X9378Y5032D01*
X9487Y5031D01*
X9588Y5073D01*
X9665Y5151D01*
X9707Y5252D01*
X9708Y5361D01*
X9666Y5462D01*
X9588Y5539D01*
X9487Y5581D01*
X9378Y5582D01*
X9277Y5540D01*
X9200Y5462D01*
X9193Y5448D01*
X9090Y5688D01*
X9133Y5913D01*
X9405Y6185D01*
X9654Y6289D01*
X13090Y6289D01*
X13221Y6160D01*
X13229Y5833D01*
X13418Y5647D01*
X14530Y5643D01*
X14490Y5627D01*
X14413Y5549D01*
X14371Y5448D01*
X14370Y5339D01*
X14412Y5238D01*
X14490Y5161D01*
X14591Y5119D01*
X14700Y5118D01*
X14801Y5160D01*
X14878Y5238D01*
X14920Y5339D01*
X14921Y5448D01*
X14879Y5549D01*
X14801Y5626D01*
X14763Y5643D01*
X16312Y5637D01*
X16250Y5612D01*
X16173Y5534D01*
X16131Y5433D01*
X16130Y5324D01*
X16172Y5223D01*
X16250Y5146D01*
X16351Y5104D01*
X16460Y5103D01*
X16555Y5143D01*
X16604Y5094D01*
X16705Y5052D01*
X16814Y5051D01*
X16915Y5093D01*
X16992Y5171D01*
X17034Y5272D01*
X17035Y5381D01*
X16993Y5482D01*
X16915Y5559D01*
X16814Y5601D01*
X16705Y5602D01*
X16610Y5562D01*
X16561Y5611D01*
X16501Y5637D01*
X18034Y5632D01*
X17960Y5557D01*
X17918Y5456D01*
X17917Y5347D01*
X17959Y5246D01*
X18037Y5169D01*
X18138Y5127D01*
X18247Y5126D01*
X18348Y5168D01*
X18425Y5246D01*
X18467Y5347D01*
X18468Y5456D01*
X18461Y5472D01*
X18537Y5397D01*
X18638Y5355D01*
X18747Y5354D01*
X18848Y5396D01*
X18925Y5474D01*
X18967Y5575D01*
X18968Y5684D01*
X18926Y5785D01*
X18915Y5796D01*
X21505Y6594D01*
X21739Y6536D01*
X22206Y6069D01*
X22267Y5833D01*
X22267Y5833D01*
G37*
G54D27*
X22267Y5833D02*
X22098Y5225D01*
X22098Y5697D01*
X22056Y5798D01*
X21978Y5875D01*
X21877Y5917D01*
X21768Y5918D01*
X21675Y5879D01*
X21612Y5941D01*
X21511Y5983D01*
X21402Y5984D01*
X21353Y5963D01*
X21297Y6019D01*
X21196Y6061D01*
X21087Y6062D01*
X20986Y6020D01*
X20909Y5942D01*
X20867Y5841D01*
X20867Y5826D01*
X20850Y5826D01*
X20749Y5784D01*
X20672Y5706D01*
X20630Y5605D01*
X20629Y5496D01*
X20671Y5395D01*
X20749Y5318D01*
X20850Y5276D01*
X20959Y5275D01*
X21060Y5317D01*
X21137Y5395D01*
X21179Y5496D01*
X21179Y5511D01*
X21196Y5511D01*
X21245Y5532D01*
X21301Y5476D01*
X21402Y5434D01*
X21511Y5433D01*
X21604Y5472D01*
X21667Y5410D01*
X21768Y5368D01*
X21877Y5367D01*
X21978Y5409D01*
X22055Y5487D01*
X22097Y5588D01*
X22098Y5697D01*
X22098Y5225D01*
X21629Y3547D01*
X21595Y3629D01*
X21517Y3706D01*
X21416Y3748D01*
X21307Y3749D01*
X21206Y3707D01*
X21129Y3629D01*
X21087Y3528D01*
X21086Y3419D01*
X21112Y3357D01*
X19397Y3357D01*
X19397Y4676D01*
X19355Y4777D01*
X19277Y4854D01*
X19176Y4896D01*
X19067Y4897D01*
X18966Y4855D01*
X18889Y4777D01*
X18847Y4676D01*
X18846Y4567D01*
X18888Y4466D01*
X18966Y4389D01*
X19067Y4347D01*
X19176Y4346D01*
X19277Y4388D01*
X19354Y4466D01*
X19396Y4567D01*
X19397Y4676D01*
X19397Y3357D01*
X18342Y3357D01*
X18324Y3374D01*
X18223Y3416D01*
X18114Y3417D01*
X18013Y3375D01*
X17995Y3357D01*
X17957Y3357D01*
X17889Y3384D01*
X17780Y3385D01*
X17712Y3357D01*
X16750Y3357D01*
X16564Y3170D01*
X16564Y3035D01*
X16536Y2967D01*
X16535Y2858D01*
X16564Y2790D01*
X16564Y2264D01*
X16532Y2233D01*
X16275Y2233D01*
X16275Y2704D01*
X16233Y2805D01*
X16155Y2882D01*
X16054Y2924D01*
X15945Y2925D01*
X15844Y2883D01*
X15767Y2805D01*
X15725Y2704D01*
X15724Y2595D01*
X15766Y2494D01*
X15844Y2417D01*
X15945Y2375D01*
X16054Y2374D01*
X16155Y2416D01*
X16232Y2494D01*
X16274Y2595D01*
X16275Y2704D01*
X16275Y2233D01*
X15263Y2233D01*
X15263Y3074D01*
X15221Y3175D01*
X15143Y3252D01*
X15042Y3294D01*
X15023Y3294D01*
X15038Y3331D01*
X15039Y3440D01*
X14997Y3541D01*
X14919Y3618D01*
X14818Y3660D01*
X14709Y3661D01*
X14608Y3619D01*
X14531Y3541D01*
X14489Y3440D01*
X14488Y3331D01*
X14530Y3230D01*
X14608Y3153D01*
X14709Y3111D01*
X14728Y3111D01*
X14713Y3074D01*
X14712Y3004D01*
X14694Y3049D01*
X14616Y3126D01*
X14515Y3168D01*
X14406Y3169D01*
X14305Y3127D01*
X14228Y3049D01*
X14212Y3011D01*
X14212Y3389D01*
X14170Y3490D01*
X14092Y3567D01*
X13991Y3609D01*
X13882Y3610D01*
X13781Y3568D01*
X13704Y3490D01*
X13662Y3389D01*
X13661Y3280D01*
X13703Y3179D01*
X13781Y3102D01*
X13882Y3060D01*
X13991Y3059D01*
X14092Y3101D01*
X14169Y3179D01*
X14211Y3280D01*
X14212Y3389D01*
X14212Y3011D01*
X14186Y2948D01*
X14185Y2839D01*
X14227Y2738D01*
X14305Y2661D01*
X14406Y2619D01*
X14414Y2619D01*
X14414Y2616D01*
X14456Y2515D01*
X14534Y2438D01*
X14635Y2396D01*
X14744Y2395D01*
X14845Y2437D01*
X14922Y2515D01*
X14964Y2616D01*
X14965Y2725D01*
X14956Y2745D01*
X15042Y2744D01*
X15143Y2786D01*
X15220Y2864D01*
X15262Y2965D01*
X15263Y3074D01*
X15263Y2233D01*
X14738Y2233D01*
X14489Y2482D01*
X14416Y2530D01*
X14401Y2533D01*
X14330Y2548D01*
X14329Y2548D01*
X14064Y2548D01*
X14081Y2591D01*
X14082Y2700D01*
X14040Y2801D01*
X13962Y2878D01*
X13861Y2920D01*
X13818Y2920D01*
X13818Y2928D01*
X13776Y3029D01*
X13698Y3106D01*
X13597Y3148D01*
X13507Y3149D01*
X13507Y4345D01*
X13465Y4446D01*
X13387Y4523D01*
X13286Y4565D01*
X13177Y4566D01*
X13076Y4524D01*
X12999Y4446D01*
X12957Y4345D01*
X12956Y4236D01*
X12998Y4135D01*
X13076Y4058D01*
X13177Y4016D01*
X13286Y4015D01*
X13387Y4057D01*
X13464Y4135D01*
X13506Y4236D01*
X13507Y4345D01*
X13507Y3149D01*
X13488Y3149D01*
X13387Y3107D01*
X13310Y3029D01*
X13268Y2928D01*
X13267Y2837D01*
X13192Y2868D01*
X13083Y2869D01*
X12982Y2827D01*
X12905Y2749D01*
X12898Y2734D01*
X12403Y3230D01*
X12330Y3278D01*
X12315Y3281D01*
X12244Y3296D01*
X12243Y3296D01*
X10911Y3296D01*
X10903Y3303D01*
X10802Y3345D01*
X10693Y3346D01*
X10592Y3304D01*
X10515Y3226D01*
X10473Y3125D01*
X10472Y3016D01*
X10498Y2954D01*
X10481Y2943D01*
X10129Y2590D01*
X10129Y3116D01*
X10064Y3427D01*
X9932Y3733D01*
X10057Y3709D01*
X10230Y3709D01*
X10363Y3735D01*
X10408Y3765D01*
X10441Y3731D01*
X10496Y3709D01*
X10556Y3708D01*
X10894Y3708D01*
X10893Y3606D01*
X10935Y3505D01*
X11013Y3428D01*
X11114Y3386D01*
X11223Y3385D01*
X11324Y3427D01*
X11401Y3505D01*
X11443Y3606D01*
X11444Y3715D01*
X11402Y3816D01*
X11324Y3893D01*
X11227Y3934D01*
X11227Y4282D01*
X11204Y4337D01*
X11162Y4380D01*
X11107Y4402D01*
X11047Y4403D01*
X10496Y4403D01*
X10441Y4380D01*
X10408Y4346D01*
X10363Y4376D01*
X10230Y4403D01*
X10057Y4403D01*
X9924Y4376D01*
X9811Y4301D01*
X9736Y4188D01*
X9736Y4188D01*
X9372Y5034D01*
X9378Y5032D01*
X9487Y5031D01*
X9588Y5073D01*
X9665Y5151D01*
X9707Y5252D01*
X9708Y5361D01*
X9666Y5462D01*
X9588Y5539D01*
X9487Y5581D01*
X9378Y5582D01*
X9277Y5540D01*
X9200Y5462D01*
X9193Y5448D01*
X9090Y5688D01*
X9133Y5913D01*
X9405Y6185D01*
X9654Y6289D01*
X13090Y6289D01*
X13221Y6160D01*
X13229Y5833D01*
X13418Y5647D01*
X14530Y5643D01*
X14490Y5627D01*
X14413Y5549D01*
X14371Y5448D01*
X14370Y5339D01*
X14412Y5238D01*
X14490Y5161D01*
X14591Y5119D01*
X14700Y5118D01*
X14801Y5160D01*
X14878Y5238D01*
X14920Y5339D01*
X14921Y5448D01*
X14879Y5549D01*
X14801Y5626D01*
X14763Y5643D01*
X16312Y5637D01*
X16250Y5612D01*
X16173Y5534D01*
X16131Y5433D01*
X16130Y5324D01*
X16172Y5223D01*
X16250Y5146D01*
X16351Y5104D01*
X16460Y5103D01*
X16555Y5143D01*
X16604Y5094D01*
X16705Y5052D01*
X16814Y5051D01*
X16915Y5093D01*
X16992Y5171D01*
X17034Y5272D01*
X17035Y5381D01*
X16993Y5482D01*
X16915Y5559D01*
X16814Y5601D01*
X16705Y5602D01*
X16610Y5562D01*
X16561Y5611D01*
X16501Y5637D01*
X18034Y5632D01*
X17960Y5557D01*
X17918Y5456D01*
X17917Y5347D01*
X17959Y5246D01*
X18037Y5169D01*
X18138Y5127D01*
X18247Y5126D01*
X18348Y5168D01*
X18425Y5246D01*
X18467Y5347D01*
X18468Y5456D01*
X18461Y5472D01*
X18537Y5397D01*
X18638Y5355D01*
X18747Y5354D01*
X18848Y5396D01*
X18925Y5474D01*
X18967Y5575D01*
X18968Y5684D01*
X18926Y5785D01*
X18915Y5796D01*
X21505Y6594D01*
X21739Y6536D01*
X22206Y6069D01*
X22267Y5833D01*
G54D10*
G36*
X17191Y-728D02*
X17066Y-856D01*
X16986Y-856D01*
X16798Y-1041D01*
X16762Y-5491D01*
X16633Y-5619D01*
X16440Y-5619D01*
X16440Y-4118D01*
X16398Y-4017D01*
X16352Y-3971D01*
X16376Y-3912D01*
X16377Y-3803D01*
X16335Y-3702D01*
X16314Y-3681D01*
X16374Y-3620D01*
X16416Y-3519D01*
X16417Y-3410D01*
X16375Y-3309D01*
X16313Y-3247D01*
X16374Y-3186D01*
X16416Y-3085D01*
X16417Y-2976D01*
X16375Y-2875D01*
X16297Y-2798D01*
X16196Y-2756D01*
X16087Y-2755D01*
X16074Y-2761D01*
X16109Y-2676D01*
X16110Y-2581D01*
X16171Y-2556D01*
X16248Y-2478D01*
X16290Y-2377D01*
X16291Y-2268D01*
X16249Y-2167D01*
X16171Y-2090D01*
X16070Y-2048D01*
X15961Y-2047D01*
X15860Y-2089D01*
X15783Y-2167D01*
X15741Y-2268D01*
X15740Y-2363D01*
X15679Y-2388D01*
X15602Y-2466D01*
X15560Y-2567D01*
X15559Y-2676D01*
X15601Y-2777D01*
X15679Y-2854D01*
X15780Y-2896D01*
X15889Y-2897D01*
X15902Y-2891D01*
X15867Y-2976D01*
X15866Y-3085D01*
X15908Y-3186D01*
X15970Y-3248D01*
X15909Y-3309D01*
X15867Y-3410D01*
X15866Y-3519D01*
X15908Y-3620D01*
X15929Y-3641D01*
X15869Y-3702D01*
X15827Y-3803D01*
X15826Y-3912D01*
X15868Y-4013D01*
X15914Y-4059D01*
X15899Y-4094D01*
X15850Y-4094D01*
X15749Y-4136D01*
X15672Y-4214D01*
X15630Y-4315D01*
X15629Y-4424D01*
X15647Y-4466D01*
X15605Y-4449D01*
X15496Y-4448D01*
X15395Y-4490D01*
X15318Y-4568D01*
X15276Y-4669D01*
X15275Y-4778D01*
X15317Y-4879D01*
X15395Y-4956D01*
X15496Y-4998D01*
X15605Y-4999D01*
X15706Y-4957D01*
X15783Y-4879D01*
X15825Y-4778D01*
X15826Y-4669D01*
X15808Y-4627D01*
X15850Y-4644D01*
X15959Y-4645D01*
X16060Y-4603D01*
X16137Y-4525D01*
X16170Y-4448D01*
X16219Y-4448D01*
X16320Y-4406D01*
X16397Y-4328D01*
X16439Y-4227D01*
X16440Y-4118D01*
X16440Y-5619D01*
X16226Y-5619D01*
X16256Y-5588D01*
X16298Y-5487D01*
X16299Y-5378D01*
X16257Y-5277D01*
X16179Y-5200D01*
X16078Y-5158D01*
X15969Y-5157D01*
X15868Y-5199D01*
X15791Y-5277D01*
X15749Y-5378D01*
X15748Y-5487D01*
X15790Y-5588D01*
X15821Y-5619D01*
X14390Y-5619D01*
X14260Y-5490D01*
X14257Y-5246D01*
X14289Y-5233D01*
X14366Y-5155D01*
X14408Y-5054D01*
X14409Y-4945D01*
X14367Y-4844D01*
X14289Y-4767D01*
X14250Y-4750D01*
X14245Y-4359D01*
X14253Y-4366D01*
X14354Y-4408D01*
X14463Y-4409D01*
X14564Y-4367D01*
X14641Y-4289D01*
X14665Y-4234D01*
X14687Y-4289D01*
X14765Y-4366D01*
X14866Y-4408D01*
X14975Y-4409D01*
X15076Y-4367D01*
X15153Y-4289D01*
X15195Y-4188D01*
X15196Y-4079D01*
X15154Y-3978D01*
X15094Y-3918D01*
X15094Y-1469D01*
X15052Y-1368D01*
X14974Y-1291D01*
X14873Y-1249D01*
X14764Y-1248D01*
X14663Y-1290D01*
X14586Y-1368D01*
X14544Y-1469D01*
X14543Y-1578D01*
X14585Y-1679D01*
X14663Y-1756D01*
X14764Y-1798D01*
X14873Y-1799D01*
X14974Y-1757D01*
X15051Y-1679D01*
X15093Y-1578D01*
X15094Y-1469D01*
X15094Y-3918D01*
X15076Y-3901D01*
X15039Y-3885D01*
X15039Y-3528D01*
X14997Y-3427D01*
X14919Y-3350D01*
X14818Y-3308D01*
X14709Y-3307D01*
X14608Y-3349D01*
X14531Y-3427D01*
X14489Y-3528D01*
X14488Y-3637D01*
X14530Y-3738D01*
X14608Y-3815D01*
X14709Y-3857D01*
X14818Y-3858D01*
X14919Y-3816D01*
X14996Y-3738D01*
X15038Y-3637D01*
X15039Y-3528D01*
X15039Y-3885D01*
X14975Y-3859D01*
X14866Y-3858D01*
X14765Y-3900D01*
X14688Y-3978D01*
X14664Y-4033D01*
X14642Y-3978D01*
X14564Y-3901D01*
X14463Y-3859D01*
X14354Y-3858D01*
X14253Y-3900D01*
X14239Y-3914D01*
X14232Y-3439D01*
X14287Y-3383D01*
X14329Y-3282D01*
X14330Y-3173D01*
X14288Y-3072D01*
X14226Y-3011D01*
X14224Y-2852D01*
X14165Y-2794D01*
X14171Y-2792D01*
X14248Y-2714D01*
X14290Y-2613D01*
X14291Y-2504D01*
X14264Y-2439D01*
X14333Y-2485D01*
X14466Y-2512D01*
X14639Y-2512D01*
X14772Y-2485D01*
X14885Y-2410D01*
X14960Y-2297D01*
X14986Y-2165D01*
X14960Y-2032D01*
X14885Y-1919D01*
X14772Y-1844D01*
X14639Y-1818D01*
X14466Y-1818D01*
X14333Y-1844D01*
X14220Y-1919D01*
X14145Y-2032D01*
X14119Y-2165D01*
X14145Y-2297D01*
X14161Y-2321D01*
X14070Y-2284D01*
X13961Y-2283D01*
X13940Y-2292D01*
X13940Y1271D01*
X13898Y1372D01*
X13820Y1449D01*
X13719Y1491D01*
X13610Y1492D01*
X13509Y1450D01*
X13432Y1372D01*
X13390Y1271D01*
X13389Y1162D01*
X13431Y1061D01*
X13509Y984D01*
X13610Y942D01*
X13719Y941D01*
X13820Y983D01*
X13897Y1061D01*
X13939Y1162D01*
X13940Y1271D01*
X13940Y-2292D01*
X13918Y-2301D01*
X13935Y-2259D01*
X13936Y-2150D01*
X13894Y-2049D01*
X13816Y-1972D01*
X13725Y-1933D01*
X13725Y-160D01*
X13683Y-59D01*
X13605Y17D01*
X13504Y59D01*
X13395Y60D01*
X13294Y18D01*
X13217Y-59D01*
X13175Y-160D01*
X13174Y-269D01*
X13216Y-370D01*
X13294Y-447D01*
X13395Y-489D01*
X13504Y-490D01*
X13605Y-448D01*
X13682Y-370D01*
X13724Y-269D01*
X13725Y-160D01*
X13725Y-1933D01*
X13715Y-1930D01*
X13606Y-1929D01*
X13505Y-1971D01*
X13428Y-2049D01*
X13386Y-2150D01*
X13385Y-2259D01*
X13396Y-2284D01*
X13331Y-2283D01*
X13241Y-2321D01*
X13266Y-2259D01*
X13267Y-2150D01*
X13225Y-2049D01*
X13147Y-1972D01*
X13046Y-1930D01*
X12937Y-1929D01*
X12836Y-1971D01*
X12759Y-2049D01*
X12717Y-2150D01*
X12716Y-2205D01*
X12716Y-2205D01*
X12716Y-2189D01*
X12674Y-2088D01*
X12610Y-2024D01*
X12610Y-1591D01*
X12568Y-1490D01*
X12490Y-1413D01*
X12389Y-1371D01*
X12280Y-1370D01*
X12179Y-1412D01*
X12102Y-1490D01*
X12060Y-1591D01*
X12059Y-1700D01*
X12101Y-1801D01*
X12179Y-1878D01*
X12280Y-1920D01*
X12389Y-1921D01*
X12490Y-1879D01*
X12567Y-1801D01*
X12609Y-1700D01*
X12610Y-1591D01*
X12610Y-2024D01*
X12596Y-2011D01*
X12495Y-1969D01*
X12386Y-1968D01*
X12285Y-2010D01*
X12208Y-2088D01*
X12166Y-2189D01*
X12166Y-2205D01*
X12110Y-2204D01*
X12009Y-2246D01*
X11932Y-2324D01*
X11890Y-2425D01*
X11889Y-2534D01*
X11931Y-2635D01*
X11963Y-2667D01*
X10216Y-2667D01*
X10187Y-2636D01*
X10290Y-2637D01*
X10391Y-2595D01*
X10468Y-2517D01*
X10510Y-2416D01*
X10511Y-2307D01*
X10469Y-2206D01*
X10391Y-2129D01*
X10290Y-2087D01*
X10181Y-2086D01*
X10094Y-2122D01*
X10095Y-2011D01*
X10181Y-2046D01*
X10290Y-2047D01*
X10391Y-2005D01*
X10468Y-1927D01*
X10510Y-1826D01*
X10511Y-1717D01*
X10469Y-1616D01*
X10391Y-1539D01*
X10290Y-1497D01*
X10181Y-1496D01*
X10099Y-1530D01*
X10100Y-1422D01*
X10181Y-1455D01*
X10290Y-1456D01*
X10391Y-1414D01*
X10468Y-1336D01*
X10510Y-1235D01*
X10511Y-1126D01*
X10469Y-1025D01*
X10391Y-948D01*
X10290Y-906D01*
X10181Y-905D01*
X10105Y-937D01*
X10127Y1505D01*
X10531Y1101D01*
X10531Y1101D01*
X10572Y1074D01*
X10599Y1055D01*
X10599Y1055D01*
X10680Y1040D01*
X10741Y1040D01*
X10746Y1032D01*
X10795Y1000D01*
X10746Y967D01*
X10679Y867D01*
X10656Y750D01*
X10679Y632D01*
X10746Y532D01*
X10795Y500D01*
X10746Y467D01*
X10679Y367D01*
X10656Y250D01*
X10679Y132D01*
X10746Y32D01*
X10795Y0D01*
X10746Y-32D01*
X10679Y-132D01*
X10656Y-250D01*
X10659Y-263D01*
X10585Y-233D01*
X10476Y-232D01*
X10375Y-274D01*
X10298Y-352D01*
X10256Y-453D01*
X10255Y-562D01*
X10297Y-663D01*
X10375Y-740D01*
X10476Y-782D01*
X10585Y-783D01*
X10657Y-753D01*
X10679Y-867D01*
X10746Y-967D01*
X10795Y-1000D01*
X10746Y-1032D01*
X10679Y-1132D01*
X10656Y-1250D01*
X10679Y-1367D01*
X10746Y-1467D01*
X10795Y-1500D01*
X10746Y-1532D01*
X10679Y-1632D01*
X10656Y-1750D01*
X10679Y-1867D01*
X10746Y-1967D01*
X10795Y-2000D01*
X10746Y-2032D01*
X10679Y-2132D01*
X10656Y-2250D01*
X10679Y-2367D01*
X10746Y-2467D01*
X10846Y-2534D01*
X10963Y-2557D01*
X11136Y-2557D01*
X11253Y-2534D01*
X11353Y-2467D01*
X11420Y-2367D01*
X11443Y-2250D01*
X11420Y-2132D01*
X11353Y-2032D01*
X11304Y-2000D01*
X11339Y-1977D01*
X11424Y-2034D01*
X11541Y-2057D01*
X11714Y-2057D01*
X11831Y-2034D01*
X11931Y-1967D01*
X11998Y-1867D01*
X12021Y-1750D01*
X11998Y-1632D01*
X11931Y-1532D01*
X11882Y-1500D01*
X11931Y-1467D01*
X11998Y-1367D01*
X12021Y-1250D01*
X11998Y-1132D01*
X11931Y-1032D01*
X11882Y-1000D01*
X11931Y-967D01*
X11998Y-867D01*
X12021Y-750D01*
X11998Y-632D01*
X11931Y-532D01*
X11882Y-500D01*
X11931Y-467D01*
X11998Y-367D01*
X12021Y-250D01*
X11998Y-132D01*
X11931Y-32D01*
X11882Y0D01*
X11931Y32D01*
X11998Y132D01*
X12021Y250D01*
X11998Y367D01*
X11931Y467D01*
X11882Y500D01*
X11931Y532D01*
X11998Y632D01*
X12013Y710D01*
X12110Y670D01*
X12219Y669D01*
X12320Y711D01*
X12397Y789D01*
X12439Y890D01*
X12440Y999D01*
X12398Y1100D01*
X12320Y1177D01*
X12219Y1219D01*
X12110Y1220D01*
X12009Y1178D01*
X11932Y1100D01*
X11890Y999D01*
X11890Y995D01*
X11831Y1034D01*
X11714Y1057D01*
X11541Y1057D01*
X11424Y1034D01*
X11339Y977D01*
X11304Y1000D01*
X11353Y1032D01*
X11420Y1132D01*
X11443Y1250D01*
X11420Y1367D01*
X11353Y1467D01*
X11304Y1500D01*
X11339Y1522D01*
X11424Y1465D01*
X11541Y1442D01*
X11714Y1442D01*
X11831Y1465D01*
X11931Y1532D01*
X11998Y1632D01*
X12021Y1750D01*
X12020Y1756D01*
X12097Y1755D01*
X12198Y1797D01*
X12240Y1840D01*
X12331Y1840D01*
X12330Y1748D01*
X12372Y1647D01*
X12450Y1570D01*
X12551Y1528D01*
X12660Y1527D01*
X12761Y1569D01*
X12838Y1647D01*
X12880Y1748D01*
X12881Y1840D01*
X14152Y1840D01*
X14216Y1775D01*
X14310Y1682D01*
X14316Y1682D01*
X14363Y1634D01*
X14363Y1634D01*
X14431Y1588D01*
X14431Y1588D01*
X14496Y1576D01*
X14511Y1573D01*
X14511Y1573D01*
X14512Y1573D01*
X15715Y1573D01*
X15714Y1470D01*
X15756Y1369D01*
X15834Y1292D01*
X15935Y1250D01*
X16021Y1249D01*
X16015Y1233D01*
X16014Y1124D01*
X16046Y1048D01*
X16011Y1062D01*
X15902Y1063D01*
X15801Y1021D01*
X15724Y943D01*
X15682Y842D01*
X15681Y733D01*
X15723Y632D01*
X15801Y555D01*
X15902Y513D01*
X15955Y513D01*
X15893Y487D01*
X15816Y409D01*
X15774Y308D01*
X15773Y199D01*
X15815Y98D01*
X15891Y22D01*
X15886Y7D01*
X15885Y-55D01*
X15795Y-17D01*
X15795Y30D01*
X15753Y131D01*
X15675Y208D01*
X15574Y250D01*
X15465Y251D01*
X15452Y245D01*
X15452Y1239D01*
X15410Y1340D01*
X15332Y1417D01*
X15231Y1459D01*
X15122Y1460D01*
X15021Y1418D01*
X15013Y1410D01*
X14912Y1451D01*
X14803Y1452D01*
X14702Y1410D01*
X14625Y1332D01*
X14583Y1231D01*
X14583Y1194D01*
X14505Y1162D01*
X14428Y1084D01*
X14386Y983D01*
X14385Y874D01*
X14427Y773D01*
X14505Y696D01*
X14606Y654D01*
X14715Y653D01*
X14816Y695D01*
X14893Y773D01*
X14935Y874D01*
X14935Y911D01*
X15013Y943D01*
X15021Y951D01*
X15122Y910D01*
X15231Y909D01*
X15332Y951D01*
X15409Y1029D01*
X15451Y1130D01*
X15452Y1239D01*
X15452Y245D01*
X15364Y209D01*
X15287Y131D01*
X15245Y30D01*
X15244Y-78D01*
X15277Y-157D01*
X15268Y-160D01*
X15191Y-238D01*
X15149Y-339D01*
X15148Y-448D01*
X15190Y-549D01*
X15268Y-626D01*
X15369Y-668D01*
X15478Y-669D01*
X15579Y-627D01*
X15652Y-554D01*
X15683Y-566D01*
X15792Y-567D01*
X15893Y-525D01*
X15970Y-447D01*
X16012Y-346D01*
X16013Y-283D01*
X16106Y-321D01*
X16215Y-322D01*
X16316Y-280D01*
X16393Y-202D01*
X16435Y-101D01*
X16436Y7D01*
X16394Y108D01*
X16318Y184D01*
X16323Y199D01*
X16324Y304D01*
X16354Y292D01*
X16463Y291D01*
X16486Y301D01*
X16486Y301D01*
X16522Y265D01*
X16493Y195D01*
X16492Y86D01*
X16534Y-14D01*
X16612Y-91D01*
X16713Y-133D01*
X16822Y-134D01*
X16923Y-92D01*
X17000Y-14D01*
X17042Y86D01*
X17043Y195D01*
X17001Y296D01*
X16965Y332D01*
X16994Y402D01*
X16995Y511D01*
X16953Y612D01*
X16875Y689D01*
X16774Y731D01*
X16665Y732D01*
X16642Y722D01*
X16642Y722D01*
X16564Y799D01*
X16463Y841D01*
X16354Y842D01*
X16253Y800D01*
X16231Y778D01*
X16232Y842D01*
X16200Y918D01*
X16235Y904D01*
X16344Y903D01*
X16445Y945D01*
X16522Y1023D01*
X16564Y1124D01*
X16564Y1153D01*
X16614Y1153D01*
X16715Y1195D01*
X16792Y1273D01*
X16811Y1317D01*
X17166Y962D01*
X17191Y-728D01*
X17191Y-728D01*
G37*
G54D27*
X17191Y-728D02*
X17066Y-856D01*
X16986Y-856D01*
X16798Y-1041D01*
X16762Y-5491D01*
X16633Y-5619D01*
X16440Y-5619D01*
X16440Y-4118D01*
X16398Y-4017D01*
X16352Y-3971D01*
X16376Y-3912D01*
X16377Y-3803D01*
X16335Y-3702D01*
X16314Y-3681D01*
X16374Y-3620D01*
X16416Y-3519D01*
X16417Y-3410D01*
X16375Y-3309D01*
X16313Y-3247D01*
X16374Y-3186D01*
X16416Y-3085D01*
X16417Y-2976D01*
X16375Y-2875D01*
X16297Y-2798D01*
X16196Y-2756D01*
X16087Y-2755D01*
X16074Y-2761D01*
X16109Y-2676D01*
X16110Y-2581D01*
X16171Y-2556D01*
X16248Y-2478D01*
X16290Y-2377D01*
X16291Y-2268D01*
X16249Y-2167D01*
X16171Y-2090D01*
X16070Y-2048D01*
X15961Y-2047D01*
X15860Y-2089D01*
X15783Y-2167D01*
X15741Y-2268D01*
X15740Y-2363D01*
X15679Y-2388D01*
X15602Y-2466D01*
X15560Y-2567D01*
X15559Y-2676D01*
X15601Y-2777D01*
X15679Y-2854D01*
X15780Y-2896D01*
X15889Y-2897D01*
X15902Y-2891D01*
X15867Y-2976D01*
X15866Y-3085D01*
X15908Y-3186D01*
X15970Y-3248D01*
X15909Y-3309D01*
X15867Y-3410D01*
X15866Y-3519D01*
X15908Y-3620D01*
X15929Y-3641D01*
X15869Y-3702D01*
X15827Y-3803D01*
X15826Y-3912D01*
X15868Y-4013D01*
X15914Y-4059D01*
X15899Y-4094D01*
X15850Y-4094D01*
X15749Y-4136D01*
X15672Y-4214D01*
X15630Y-4315D01*
X15629Y-4424D01*
X15647Y-4466D01*
X15605Y-4449D01*
X15496Y-4448D01*
X15395Y-4490D01*
X15318Y-4568D01*
X15276Y-4669D01*
X15275Y-4778D01*
X15317Y-4879D01*
X15395Y-4956D01*
X15496Y-4998D01*
X15605Y-4999D01*
X15706Y-4957D01*
X15783Y-4879D01*
X15825Y-4778D01*
X15826Y-4669D01*
X15808Y-4627D01*
X15850Y-4644D01*
X15959Y-4645D01*
X16060Y-4603D01*
X16137Y-4525D01*
X16170Y-4448D01*
X16219Y-4448D01*
X16320Y-4406D01*
X16397Y-4328D01*
X16439Y-4227D01*
X16440Y-4118D01*
X16440Y-5619D01*
X16226Y-5619D01*
X16256Y-5588D01*
X16298Y-5487D01*
X16299Y-5378D01*
X16257Y-5277D01*
X16179Y-5200D01*
X16078Y-5158D01*
X15969Y-5157D01*
X15868Y-5199D01*
X15791Y-5277D01*
X15749Y-5378D01*
X15748Y-5487D01*
X15790Y-5588D01*
X15821Y-5619D01*
X14390Y-5619D01*
X14260Y-5490D01*
X14257Y-5246D01*
X14289Y-5233D01*
X14366Y-5155D01*
X14408Y-5054D01*
X14409Y-4945D01*
X14367Y-4844D01*
X14289Y-4767D01*
X14250Y-4750D01*
X14245Y-4359D01*
X14253Y-4366D01*
X14354Y-4408D01*
X14463Y-4409D01*
X14564Y-4367D01*
X14641Y-4289D01*
X14665Y-4234D01*
X14687Y-4289D01*
X14765Y-4366D01*
X14866Y-4408D01*
X14975Y-4409D01*
X15076Y-4367D01*
X15153Y-4289D01*
X15195Y-4188D01*
X15196Y-4079D01*
X15154Y-3978D01*
X15094Y-3918D01*
X15094Y-1469D01*
X15052Y-1368D01*
X14974Y-1291D01*
X14873Y-1249D01*
X14764Y-1248D01*
X14663Y-1290D01*
X14586Y-1368D01*
X14544Y-1469D01*
X14543Y-1578D01*
X14585Y-1679D01*
X14663Y-1756D01*
X14764Y-1798D01*
X14873Y-1799D01*
X14974Y-1757D01*
X15051Y-1679D01*
X15093Y-1578D01*
X15094Y-1469D01*
X15094Y-3918D01*
X15076Y-3901D01*
X15039Y-3885D01*
X15039Y-3528D01*
X14997Y-3427D01*
X14919Y-3350D01*
X14818Y-3308D01*
X14709Y-3307D01*
X14608Y-3349D01*
X14531Y-3427D01*
X14489Y-3528D01*
X14488Y-3637D01*
X14530Y-3738D01*
X14608Y-3815D01*
X14709Y-3857D01*
X14818Y-3858D01*
X14919Y-3816D01*
X14996Y-3738D01*
X15038Y-3637D01*
X15039Y-3528D01*
X15039Y-3885D01*
X14975Y-3859D01*
X14866Y-3858D01*
X14765Y-3900D01*
X14688Y-3978D01*
X14664Y-4033D01*
X14642Y-3978D01*
X14564Y-3901D01*
X14463Y-3859D01*
X14354Y-3858D01*
X14253Y-3900D01*
X14239Y-3914D01*
X14232Y-3439D01*
X14287Y-3383D01*
X14329Y-3282D01*
X14330Y-3173D01*
X14288Y-3072D01*
X14226Y-3011D01*
X14224Y-2852D01*
X14165Y-2794D01*
X14171Y-2792D01*
X14248Y-2714D01*
X14290Y-2613D01*
X14291Y-2504D01*
X14264Y-2439D01*
X14333Y-2485D01*
X14466Y-2512D01*
X14639Y-2512D01*
X14772Y-2485D01*
X14885Y-2410D01*
X14960Y-2297D01*
X14986Y-2165D01*
X14960Y-2032D01*
X14885Y-1919D01*
X14772Y-1844D01*
X14639Y-1818D01*
X14466Y-1818D01*
X14333Y-1844D01*
X14220Y-1919D01*
X14145Y-2032D01*
X14119Y-2165D01*
X14145Y-2297D01*
X14161Y-2321D01*
X14070Y-2284D01*
X13961Y-2283D01*
X13940Y-2292D01*
X13940Y1271D01*
X13898Y1372D01*
X13820Y1449D01*
X13719Y1491D01*
X13610Y1492D01*
X13509Y1450D01*
X13432Y1372D01*
X13390Y1271D01*
X13389Y1162D01*
X13431Y1061D01*
X13509Y984D01*
X13610Y942D01*
X13719Y941D01*
X13820Y983D01*
X13897Y1061D01*
X13939Y1162D01*
X13940Y1271D01*
X13940Y-2292D01*
X13918Y-2301D01*
X13935Y-2259D01*
X13936Y-2150D01*
X13894Y-2049D01*
X13816Y-1972D01*
X13725Y-1933D01*
X13725Y-160D01*
X13683Y-59D01*
X13605Y17D01*
X13504Y59D01*
X13395Y60D01*
X13294Y18D01*
X13217Y-59D01*
X13175Y-160D01*
X13174Y-269D01*
X13216Y-370D01*
X13294Y-447D01*
X13395Y-489D01*
X13504Y-490D01*
X13605Y-448D01*
X13682Y-370D01*
X13724Y-269D01*
X13725Y-160D01*
X13725Y-1933D01*
X13715Y-1930D01*
X13606Y-1929D01*
X13505Y-1971D01*
X13428Y-2049D01*
X13386Y-2150D01*
X13385Y-2259D01*
X13396Y-2284D01*
X13331Y-2283D01*
X13241Y-2321D01*
X13266Y-2259D01*
X13267Y-2150D01*
X13225Y-2049D01*
X13147Y-1972D01*
X13046Y-1930D01*
X12937Y-1929D01*
X12836Y-1971D01*
X12759Y-2049D01*
X12717Y-2150D01*
X12716Y-2205D01*
X12716Y-2205D01*
X12716Y-2189D01*
X12674Y-2088D01*
X12610Y-2024D01*
X12610Y-1591D01*
X12568Y-1490D01*
X12490Y-1413D01*
X12389Y-1371D01*
X12280Y-1370D01*
X12179Y-1412D01*
X12102Y-1490D01*
X12060Y-1591D01*
X12059Y-1700D01*
X12101Y-1801D01*
X12179Y-1878D01*
X12280Y-1920D01*
X12389Y-1921D01*
X12490Y-1879D01*
X12567Y-1801D01*
X12609Y-1700D01*
X12610Y-1591D01*
X12610Y-2024D01*
X12596Y-2011D01*
X12495Y-1969D01*
X12386Y-1968D01*
X12285Y-2010D01*
X12208Y-2088D01*
X12166Y-2189D01*
X12166Y-2205D01*
X12110Y-2204D01*
X12009Y-2246D01*
X11932Y-2324D01*
X11890Y-2425D01*
X11889Y-2534D01*
X11931Y-2635D01*
X11963Y-2667D01*
X10216Y-2667D01*
X10187Y-2636D01*
X10290Y-2637D01*
X10391Y-2595D01*
X10468Y-2517D01*
X10510Y-2416D01*
X10511Y-2307D01*
X10469Y-2206D01*
X10391Y-2129D01*
X10290Y-2087D01*
X10181Y-2086D01*
X10094Y-2122D01*
X10095Y-2011D01*
X10181Y-2046D01*
X10290Y-2047D01*
X10391Y-2005D01*
X10468Y-1927D01*
X10510Y-1826D01*
X10511Y-1717D01*
X10469Y-1616D01*
X10391Y-1539D01*
X10290Y-1497D01*
X10181Y-1496D01*
X10099Y-1530D01*
X10100Y-1422D01*
X10181Y-1455D01*
X10290Y-1456D01*
X10391Y-1414D01*
X10468Y-1336D01*
X10510Y-1235D01*
X10511Y-1126D01*
X10469Y-1025D01*
X10391Y-948D01*
X10290Y-906D01*
X10181Y-905D01*
X10105Y-937D01*
X10127Y1505D01*
X10531Y1101D01*
X10531Y1101D01*
X10572Y1074D01*
X10599Y1055D01*
X10599Y1055D01*
X10680Y1040D01*
X10741Y1040D01*
X10746Y1032D01*
X10795Y1000D01*
X10746Y967D01*
X10679Y867D01*
X10656Y750D01*
X10679Y632D01*
X10746Y532D01*
X10795Y500D01*
X10746Y467D01*
X10679Y367D01*
X10656Y250D01*
X10679Y132D01*
X10746Y32D01*
X10795Y0D01*
X10746Y-32D01*
X10679Y-132D01*
X10656Y-250D01*
X10659Y-263D01*
X10585Y-233D01*
X10476Y-232D01*
X10375Y-274D01*
X10298Y-352D01*
X10256Y-453D01*
X10255Y-562D01*
X10297Y-663D01*
X10375Y-740D01*
X10476Y-782D01*
X10585Y-783D01*
X10657Y-753D01*
X10679Y-867D01*
X10746Y-967D01*
X10795Y-1000D01*
X10746Y-1032D01*
X10679Y-1132D01*
X10656Y-1250D01*
X10679Y-1367D01*
X10746Y-1467D01*
X10795Y-1500D01*
X10746Y-1532D01*
X10679Y-1632D01*
X10656Y-1750D01*
X10679Y-1867D01*
X10746Y-1967D01*
X10795Y-2000D01*
X10746Y-2032D01*
X10679Y-2132D01*
X10656Y-2250D01*
X10679Y-2367D01*
X10746Y-2467D01*
X10846Y-2534D01*
X10963Y-2557D01*
X11136Y-2557D01*
X11253Y-2534D01*
X11353Y-2467D01*
X11420Y-2367D01*
X11443Y-2250D01*
X11420Y-2132D01*
X11353Y-2032D01*
X11304Y-2000D01*
X11339Y-1977D01*
X11424Y-2034D01*
X11541Y-2057D01*
X11714Y-2057D01*
X11831Y-2034D01*
X11931Y-1967D01*
X11998Y-1867D01*
X12021Y-1750D01*
X11998Y-1632D01*
X11931Y-1532D01*
X11882Y-1500D01*
X11931Y-1467D01*
X11998Y-1367D01*
X12021Y-1250D01*
X11998Y-1132D01*
X11931Y-1032D01*
X11882Y-1000D01*
X11931Y-967D01*
X11998Y-867D01*
X12021Y-750D01*
X11998Y-632D01*
X11931Y-532D01*
X11882Y-500D01*
X11931Y-467D01*
X11998Y-367D01*
X12021Y-250D01*
X11998Y-132D01*
X11931Y-32D01*
X11882Y0D01*
X11931Y32D01*
X11998Y132D01*
X12021Y250D01*
X11998Y367D01*
X11931Y467D01*
X11882Y500D01*
X11931Y532D01*
X11998Y632D01*
X12013Y710D01*
X12110Y670D01*
X12219Y669D01*
X12320Y711D01*
X12397Y789D01*
X12439Y890D01*
X12440Y999D01*
X12398Y1100D01*
X12320Y1177D01*
X12219Y1219D01*
X12110Y1220D01*
X12009Y1178D01*
X11932Y1100D01*
X11890Y999D01*
X11890Y995D01*
X11831Y1034D01*
X11714Y1057D01*
X11541Y1057D01*
X11424Y1034D01*
X11339Y977D01*
X11304Y1000D01*
X11353Y1032D01*
X11420Y1132D01*
X11443Y1250D01*
X11420Y1367D01*
X11353Y1467D01*
X11304Y1500D01*
X11339Y1522D01*
X11424Y1465D01*
X11541Y1442D01*
X11714Y1442D01*
X11831Y1465D01*
X11931Y1532D01*
X11998Y1632D01*
X12021Y1750D01*
X12020Y1756D01*
X12097Y1755D01*
X12198Y1797D01*
X12240Y1840D01*
X12331Y1840D01*
X12330Y1748D01*
X12372Y1647D01*
X12450Y1570D01*
X12551Y1528D01*
X12660Y1527D01*
X12761Y1569D01*
X12838Y1647D01*
X12880Y1748D01*
X12881Y1840D01*
X14152Y1840D01*
X14216Y1775D01*
X14310Y1682D01*
X14316Y1682D01*
X14363Y1634D01*
X14363Y1634D01*
X14431Y1588D01*
X14431Y1588D01*
X14496Y1576D01*
X14511Y1573D01*
X14511Y1573D01*
X14512Y1573D01*
X15715Y1573D01*
X15714Y1470D01*
X15756Y1369D01*
X15834Y1292D01*
X15935Y1250D01*
X16021Y1249D01*
X16015Y1233D01*
X16014Y1124D01*
X16046Y1048D01*
X16011Y1062D01*
X15902Y1063D01*
X15801Y1021D01*
X15724Y943D01*
X15682Y842D01*
X15681Y733D01*
X15723Y632D01*
X15801Y555D01*
X15902Y513D01*
X15955Y513D01*
X15893Y487D01*
X15816Y409D01*
X15774Y308D01*
X15773Y199D01*
X15815Y98D01*
X15891Y22D01*
X15886Y7D01*
X15885Y-55D01*
X15795Y-17D01*
X15795Y30D01*
X15753Y131D01*
X15675Y208D01*
X15574Y250D01*
X15465Y251D01*
X15452Y245D01*
X15452Y1239D01*
X15410Y1340D01*
X15332Y1417D01*
X15231Y1459D01*
X15122Y1460D01*
X15021Y1418D01*
X15013Y1410D01*
X14912Y1451D01*
X14803Y1452D01*
X14702Y1410D01*
X14625Y1332D01*
X14583Y1231D01*
X14583Y1194D01*
X14505Y1162D01*
X14428Y1084D01*
X14386Y983D01*
X14385Y874D01*
X14427Y773D01*
X14505Y696D01*
X14606Y654D01*
X14715Y653D01*
X14816Y695D01*
X14893Y773D01*
X14935Y874D01*
X14935Y911D01*
X15013Y943D01*
X15021Y951D01*
X15122Y910D01*
X15231Y909D01*
X15332Y951D01*
X15409Y1029D01*
X15451Y1130D01*
X15452Y1239D01*
X15452Y245D01*
X15364Y209D01*
X15287Y131D01*
X15245Y30D01*
X15244Y-78D01*
X15277Y-157D01*
X15268Y-160D01*
X15191Y-238D01*
X15149Y-339D01*
X15148Y-448D01*
X15190Y-549D01*
X15268Y-626D01*
X15369Y-668D01*
X15478Y-669D01*
X15579Y-627D01*
X15652Y-554D01*
X15683Y-566D01*
X15792Y-567D01*
X15893Y-525D01*
X15970Y-447D01*
X16012Y-346D01*
X16013Y-283D01*
X16106Y-321D01*
X16215Y-322D01*
X16316Y-280D01*
X16393Y-202D01*
X16435Y-101D01*
X16436Y7D01*
X16394Y108D01*
X16318Y184D01*
X16323Y199D01*
X16324Y304D01*
X16354Y292D01*
X16463Y291D01*
X16486Y301D01*
X16486Y301D01*
X16522Y265D01*
X16493Y195D01*
X16492Y86D01*
X16534Y-14D01*
X16612Y-91D01*
X16713Y-133D01*
X16822Y-134D01*
X16923Y-92D01*
X17000Y-14D01*
X17042Y86D01*
X17043Y195D01*
X17001Y296D01*
X16965Y332D01*
X16994Y402D01*
X16995Y511D01*
X16953Y612D01*
X16875Y689D01*
X16774Y731D01*
X16665Y732D01*
X16642Y722D01*
X16642Y722D01*
X16564Y799D01*
X16463Y841D01*
X16354Y842D01*
X16253Y800D01*
X16231Y778D01*
X16232Y842D01*
X16200Y918D01*
X16235Y904D01*
X16344Y903D01*
X16445Y945D01*
X16522Y1023D01*
X16564Y1124D01*
X16564Y1153D01*
X16614Y1153D01*
X16715Y1195D01*
X16792Y1273D01*
X16811Y1317D01*
X17166Y962D01*
X17191Y-728D01*
G54D10*
G36*
X22337Y-5760D02*
X22284Y-5991D01*
X21739Y-6536D01*
X21506Y-6593D01*
X21169Y-6487D01*
X21169Y-5063D01*
X21127Y-4962D01*
X21114Y-4949D01*
X21114Y-4457D01*
X21072Y-4356D01*
X20994Y-4279D01*
X20893Y-4237D01*
X20784Y-4236D01*
X20683Y-4278D01*
X20606Y-4356D01*
X20564Y-4457D01*
X20563Y-4566D01*
X20605Y-4667D01*
X20683Y-4744D01*
X20784Y-4786D01*
X20893Y-4787D01*
X20994Y-4745D01*
X21071Y-4667D01*
X21113Y-4566D01*
X21114Y-4457D01*
X21114Y-4949D01*
X21049Y-4885D01*
X20948Y-4843D01*
X20839Y-4842D01*
X20738Y-4884D01*
X20661Y-4962D01*
X20619Y-5063D01*
X20618Y-5172D01*
X20660Y-5273D01*
X20738Y-5350D01*
X20839Y-5392D01*
X20948Y-5393D01*
X21049Y-5351D01*
X21126Y-5273D01*
X21168Y-5172D01*
X21169Y-5063D01*
X21169Y-6487D01*
X20551Y-6291D01*
X20551Y-4394D01*
X20509Y-4293D01*
X20431Y-4216D01*
X20330Y-4174D01*
X20221Y-4173D01*
X20120Y-4215D01*
X20043Y-4293D01*
X20001Y-4394D01*
X20000Y-4503D01*
X20042Y-4604D01*
X20120Y-4681D01*
X20221Y-4723D01*
X20330Y-4724D01*
X20431Y-4682D01*
X20508Y-4604D01*
X20550Y-4503D01*
X20551Y-4394D01*
X20551Y-6291D01*
X19566Y-5980D01*
X19566Y-1677D01*
X19524Y-1576D01*
X19446Y-1499D01*
X19345Y-1457D01*
X19236Y-1456D01*
X19212Y-1466D01*
X19209Y-1458D01*
X19131Y-1381D01*
X19030Y-1339D01*
X18921Y-1338D01*
X18820Y-1380D01*
X18743Y-1458D01*
X18701Y-1559D01*
X18700Y-1668D01*
X18742Y-1769D01*
X18820Y-1846D01*
X18921Y-1888D01*
X19030Y-1889D01*
X19054Y-1879D01*
X19057Y-1887D01*
X19135Y-1964D01*
X19236Y-2006D01*
X19345Y-2007D01*
X19446Y-1965D01*
X19523Y-1887D01*
X19565Y-1786D01*
X19566Y-1677D01*
X19566Y-5980D01*
X19380Y-5922D01*
X19433Y-5868D01*
X19475Y-5767D01*
X19476Y-5658D01*
X19434Y-5557D01*
X19356Y-5480D01*
X19255Y-5438D01*
X19236Y-5438D01*
X19236Y-4697D01*
X19194Y-4596D01*
X19116Y-4519D01*
X19015Y-4477D01*
X18906Y-4476D01*
X18805Y-4518D01*
X18728Y-4596D01*
X18686Y-4697D01*
X18685Y-4806D01*
X18727Y-4907D01*
X18805Y-4984D01*
X18906Y-5026D01*
X19015Y-5027D01*
X19116Y-4985D01*
X19193Y-4907D01*
X19235Y-4806D01*
X19236Y-4697D01*
X19236Y-5438D01*
X19180Y-5437D01*
X19158Y-5383D01*
X19080Y-5306D01*
X18979Y-5264D01*
X18870Y-5263D01*
X18769Y-5305D01*
X18692Y-5383D01*
X18671Y-5433D01*
X18671Y-4944D01*
X18675Y-4921D01*
X18671Y-4897D01*
X18671Y-4355D01*
X18742Y-4425D01*
X18843Y-4467D01*
X18952Y-4468D01*
X19053Y-4426D01*
X19130Y-4348D01*
X19172Y-4247D01*
X19173Y-4138D01*
X19131Y-4037D01*
X19053Y-3960D01*
X18952Y-3918D01*
X18843Y-3917D01*
X18742Y-3959D01*
X18671Y-4030D01*
X18671Y-3762D01*
X18675Y-3740D01*
X18671Y-3717D01*
X18671Y-2580D01*
X18675Y-2559D01*
X18671Y-2537D01*
X18671Y-1398D01*
X18675Y-1378D01*
X18671Y-1357D01*
X18671Y-1212D01*
X19468Y-1212D01*
X19638Y-1178D01*
X19783Y-1082D01*
X19793Y-1071D01*
X19805Y-1100D01*
X19883Y-1177D01*
X19984Y-1219D01*
X20093Y-1220D01*
X20194Y-1178D01*
X20271Y-1100D01*
X20313Y-999D01*
X20314Y-890D01*
X20272Y-789D01*
X20194Y-712D01*
X20165Y-699D01*
X20886Y20D01*
X21024Y158D01*
X21120Y303D01*
X21124Y321D01*
X21133Y345D01*
X21133Y370D01*
X21154Y474D01*
X21134Y576D01*
X21134Y1034D01*
X21111Y1089D01*
X21069Y1132D01*
X21060Y1135D01*
X21104Y1202D01*
X21134Y1349D01*
X21134Y1526D01*
X21104Y1673D01*
X21020Y1799D01*
X20895Y1882D01*
X20748Y1912D01*
X20600Y1882D01*
X20475Y1799D01*
X20445Y1755D01*
X20408Y1770D01*
X20299Y1771D01*
X20198Y1729D01*
X20121Y1651D01*
X20079Y1550D01*
X20078Y1441D01*
X20120Y1340D01*
X20198Y1263D01*
X20299Y1221D01*
X20387Y1220D01*
X20391Y1202D01*
X20435Y1135D01*
X20427Y1132D01*
X20384Y1090D01*
X20362Y1034D01*
X20361Y975D01*
X20361Y873D01*
X20325Y837D01*
X20250Y724D01*
X20230Y625D01*
X19992Y387D01*
X19992Y1601D01*
X19964Y1669D01*
X19964Y2278D01*
X19922Y2379D01*
X19844Y2456D01*
X19743Y2498D01*
X19634Y2499D01*
X19533Y2457D01*
X19456Y2379D01*
X19414Y2278D01*
X19413Y2169D01*
X19455Y2068D01*
X19533Y1991D01*
X19634Y1949D01*
X19743Y1948D01*
X19844Y1990D01*
X19921Y2068D01*
X19963Y2169D01*
X19964Y2278D01*
X19964Y1669D01*
X19950Y1702D01*
X19872Y1779D01*
X19771Y1821D01*
X19662Y1822D01*
X19561Y1780D01*
X19484Y1702D01*
X19442Y1601D01*
X19441Y1492D01*
X19483Y1391D01*
X19561Y1314D01*
X19662Y1272D01*
X19771Y1271D01*
X19872Y1313D01*
X19949Y1391D01*
X19991Y1492D01*
X19992Y1601D01*
X19992Y387D01*
X19496Y-108D01*
X19485Y-80D01*
X19407Y-3D01*
X19306Y38D01*
X19197Y39D01*
X19096Y-2D01*
X19019Y-80D01*
X18977Y-181D01*
X18976Y-290D01*
X18989Y-321D01*
X17895Y-321D01*
X17724Y-355D01*
X17691Y-377D01*
X17609Y-294D01*
X17609Y1586D01*
X18056Y1586D01*
X18484Y1158D01*
X18484Y376D01*
X18476Y368D01*
X18434Y267D01*
X18433Y158D01*
X18475Y57D01*
X18553Y-19D01*
X18654Y-61D01*
X18763Y-62D01*
X18864Y-20D01*
X18941Y57D01*
X18983Y158D01*
X18984Y267D01*
X18969Y302D01*
X18986Y302D01*
X19655Y302D01*
X19710Y325D01*
X19752Y367D01*
X19775Y422D01*
X19775Y482D01*
X19775Y1151D01*
X19752Y1206D01*
X19710Y1248D01*
X19655Y1271D01*
X19595Y1271D01*
X18930Y1271D01*
X18916Y1338D01*
X18916Y1338D01*
X18868Y1411D01*
X18868Y1411D01*
X18846Y1432D01*
X18896Y1432D01*
X18997Y1474D01*
X19074Y1552D01*
X19116Y1653D01*
X19117Y1762D01*
X19075Y1863D01*
X18997Y1940D01*
X18896Y1982D01*
X18813Y1983D01*
X18851Y2076D01*
X18852Y2185D01*
X18810Y2286D01*
X18757Y2338D01*
X18794Y2338D01*
X18895Y2380D01*
X18972Y2458D01*
X19014Y2559D01*
X19014Y2588D01*
X21239Y2588D01*
X21367Y2460D01*
X21367Y1843D01*
X21415Y1528D01*
X21719Y560D01*
X21722Y539D01*
X21629Y577D01*
X21520Y578D01*
X21419Y536D01*
X21342Y458D01*
X21300Y357D01*
X21299Y248D01*
X21341Y147D01*
X21419Y70D01*
X21520Y28D01*
X21629Y27D01*
X21730Y69D01*
X21769Y108D01*
X21772Y-158D01*
X21757Y-187D01*
X21715Y-225D01*
X21456Y-535D01*
X21349Y-829D01*
X21341Y-2492D01*
X21314Y-2481D01*
X21301Y-2481D01*
X21301Y-1732D01*
X21271Y-1584D01*
X21188Y-1459D01*
X21062Y-1375D01*
X20915Y-1346D01*
X20738Y-1346D01*
X20591Y-1375D01*
X20465Y-1459D01*
X20382Y-1584D01*
X20352Y-1732D01*
X20382Y-1879D01*
X20465Y-2004D01*
X20591Y-2088D01*
X20738Y-2118D01*
X20915Y-2118D01*
X21062Y-2088D01*
X21188Y-2004D01*
X21271Y-1879D01*
X21301Y-1732D01*
X21301Y-2481D01*
X21205Y-2480D01*
X21104Y-2522D01*
X21027Y-2600D01*
X20985Y-2701D01*
X20984Y-2810D01*
X21016Y-2885D01*
X20987Y-2915D01*
X20945Y-3016D01*
X20944Y-3125D01*
X20986Y-3226D01*
X21064Y-3303D01*
X21087Y-3313D01*
X21064Y-3370D01*
X21063Y-3479D01*
X21105Y-3580D01*
X21183Y-3657D01*
X21284Y-3699D01*
X21393Y-3700D01*
X21494Y-3658D01*
X21571Y-3580D01*
X21573Y-3577D01*
X22337Y-5760D01*
X22337Y-5760D01*
G37*
G54D27*
X22337Y-5760D02*
X22284Y-5991D01*
X21739Y-6536D01*
X21506Y-6593D01*
X21169Y-6487D01*
X21169Y-5063D01*
X21127Y-4962D01*
X21114Y-4949D01*
X21114Y-4457D01*
X21072Y-4356D01*
X20994Y-4279D01*
X20893Y-4237D01*
X20784Y-4236D01*
X20683Y-4278D01*
X20606Y-4356D01*
X20564Y-4457D01*
X20563Y-4566D01*
X20605Y-4667D01*
X20683Y-4744D01*
X20784Y-4786D01*
X20893Y-4787D01*
X20994Y-4745D01*
X21071Y-4667D01*
X21113Y-4566D01*
X21114Y-4457D01*
X21114Y-4949D01*
X21049Y-4885D01*
X20948Y-4843D01*
X20839Y-4842D01*
X20738Y-4884D01*
X20661Y-4962D01*
X20619Y-5063D01*
X20618Y-5172D01*
X20660Y-5273D01*
X20738Y-5350D01*
X20839Y-5392D01*
X20948Y-5393D01*
X21049Y-5351D01*
X21126Y-5273D01*
X21168Y-5172D01*
X21169Y-5063D01*
X21169Y-6487D01*
X20551Y-6291D01*
X20551Y-4394D01*
X20509Y-4293D01*
X20431Y-4216D01*
X20330Y-4174D01*
X20221Y-4173D01*
X20120Y-4215D01*
X20043Y-4293D01*
X20001Y-4394D01*
X20000Y-4503D01*
X20042Y-4604D01*
X20120Y-4681D01*
X20221Y-4723D01*
X20330Y-4724D01*
X20431Y-4682D01*
X20508Y-4604D01*
X20550Y-4503D01*
X20551Y-4394D01*
X20551Y-6291D01*
X19566Y-5980D01*
X19566Y-1677D01*
X19524Y-1576D01*
X19446Y-1499D01*
X19345Y-1457D01*
X19236Y-1456D01*
X19212Y-1466D01*
X19209Y-1458D01*
X19131Y-1381D01*
X19030Y-1339D01*
X18921Y-1338D01*
X18820Y-1380D01*
X18743Y-1458D01*
X18701Y-1559D01*
X18700Y-1668D01*
X18742Y-1769D01*
X18820Y-1846D01*
X18921Y-1888D01*
X19030Y-1889D01*
X19054Y-1879D01*
X19057Y-1887D01*
X19135Y-1964D01*
X19236Y-2006D01*
X19345Y-2007D01*
X19446Y-1965D01*
X19523Y-1887D01*
X19565Y-1786D01*
X19566Y-1677D01*
X19566Y-5980D01*
X19380Y-5922D01*
X19433Y-5868D01*
X19475Y-5767D01*
X19476Y-5658D01*
X19434Y-5557D01*
X19356Y-5480D01*
X19255Y-5438D01*
X19236Y-5438D01*
X19236Y-4697D01*
X19194Y-4596D01*
X19116Y-4519D01*
X19015Y-4477D01*
X18906Y-4476D01*
X18805Y-4518D01*
X18728Y-4596D01*
X18686Y-4697D01*
X18685Y-4806D01*
X18727Y-4907D01*
X18805Y-4984D01*
X18906Y-5026D01*
X19015Y-5027D01*
X19116Y-4985D01*
X19193Y-4907D01*
X19235Y-4806D01*
X19236Y-4697D01*
X19236Y-5438D01*
X19180Y-5437D01*
X19158Y-5383D01*
X19080Y-5306D01*
X18979Y-5264D01*
X18870Y-5263D01*
X18769Y-5305D01*
X18692Y-5383D01*
X18671Y-5433D01*
X18671Y-4944D01*
X18675Y-4921D01*
X18671Y-4897D01*
X18671Y-4355D01*
X18742Y-4425D01*
X18843Y-4467D01*
X18952Y-4468D01*
X19053Y-4426D01*
X19130Y-4348D01*
X19172Y-4247D01*
X19173Y-4138D01*
X19131Y-4037D01*
X19053Y-3960D01*
X18952Y-3918D01*
X18843Y-3917D01*
X18742Y-3959D01*
X18671Y-4030D01*
X18671Y-3762D01*
X18675Y-3740D01*
X18671Y-3717D01*
X18671Y-2580D01*
X18675Y-2559D01*
X18671Y-2537D01*
X18671Y-1398D01*
X18675Y-1378D01*
X18671Y-1357D01*
X18671Y-1212D01*
X19468Y-1212D01*
X19638Y-1178D01*
X19783Y-1082D01*
X19793Y-1071D01*
X19805Y-1100D01*
X19883Y-1177D01*
X19984Y-1219D01*
X20093Y-1220D01*
X20194Y-1178D01*
X20271Y-1100D01*
X20313Y-999D01*
X20314Y-890D01*
X20272Y-789D01*
X20194Y-712D01*
X20165Y-699D01*
X20886Y20D01*
X21024Y158D01*
X21120Y303D01*
X21124Y321D01*
X21133Y345D01*
X21133Y370D01*
X21154Y474D01*
X21134Y576D01*
X21134Y1034D01*
X21111Y1089D01*
X21069Y1132D01*
X21060Y1135D01*
X21104Y1202D01*
X21134Y1349D01*
X21134Y1526D01*
X21104Y1673D01*
X21020Y1799D01*
X20895Y1882D01*
X20748Y1912D01*
X20600Y1882D01*
X20475Y1799D01*
X20445Y1755D01*
X20408Y1770D01*
X20299Y1771D01*
X20198Y1729D01*
X20121Y1651D01*
X20079Y1550D01*
X20078Y1441D01*
X20120Y1340D01*
X20198Y1263D01*
X20299Y1221D01*
X20387Y1220D01*
X20391Y1202D01*
X20435Y1135D01*
X20427Y1132D01*
X20384Y1090D01*
X20362Y1034D01*
X20361Y975D01*
X20361Y873D01*
X20325Y837D01*
X20250Y724D01*
X20230Y625D01*
X19992Y387D01*
X19992Y1601D01*
X19964Y1669D01*
X19964Y2278D01*
X19922Y2379D01*
X19844Y2456D01*
X19743Y2498D01*
X19634Y2499D01*
X19533Y2457D01*
X19456Y2379D01*
X19414Y2278D01*
X19413Y2169D01*
X19455Y2068D01*
X19533Y1991D01*
X19634Y1949D01*
X19743Y1948D01*
X19844Y1990D01*
X19921Y2068D01*
X19963Y2169D01*
X19964Y2278D01*
X19964Y1669D01*
X19950Y1702D01*
X19872Y1779D01*
X19771Y1821D01*
X19662Y1822D01*
X19561Y1780D01*
X19484Y1702D01*
X19442Y1601D01*
X19441Y1492D01*
X19483Y1391D01*
X19561Y1314D01*
X19662Y1272D01*
X19771Y1271D01*
X19872Y1313D01*
X19949Y1391D01*
X19991Y1492D01*
X19992Y1601D01*
X19992Y387D01*
X19496Y-108D01*
X19485Y-80D01*
X19407Y-3D01*
X19306Y38D01*
X19197Y39D01*
X19096Y-2D01*
X19019Y-80D01*
X18977Y-181D01*
X18976Y-290D01*
X18989Y-321D01*
X17895Y-321D01*
X17724Y-355D01*
X17691Y-377D01*
X17609Y-294D01*
X17609Y1586D01*
X18056Y1586D01*
X18484Y1158D01*
X18484Y376D01*
X18476Y368D01*
X18434Y267D01*
X18433Y158D01*
X18475Y57D01*
X18553Y-19D01*
X18654Y-61D01*
X18763Y-62D01*
X18864Y-20D01*
X18941Y57D01*
X18983Y158D01*
X18984Y267D01*
X18969Y302D01*
X18986Y302D01*
X19655Y302D01*
X19710Y325D01*
X19752Y367D01*
X19775Y422D01*
X19775Y482D01*
X19775Y1151D01*
X19752Y1206D01*
X19710Y1248D01*
X19655Y1271D01*
X19595Y1271D01*
X18930Y1271D01*
X18916Y1338D01*
X18916Y1338D01*
X18868Y1411D01*
X18868Y1411D01*
X18846Y1432D01*
X18896Y1432D01*
X18997Y1474D01*
X19074Y1552D01*
X19116Y1653D01*
X19117Y1762D01*
X19075Y1863D01*
X18997Y1940D01*
X18896Y1982D01*
X18813Y1983D01*
X18851Y2076D01*
X18852Y2185D01*
X18810Y2286D01*
X18757Y2338D01*
X18794Y2338D01*
X18895Y2380D01*
X18972Y2458D01*
X19014Y2559D01*
X19014Y2588D01*
X21239Y2588D01*
X21367Y2460D01*
X21367Y1843D01*
X21415Y1528D01*
X21719Y560D01*
X21722Y539D01*
X21629Y577D01*
X21520Y578D01*
X21419Y536D01*
X21342Y458D01*
X21300Y357D01*
X21299Y248D01*
X21341Y147D01*
X21419Y70D01*
X21520Y28D01*
X21629Y27D01*
X21730Y69D01*
X21769Y108D01*
X21772Y-158D01*
X21757Y-187D01*
X21715Y-225D01*
X21456Y-535D01*
X21349Y-829D01*
X21341Y-2492D01*
X21314Y-2481D01*
X21301Y-2481D01*
X21301Y-1732D01*
X21271Y-1584D01*
X21188Y-1459D01*
X21062Y-1375D01*
X20915Y-1346D01*
X20738Y-1346D01*
X20591Y-1375D01*
X20465Y-1459D01*
X20382Y-1584D01*
X20352Y-1732D01*
X20382Y-1879D01*
X20465Y-2004D01*
X20591Y-2088D01*
X20738Y-2118D01*
X20915Y-2118D01*
X21062Y-2088D01*
X21188Y-2004D01*
X21271Y-1879D01*
X21301Y-1732D01*
X21301Y-2481D01*
X21205Y-2480D01*
X21104Y-2522D01*
X21027Y-2600D01*
X20985Y-2701D01*
X20984Y-2810D01*
X21016Y-2885D01*
X20987Y-2915D01*
X20945Y-3016D01*
X20944Y-3125D01*
X20986Y-3226D01*
X21064Y-3303D01*
X21087Y-3313D01*
X21064Y-3370D01*
X21063Y-3479D01*
X21105Y-3580D01*
X21183Y-3657D01*
X21284Y-3699D01*
X21393Y-3700D01*
X21494Y-3658D01*
X21571Y-3580D01*
X21573Y-3577D01*
X22337Y-5760D01*
G54D10*
G36*
X18257Y-5490D02*
X18129Y-5618D01*
X17303Y-5618D01*
X17176Y-5490D01*
X17176Y-1239D01*
X17303Y-1112D01*
X17940Y-1112D01*
X17909Y-1132D01*
X17834Y-1245D01*
X17808Y-1378D01*
X17834Y-1510D01*
X17909Y-1623D01*
X18022Y-1698D01*
X18155Y-1725D01*
X18257Y-1725D01*
X18257Y-2212D01*
X18155Y-2212D01*
X18022Y-2238D01*
X17909Y-2313D01*
X17834Y-2426D01*
X17808Y-2559D01*
X17834Y-2691D01*
X17909Y-2804D01*
X18022Y-2879D01*
X18155Y-2906D01*
X18257Y-2906D01*
X18257Y-3393D01*
X18155Y-3393D01*
X18022Y-3419D01*
X17909Y-3494D01*
X17834Y-3607D01*
X17808Y-3740D01*
X17834Y-3872D01*
X17909Y-3985D01*
X18022Y-4060D01*
X18155Y-4087D01*
X18257Y-4087D01*
X18257Y-4574D01*
X18155Y-4574D01*
X18022Y-4600D01*
X17909Y-4675D01*
X17834Y-4788D01*
X17808Y-4921D01*
X17834Y-5053D01*
X17909Y-5166D01*
X18022Y-5241D01*
X18155Y-5268D01*
X18257Y-5268D01*
X18257Y-5490D01*
X18257Y-5490D01*
G37*
G54D27*
X18257Y-5490D02*
X18129Y-5618D01*
X17303Y-5618D01*
X17176Y-5490D01*
X17176Y-1239D01*
X17303Y-1112D01*
X17940Y-1112D01*
X17909Y-1132D01*
X17834Y-1245D01*
X17808Y-1378D01*
X17834Y-1510D01*
X17909Y-1623D01*
X18022Y-1698D01*
X18155Y-1725D01*
X18257Y-1725D01*
X18257Y-2212D01*
X18155Y-2212D01*
X18022Y-2238D01*
X17909Y-2313D01*
X17834Y-2426D01*
X17808Y-2559D01*
X17834Y-2691D01*
X17909Y-2804D01*
X18022Y-2879D01*
X18155Y-2906D01*
X18257Y-2906D01*
X18257Y-3393D01*
X18155Y-3393D01*
X18022Y-3419D01*
X17909Y-3494D01*
X17834Y-3607D01*
X17808Y-3740D01*
X17834Y-3872D01*
X17909Y-3985D01*
X18022Y-4060D01*
X18155Y-4087D01*
X18257Y-4087D01*
X18257Y-4574D01*
X18155Y-4574D01*
X18022Y-4600D01*
X17909Y-4675D01*
X17834Y-4788D01*
X17808Y-4921D01*
X17834Y-5053D01*
X17909Y-5166D01*
X18022Y-5241D01*
X18155Y-5268D01*
X18257Y-5268D01*
X18257Y-5490D01*
M02*
