G04 (created by PCBNEW (2013-07-07 BZR 4022)-stable) date 07/06/2014 15:45:14*
%MOIN*%
G04 Gerber Fmt 3.4, Leading zero omitted, Abs format*
%FSLAX34Y34*%
G01*
G70*
G90*
G04 APERTURE LIST*
%ADD10C,0.00590551*%
%ADD11C,0.007875*%
%ADD12C,0.0079*%
%ADD13R,0.0709X0.0748*%
%ADD14R,0.0709X0.0433*%
%ADD15R,0.0748X0.0748*%
%ADD16R,0.0827X0.063*%
%ADD17R,0.0157X0.0551*%
%ADD18R,0.0472X0.0748*%
%ADD19R,0.0276X0.0394*%
%ADD20R,0.045X0.025*%
%ADD21R,0.036X0.036*%
%ADD22O,0.063X0.0472*%
%ADD23R,0.0551X0.0394*%
%ADD24O,0.0551X0.0394*%
%ADD25O,0.0472X0.0315*%
%ADD26R,0.0472X0.0315*%
%ADD27R,0.0118X0.0512*%
%ADD28R,0.0512X0.0118*%
%ADD29R,0.0394X0.0236*%
%ADD30R,0.025X0.045*%
%ADD31R,0.0748X0.0433*%
%ADD32R,0.0669X0.0669*%
%ADD33C,0.015*%
%ADD34R,0.0157X0.02*%
%ADD35R,0.0472X0.063*%
%ADD36O,0.0472X0.063*%
%ADD37C,0.025*%
%ADD38C,0.01*%
%ADD39C,0.015*%
%ADD40C,0.008*%
%ADD41C,0.006*%
%ADD42C,0.012*%
%ADD43C,0.007*%
G04 APERTURE END LIST*
G54D10*
G54D11*
X21013Y-6151D02*
X21099Y-6001D01*
X21193Y-6151D02*
X21154Y-5836D01*
X21034Y-5836D01*
X21005Y-5851D01*
X20992Y-5866D01*
X20981Y-5896D01*
X20987Y-5941D01*
X21005Y-5971D01*
X21022Y-5986D01*
X21054Y-6001D01*
X21174Y-6001D01*
X20756Y-6136D02*
X20788Y-6151D01*
X20848Y-6151D01*
X20876Y-6136D01*
X20887Y-6106D01*
X20872Y-5986D01*
X20854Y-5956D01*
X20822Y-5941D01*
X20762Y-5941D01*
X20734Y-5956D01*
X20722Y-5986D01*
X20726Y-6016D01*
X20880Y-6046D01*
X20612Y-5941D02*
X20563Y-6151D01*
X20462Y-5941D01*
X20364Y-6121D02*
X20351Y-6136D01*
X20368Y-6151D01*
X20381Y-6136D01*
X20364Y-6121D01*
X20368Y-6151D01*
X20092Y-5986D02*
X20197Y-5986D01*
X20218Y-6151D02*
X20179Y-5836D01*
X20029Y-5836D01*
G54D12*
G54D11*
X9509Y82D02*
X9509Y-127D01*
X9434Y202D02*
X9359Y-22D01*
X9554Y-22D01*
G54D12*
G54D13*
X9980Y6477D03*
G54D14*
X13110Y6320D03*
G54D15*
X11083Y6477D03*
X12027Y6477D03*
G54D16*
X12775Y5473D03*
X10335Y5473D03*
G54D17*
X11555Y5414D03*
X11811Y5414D03*
X12067Y5414D03*
X11299Y5414D03*
X11043Y5414D03*
G54D18*
X12992Y6477D03*
G54D19*
X20097Y-4044D03*
X20472Y-4044D03*
X20847Y-4044D03*
X20847Y-3044D03*
X20472Y-3044D03*
X20097Y-3044D03*
X20058Y5225D03*
X19683Y5225D03*
X19308Y5225D03*
X19308Y4225D03*
X19683Y4225D03*
X20058Y4225D03*
G54D20*
X21772Y-5418D03*
X21772Y-4818D03*
G54D21*
X20112Y2909D03*
X20112Y2209D03*
X20912Y2559D03*
X20477Y-1030D03*
X21177Y-1030D03*
X20827Y-230D03*
G54D22*
X20827Y-1732D03*
G54D23*
X10802Y4056D03*
G54D24*
X10144Y4056D03*
G54D20*
X21024Y3607D03*
X21024Y3007D03*
G54D23*
X17584Y-2559D03*
G54D24*
X18242Y-2559D03*
G54D23*
X15211Y-2165D03*
G54D24*
X14553Y-2165D03*
G54D23*
X17584Y-4921D03*
G54D24*
X18242Y-4921D03*
G54D23*
X17584Y-1378D03*
G54D24*
X18242Y-1378D03*
G54D23*
X17584Y-3740D03*
G54D24*
X18242Y-3740D03*
G54D25*
X11628Y2250D03*
X11628Y1750D03*
X11050Y2250D03*
X11050Y1750D03*
G54D26*
X11628Y-2250D03*
G54D25*
X11050Y-2250D03*
X11050Y-1750D03*
X11050Y-1250D03*
X11050Y-750D03*
X11050Y-250D03*
X11050Y250D03*
X11050Y750D03*
X11050Y1250D03*
X11628Y-1750D03*
X11628Y-1250D03*
X11628Y-750D03*
X11628Y-250D03*
X11628Y250D03*
X11628Y750D03*
X11628Y1250D03*
G54D27*
X15256Y2205D03*
X15453Y2205D03*
X15650Y2205D03*
X15846Y2205D03*
X16043Y2205D03*
X14665Y2205D03*
X14862Y2205D03*
X15059Y2205D03*
G54D28*
X17362Y1674D03*
X17362Y1477D03*
X17362Y1280D03*
X17362Y1083D03*
X17362Y886D03*
X17362Y689D03*
X17362Y493D03*
X17362Y296D03*
G54D27*
X16831Y-1023D03*
X16634Y-1023D03*
X16437Y-1023D03*
X16240Y-1023D03*
X16043Y-1023D03*
X15846Y-1023D03*
X15650Y-1023D03*
X15453Y-1023D03*
G54D28*
X14134Y-492D03*
X14134Y-295D03*
X14134Y-98D03*
X14134Y99D03*
X14134Y296D03*
X14134Y493D03*
X14134Y689D03*
X14134Y886D03*
G54D27*
X16240Y2205D03*
X16437Y2205D03*
X16634Y2205D03*
X16831Y2205D03*
G54D28*
X17362Y99D03*
X17362Y-98D03*
X17362Y-295D03*
X17362Y-492D03*
G54D27*
X15256Y-1023D03*
X15059Y-1023D03*
X14862Y-1023D03*
X14665Y-1023D03*
G54D28*
X14134Y1083D03*
X14134Y1280D03*
X14134Y1477D03*
X14134Y1674D03*
G54D29*
X17480Y-5512D03*
X18346Y-5512D03*
X17480Y-4331D03*
X18346Y-4331D03*
X17480Y-3150D03*
X18346Y-3150D03*
X17480Y-1969D03*
X18346Y-1969D03*
G54D20*
X19724Y-1166D03*
X19724Y-566D03*
G54D30*
X20221Y-78D03*
X19621Y-78D03*
X19385Y-2363D03*
X19985Y-2363D03*
X13568Y787D03*
X12968Y787D03*
G54D20*
X18897Y-4435D03*
X18897Y-3835D03*
X19488Y-3450D03*
X19488Y-2850D03*
X18898Y-2850D03*
X18898Y-3450D03*
X19488Y-3835D03*
X19488Y-4435D03*
G54D30*
X20566Y4134D03*
X21166Y4134D03*
X19670Y2953D03*
X19070Y2953D03*
X18204Y4921D03*
X18804Y4921D03*
X18401Y3543D03*
X19001Y3543D03*
X14670Y-5433D03*
X14070Y-5433D03*
X17180Y4330D03*
X17780Y4330D03*
X17180Y3739D03*
X17780Y3739D03*
X13568Y2047D03*
X12968Y2047D03*
X14079Y-1181D03*
X13479Y-1181D03*
G54D20*
X18110Y-891D03*
X18110Y-291D03*
G54D30*
X17180Y4920D03*
X17780Y4920D03*
G54D20*
X13976Y5024D03*
X13976Y4424D03*
X12480Y684D03*
X12480Y1284D03*
X19173Y-566D03*
X19173Y-1166D03*
X21193Y-4818D03*
X21193Y-5418D03*
X20039Y410D03*
X20039Y1010D03*
G54D30*
X20969Y-2363D03*
X20369Y-2363D03*
G54D20*
X19488Y-4819D03*
X19488Y-5419D03*
G54D30*
X11039Y3071D03*
X11639Y3071D03*
X19976Y-4921D03*
X20576Y-4921D03*
X18804Y4331D03*
X18204Y4331D03*
X19983Y3544D03*
X19383Y3544D03*
X20566Y5315D03*
X21166Y5315D03*
X21166Y4725D03*
X20566Y4725D03*
G54D31*
X14763Y3957D03*
X16181Y3957D03*
X14763Y4941D03*
X16181Y4941D03*
G54D32*
X19291Y787D03*
G54D33*
X19291Y787D03*
X19094Y590D03*
X19488Y590D03*
X19094Y984D03*
X19488Y984D03*
G54D34*
X12579Y3051D03*
X12067Y3051D03*
X12323Y3799D03*
X12323Y3051D03*
X12067Y3799D03*
X12579Y3799D03*
G54D10*
G36*
X22058Y-5671D02*
X22280Y-5893D01*
X22058Y-6115D01*
X21836Y-5893D01*
X22058Y-5671D01*
X22058Y-5671D01*
G37*
G36*
X21641Y-6088D02*
X21863Y-6310D01*
X21641Y-6532D01*
X21419Y-6310D01*
X21641Y-6088D01*
X21641Y-6088D01*
G37*
G54D35*
X20748Y690D03*
G54D36*
X20748Y1438D03*
G54D37*
X15738Y-292D03*
X15424Y-394D03*
X16560Y1429D03*
X15957Y788D03*
X16049Y254D03*
X16290Y1179D03*
X13232Y4291D03*
X14661Y929D03*
X16406Y5379D03*
X13138Y2594D03*
X18693Y5630D03*
X13807Y2646D03*
X10531Y-508D03*
X16720Y457D03*
X16409Y567D03*
X16161Y-47D03*
X15520Y-24D03*
X16768Y141D03*
X14690Y2671D03*
X19717Y1547D03*
X17177Y2084D03*
X18842Y1708D03*
X18577Y2131D03*
X14858Y1177D03*
X12606Y1803D03*
X15177Y1185D03*
X12043Y2031D03*
X13937Y3335D03*
X11169Y3661D03*
X16811Y2913D03*
X14461Y2894D03*
X18031Y2122D03*
X10748Y3071D03*
X18709Y213D03*
X15990Y1525D03*
X12165Y945D03*
X13450Y-215D03*
X16142Y-3031D03*
X16142Y-3465D03*
X16102Y-3858D03*
X15905Y-4370D03*
X16016Y-2323D03*
X16165Y-4173D03*
X15835Y-2622D03*
X20905Y5551D03*
X19122Y4622D03*
X14764Y3386D03*
X18193Y5402D03*
X13543Y2874D03*
X21142Y5787D03*
X18169Y3142D03*
X16000Y2650D03*
X14646Y5394D03*
X14988Y3020D03*
X21457Y5709D03*
X16760Y5327D03*
X10236Y-2953D03*
X12598Y-4921D03*
X18976Y-1614D03*
X10630Y-2953D03*
X12165Y-3307D03*
X19201Y-5713D03*
X16024Y-5433D03*
X12335Y-1646D03*
X18925Y-5539D03*
X10236Y-2362D03*
X14921Y-4134D03*
X11732Y-3425D03*
X11220Y-3346D03*
X14764Y-3583D03*
X15551Y-4724D03*
X14055Y-3228D03*
X13665Y1217D03*
X11024Y-2953D03*
X13386Y-4921D03*
X12677Y-2480D03*
X12441Y-2244D03*
X12992Y-2205D03*
X10236Y-1772D03*
X18898Y-4193D03*
X12165Y-2953D03*
X11811Y-2953D03*
X14819Y-1524D03*
X10236Y-1181D03*
X19291Y-1732D03*
X12205Y-4921D03*
X13661Y-2953D03*
X12992Y-4921D03*
X13386Y-2559D03*
X10630Y-3346D03*
X14016Y-2559D03*
X12795Y-5512D03*
X13661Y-2205D03*
X14409Y-4134D03*
X14134Y-5000D03*
X11417Y-2953D03*
X12165Y-2480D03*
X20276Y-4449D03*
X20354Y1496D03*
X20839Y-4512D03*
X19689Y2224D03*
X21220Y-3071D03*
X21339Y-3425D03*
X21260Y-2756D03*
X20039Y-945D03*
X17835Y3110D03*
X18740Y2614D03*
X18425Y2724D03*
X17520Y2870D03*
X19252Y-236D03*
X21362Y3474D03*
X13602Y1630D03*
X21575Y303D03*
X17126Y-748D03*
X14405Y-5433D03*
X20894Y-5118D03*
X10512Y945D03*
X16409Y-5063D03*
X21823Y5643D03*
X18961Y-4752D03*
X14441Y-890D03*
X12646Y-898D03*
X9433Y5307D03*
X12953Y2874D03*
X14291Y5394D03*
X17650Y5358D03*
X16830Y3878D03*
X20079Y5551D03*
X19724Y5630D03*
X16496Y3071D03*
X20315Y3661D03*
X13740Y3740D03*
X18335Y1220D03*
X19098Y2563D03*
X21299Y-4291D03*
X21575Y-79D03*
X21299Y-3898D03*
X20772Y-2697D03*
X18279Y583D03*
X18303Y906D03*
G54D38*
X20039Y340D02*
X19621Y-78D01*
G54D39*
X17480Y-2742D02*
X17663Y-2559D01*
X17480Y-1969D02*
X17480Y-1561D01*
X17480Y-4331D02*
X17480Y-3923D01*
X17480Y-5512D02*
X17480Y-5104D01*
X20039Y410D02*
X20448Y410D01*
X20448Y410D02*
X20748Y769D01*
X17480Y-5104D02*
X17663Y-4921D01*
X17480Y-3923D02*
X17663Y-3740D01*
X17480Y-1561D02*
X17663Y-1378D01*
G54D38*
X20039Y410D02*
X20039Y340D01*
G54D39*
X17480Y-3150D02*
X17480Y-2742D01*
G54D40*
X14134Y886D02*
X13667Y886D01*
X13667Y886D02*
X13568Y787D01*
X17092Y99D02*
X17362Y99D01*
X15738Y-292D02*
X16701Y-292D01*
X16701Y-292D02*
X17092Y99D01*
X15424Y-394D02*
X15550Y-520D01*
X17098Y-98D02*
X17362Y-98D01*
X16676Y-520D02*
X17098Y-98D01*
X15550Y-520D02*
X16676Y-520D01*
X16608Y1477D02*
X16560Y1429D01*
X17362Y1477D02*
X16608Y1477D01*
X16500Y1057D02*
X16393Y950D01*
X16393Y950D02*
X16119Y950D01*
X16119Y950D02*
X15957Y788D01*
X17336Y1057D02*
X16500Y1057D01*
X17362Y1083D02*
X17336Y1057D01*
X16532Y886D02*
X16453Y807D01*
X17362Y886D02*
X16532Y886D01*
X16453Y807D02*
X16325Y807D01*
X16325Y807D02*
X16049Y531D01*
X16049Y531D02*
X16049Y254D01*
X16311Y1200D02*
X16290Y1179D01*
X17003Y1280D02*
X16923Y1200D01*
X16923Y1200D02*
X16311Y1200D01*
X17362Y1280D02*
X17003Y1280D01*
X13382Y2500D02*
X13382Y2701D01*
X13378Y449D02*
X13342Y485D01*
X13803Y449D02*
X13378Y449D01*
X13232Y2851D02*
X13232Y4291D01*
X13342Y485D02*
X13342Y2460D01*
X13847Y493D02*
X13803Y449D01*
X13342Y2460D02*
X13382Y2500D01*
X13382Y2701D02*
X13232Y2851D01*
X14134Y493D02*
X13847Y493D01*
X14134Y689D02*
X14421Y689D01*
X14661Y929D02*
X14421Y689D01*
X13976Y4134D02*
X13701Y4134D01*
X14252Y3858D02*
X13976Y4134D01*
X13977Y5433D02*
X13885Y5433D01*
X15054Y5379D02*
X14803Y5630D01*
X15059Y2625D02*
X14568Y3116D01*
X13701Y4134D02*
X13646Y4189D01*
X14174Y5630D02*
X13977Y5433D01*
X16406Y5379D02*
X15054Y5379D01*
X14252Y3582D02*
X14252Y3858D01*
X14568Y3116D02*
X14568Y3266D01*
X13646Y4189D02*
X13646Y5194D01*
X13885Y5433D02*
X13646Y5194D01*
X14568Y3266D02*
X14252Y3582D01*
X14803Y5630D02*
X14174Y5630D01*
X15059Y2205D02*
X15059Y2625D01*
X14974Y5659D02*
X14861Y5772D01*
X13807Y3032D02*
X13807Y2646D01*
X18664Y5659D02*
X14974Y5659D01*
X13200Y427D02*
X13200Y2532D01*
X13504Y5252D02*
X13504Y3335D01*
X14134Y296D02*
X13700Y296D01*
X13200Y2532D02*
X13138Y2594D01*
X13504Y3335D02*
X13807Y3032D01*
X13920Y5575D02*
X13827Y5575D01*
X13700Y296D02*
X13689Y307D01*
X14117Y5772D02*
X13920Y5575D01*
X14861Y5772D02*
X14117Y5772D01*
X13320Y307D02*
X13200Y427D01*
X18693Y5630D02*
X18664Y5659D01*
X13689Y307D02*
X13320Y307D01*
X13827Y5575D02*
X13504Y5252D01*
X13660Y99D02*
X13596Y163D01*
G54D41*
X11901Y-500D02*
X10713Y-500D01*
G54D40*
X10713Y-500D02*
X10539Y-500D01*
G54D41*
X12565Y163D02*
X12564Y163D01*
G54D40*
X13596Y163D02*
X12565Y163D01*
X12564Y163D02*
X11901Y-500D01*
X14134Y99D02*
X13660Y99D01*
X10539Y-500D02*
X10531Y-508D01*
X17362Y493D02*
X16756Y493D01*
X16756Y493D02*
X16720Y457D01*
X16531Y689D02*
X16409Y567D01*
X17362Y689D02*
X16531Y689D01*
X15322Y1563D02*
X15662Y1223D01*
X15662Y220D02*
X15929Y-47D01*
X15929Y-47D02*
X16161Y-47D01*
X15662Y1223D02*
X15662Y220D01*
X14134Y1280D02*
X14435Y1280D01*
X14435Y1280D02*
X14718Y1563D01*
X14718Y1563D02*
X15322Y1563D01*
X14473Y1083D02*
X14638Y1248D01*
X15520Y1165D02*
X15520Y-24D01*
X14638Y1248D02*
X14638Y1284D01*
X14638Y1284D02*
X14775Y1421D01*
X15264Y1421D02*
X15520Y1165D01*
X14134Y1083D02*
X14473Y1083D01*
X14775Y1421D02*
X15264Y1421D01*
X17003Y296D02*
X17362Y296D01*
X16848Y141D02*
X16768Y141D01*
X17003Y296D02*
X16848Y141D01*
X11555Y4469D02*
X11555Y4460D01*
X11555Y4460D02*
X11902Y4114D01*
X11555Y5414D02*
X11555Y4469D01*
X11555Y4460D02*
X11902Y4114D01*
X12449Y4114D02*
X11902Y4114D01*
X12579Y3799D02*
X12579Y3984D01*
X12579Y3984D02*
X12449Y4114D01*
X11299Y5414D02*
X11299Y4233D01*
X11733Y3799D02*
X12067Y3799D01*
X11299Y4233D02*
X11733Y3799D01*
X14862Y2564D02*
X14797Y2564D01*
X14797Y2564D02*
X14690Y2671D01*
X14862Y2205D02*
X14862Y2564D01*
X19717Y1547D02*
X19648Y1478D01*
X16947Y2321D02*
X17271Y2321D01*
X17271Y2321D02*
X18114Y1478D01*
X18114Y1478D02*
X19648Y1478D01*
X16947Y2321D02*
X16831Y2205D01*
X20389Y1912D02*
X20531Y2054D01*
X20531Y3208D02*
X20630Y3307D01*
X20531Y2054D02*
X20531Y3208D01*
X15256Y1851D02*
X15816Y1291D01*
X15816Y1291D02*
X16080Y1291D01*
X20827Y-1260D02*
X20748Y-1339D01*
X15256Y2205D02*
X15256Y1851D01*
X20827Y-825D02*
X21272Y-380D01*
X16630Y1841D02*
X16080Y1291D01*
X17177Y2084D02*
X16934Y1841D01*
X16934Y1841D02*
X16630Y1841D01*
X20389Y1912D02*
X20035Y1912D01*
X21256Y3248D02*
X21197Y3307D01*
X19685Y-2653D02*
X19488Y-2850D01*
X20035Y1912D02*
X19944Y1821D01*
X20827Y-1260D02*
X20827Y-825D01*
X21354Y2799D02*
X21272Y2717D01*
X21197Y3307D02*
X20630Y3307D01*
X18955Y1821D02*
X18842Y1708D01*
X20748Y-1339D02*
X20236Y-1339D01*
X19685Y-1890D02*
X19685Y-2653D01*
X21354Y3209D02*
X21354Y2799D01*
X21315Y3248D02*
X21354Y3209D01*
X21256Y3248D02*
X21315Y3248D01*
X20236Y-1339D02*
X19685Y-1890D01*
X21272Y-380D02*
X21272Y2717D01*
X19944Y1821D02*
X18955Y1821D01*
X19488Y-2850D02*
X18898Y-2850D01*
X18326Y1880D02*
X17936Y1880D01*
X17936Y1880D02*
X17201Y2615D01*
X16748Y2615D02*
X16634Y2501D01*
X18577Y2131D02*
X18326Y1880D01*
X17201Y2615D02*
X16748Y2615D01*
X16634Y2501D02*
X16634Y2205D01*
X15051Y984D02*
X15051Y-549D01*
X14858Y1177D02*
X15051Y984D01*
X12606Y2709D02*
X12579Y2736D01*
X15256Y-754D02*
X15256Y-1023D01*
X12606Y1803D02*
X12606Y2709D01*
X15051Y-549D02*
X15256Y-754D01*
X12579Y3051D02*
X12579Y2736D01*
X12043Y2031D02*
X12043Y2791D01*
X12067Y2815D02*
X12067Y3051D01*
X12043Y2791D02*
X12067Y2815D01*
X15453Y-664D02*
X15366Y-664D01*
X15193Y-491D02*
X15193Y1169D01*
X15366Y-664D02*
X15193Y-491D01*
X15193Y1169D02*
X15177Y1185D01*
X15453Y-1023D02*
X15453Y-664D01*
X16437Y2205D02*
X16437Y2539D01*
X12236Y3543D02*
X11287Y3543D01*
X13937Y3335D02*
X14378Y2894D01*
X14378Y2894D02*
X14461Y2894D01*
X16437Y2539D02*
X16811Y2913D01*
X12323Y3630D02*
X12236Y3543D01*
X12323Y3630D02*
X12323Y3799D01*
X11287Y3543D02*
X11169Y3661D01*
X18228Y-39D02*
X17953Y236D01*
X20477Y-1030D02*
X20477Y-792D01*
X17953Y1417D02*
X17953Y236D01*
X19173Y-566D02*
X18883Y-276D01*
X19724Y-566D02*
X19173Y-566D01*
X17696Y1674D02*
X17953Y1417D01*
X18604Y-276D02*
X18367Y-39D01*
X18367Y-39D02*
X18228Y-39D01*
X20251Y-566D02*
X19724Y-566D01*
X17696Y1674D02*
X17362Y1674D01*
X20477Y-792D02*
X20251Y-566D01*
X18883Y-276D02*
X18604Y-276D01*
G54D38*
X11043Y5414D02*
X11043Y4376D01*
X11043Y4376D02*
X10723Y4056D01*
G54D42*
X11039Y3071D02*
X10748Y3071D01*
G54D40*
X18279Y2370D02*
X18031Y2122D01*
G54D39*
X10722Y3668D02*
X10723Y4056D01*
X11039Y3071D02*
X11039Y3351D01*
X11039Y3351D02*
X10722Y3668D01*
G54D40*
X19339Y1985D02*
X18954Y2370D01*
X19888Y1985D02*
X19339Y1985D01*
X20112Y2209D02*
X19888Y1985D01*
X18954Y2370D02*
X18279Y2370D01*
X12165Y945D02*
X12426Y684D01*
X15846Y1684D02*
X15990Y1540D01*
X12426Y684D02*
X12480Y684D01*
G54D41*
X11968Y0D02*
X11339Y0D01*
X11339Y0D02*
X11089Y-250D01*
G54D40*
X15846Y2205D02*
X15846Y1684D01*
X12480Y684D02*
X12480Y511D01*
X15990Y1540D02*
X15990Y1525D01*
X12480Y511D02*
X11969Y0D01*
X11969Y0D02*
X11968Y0D01*
X12362Y-827D02*
X12697Y-492D01*
X12697Y-492D02*
X14134Y-492D01*
X11089Y-1750D02*
X11339Y-1500D01*
X11925Y-1500D02*
X12362Y-1063D01*
X12362Y-1063D02*
X12362Y-827D01*
G54D41*
X11339Y-1500D02*
X11925Y-1500D01*
G54D40*
X13530Y-295D02*
X13450Y-215D01*
X14134Y-295D02*
X13530Y-295D01*
X11089Y-1250D02*
X11339Y-1000D01*
X11934Y-1000D02*
X12955Y21D01*
G54D41*
X11339Y-1000D02*
X11934Y-1000D01*
G54D40*
X12955Y21D02*
X13538Y21D01*
X13538Y21D02*
X13657Y-98D01*
X13657Y-98D02*
X14134Y-98D01*
X12409Y-2000D02*
X12559Y-1850D01*
X15059Y-1721D02*
X15059Y-1023D01*
X12012Y-2000D02*
X12409Y-2000D01*
X14930Y-1850D02*
X15059Y-1721D01*
G54D41*
X11303Y-2000D02*
X12012Y-2000D01*
G54D40*
X12559Y-1850D02*
X14930Y-1850D01*
X11089Y-2250D02*
X11303Y-2000D01*
X16437Y-2736D02*
X16437Y-1023D01*
X16142Y-3031D02*
X16437Y-2736D01*
X15868Y-2911D02*
X16286Y-2493D01*
X16286Y-2493D02*
X16286Y-1443D01*
X16240Y-1397D02*
X16240Y-1023D01*
X16142Y-3465D02*
X15868Y-3191D01*
X16286Y-1443D02*
X16240Y-1397D01*
X15868Y-3191D02*
X15868Y-2911D01*
X16102Y-3858D02*
X16634Y-3326D01*
X16634Y-3326D02*
X16634Y-1023D01*
X15608Y-1435D02*
X15608Y-4073D01*
X15650Y-1393D02*
X15608Y-1435D01*
X15650Y-1023D02*
X15650Y-1393D01*
X15608Y-4073D02*
X15905Y-4370D01*
X16043Y-1023D02*
X16043Y-2296D01*
X16043Y-2296D02*
X16016Y-2323D01*
X16806Y-1407D02*
X16806Y-3532D01*
X16831Y-1023D02*
X16831Y-1382D01*
X16806Y-3532D02*
X16165Y-4173D01*
X16831Y-1382D02*
X16806Y-1407D01*
X15846Y-1489D02*
X15846Y-1023D01*
X15772Y-2559D02*
X15772Y-1563D01*
X15772Y-1563D02*
X15846Y-1489D01*
X15835Y-2622D02*
X15772Y-2559D01*
G54D38*
X16043Y2205D02*
X16043Y2607D01*
X18203Y4920D02*
X18204Y4921D01*
X18204Y5391D02*
X18204Y4921D01*
X14763Y4214D02*
X14553Y4424D01*
X20905Y5551D02*
X21166Y5330D01*
X14763Y3387D02*
X14764Y3386D01*
X21166Y5763D02*
X21142Y5787D01*
X17780Y4330D02*
X17780Y3739D01*
X21166Y5315D02*
X21166Y5763D01*
X18401Y3374D02*
X18401Y3543D01*
X17780Y4920D02*
X17780Y4330D01*
X14763Y3957D02*
X14763Y3387D01*
X14763Y3957D02*
X14763Y4214D01*
X16043Y2607D02*
X16000Y2650D01*
X17780Y4920D02*
X18203Y4920D01*
X14553Y4424D02*
X13976Y4424D01*
X18204Y4921D02*
X18204Y4331D01*
X18169Y3142D02*
X18401Y3374D01*
X16374Y4941D02*
X16760Y5327D01*
X21166Y5330D02*
X21166Y5315D01*
X18193Y5402D02*
X18204Y5391D01*
X16181Y4941D02*
X16374Y4941D01*
G54D39*
X12067Y5414D02*
X12067Y4464D01*
X12067Y4464D02*
X12201Y4331D01*
X12547Y4331D02*
X12201Y4331D01*
X12835Y3583D02*
X12598Y3346D01*
X12323Y3208D02*
X12323Y3209D01*
X12835Y3583D02*
X12835Y4043D01*
X12460Y3346D02*
X12323Y3209D01*
X12598Y3346D02*
X12460Y3346D01*
X12835Y4043D02*
X12547Y4331D01*
G54D38*
X17362Y-295D02*
X18106Y-295D01*
G54D39*
X12323Y3051D02*
X12323Y1890D01*
G54D38*
X14862Y-1481D02*
X14819Y-1524D01*
X12480Y1284D02*
X12869Y1284D01*
X12183Y1750D02*
X11589Y1750D01*
G54D40*
X13665Y1366D02*
X13665Y1217D01*
G54D38*
X10236Y-1772D02*
X10236Y-1181D01*
X21062Y-5419D02*
X21193Y-5418D01*
X18897Y-4435D02*
X18897Y-4194D01*
X19910Y-5591D02*
X19738Y-5419D01*
X12953Y-2244D02*
X12441Y-2244D01*
X18106Y-295D02*
X18110Y-291D01*
X12800Y-1181D02*
X12335Y-1646D01*
X19094Y-1732D02*
X18976Y-1614D01*
G54D39*
X19488Y-5426D02*
X19201Y-5713D01*
G54D38*
X19385Y-2363D02*
X19385Y-1826D01*
X12165Y3366D02*
X11934Y3366D01*
X13662Y-2205D02*
X13661Y-2205D01*
X11220Y-3346D02*
X10630Y-3346D01*
X19385Y-1826D02*
X19291Y-1732D01*
X13661Y-2953D02*
X13936Y-3228D01*
G54D40*
X14134Y1477D02*
X13776Y1477D01*
G54D38*
X12323Y3051D02*
X12323Y3208D01*
G54D40*
X13776Y1477D02*
X13665Y1366D01*
G54D38*
X12323Y3208D02*
X12165Y3366D01*
X14862Y-1023D02*
X14862Y-1481D01*
X21193Y-5418D02*
X20948Y-5418D01*
X18693Y-5307D02*
X18925Y-5539D01*
X12968Y1185D02*
X12968Y787D01*
X18976Y-1555D02*
X18496Y-1075D01*
X18496Y-382D02*
X18405Y-291D01*
X12869Y1284D02*
X12968Y1185D01*
X20948Y-5418D02*
X20775Y-5591D01*
X14016Y-2559D02*
X13662Y-2205D01*
X18880Y-4435D02*
X18693Y-4622D01*
X18976Y-1614D02*
X18976Y-1555D01*
X21641Y-5866D02*
X21193Y-5418D01*
X14070Y-5064D02*
X14070Y-5433D01*
X11417Y-2953D02*
X11811Y-2953D01*
X20775Y-5591D02*
X19910Y-5591D01*
G54D39*
X19488Y-5419D02*
X19488Y-5426D01*
G54D38*
X12165Y-2953D02*
X12165Y-2480D01*
X21062Y-5419D02*
X21193Y-5418D01*
X10630Y-2953D02*
X11024Y-2953D01*
X12795Y-5512D02*
X12205Y-4921D01*
X18405Y-291D02*
X18110Y-291D01*
X11850Y-3307D02*
X12165Y-3307D01*
X21544Y-6408D02*
X21641Y-6311D01*
X13936Y-3228D02*
X14055Y-3228D01*
X12968Y2047D02*
X12968Y1185D01*
X21641Y-6311D02*
X21641Y-5866D01*
X12323Y1890D02*
X12183Y1750D01*
X21544Y-6408D02*
X21641Y-6311D01*
X18897Y-4435D02*
X18880Y-4435D01*
X18897Y-4194D02*
X18898Y-4193D01*
X19291Y-1732D02*
X19094Y-1732D01*
X12598Y-4921D02*
X12992Y-4921D01*
X12677Y-2480D02*
X13386Y-2559D01*
X11732Y-3425D02*
X11850Y-3307D01*
X18693Y-4622D02*
X18693Y-5307D01*
X12992Y-4921D02*
X13386Y-4921D01*
X14134Y-5000D02*
X14070Y-5064D01*
X11934Y3366D02*
X11639Y3071D01*
X10236Y-2953D02*
X10236Y-2362D01*
X19738Y-5419D02*
X19488Y-5419D01*
X18496Y-1075D02*
X18496Y-382D01*
X12992Y-2205D02*
X12953Y-2244D01*
X13479Y-1181D02*
X12800Y-1181D01*
G54D39*
X20611Y1496D02*
X20748Y1359D01*
X20369Y-2032D02*
X20669Y-1732D01*
G54D42*
X19383Y3544D02*
X19383Y2668D01*
X19002Y3544D02*
X19001Y3543D01*
X19383Y2668D02*
X19689Y2362D01*
X19383Y3544D02*
X19002Y3544D01*
G54D40*
X19689Y2362D02*
X19689Y2224D01*
X20112Y2909D02*
X20112Y2790D01*
G54D39*
X20039Y1181D02*
X20354Y1496D01*
X20039Y1010D02*
X20039Y1181D01*
G54D42*
X20369Y-2363D02*
X19985Y-2363D01*
X20472Y-3044D02*
X20460Y-3044D01*
X19818Y-1166D02*
X20039Y-945D01*
X20460Y-3044D02*
X20433Y-3071D01*
X19724Y-1166D02*
X19818Y-1166D01*
X19683Y4225D02*
X19683Y3844D01*
X20433Y-3071D02*
X20472Y-3044D01*
G54D39*
X20354Y1496D02*
X20611Y1496D01*
G54D42*
X20369Y-2731D02*
X20472Y-2834D01*
X19724Y-1166D02*
X19173Y-1166D01*
G54D39*
X20369Y-2363D02*
X20369Y-2032D01*
G54D42*
X20472Y-2834D02*
X20472Y-3044D01*
G54D40*
X19689Y2367D02*
X19689Y2362D01*
X20112Y2790D02*
X19689Y2367D01*
G54D42*
X19683Y3844D02*
X19383Y3544D01*
X20369Y-2363D02*
X20369Y-2731D01*
G54D39*
X20669Y-1732D02*
X20827Y-1732D01*
X18346Y-4331D02*
X18346Y-3923D01*
X18346Y-3923D02*
X18163Y-3740D01*
G54D38*
X14680Y5024D02*
X14763Y4941D01*
X15250Y4941D02*
X14763Y4941D01*
X15453Y2205D02*
X15453Y4738D01*
X13976Y5024D02*
X14680Y5024D01*
X15453Y4738D02*
X15250Y4941D01*
X15650Y3913D02*
X15650Y2205D01*
X16181Y3957D02*
X15694Y3957D01*
X17007Y4920D02*
X17180Y4920D01*
X16181Y3957D02*
X16181Y4094D01*
X15694Y3957D02*
X15650Y3913D01*
X16181Y4094D02*
X17007Y4920D01*
G54D39*
X18346Y-1969D02*
X18346Y-1561D01*
X18346Y-1561D02*
X18163Y-1378D01*
X18346Y-3150D02*
X18346Y-2742D01*
X18346Y-2742D02*
X18163Y-2559D01*
X18346Y-5512D02*
X18346Y-5104D01*
X18346Y-5104D02*
X18163Y-4921D01*
G54D40*
X18717Y2637D02*
X18717Y2846D01*
X18717Y2846D02*
X18594Y2969D01*
X18244Y2882D02*
X18063Y2882D01*
X18740Y2614D02*
X18717Y2637D01*
X18594Y2969D02*
X18331Y2969D01*
X18063Y2882D02*
X17835Y3110D01*
X18331Y2969D02*
X18244Y2882D01*
X18425Y2724D02*
X18390Y2689D01*
X17701Y2689D02*
X17520Y2870D01*
X18390Y2689D02*
X17701Y2689D01*
X21811Y-5645D02*
X22059Y-5893D01*
X21772Y-5418D02*
X21811Y-5645D01*
X18661Y1181D02*
X18661Y551D01*
X18465Y63D02*
X18662Y-134D01*
X20039Y1539D02*
X20043Y1539D01*
X18662Y-134D02*
X19150Y-134D01*
X18661Y551D02*
X18465Y355D01*
X20912Y2961D02*
X21024Y3007D01*
X19764Y1264D02*
X18744Y1264D01*
X19150Y-134D02*
X19252Y-236D01*
X18744Y1264D02*
X18661Y1181D01*
X20866Y3007D02*
X20912Y2961D01*
X20043Y1539D02*
X20236Y1732D01*
X20912Y2559D02*
X20912Y2176D01*
X18465Y355D02*
X18465Y63D01*
X20912Y2559D02*
X20912Y2935D01*
X19764Y1264D02*
X20039Y1539D01*
X20468Y1732D02*
X20912Y2176D01*
X20912Y2935D02*
X21024Y3007D01*
X21024Y3007D02*
X20866Y3007D01*
X20236Y1732D02*
X20468Y1732D01*
X20576Y-4584D02*
X20576Y-4921D01*
X20409Y-3717D02*
X19848Y-3717D01*
X19848Y-3717D02*
X19826Y-3739D01*
X20472Y-3780D02*
X20409Y-3717D01*
X19826Y-3739D02*
X19824Y-3739D01*
X20512Y-4359D02*
X20512Y-4520D01*
X19488Y-3450D02*
X19488Y-3835D01*
X20512Y-4520D02*
X20576Y-4584D01*
X20472Y-4319D02*
X20512Y-4359D01*
X18897Y-3835D02*
X19488Y-3835D01*
X20472Y-4044D02*
X20472Y-3780D01*
X19824Y-3739D02*
X19728Y-3835D01*
X19728Y-3835D02*
X19488Y-3835D01*
X20472Y-4044D02*
X20472Y-4319D01*
X19094Y5315D02*
X18622Y5315D01*
X18622Y5315D02*
X18504Y5197D01*
X19308Y5225D02*
X19184Y5225D01*
X18504Y4631D02*
X18804Y4331D01*
X18504Y5197D02*
X18504Y4631D01*
X19184Y5225D02*
X19094Y5315D01*
X19683Y4947D02*
X19683Y4845D01*
X19764Y4764D02*
X20527Y4764D01*
X19614Y4878D02*
X18847Y4878D01*
X19683Y4845D02*
X19764Y4764D01*
X19683Y5225D02*
X19683Y4947D01*
X18847Y4878D02*
X18804Y4921D01*
X20566Y4725D02*
X20566Y4134D01*
X20527Y4764D02*
X20566Y4725D01*
X19683Y4947D02*
X19614Y4878D01*
G54D43*
X21362Y3474D02*
X21247Y3607D01*
X21024Y3607D02*
X21247Y3607D01*
G54D40*
X20847Y-4044D02*
X20847Y-4186D01*
X21193Y-4532D02*
X21193Y-4818D01*
X20847Y-4186D02*
X21193Y-4532D01*
G54D38*
X20221Y-78D02*
X20434Y-78D01*
X20586Y-230D02*
X20827Y-230D01*
X20434Y-78D02*
X20586Y-230D01*
X19670Y3371D02*
X19670Y2953D01*
G54D40*
X20058Y4225D02*
X20058Y3956D01*
X19448Y4606D02*
X19921Y4606D01*
G54D38*
X19983Y3544D02*
X19843Y3544D01*
G54D40*
X20058Y3956D02*
X19983Y3881D01*
X20058Y4469D02*
X20058Y4225D01*
X19921Y4606D02*
X20058Y4469D01*
G54D38*
X19843Y3544D02*
X19670Y3371D01*
G54D40*
X19983Y3881D02*
X19983Y3544D01*
X19308Y4225D02*
X19308Y4466D01*
X19308Y4466D02*
X19448Y4606D01*
G54D38*
X14317Y-1181D02*
X14317Y-1147D01*
X14134Y1674D02*
X14503Y1674D01*
X14665Y1836D02*
X14503Y1674D01*
G54D39*
X19488Y-4819D02*
X19874Y-4819D01*
G54D38*
X21622Y3382D02*
X21622Y4685D01*
X13568Y1826D02*
X13568Y2047D01*
X10000Y3662D02*
X9732Y3930D01*
G54D39*
X19561Y-4187D02*
X19488Y-4260D01*
G54D38*
X21506Y2708D02*
X21424Y2626D01*
G54D39*
X19221Y-4819D02*
X19154Y-4752D01*
X19488Y-4260D02*
X19488Y-4435D01*
G54D38*
X18499Y-3409D02*
X17189Y-3409D01*
G54D39*
X19693Y-4187D02*
X19561Y-4187D01*
G54D38*
X20697Y-5315D02*
X20894Y-5118D01*
X14665Y2205D02*
X14665Y1836D01*
G54D39*
X19154Y-4752D02*
X18961Y-4752D01*
G54D38*
X17269Y-891D02*
X17126Y-748D01*
X21811Y-4922D02*
X21615Y-5118D01*
X19976Y-5181D02*
X20110Y-5315D01*
X17051Y-4421D02*
X16409Y-5063D01*
G54D39*
X19488Y-4819D02*
X19221Y-4819D01*
G54D38*
X17051Y-3547D02*
X17051Y-4421D01*
X21506Y3266D02*
X21506Y2708D01*
G54D40*
X13568Y1664D02*
X13602Y1630D01*
G54D38*
X21831Y4894D02*
X21831Y5610D01*
X17362Y-492D02*
X17711Y-492D01*
X19976Y-4921D02*
X19976Y-5181D01*
X18110Y-891D02*
X17269Y-891D01*
X20110Y-5315D02*
X20697Y-5315D01*
X21622Y4685D02*
X21831Y4894D01*
G54D39*
X19836Y-4044D02*
X19693Y-4187D01*
G54D38*
X13720Y1674D02*
X13568Y1826D01*
X14670Y-5433D02*
X14405Y-5433D01*
X17189Y-3409D02*
X17051Y-3547D01*
X14134Y1674D02*
X13720Y1674D01*
X14665Y-1023D02*
X14441Y-1023D01*
X18540Y-3450D02*
X18499Y-3409D01*
G54D39*
X20097Y-4044D02*
X19836Y-4044D01*
G54D38*
X21831Y5610D02*
X21823Y5643D01*
X14441Y-1023D02*
X14441Y-890D01*
X21772Y-4818D02*
X21811Y-4922D01*
X9732Y5008D02*
X9433Y5307D01*
X21424Y2626D02*
X21424Y454D01*
X14317Y-1147D02*
X14441Y-1023D01*
G54D39*
X19488Y-4435D02*
X19488Y-4819D01*
G54D38*
X19874Y-4819D02*
X19976Y-4921D01*
X21424Y454D02*
X21575Y303D01*
G54D40*
X13568Y2047D02*
X13568Y1664D01*
G54D38*
X10512Y945D02*
X10512Y2504D01*
X10512Y2504D02*
X10000Y3016D01*
X9732Y3930D02*
X9732Y5008D01*
X14079Y-1181D02*
X14317Y-1181D01*
X10000Y3016D02*
X10000Y3662D01*
X17711Y-492D02*
X18110Y-891D01*
X21615Y-5118D02*
X20894Y-5118D01*
X18540Y-3450D02*
X18898Y-3450D01*
X21622Y3382D02*
X21506Y3266D01*
X17180Y3739D02*
X17180Y4330D01*
X21166Y4725D02*
X21166Y4134D01*
X20669Y5315D02*
X20866Y5118D01*
X20058Y5225D02*
X20476Y5225D01*
X17180Y3739D02*
X17164Y3739D01*
X20058Y5530D02*
X20079Y5551D01*
X20866Y5118D02*
X20866Y5025D01*
X20058Y5225D02*
X20058Y5530D01*
X16240Y2815D02*
X16496Y3071D01*
X20079Y5246D02*
X20058Y5225D01*
X17164Y3739D02*
X16496Y3071D01*
X20079Y5551D02*
X20079Y5246D01*
X20476Y5225D02*
X20566Y5315D01*
G54D40*
X16969Y3739D02*
X16830Y3878D01*
G54D38*
X16240Y2815D02*
X16240Y2205D01*
X19803Y5551D02*
X19724Y5630D01*
G54D40*
X17180Y3739D02*
X16969Y3739D01*
G54D38*
X20866Y5025D02*
X21166Y4725D01*
X20079Y5551D02*
X19803Y5551D01*
X20566Y5315D02*
X20669Y5315D01*
G54D39*
X19070Y2953D02*
X19070Y2591D01*
X19070Y2591D02*
X19098Y2563D01*
G54D42*
X21177Y-1030D02*
X21177Y-752D01*
X21177Y-752D02*
X21575Y-354D01*
X21575Y-354D02*
X21575Y-79D01*
X20097Y-3337D02*
X20097Y-3044D01*
X20847Y-3298D02*
X20700Y-3445D01*
X20700Y-3445D02*
X20205Y-3445D01*
X20847Y-2853D02*
X20847Y-2772D01*
X20205Y-3445D02*
X20097Y-3337D01*
X20847Y-2853D02*
X20847Y-3044D01*
X20969Y-2731D02*
X20847Y-2853D01*
X20969Y-2363D02*
X20969Y-2731D01*
X20847Y-3044D02*
X20847Y-3298D01*
X20847Y-2772D02*
X20772Y-2697D01*
G54D10*
G36*
X11946Y-185D02*
X11812Y-320D01*
X11429Y-320D01*
X11443Y-250D01*
X11429Y-180D01*
X11917Y-180D01*
X11946Y-185D01*
X11946Y-185D01*
G37*
G54D38*
X11946Y-185D02*
X11812Y-320D01*
X11429Y-320D01*
X11443Y-250D01*
X11429Y-180D01*
X11917Y-180D01*
X11946Y-185D01*
G54D10*
G36*
X13025Y353D02*
X12590Y353D01*
X12614Y376D01*
X12614Y376D01*
X12614Y376D01*
X12635Y408D01*
X12734Y408D01*
X12789Y431D01*
X12832Y473D01*
X12854Y529D01*
X12855Y588D01*
X12855Y838D01*
X12832Y893D01*
X12790Y936D01*
X12734Y958D01*
X12675Y959D01*
X12440Y959D01*
X12440Y999D01*
X12398Y1100D01*
X12320Y1177D01*
X12219Y1219D01*
X12110Y1220D01*
X12009Y1178D01*
X12006Y1175D01*
X12021Y1250D01*
X11998Y1367D01*
X11931Y1467D01*
X11831Y1534D01*
X11714Y1557D01*
X11541Y1557D01*
X11424Y1534D01*
X11339Y1477D01*
X11253Y1534D01*
X11136Y1557D01*
X10963Y1557D01*
X10846Y1534D01*
X10746Y1467D01*
X10712Y1415D01*
X10712Y1919D01*
X11791Y1919D01*
X11809Y1875D01*
X11887Y1798D01*
X11988Y1756D01*
X12097Y1755D01*
X12198Y1797D01*
X12275Y1875D01*
X12294Y1919D01*
X12356Y1919D01*
X12331Y1857D01*
X12330Y1748D01*
X12372Y1647D01*
X12450Y1570D01*
X12551Y1528D01*
X12660Y1527D01*
X12761Y1569D01*
X12838Y1647D01*
X12880Y1748D01*
X12881Y1857D01*
X12855Y1919D01*
X13010Y1919D01*
X13010Y427D01*
X13024Y354D01*
X13025Y353D01*
X13025Y353D01*
G37*
G54D38*
X13025Y353D02*
X12590Y353D01*
X12614Y376D01*
X12614Y376D01*
X12614Y376D01*
X12635Y408D01*
X12734Y408D01*
X12789Y431D01*
X12832Y473D01*
X12854Y529D01*
X12855Y588D01*
X12855Y838D01*
X12832Y893D01*
X12790Y936D01*
X12734Y958D01*
X12675Y959D01*
X12440Y959D01*
X12440Y999D01*
X12398Y1100D01*
X12320Y1177D01*
X12219Y1219D01*
X12110Y1220D01*
X12009Y1178D01*
X12006Y1175D01*
X12021Y1250D01*
X11998Y1367D01*
X11931Y1467D01*
X11831Y1534D01*
X11714Y1557D01*
X11541Y1557D01*
X11424Y1534D01*
X11339Y1477D01*
X11253Y1534D01*
X11136Y1557D01*
X10963Y1557D01*
X10846Y1534D01*
X10746Y1467D01*
X10712Y1415D01*
X10712Y1919D01*
X11791Y1919D01*
X11809Y1875D01*
X11887Y1798D01*
X11988Y1756D01*
X12097Y1755D01*
X12198Y1797D01*
X12275Y1875D01*
X12294Y1919D01*
X12356Y1919D01*
X12331Y1857D01*
X12330Y1748D01*
X12372Y1647D01*
X12450Y1570D01*
X12551Y1528D01*
X12660Y1527D01*
X12761Y1569D01*
X12838Y1647D01*
X12880Y1748D01*
X12881Y1857D01*
X12855Y1919D01*
X13010Y1919D01*
X13010Y427D01*
X13024Y354D01*
X13025Y353D01*
G54D10*
G36*
X13735Y1387D02*
X13728Y1368D01*
X13727Y1309D01*
X13727Y1191D01*
X13732Y1181D01*
X13728Y1171D01*
X13728Y1159D01*
X13722Y1161D01*
X13663Y1162D01*
X13532Y1162D01*
X13532Y1361D01*
X13547Y1355D01*
X13656Y1354D01*
X13735Y1387D01*
X13735Y1387D01*
G37*
G54D38*
X13735Y1387D02*
X13728Y1368D01*
X13727Y1309D01*
X13727Y1191D01*
X13732Y1181D01*
X13728Y1171D01*
X13728Y1159D01*
X13722Y1161D01*
X13663Y1162D01*
X13532Y1162D01*
X13532Y1361D01*
X13547Y1355D01*
X13656Y1354D01*
X13735Y1387D01*
G54D10*
G36*
X14869Y-1642D02*
X14851Y-1660D01*
X12559Y-1660D01*
X12486Y-1674D01*
X12424Y-1715D01*
X12424Y-1715D01*
X12330Y-1810D01*
X12012Y-1810D01*
X12009Y-1810D01*
X12021Y-1750D01*
X12005Y-1670D01*
X12059Y-1634D01*
X12496Y-1197D01*
X12496Y-1197D01*
X12496Y-1197D01*
X12529Y-1147D01*
X12591Y-1172D01*
X12700Y-1173D01*
X12801Y-1131D01*
X12878Y-1053D01*
X12920Y-952D01*
X12921Y-843D01*
X12879Y-742D01*
X12818Y-682D01*
X13802Y-682D01*
X13848Y-700D01*
X13907Y-701D01*
X14241Y-701D01*
X14208Y-734D01*
X14178Y-805D01*
X14174Y-805D01*
X13924Y-805D01*
X13869Y-828D01*
X13826Y-870D01*
X13804Y-926D01*
X13803Y-985D01*
X13803Y-1435D01*
X13826Y-1490D01*
X13868Y-1533D01*
X13924Y-1555D01*
X13983Y-1556D01*
X14233Y-1556D01*
X14288Y-1533D01*
X14331Y-1491D01*
X14353Y-1435D01*
X14354Y-1376D01*
X14354Y-1373D01*
X14393Y-1365D01*
X14458Y-1322D01*
X14460Y-1319D01*
X14478Y-1363D01*
X14520Y-1406D01*
X14576Y-1428D01*
X14635Y-1429D01*
X14753Y-1429D01*
X14808Y-1406D01*
X14851Y-1364D01*
X14861Y-1337D01*
X14869Y-1354D01*
X14869Y-1642D01*
X14869Y-1642D01*
G37*
G54D38*
X14869Y-1642D02*
X14851Y-1660D01*
X12559Y-1660D01*
X12486Y-1674D01*
X12424Y-1715D01*
X12424Y-1715D01*
X12330Y-1810D01*
X12012Y-1810D01*
X12009Y-1810D01*
X12021Y-1750D01*
X12005Y-1670D01*
X12059Y-1634D01*
X12496Y-1197D01*
X12496Y-1197D01*
X12496Y-1197D01*
X12529Y-1147D01*
X12591Y-1172D01*
X12700Y-1173D01*
X12801Y-1131D01*
X12878Y-1053D01*
X12920Y-952D01*
X12921Y-843D01*
X12879Y-742D01*
X12818Y-682D01*
X13802Y-682D01*
X13848Y-700D01*
X13907Y-701D01*
X14241Y-701D01*
X14208Y-734D01*
X14178Y-805D01*
X14174Y-805D01*
X13924Y-805D01*
X13869Y-828D01*
X13826Y-870D01*
X13804Y-926D01*
X13803Y-985D01*
X13803Y-1435D01*
X13826Y-1490D01*
X13868Y-1533D01*
X13924Y-1555D01*
X13983Y-1556D01*
X14233Y-1556D01*
X14288Y-1533D01*
X14331Y-1491D01*
X14353Y-1435D01*
X14354Y-1376D01*
X14354Y-1373D01*
X14393Y-1365D01*
X14458Y-1322D01*
X14460Y-1319D01*
X14478Y-1363D01*
X14520Y-1406D01*
X14576Y-1428D01*
X14635Y-1429D01*
X14753Y-1429D01*
X14808Y-1406D01*
X14851Y-1364D01*
X14861Y-1337D01*
X14869Y-1354D01*
X14869Y-1642D01*
G54D10*
G36*
X17236Y-5250D02*
X17198Y-5266D01*
X17155Y-5308D01*
X17133Y-5364D01*
X17132Y-5423D01*
X17132Y-5619D01*
X14945Y-5619D01*
X14945Y-5178D01*
X14922Y-5123D01*
X14880Y-5080D01*
X14824Y-5058D01*
X14765Y-5057D01*
X14515Y-5057D01*
X14460Y-5080D01*
X14417Y-5122D01*
X14403Y-5157D01*
X14350Y-5157D01*
X14249Y-5199D01*
X14172Y-5277D01*
X14130Y-5378D01*
X14129Y-5487D01*
X14171Y-5588D01*
X14202Y-5619D01*
X13000Y-5619D01*
X12750Y-5516D01*
X10233Y-3034D01*
X10129Y-2785D01*
X10129Y1791D01*
X10256Y1919D01*
X10312Y1919D01*
X10312Y1133D01*
X10279Y1100D01*
X10237Y999D01*
X10236Y890D01*
X10278Y789D01*
X10356Y712D01*
X10457Y670D01*
X10566Y669D01*
X10664Y710D01*
X10679Y632D01*
X10746Y532D01*
X10795Y500D01*
X10746Y467D01*
X10679Y367D01*
X10656Y250D01*
X10679Y132D01*
X10746Y32D01*
X10795Y0D01*
X10746Y-32D01*
X10679Y-132D01*
X10656Y-250D01*
X10659Y-263D01*
X10585Y-233D01*
X10476Y-232D01*
X10375Y-274D01*
X10298Y-352D01*
X10256Y-453D01*
X10255Y-562D01*
X10297Y-663D01*
X10375Y-740D01*
X10476Y-782D01*
X10585Y-783D01*
X10657Y-753D01*
X10679Y-867D01*
X10746Y-967D01*
X10795Y-1000D01*
X10746Y-1032D01*
X10679Y-1132D01*
X10656Y-1250D01*
X10679Y-1367D01*
X10746Y-1467D01*
X10795Y-1500D01*
X10746Y-1532D01*
X10679Y-1632D01*
X10656Y-1750D01*
X10679Y-1867D01*
X10746Y-1967D01*
X10795Y-2000D01*
X10746Y-2032D01*
X10679Y-2132D01*
X10656Y-2250D01*
X10679Y-2367D01*
X10746Y-2467D01*
X10846Y-2534D01*
X10963Y-2557D01*
X11136Y-2557D01*
X11253Y-2534D01*
X11285Y-2512D01*
X11306Y-2534D01*
X11362Y-2557D01*
X11421Y-2557D01*
X11893Y-2557D01*
X11948Y-2534D01*
X11991Y-2492D01*
X12013Y-2437D01*
X12014Y-2377D01*
X12014Y-2190D01*
X12409Y-2190D01*
X12481Y-2175D01*
X12543Y-2134D01*
X12637Y-2040D01*
X14785Y-2040D01*
X14785Y-2391D01*
X14808Y-2446D01*
X14850Y-2489D01*
X14905Y-2511D01*
X14965Y-2512D01*
X15418Y-2512D01*
X15418Y-4073D01*
X15432Y-4145D01*
X15473Y-4207D01*
X15630Y-4363D01*
X15629Y-4424D01*
X15671Y-4525D01*
X15749Y-4602D01*
X15850Y-4644D01*
X15959Y-4645D01*
X16060Y-4603D01*
X16137Y-4525D01*
X16170Y-4448D01*
X16219Y-4448D01*
X16320Y-4406D01*
X16397Y-4328D01*
X16439Y-4227D01*
X16440Y-4166D01*
X16851Y-3755D01*
X16851Y-4338D01*
X16401Y-4787D01*
X16354Y-4787D01*
X16253Y-4829D01*
X16176Y-4907D01*
X16134Y-5008D01*
X16133Y-5117D01*
X16175Y-5218D01*
X16253Y-5295D01*
X16354Y-5337D01*
X16463Y-5338D01*
X16564Y-5296D01*
X16641Y-5218D01*
X16683Y-5117D01*
X16683Y-5070D01*
X17188Y-4566D01*
X17197Y-4576D01*
X17235Y-4591D01*
X17223Y-4596D01*
X17181Y-4638D01*
X17158Y-4694D01*
X17158Y-4753D01*
X17158Y-5147D01*
X17181Y-5202D01*
X17223Y-5245D01*
X17236Y-5250D01*
X17236Y-5250D01*
G37*
G54D38*
X17236Y-5250D02*
X17198Y-5266D01*
X17155Y-5308D01*
X17133Y-5364D01*
X17132Y-5423D01*
X17132Y-5619D01*
X14945Y-5619D01*
X14945Y-5178D01*
X14922Y-5123D01*
X14880Y-5080D01*
X14824Y-5058D01*
X14765Y-5057D01*
X14515Y-5057D01*
X14460Y-5080D01*
X14417Y-5122D01*
X14403Y-5157D01*
X14350Y-5157D01*
X14249Y-5199D01*
X14172Y-5277D01*
X14130Y-5378D01*
X14129Y-5487D01*
X14171Y-5588D01*
X14202Y-5619D01*
X13000Y-5619D01*
X12750Y-5516D01*
X10233Y-3034D01*
X10129Y-2785D01*
X10129Y1791D01*
X10256Y1919D01*
X10312Y1919D01*
X10312Y1133D01*
X10279Y1100D01*
X10237Y999D01*
X10236Y890D01*
X10278Y789D01*
X10356Y712D01*
X10457Y670D01*
X10566Y669D01*
X10664Y710D01*
X10679Y632D01*
X10746Y532D01*
X10795Y500D01*
X10746Y467D01*
X10679Y367D01*
X10656Y250D01*
X10679Y132D01*
X10746Y32D01*
X10795Y0D01*
X10746Y-32D01*
X10679Y-132D01*
X10656Y-250D01*
X10659Y-263D01*
X10585Y-233D01*
X10476Y-232D01*
X10375Y-274D01*
X10298Y-352D01*
X10256Y-453D01*
X10255Y-562D01*
X10297Y-663D01*
X10375Y-740D01*
X10476Y-782D01*
X10585Y-783D01*
X10657Y-753D01*
X10679Y-867D01*
X10746Y-967D01*
X10795Y-1000D01*
X10746Y-1032D01*
X10679Y-1132D01*
X10656Y-1250D01*
X10679Y-1367D01*
X10746Y-1467D01*
X10795Y-1500D01*
X10746Y-1532D01*
X10679Y-1632D01*
X10656Y-1750D01*
X10679Y-1867D01*
X10746Y-1967D01*
X10795Y-2000D01*
X10746Y-2032D01*
X10679Y-2132D01*
X10656Y-2250D01*
X10679Y-2367D01*
X10746Y-2467D01*
X10846Y-2534D01*
X10963Y-2557D01*
X11136Y-2557D01*
X11253Y-2534D01*
X11285Y-2512D01*
X11306Y-2534D01*
X11362Y-2557D01*
X11421Y-2557D01*
X11893Y-2557D01*
X11948Y-2534D01*
X11991Y-2492D01*
X12013Y-2437D01*
X12014Y-2377D01*
X12014Y-2190D01*
X12409Y-2190D01*
X12481Y-2175D01*
X12543Y-2134D01*
X12637Y-2040D01*
X14785Y-2040D01*
X14785Y-2391D01*
X14808Y-2446D01*
X14850Y-2489D01*
X14905Y-2511D01*
X14965Y-2512D01*
X15418Y-2512D01*
X15418Y-4073D01*
X15432Y-4145D01*
X15473Y-4207D01*
X15630Y-4363D01*
X15629Y-4424D01*
X15671Y-4525D01*
X15749Y-4602D01*
X15850Y-4644D01*
X15959Y-4645D01*
X16060Y-4603D01*
X16137Y-4525D01*
X16170Y-4448D01*
X16219Y-4448D01*
X16320Y-4406D01*
X16397Y-4328D01*
X16439Y-4227D01*
X16440Y-4166D01*
X16851Y-3755D01*
X16851Y-4338D01*
X16401Y-4787D01*
X16354Y-4787D01*
X16253Y-4829D01*
X16176Y-4907D01*
X16134Y-5008D01*
X16133Y-5117D01*
X16175Y-5218D01*
X16253Y-5295D01*
X16354Y-5337D01*
X16463Y-5338D01*
X16564Y-5296D01*
X16641Y-5218D01*
X16683Y-5117D01*
X16683Y-5070D01*
X17188Y-4566D01*
X17197Y-4576D01*
X17235Y-4591D01*
X17223Y-4596D01*
X17181Y-4638D01*
X17158Y-4694D01*
X17158Y-4753D01*
X17158Y-5147D01*
X17181Y-5202D01*
X17223Y-5245D01*
X17236Y-5250D01*
G54D10*
G36*
X19865Y-1441D02*
X19550Y-1755D01*
X19509Y-1817D01*
X19495Y-1890D01*
X19495Y-2574D01*
X19494Y-2574D01*
X19233Y-2574D01*
X19192Y-2591D01*
X19152Y-2575D01*
X19093Y-2574D01*
X18672Y-2574D01*
X18675Y-2559D01*
X18649Y-2426D01*
X18574Y-2313D01*
X18461Y-2238D01*
X18454Y-2237D01*
X18572Y-2237D01*
X18627Y-2214D01*
X18670Y-2172D01*
X18692Y-2116D01*
X18693Y-2057D01*
X18693Y-1821D01*
X18670Y-1766D01*
X18628Y-1723D01*
X18572Y-1701D01*
X18571Y-1701D01*
X18571Y-1625D01*
X18574Y-1623D01*
X18649Y-1510D01*
X18675Y-1378D01*
X18649Y-1245D01*
X18574Y-1132D01*
X18476Y-1067D01*
X18484Y-1045D01*
X18485Y-986D01*
X18485Y-736D01*
X18462Y-681D01*
X18420Y-638D01*
X18364Y-616D01*
X18305Y-615D01*
X18117Y-615D01*
X17852Y-350D01*
X17787Y-307D01*
X17711Y-292D01*
X17684Y-292D01*
X17702Y-284D01*
X17745Y-242D01*
X17767Y-186D01*
X17768Y-127D01*
X17768Y-9D01*
X17763Y0D01*
X17767Y10D01*
X17768Y69D01*
X17768Y187D01*
X17763Y197D01*
X17767Y207D01*
X17767Y210D01*
X17777Y163D01*
X17818Y101D01*
X18093Y-173D01*
X18155Y-214D01*
X18228Y-229D01*
X18288Y-229D01*
X18469Y-410D01*
X18531Y-451D01*
X18604Y-466D01*
X18797Y-466D01*
X18797Y-470D01*
X18797Y-720D01*
X18820Y-775D01*
X18862Y-818D01*
X18918Y-840D01*
X18977Y-841D01*
X19427Y-841D01*
X19448Y-832D01*
X19469Y-840D01*
X19528Y-841D01*
X19784Y-841D01*
X19764Y-890D01*
X19764Y-890D01*
X19469Y-890D01*
X19448Y-899D01*
X19427Y-891D01*
X19368Y-890D01*
X18918Y-890D01*
X18863Y-913D01*
X18820Y-955D01*
X18798Y-1011D01*
X18797Y-1070D01*
X18797Y-1320D01*
X18820Y-1375D01*
X18862Y-1418D01*
X18918Y-1440D01*
X18977Y-1441D01*
X19427Y-1441D01*
X19448Y-1432D01*
X19469Y-1440D01*
X19528Y-1441D01*
X19865Y-1441D01*
X19865Y-1441D01*
G37*
G54D38*
X19865Y-1441D02*
X19550Y-1755D01*
X19509Y-1817D01*
X19495Y-1890D01*
X19495Y-2574D01*
X19494Y-2574D01*
X19233Y-2574D01*
X19192Y-2591D01*
X19152Y-2575D01*
X19093Y-2574D01*
X18672Y-2574D01*
X18675Y-2559D01*
X18649Y-2426D01*
X18574Y-2313D01*
X18461Y-2238D01*
X18454Y-2237D01*
X18572Y-2237D01*
X18627Y-2214D01*
X18670Y-2172D01*
X18692Y-2116D01*
X18693Y-2057D01*
X18693Y-1821D01*
X18670Y-1766D01*
X18628Y-1723D01*
X18572Y-1701D01*
X18571Y-1701D01*
X18571Y-1625D01*
X18574Y-1623D01*
X18649Y-1510D01*
X18675Y-1378D01*
X18649Y-1245D01*
X18574Y-1132D01*
X18476Y-1067D01*
X18484Y-1045D01*
X18485Y-986D01*
X18485Y-736D01*
X18462Y-681D01*
X18420Y-638D01*
X18364Y-616D01*
X18305Y-615D01*
X18117Y-615D01*
X17852Y-350D01*
X17787Y-307D01*
X17711Y-292D01*
X17684Y-292D01*
X17702Y-284D01*
X17745Y-242D01*
X17767Y-186D01*
X17768Y-127D01*
X17768Y-9D01*
X17763Y0D01*
X17767Y10D01*
X17768Y69D01*
X17768Y187D01*
X17763Y197D01*
X17767Y207D01*
X17767Y210D01*
X17777Y163D01*
X17818Y101D01*
X18093Y-173D01*
X18155Y-214D01*
X18228Y-229D01*
X18288Y-229D01*
X18469Y-410D01*
X18531Y-451D01*
X18604Y-466D01*
X18797Y-466D01*
X18797Y-470D01*
X18797Y-720D01*
X18820Y-775D01*
X18862Y-818D01*
X18918Y-840D01*
X18977Y-841D01*
X19427Y-841D01*
X19448Y-832D01*
X19469Y-840D01*
X19528Y-841D01*
X19784Y-841D01*
X19764Y-890D01*
X19764Y-890D01*
X19469Y-890D01*
X19448Y-899D01*
X19427Y-891D01*
X19368Y-890D01*
X18918Y-890D01*
X18863Y-913D01*
X18820Y-955D01*
X18798Y-1011D01*
X18797Y-1070D01*
X18797Y-1320D01*
X18820Y-1375D01*
X18862Y-1418D01*
X18918Y-1440D01*
X18977Y-1441D01*
X19427Y-1441D01*
X19448Y-1432D01*
X19469Y-1440D01*
X19528Y-1441D01*
X19865Y-1441D01*
G54D10*
G36*
X21396Y-5318D02*
X21396Y-5322D01*
X21396Y-5535D01*
X19798Y-5535D01*
X19798Y-6061D01*
X19302Y-5906D01*
X19067Y-5748D01*
X19064Y-5745D01*
X18794Y-5619D01*
X18693Y-5619D01*
X18693Y-5600D01*
X18693Y-5364D01*
X18670Y-5309D01*
X18628Y-5266D01*
X18572Y-5244D01*
X18571Y-5244D01*
X18571Y-5168D01*
X18574Y-5166D01*
X18649Y-5053D01*
X18675Y-4921D01*
X18649Y-4788D01*
X18574Y-4675D01*
X18461Y-4600D01*
X18454Y-4599D01*
X18572Y-4599D01*
X18627Y-4576D01*
X18670Y-4534D01*
X18692Y-4478D01*
X18693Y-4419D01*
X18693Y-4183D01*
X18670Y-4128D01*
X18652Y-4109D01*
X18701Y-4110D01*
X19151Y-4110D01*
X19192Y-4093D01*
X19233Y-4109D01*
X19292Y-4110D01*
X19322Y-4110D01*
X19289Y-4159D01*
X19233Y-4159D01*
X19178Y-4182D01*
X19135Y-4224D01*
X19113Y-4280D01*
X19112Y-4339D01*
X19112Y-4517D01*
X19015Y-4477D01*
X18906Y-4476D01*
X18805Y-4518D01*
X18728Y-4596D01*
X18686Y-4697D01*
X18685Y-4806D01*
X18727Y-4907D01*
X18805Y-4984D01*
X18906Y-5026D01*
X19015Y-5027D01*
X19089Y-4996D01*
X19089Y-4996D01*
X19134Y-5026D01*
X19134Y-5026D01*
X19135Y-5028D01*
X19177Y-5071D01*
X19233Y-5093D01*
X19292Y-5094D01*
X19700Y-5094D01*
X19700Y-5175D01*
X19723Y-5230D01*
X19765Y-5273D01*
X19815Y-5293D01*
X19834Y-5322D01*
X19968Y-5456D01*
X19968Y-5456D01*
X20011Y-5485D01*
X20033Y-5499D01*
X20033Y-5499D01*
X20109Y-5514D01*
X20110Y-5515D01*
X20697Y-5515D01*
X20773Y-5499D01*
X20838Y-5456D01*
X20901Y-5393D01*
X20948Y-5393D01*
X21049Y-5351D01*
X21082Y-5318D01*
X21396Y-5318D01*
X21396Y-5318D01*
G37*
G54D38*
X21396Y-5318D02*
X21396Y-5322D01*
X21396Y-5535D01*
X19798Y-5535D01*
X19798Y-6061D01*
X19302Y-5906D01*
X19067Y-5748D01*
X19064Y-5745D01*
X18794Y-5619D01*
X18693Y-5619D01*
X18693Y-5600D01*
X18693Y-5364D01*
X18670Y-5309D01*
X18628Y-5266D01*
X18572Y-5244D01*
X18571Y-5244D01*
X18571Y-5168D01*
X18574Y-5166D01*
X18649Y-5053D01*
X18675Y-4921D01*
X18649Y-4788D01*
X18574Y-4675D01*
X18461Y-4600D01*
X18454Y-4599D01*
X18572Y-4599D01*
X18627Y-4576D01*
X18670Y-4534D01*
X18692Y-4478D01*
X18693Y-4419D01*
X18693Y-4183D01*
X18670Y-4128D01*
X18652Y-4109D01*
X18701Y-4110D01*
X19151Y-4110D01*
X19192Y-4093D01*
X19233Y-4109D01*
X19292Y-4110D01*
X19322Y-4110D01*
X19289Y-4159D01*
X19233Y-4159D01*
X19178Y-4182D01*
X19135Y-4224D01*
X19113Y-4280D01*
X19112Y-4339D01*
X19112Y-4517D01*
X19015Y-4477D01*
X18906Y-4476D01*
X18805Y-4518D01*
X18728Y-4596D01*
X18686Y-4697D01*
X18685Y-4806D01*
X18727Y-4907D01*
X18805Y-4984D01*
X18906Y-5026D01*
X19015Y-5027D01*
X19089Y-4996D01*
X19089Y-4996D01*
X19134Y-5026D01*
X19134Y-5026D01*
X19135Y-5028D01*
X19177Y-5071D01*
X19233Y-5093D01*
X19292Y-5094D01*
X19700Y-5094D01*
X19700Y-5175D01*
X19723Y-5230D01*
X19765Y-5273D01*
X19815Y-5293D01*
X19834Y-5322D01*
X19968Y-5456D01*
X19968Y-5456D01*
X20011Y-5485D01*
X20033Y-5499D01*
X20033Y-5499D01*
X20109Y-5514D01*
X20110Y-5515D01*
X20697Y-5515D01*
X20773Y-5499D01*
X20838Y-5456D01*
X20901Y-5393D01*
X20948Y-5393D01*
X21049Y-5351D01*
X21082Y-5318D01*
X21396Y-5318D01*
G54D10*
G36*
X22016Y-6260D02*
X21739Y-6536D01*
X21505Y-6594D01*
X20992Y-6434D01*
X21461Y-6434D01*
X21461Y-5669D01*
X21461Y-5670D01*
X21517Y-5692D01*
X21576Y-5693D01*
X21629Y-5693D01*
X21631Y-5697D01*
X21635Y-5717D01*
X21643Y-5730D01*
X21650Y-5746D01*
X21665Y-5762D01*
X21676Y-5779D01*
X21708Y-5811D01*
X21686Y-5863D01*
X21686Y-5923D01*
X21709Y-5978D01*
X21751Y-6020D01*
X21973Y-6242D01*
X22016Y-6260D01*
X22016Y-6260D01*
G37*
G54D38*
X22016Y-6260D02*
X21739Y-6536D01*
X21505Y-6594D01*
X20992Y-6434D01*
X21461Y-6434D01*
X21461Y-5669D01*
X21461Y-5670D01*
X21517Y-5692D01*
X21576Y-5693D01*
X21629Y-5693D01*
X21631Y-5697D01*
X21635Y-5717D01*
X21643Y-5730D01*
X21650Y-5746D01*
X21665Y-5762D01*
X21676Y-5779D01*
X21708Y-5811D01*
X21686Y-5863D01*
X21686Y-5923D01*
X21709Y-5978D01*
X21751Y-6020D01*
X21973Y-6242D01*
X22016Y-6260D01*
G54D10*
G36*
X11853Y2229D02*
X11838Y2215D01*
X11436Y2215D01*
X11443Y2250D01*
X11420Y2367D01*
X11353Y2467D01*
X11253Y2534D01*
X11136Y2557D01*
X10963Y2557D01*
X10846Y2534D01*
X10746Y2467D01*
X10712Y2415D01*
X10712Y2504D01*
X10696Y2580D01*
X10696Y2580D01*
X10682Y2602D01*
X10653Y2645D01*
X10653Y2645D01*
X10200Y3098D01*
X10200Y3662D01*
X10190Y3709D01*
X10230Y3709D01*
X10363Y3735D01*
X10408Y3765D01*
X10441Y3731D01*
X10496Y3709D01*
X10497Y3709D01*
X10497Y3668D01*
X10497Y3668D01*
X10496Y3668D01*
X10505Y3625D01*
X10513Y3582D01*
X10514Y3582D01*
X10514Y3581D01*
X10538Y3545D01*
X10562Y3509D01*
X10562Y3509D01*
X10562Y3508D01*
X10725Y3346D01*
X10693Y3346D01*
X10592Y3304D01*
X10515Y3226D01*
X10473Y3125D01*
X10472Y3016D01*
X10514Y2915D01*
X10592Y2838D01*
X10693Y2796D01*
X10772Y2795D01*
X10786Y2761D01*
X10828Y2718D01*
X10884Y2696D01*
X10943Y2695D01*
X11193Y2695D01*
X11248Y2718D01*
X11291Y2760D01*
X11313Y2816D01*
X11314Y2875D01*
X11314Y3325D01*
X11302Y3353D01*
X11375Y3353D01*
X11364Y3325D01*
X11363Y3266D01*
X11363Y2816D01*
X11386Y2761D01*
X11428Y2718D01*
X11484Y2696D01*
X11543Y2695D01*
X11793Y2695D01*
X11848Y2718D01*
X11853Y2722D01*
X11853Y2229D01*
X11853Y2229D01*
G37*
G54D38*
X11853Y2229D02*
X11838Y2215D01*
X11436Y2215D01*
X11443Y2250D01*
X11420Y2367D01*
X11353Y2467D01*
X11253Y2534D01*
X11136Y2557D01*
X10963Y2557D01*
X10846Y2534D01*
X10746Y2467D01*
X10712Y2415D01*
X10712Y2504D01*
X10696Y2580D01*
X10696Y2580D01*
X10682Y2602D01*
X10653Y2645D01*
X10653Y2645D01*
X10200Y3098D01*
X10200Y3662D01*
X10190Y3709D01*
X10230Y3709D01*
X10363Y3735D01*
X10408Y3765D01*
X10441Y3731D01*
X10496Y3709D01*
X10497Y3709D01*
X10497Y3668D01*
X10497Y3668D01*
X10496Y3668D01*
X10505Y3625D01*
X10513Y3582D01*
X10514Y3582D01*
X10514Y3581D01*
X10538Y3545D01*
X10562Y3509D01*
X10562Y3509D01*
X10562Y3508D01*
X10725Y3346D01*
X10693Y3346D01*
X10592Y3304D01*
X10515Y3226D01*
X10473Y3125D01*
X10472Y3016D01*
X10514Y2915D01*
X10592Y2838D01*
X10693Y2796D01*
X10772Y2795D01*
X10786Y2761D01*
X10828Y2718D01*
X10884Y2696D01*
X10943Y2695D01*
X11193Y2695D01*
X11248Y2718D01*
X11291Y2760D01*
X11313Y2816D01*
X11314Y2875D01*
X11314Y3325D01*
X11302Y3353D01*
X11375Y3353D01*
X11364Y3325D01*
X11363Y3266D01*
X11363Y2816D01*
X11386Y2761D01*
X11428Y2718D01*
X11484Y2696D01*
X11543Y2695D01*
X11793Y2695D01*
X11848Y2718D01*
X11853Y2722D01*
X11853Y2229D01*
G54D10*
G36*
X13617Y2844D02*
X13574Y2801D01*
X13559Y2766D01*
X13557Y2773D01*
X13516Y2835D01*
X13516Y2835D01*
X13422Y2929D01*
X13422Y3148D01*
X13617Y2953D01*
X13617Y2844D01*
X13617Y2844D01*
G37*
G54D38*
X13617Y2844D02*
X13574Y2801D01*
X13559Y2766D01*
X13557Y2773D01*
X13516Y2835D01*
X13516Y2835D01*
X13422Y2929D01*
X13422Y3148D01*
X13617Y2953D01*
X13617Y2844D01*
G54D10*
G36*
X14856Y5307D02*
X14552Y5307D01*
X14565Y5339D01*
X14566Y5440D01*
X14724Y5440D01*
X14856Y5307D01*
X14856Y5307D01*
G37*
G54D38*
X14856Y5307D02*
X14552Y5307D01*
X14565Y5339D01*
X14566Y5440D01*
X14724Y5440D01*
X14856Y5307D01*
G54D10*
G36*
X15253Y2611D02*
X15249Y2611D01*
X15249Y2625D01*
X15234Y2697D01*
X15193Y2759D01*
X14758Y3194D01*
X14758Y3266D01*
X14743Y3338D01*
X14702Y3400D01*
X14702Y3400D01*
X14442Y3660D01*
X14442Y3858D01*
X14427Y3930D01*
X14386Y3992D01*
X14110Y4268D01*
X14048Y4309D01*
X13976Y4324D01*
X13836Y4324D01*
X13836Y4748D01*
X14230Y4748D01*
X14238Y4752D01*
X14238Y4694D01*
X14261Y4639D01*
X14303Y4597D01*
X14359Y4574D01*
X14418Y4574D01*
X15166Y4574D01*
X15221Y4597D01*
X15253Y4628D01*
X15253Y2611D01*
X15253Y2611D01*
G37*
G54D38*
X15253Y2611D02*
X15249Y2611D01*
X15249Y2625D01*
X15234Y2697D01*
X15193Y2759D01*
X14758Y3194D01*
X14758Y3266D01*
X14743Y3338D01*
X14702Y3400D01*
X14702Y3400D01*
X14442Y3660D01*
X14442Y3858D01*
X14427Y3930D01*
X14386Y3992D01*
X14110Y4268D01*
X14048Y4309D01*
X13976Y4324D01*
X13836Y4324D01*
X13836Y4748D01*
X14230Y4748D01*
X14238Y4752D01*
X14238Y4694D01*
X14261Y4639D01*
X14303Y4597D01*
X14359Y4574D01*
X14418Y4574D01*
X15166Y4574D01*
X15221Y4597D01*
X15253Y4628D01*
X15253Y2611D01*
G54D10*
G36*
X16753Y3611D02*
X16488Y3346D01*
X16441Y3346D01*
X16340Y3304D01*
X16263Y3226D01*
X16221Y3125D01*
X16221Y3078D01*
X16098Y2956D01*
X16055Y2891D01*
X16040Y2815D01*
X16040Y2527D01*
X16032Y2545D01*
X15990Y2588D01*
X15934Y2610D01*
X15875Y2611D01*
X15850Y2611D01*
X15850Y3590D01*
X16584Y3590D01*
X16639Y3613D01*
X16672Y3646D01*
X16674Y3645D01*
X16753Y3611D01*
X16753Y3611D01*
G37*
G54D38*
X16753Y3611D02*
X16488Y3346D01*
X16441Y3346D01*
X16340Y3304D01*
X16263Y3226D01*
X16221Y3125D01*
X16221Y3078D01*
X16098Y2956D01*
X16055Y2891D01*
X16040Y2815D01*
X16040Y2527D01*
X16032Y2545D01*
X15990Y2588D01*
X15934Y2610D01*
X15875Y2611D01*
X15850Y2611D01*
X15850Y3590D01*
X16584Y3590D01*
X16639Y3613D01*
X16672Y3646D01*
X16674Y3645D01*
X16753Y3611D01*
G54D10*
G36*
X17398Y5469D02*
X17375Y5412D01*
X17374Y5303D01*
X17387Y5273D01*
X17334Y5294D01*
X17275Y5295D01*
X17025Y5295D01*
X16970Y5272D01*
X16927Y5230D01*
X16905Y5174D01*
X16904Y5115D01*
X16904Y5087D01*
X16865Y5061D01*
X16127Y4323D01*
X15777Y4323D01*
X15722Y4300D01*
X15679Y4258D01*
X15657Y4203D01*
X15656Y4149D01*
X15653Y4148D01*
X15653Y4738D01*
X15652Y4738D01*
X15637Y4814D01*
X15637Y4814D01*
X15623Y4836D01*
X15594Y4879D01*
X15594Y4879D01*
X15391Y5082D01*
X15326Y5125D01*
X15287Y5133D01*
X15287Y5187D01*
X15286Y5189D01*
X16207Y5189D01*
X16250Y5146D01*
X16351Y5104D01*
X16460Y5103D01*
X16561Y5145D01*
X16638Y5223D01*
X16680Y5324D01*
X16681Y5433D01*
X16666Y5469D01*
X17398Y5469D01*
X17398Y5469D01*
G37*
G54D38*
X17398Y5469D02*
X17375Y5412D01*
X17374Y5303D01*
X17387Y5273D01*
X17334Y5294D01*
X17275Y5295D01*
X17025Y5295D01*
X16970Y5272D01*
X16927Y5230D01*
X16905Y5174D01*
X16904Y5115D01*
X16904Y5087D01*
X16865Y5061D01*
X16127Y4323D01*
X15777Y4323D01*
X15722Y4300D01*
X15679Y4258D01*
X15657Y4203D01*
X15656Y4149D01*
X15653Y4148D01*
X15653Y4738D01*
X15652Y4738D01*
X15637Y4814D01*
X15637Y4814D01*
X15623Y4836D01*
X15594Y4879D01*
X15594Y4879D01*
X15391Y5082D01*
X15326Y5125D01*
X15287Y5133D01*
X15287Y5187D01*
X15286Y5189D01*
X16207Y5189D01*
X16250Y5146D01*
X16351Y5104D01*
X16460Y5103D01*
X16561Y5145D01*
X16638Y5223D01*
X16680Y5324D01*
X16681Y5433D01*
X16666Y5469D01*
X17398Y5469D01*
G54D10*
G36*
X19067Y3918D02*
X18846Y3918D01*
X18791Y3895D01*
X18748Y3853D01*
X18726Y3797D01*
X18725Y3738D01*
X18725Y3288D01*
X18748Y3233D01*
X18790Y3190D01*
X18795Y3189D01*
X18794Y3148D01*
X18794Y3036D01*
X18728Y3103D01*
X18666Y3144D01*
X18594Y3159D01*
X18331Y3159D01*
X18330Y3159D01*
X18316Y3156D01*
X18258Y3144D01*
X18196Y3103D01*
X18196Y3103D01*
X18165Y3072D01*
X18141Y3072D01*
X18109Y3103D01*
X18110Y3164D01*
X18068Y3265D01*
X17990Y3342D01*
X17889Y3384D01*
X17780Y3385D01*
X17679Y3343D01*
X17602Y3265D01*
X17560Y3164D01*
X17560Y3144D01*
X17465Y3145D01*
X17364Y3103D01*
X17287Y3025D01*
X17245Y2924D01*
X17244Y2815D01*
X17253Y2794D01*
X17201Y2805D01*
X17063Y2805D01*
X17085Y2858D01*
X17086Y2967D01*
X17044Y3068D01*
X16966Y3145D01*
X16887Y3179D01*
X17071Y3363D01*
X17084Y3363D01*
X17334Y3363D01*
X17389Y3386D01*
X17432Y3428D01*
X17454Y3484D01*
X17455Y3543D01*
X17455Y3993D01*
X17438Y4034D01*
X17454Y4075D01*
X17455Y4134D01*
X17455Y4584D01*
X17438Y4625D01*
X17454Y4665D01*
X17455Y4724D01*
X17455Y5164D01*
X17494Y5125D01*
X17595Y5083D01*
X17704Y5082D01*
X17805Y5124D01*
X17882Y5202D01*
X17924Y5303D01*
X17925Y5412D01*
X17901Y5469D01*
X18465Y5469D01*
X18486Y5447D01*
X18369Y5331D01*
X18328Y5269D01*
X18314Y5197D01*
X18314Y4631D01*
X18328Y4558D01*
X18369Y4496D01*
X18528Y4337D01*
X18528Y4076D01*
X18551Y4021D01*
X18593Y3978D01*
X18649Y3956D01*
X18708Y3955D01*
X18958Y3955D01*
X19013Y3978D01*
X19023Y3988D01*
X19042Y3943D01*
X19067Y3918D01*
X19067Y3918D01*
G37*
G54D38*
X19067Y3918D02*
X18846Y3918D01*
X18791Y3895D01*
X18748Y3853D01*
X18726Y3797D01*
X18725Y3738D01*
X18725Y3288D01*
X18748Y3233D01*
X18790Y3190D01*
X18795Y3189D01*
X18794Y3148D01*
X18794Y3036D01*
X18728Y3103D01*
X18666Y3144D01*
X18594Y3159D01*
X18331Y3159D01*
X18330Y3159D01*
X18316Y3156D01*
X18258Y3144D01*
X18196Y3103D01*
X18196Y3103D01*
X18165Y3072D01*
X18141Y3072D01*
X18109Y3103D01*
X18110Y3164D01*
X18068Y3265D01*
X17990Y3342D01*
X17889Y3384D01*
X17780Y3385D01*
X17679Y3343D01*
X17602Y3265D01*
X17560Y3164D01*
X17560Y3144D01*
X17465Y3145D01*
X17364Y3103D01*
X17287Y3025D01*
X17245Y2924D01*
X17244Y2815D01*
X17253Y2794D01*
X17201Y2805D01*
X17063Y2805D01*
X17085Y2858D01*
X17086Y2967D01*
X17044Y3068D01*
X16966Y3145D01*
X16887Y3179D01*
X17071Y3363D01*
X17084Y3363D01*
X17334Y3363D01*
X17389Y3386D01*
X17432Y3428D01*
X17454Y3484D01*
X17455Y3543D01*
X17455Y3993D01*
X17438Y4034D01*
X17454Y4075D01*
X17455Y4134D01*
X17455Y4584D01*
X17438Y4625D01*
X17454Y4665D01*
X17455Y4724D01*
X17455Y5164D01*
X17494Y5125D01*
X17595Y5083D01*
X17704Y5082D01*
X17805Y5124D01*
X17882Y5202D01*
X17924Y5303D01*
X17925Y5412D01*
X17901Y5469D01*
X18465Y5469D01*
X18486Y5447D01*
X18369Y5331D01*
X18328Y5269D01*
X18314Y5197D01*
X18314Y4631D01*
X18328Y4558D01*
X18369Y4496D01*
X18528Y4337D01*
X18528Y4076D01*
X18551Y4021D01*
X18593Y3978D01*
X18649Y3956D01*
X18708Y3955D01*
X18958Y3955D01*
X19013Y3978D01*
X19023Y3988D01*
X19042Y3943D01*
X19067Y3918D01*
G54D10*
G36*
X19261Y4688D02*
X19173Y4600D01*
X19154Y4572D01*
X19140Y4572D01*
X19085Y4549D01*
X19079Y4543D01*
X19079Y4585D01*
X19062Y4626D01*
X19078Y4666D01*
X19078Y4688D01*
X19261Y4688D01*
X19261Y4688D01*
G37*
G54D38*
X19261Y4688D02*
X19173Y4600D01*
X19154Y4572D01*
X19140Y4572D01*
X19085Y4549D01*
X19079Y4543D01*
X19079Y4585D01*
X19062Y4626D01*
X19078Y4666D01*
X19078Y4688D01*
X19261Y4688D01*
G54D10*
G36*
X22268Y5833D02*
X22031Y4975D01*
X22031Y5462D01*
X22055Y5487D01*
X22097Y5588D01*
X22098Y5697D01*
X22056Y5798D01*
X21978Y5875D01*
X21877Y5917D01*
X21768Y5918D01*
X21667Y5876D01*
X21590Y5798D01*
X21548Y5697D01*
X21547Y5588D01*
X21589Y5487D01*
X21631Y5446D01*
X21631Y4976D01*
X21480Y4826D01*
X21441Y4767D01*
X21441Y4979D01*
X21418Y5034D01*
X21376Y5077D01*
X21320Y5099D01*
X21261Y5100D01*
X21073Y5100D01*
X21066Y5107D01*
X21066Y5118D01*
X21050Y5194D01*
X21050Y5194D01*
X21007Y5259D01*
X20841Y5425D01*
X20841Y5569D01*
X20818Y5624D01*
X20776Y5667D01*
X20720Y5689D01*
X20661Y5690D01*
X20411Y5690D01*
X20356Y5667D01*
X20336Y5647D01*
X20312Y5706D01*
X20234Y5783D01*
X20133Y5825D01*
X20024Y5826D01*
X19948Y5794D01*
X19879Y5862D01*
X19778Y5904D01*
X19669Y5905D01*
X19568Y5863D01*
X19491Y5785D01*
X19449Y5684D01*
X19448Y5575D01*
X19450Y5571D01*
X19416Y5572D01*
X19140Y5572D01*
X19085Y5549D01*
X19042Y5507D01*
X19042Y5505D01*
X18938Y5505D01*
X18967Y5575D01*
X18968Y5684D01*
X18926Y5785D01*
X18909Y5801D01*
X21505Y6595D01*
X21739Y6536D01*
X22206Y6069D01*
X22268Y5833D01*
X22268Y5833D01*
G37*
G54D38*
X22268Y5833D02*
X22031Y4975D01*
X22031Y5462D01*
X22055Y5487D01*
X22097Y5588D01*
X22098Y5697D01*
X22056Y5798D01*
X21978Y5875D01*
X21877Y5917D01*
X21768Y5918D01*
X21667Y5876D01*
X21590Y5798D01*
X21548Y5697D01*
X21547Y5588D01*
X21589Y5487D01*
X21631Y5446D01*
X21631Y4976D01*
X21480Y4826D01*
X21441Y4767D01*
X21441Y4979D01*
X21418Y5034D01*
X21376Y5077D01*
X21320Y5099D01*
X21261Y5100D01*
X21073Y5100D01*
X21066Y5107D01*
X21066Y5118D01*
X21050Y5194D01*
X21050Y5194D01*
X21007Y5259D01*
X20841Y5425D01*
X20841Y5569D01*
X20818Y5624D01*
X20776Y5667D01*
X20720Y5689D01*
X20661Y5690D01*
X20411Y5690D01*
X20356Y5667D01*
X20336Y5647D01*
X20312Y5706D01*
X20234Y5783D01*
X20133Y5825D01*
X20024Y5826D01*
X19948Y5794D01*
X19879Y5862D01*
X19778Y5904D01*
X19669Y5905D01*
X19568Y5863D01*
X19491Y5785D01*
X19449Y5684D01*
X19448Y5575D01*
X19450Y5571D01*
X19416Y5572D01*
X19140Y5572D01*
X19085Y5549D01*
X19042Y5507D01*
X19042Y5505D01*
X18938Y5505D01*
X18967Y5575D01*
X18968Y5684D01*
X18926Y5785D01*
X18909Y5801D01*
X21505Y6595D01*
X21739Y6536D01*
X22206Y6069D01*
X22268Y5833D01*
M02*
