G04 (created by PCBNEW (2013-07-07 BZR 4022)-stable) date 07/06/2014 15:45:14*
%MOIN*%
G04 Gerber Fmt 3.4, Leading zero omitted, Abs format*
%FSLAX34Y34*%
G01*
G70*
G90*
G04 APERTURE LIST*
%ADD10C,0.00590551*%
%ADD11C,0.007875*%
%ADD12C,0.0079*%
%ADD13O,0.063X0.0472*%
%ADD14R,0.0551X0.0394*%
%ADD15O,0.0551X0.0394*%
%ADD16O,0.0472X0.0315*%
%ADD17R,0.0472X0.0315*%
%ADD18R,0.0669X0.0669*%
%ADD19C,0.015*%
%ADD20R,0.0472X0.063*%
%ADD21O,0.0472X0.063*%
%ADD22C,0.025*%
%ADD23C,0.01*%
G04 APERTURE END LIST*
G54D10*
G54D11*
X21957Y157D02*
X21972Y172D01*
X22002Y187D01*
X22077Y187D01*
X22107Y172D01*
X22122Y157D01*
X22137Y127D01*
X22137Y97D01*
X22122Y52D01*
X21942Y-127D01*
X22137Y-127D01*
G54D12*
G54D13*
X20827Y-1732D03*
G54D14*
X10802Y4056D03*
G54D15*
X10144Y4056D03*
G54D14*
X17584Y-2559D03*
G54D15*
X18242Y-2559D03*
G54D14*
X15211Y-2165D03*
G54D15*
X14553Y-2165D03*
G54D14*
X17584Y-4921D03*
G54D15*
X18242Y-4921D03*
G54D14*
X17584Y-1378D03*
G54D15*
X18242Y-1378D03*
G54D14*
X17584Y-3740D03*
G54D15*
X18242Y-3740D03*
G54D16*
X11628Y2250D03*
X11628Y1750D03*
X11050Y2250D03*
X11050Y1750D03*
G54D17*
X11628Y-2250D03*
G54D16*
X11050Y-2250D03*
X11050Y-1750D03*
X11050Y-1250D03*
X11050Y-750D03*
X11050Y-250D03*
X11050Y250D03*
X11050Y750D03*
X11050Y1250D03*
X11628Y-1750D03*
X11628Y-1250D03*
X11628Y-750D03*
X11628Y-250D03*
X11628Y250D03*
X11628Y750D03*
X11628Y1250D03*
G54D18*
X19291Y787D03*
G54D19*
X19291Y787D03*
X19094Y590D03*
X19488Y590D03*
X19094Y984D03*
X19488Y984D03*
G54D20*
X20748Y690D03*
G54D21*
X20748Y1438D03*
G54D22*
X15738Y-292D03*
X15424Y-394D03*
X16560Y1429D03*
X15957Y788D03*
X16049Y254D03*
X16290Y1179D03*
X13232Y4291D03*
X14661Y929D03*
X16406Y5379D03*
X13138Y2594D03*
X18693Y5630D03*
X13807Y2646D03*
X10531Y-508D03*
X16720Y457D03*
X16409Y567D03*
X16161Y-47D03*
X15520Y-24D03*
X16768Y141D03*
X14690Y2671D03*
X19717Y1547D03*
X17177Y2084D03*
X18842Y1708D03*
X18577Y2131D03*
X14858Y1177D03*
X12606Y1803D03*
X15177Y1185D03*
X12043Y2031D03*
X13937Y3335D03*
X11169Y3661D03*
X16811Y2913D03*
X14461Y2894D03*
X18031Y2122D03*
X10748Y3071D03*
X18709Y213D03*
X15990Y1525D03*
X12165Y945D03*
X13450Y-215D03*
X16142Y-3031D03*
X16142Y-3465D03*
X16102Y-3858D03*
X15905Y-4370D03*
X16016Y-2323D03*
X16165Y-4173D03*
X15835Y-2622D03*
X20905Y5551D03*
X19122Y4622D03*
X14764Y3386D03*
X18193Y5402D03*
X13543Y2874D03*
X21142Y5787D03*
X18169Y3142D03*
X16000Y2650D03*
X14646Y5394D03*
X14988Y3020D03*
X21457Y5709D03*
X16760Y5327D03*
X10236Y-2953D03*
X12598Y-4921D03*
X18976Y-1614D03*
X10630Y-2953D03*
X12165Y-3307D03*
X19201Y-5713D03*
X16024Y-5433D03*
X12335Y-1646D03*
X18925Y-5539D03*
X10236Y-2362D03*
X14921Y-4134D03*
X11732Y-3425D03*
X11220Y-3346D03*
X14764Y-3583D03*
X15551Y-4724D03*
X14055Y-3228D03*
X13665Y1217D03*
X11024Y-2953D03*
X13386Y-4921D03*
X12677Y-2480D03*
X12441Y-2244D03*
X12992Y-2205D03*
X10236Y-1772D03*
X18898Y-4193D03*
X12165Y-2953D03*
X11811Y-2953D03*
X14819Y-1524D03*
X10236Y-1181D03*
X19291Y-1732D03*
X12205Y-4921D03*
X13661Y-2953D03*
X12992Y-4921D03*
X13386Y-2559D03*
X10630Y-3346D03*
X14016Y-2559D03*
X12795Y-5512D03*
X13661Y-2205D03*
X14409Y-4134D03*
X14134Y-5000D03*
X11417Y-2953D03*
X12165Y-2480D03*
X20276Y-4449D03*
X20354Y1496D03*
X20839Y-4512D03*
X19689Y2224D03*
X21220Y-3071D03*
X21339Y-3425D03*
X21260Y-2756D03*
X20039Y-945D03*
X17835Y3110D03*
X18740Y2614D03*
X18425Y2724D03*
X17520Y2870D03*
X19252Y-236D03*
X21362Y3474D03*
X13602Y1630D03*
X21575Y303D03*
X17126Y-748D03*
X14405Y-5433D03*
X20894Y-5118D03*
X10512Y945D03*
X16409Y-5063D03*
X21823Y5643D03*
X18961Y-4752D03*
X14441Y-890D03*
X12646Y-898D03*
X9433Y5307D03*
X12953Y2874D03*
X14291Y5394D03*
X17650Y5358D03*
X16830Y3878D03*
X20079Y5551D03*
X19724Y5630D03*
X16496Y3071D03*
X20315Y3661D03*
X13740Y3740D03*
X18335Y1220D03*
X19098Y2563D03*
X21299Y-4291D03*
X21575Y-79D03*
X21299Y-3898D03*
X20772Y-2697D03*
X18279Y583D03*
X18303Y906D03*
G54D10*
G36*
X22267Y5833D02*
X22098Y5241D01*
X22098Y5697D01*
X22056Y5798D01*
X21978Y5875D01*
X21877Y5917D01*
X21768Y5918D01*
X21667Y5876D01*
X21590Y5798D01*
X21548Y5697D01*
X21547Y5588D01*
X21589Y5487D01*
X21667Y5410D01*
X21768Y5368D01*
X21877Y5367D01*
X21978Y5409D01*
X22055Y5487D01*
X22097Y5588D01*
X22098Y5697D01*
X22098Y5241D01*
X21620Y3568D01*
X21595Y3629D01*
X21517Y3706D01*
X21416Y3748D01*
X21307Y3749D01*
X21206Y3707D01*
X21129Y3629D01*
X21087Y3528D01*
X21086Y3419D01*
X21128Y3318D01*
X21169Y3278D01*
X20590Y3278D01*
X20590Y3715D01*
X20548Y3816D01*
X20470Y3893D01*
X20369Y3935D01*
X20354Y3935D01*
X20354Y5605D01*
X20312Y5706D01*
X20234Y5783D01*
X20133Y5825D01*
X20024Y5826D01*
X19948Y5794D01*
X19879Y5862D01*
X19778Y5904D01*
X19669Y5905D01*
X19568Y5863D01*
X19491Y5785D01*
X19449Y5684D01*
X19448Y5575D01*
X19490Y5474D01*
X19568Y5397D01*
X19669Y5355D01*
X19778Y5354D01*
X19854Y5386D01*
X19923Y5318D01*
X20024Y5276D01*
X20133Y5275D01*
X20234Y5317D01*
X20311Y5395D01*
X20353Y5496D01*
X20354Y5605D01*
X20354Y3935D01*
X20260Y3936D01*
X20159Y3894D01*
X20082Y3816D01*
X20040Y3715D01*
X20039Y3606D01*
X20081Y3505D01*
X20159Y3428D01*
X20260Y3386D01*
X20369Y3385D01*
X20470Y3427D01*
X20547Y3505D01*
X20589Y3606D01*
X20590Y3715D01*
X20590Y3278D01*
X18679Y3278D01*
X18493Y3091D01*
X18493Y2993D01*
X18479Y2998D01*
X18370Y2999D01*
X18269Y2957D01*
X18192Y2879D01*
X18150Y2778D01*
X18149Y2669D01*
X18191Y2568D01*
X18269Y2491D01*
X18370Y2449D01*
X18479Y2448D01*
X18493Y2454D01*
X18493Y2393D01*
X18421Y2364D01*
X18344Y2286D01*
X18302Y2186D01*
X18264Y2277D01*
X18186Y2354D01*
X18110Y2386D01*
X18110Y3164D01*
X18068Y3265D01*
X17990Y3342D01*
X17889Y3384D01*
X17780Y3385D01*
X17679Y3343D01*
X17602Y3265D01*
X17560Y3164D01*
X17560Y3144D01*
X17465Y3145D01*
X17364Y3103D01*
X17287Y3025D01*
X17245Y2924D01*
X17244Y2815D01*
X17286Y2714D01*
X17364Y2637D01*
X17465Y2595D01*
X17574Y2594D01*
X17675Y2636D01*
X17752Y2714D01*
X17794Y2815D01*
X17794Y2835D01*
X17889Y2834D01*
X17990Y2876D01*
X18067Y2954D01*
X18109Y3055D01*
X18110Y3164D01*
X18110Y2386D01*
X18085Y2396D01*
X17976Y2397D01*
X17875Y2355D01*
X17798Y2277D01*
X17756Y2176D01*
X17755Y2067D01*
X17797Y1966D01*
X17875Y1889D01*
X17976Y1847D01*
X18085Y1846D01*
X18186Y1888D01*
X18263Y1966D01*
X18305Y2066D01*
X18343Y1975D01*
X18421Y1898D01*
X18493Y1868D01*
X18493Y1450D01*
X18490Y1452D01*
X18389Y1494D01*
X18280Y1495D01*
X18179Y1453D01*
X18102Y1375D01*
X18060Y1274D01*
X18059Y1165D01*
X18093Y1085D01*
X18082Y1074D01*
X17452Y1074D01*
X17452Y2138D01*
X17410Y2239D01*
X17332Y2316D01*
X17231Y2358D01*
X17122Y2359D01*
X17105Y2351D01*
X17105Y3932D01*
X17063Y4033D01*
X16985Y4110D01*
X16884Y4152D01*
X16775Y4153D01*
X16674Y4111D01*
X16597Y4033D01*
X16555Y3932D01*
X16554Y3823D01*
X16596Y3722D01*
X16674Y3645D01*
X16775Y3603D01*
X16884Y3602D01*
X16985Y3644D01*
X17062Y3722D01*
X17104Y3823D01*
X17105Y3932D01*
X17105Y2351D01*
X17086Y2343D01*
X17086Y2967D01*
X17044Y3068D01*
X16966Y3145D01*
X16865Y3187D01*
X16756Y3188D01*
X16746Y3184D01*
X16729Y3226D01*
X16651Y3303D01*
X16550Y3345D01*
X16441Y3346D01*
X16340Y3304D01*
X16263Y3226D01*
X16221Y3125D01*
X16220Y3016D01*
X16262Y2915D01*
X16340Y2838D01*
X16441Y2796D01*
X16550Y2795D01*
X16560Y2799D01*
X16577Y2757D01*
X16655Y2680D01*
X16756Y2638D01*
X16865Y2637D01*
X16966Y2679D01*
X17043Y2757D01*
X17085Y2858D01*
X17086Y2967D01*
X17086Y2343D01*
X17021Y2317D01*
X16944Y2239D01*
X16902Y2138D01*
X16901Y2029D01*
X16943Y1928D01*
X17021Y1851D01*
X17122Y1809D01*
X17231Y1808D01*
X17332Y1850D01*
X17409Y1928D01*
X17451Y2029D01*
X17452Y2138D01*
X17452Y1074D01*
X16544Y1074D01*
X16564Y1124D01*
X16564Y1153D01*
X16614Y1153D01*
X16715Y1195D01*
X16792Y1273D01*
X16834Y1374D01*
X16835Y1483D01*
X16793Y1584D01*
X16715Y1661D01*
X16614Y1703D01*
X16505Y1704D01*
X16404Y1662D01*
X16327Y1584D01*
X16285Y1483D01*
X16285Y1454D01*
X16258Y1454D01*
X16264Y1470D01*
X16265Y1579D01*
X16223Y1680D01*
X16145Y1757D01*
X16044Y1799D01*
X15935Y1800D01*
X15834Y1758D01*
X15757Y1680D01*
X15715Y1579D01*
X15714Y1470D01*
X15756Y1369D01*
X15834Y1292D01*
X15935Y1250D01*
X16021Y1249D01*
X16015Y1233D01*
X16014Y1124D01*
X16035Y1074D01*
X15689Y1074D01*
X15562Y1201D01*
X15562Y1989D01*
X15375Y2176D01*
X14965Y2176D01*
X14965Y2725D01*
X14923Y2826D01*
X14845Y2903D01*
X14744Y2945D01*
X14736Y2945D01*
X14736Y2948D01*
X14694Y3049D01*
X14616Y3126D01*
X14515Y3168D01*
X14406Y3169D01*
X14305Y3127D01*
X14228Y3049D01*
X14212Y3011D01*
X14212Y3389D01*
X14170Y3490D01*
X14092Y3567D01*
X13991Y3609D01*
X13983Y3609D01*
X14014Y3685D01*
X14015Y3794D01*
X13973Y3895D01*
X13895Y3972D01*
X13794Y4014D01*
X13685Y4015D01*
X13584Y3973D01*
X13507Y3896D01*
X13507Y4345D01*
X13465Y4446D01*
X13387Y4523D01*
X13286Y4565D01*
X13177Y4566D01*
X13076Y4524D01*
X12999Y4446D01*
X12957Y4345D01*
X12956Y4236D01*
X12998Y4135D01*
X13076Y4058D01*
X13177Y4016D01*
X13286Y4015D01*
X13387Y4057D01*
X13464Y4135D01*
X13506Y4236D01*
X13507Y4345D01*
X13507Y3896D01*
X13507Y3895D01*
X13465Y3794D01*
X13464Y3685D01*
X13506Y3584D01*
X13584Y3507D01*
X13685Y3465D01*
X13693Y3465D01*
X13662Y3389D01*
X13661Y3280D01*
X13703Y3179D01*
X13781Y3102D01*
X13882Y3060D01*
X13991Y3059D01*
X14092Y3101D01*
X14169Y3179D01*
X14211Y3280D01*
X14212Y3389D01*
X14212Y3011D01*
X14186Y2948D01*
X14185Y2839D01*
X14227Y2738D01*
X14305Y2661D01*
X14406Y2619D01*
X14414Y2619D01*
X14414Y2616D01*
X14456Y2515D01*
X14534Y2438D01*
X14635Y2396D01*
X14744Y2395D01*
X14845Y2437D01*
X14922Y2515D01*
X14964Y2616D01*
X14965Y2725D01*
X14965Y2176D01*
X14082Y2176D01*
X14082Y2700D01*
X14040Y2801D01*
X13962Y2878D01*
X13861Y2920D01*
X13752Y2921D01*
X13651Y2879D01*
X13574Y2801D01*
X13532Y2700D01*
X13531Y2591D01*
X13573Y2490D01*
X13651Y2413D01*
X13752Y2371D01*
X13861Y2370D01*
X13962Y2412D01*
X14039Y2490D01*
X14081Y2591D01*
X14082Y2700D01*
X14082Y2176D01*
X13413Y2176D01*
X13413Y2648D01*
X13371Y2749D01*
X13293Y2826D01*
X13227Y2854D01*
X13228Y2928D01*
X13186Y3029D01*
X13108Y3106D01*
X13007Y3148D01*
X12898Y3149D01*
X12797Y3107D01*
X12720Y3029D01*
X12678Y2928D01*
X12677Y2819D01*
X12719Y2718D01*
X12797Y2641D01*
X12863Y2613D01*
X12862Y2539D01*
X12904Y2438D01*
X12982Y2361D01*
X13083Y2319D01*
X13192Y2318D01*
X13293Y2360D01*
X13370Y2438D01*
X13412Y2539D01*
X13413Y2648D01*
X13413Y2176D01*
X12280Y2176D01*
X12276Y2186D01*
X12198Y2263D01*
X12097Y2305D01*
X11988Y2306D01*
X11887Y2264D01*
X11810Y2186D01*
X11805Y2176D01*
X11428Y2176D01*
X11443Y2250D01*
X11420Y2367D01*
X11353Y2467D01*
X11253Y2534D01*
X11136Y2557D01*
X11023Y2557D01*
X11023Y3125D01*
X10981Y3226D01*
X10903Y3303D01*
X10802Y3345D01*
X10693Y3346D01*
X10592Y3304D01*
X10515Y3226D01*
X10473Y3125D01*
X10472Y3016D01*
X10514Y2915D01*
X10592Y2838D01*
X10693Y2796D01*
X10802Y2795D01*
X10903Y2837D01*
X10980Y2915D01*
X11022Y3016D01*
X11023Y3125D01*
X11023Y2557D01*
X10963Y2557D01*
X10846Y2534D01*
X10746Y2467D01*
X10679Y2367D01*
X10656Y2250D01*
X10671Y2176D01*
X10216Y2176D01*
X10089Y2303D01*
X10089Y3234D01*
X10024Y3545D01*
X9942Y3731D01*
X10057Y3709D01*
X10230Y3709D01*
X10363Y3735D01*
X10408Y3765D01*
X10441Y3731D01*
X10496Y3709D01*
X10556Y3708D01*
X10894Y3708D01*
X10893Y3606D01*
X10935Y3505D01*
X11013Y3428D01*
X11114Y3386D01*
X11223Y3385D01*
X11324Y3427D01*
X11401Y3505D01*
X11443Y3606D01*
X11444Y3715D01*
X11402Y3816D01*
X11324Y3893D01*
X11227Y3934D01*
X11227Y4282D01*
X11204Y4337D01*
X11162Y4380D01*
X11107Y4402D01*
X11047Y4403D01*
X10496Y4403D01*
X10441Y4380D01*
X10408Y4346D01*
X10363Y4376D01*
X10230Y4403D01*
X10057Y4403D01*
X9924Y4376D01*
X9811Y4301D01*
X9741Y4195D01*
X9376Y5032D01*
X9378Y5032D01*
X9487Y5031D01*
X9588Y5073D01*
X9665Y5151D01*
X9707Y5252D01*
X9708Y5361D01*
X9666Y5462D01*
X9588Y5539D01*
X9487Y5581D01*
X9378Y5582D01*
X9277Y5540D01*
X9200Y5462D01*
X9194Y5450D01*
X9090Y5688D01*
X9133Y5913D01*
X9405Y6185D01*
X9654Y6289D01*
X13090Y6289D01*
X13218Y6161D01*
X13218Y5805D01*
X13404Y5619D01*
X14127Y5619D01*
X14058Y5549D01*
X14016Y5448D01*
X14015Y5339D01*
X14057Y5238D01*
X14135Y5161D01*
X14236Y5119D01*
X14345Y5118D01*
X14446Y5160D01*
X14523Y5238D01*
X14565Y5339D01*
X14566Y5448D01*
X14524Y5549D01*
X14454Y5619D01*
X16266Y5619D01*
X16250Y5612D01*
X16173Y5534D01*
X16131Y5433D01*
X16130Y5324D01*
X16172Y5223D01*
X16250Y5146D01*
X16351Y5104D01*
X16460Y5103D01*
X16561Y5145D01*
X16638Y5223D01*
X16680Y5324D01*
X16681Y5433D01*
X16639Y5534D01*
X16561Y5611D01*
X16545Y5619D01*
X17561Y5619D01*
X17494Y5591D01*
X17417Y5513D01*
X17375Y5412D01*
X17374Y5303D01*
X17416Y5202D01*
X17494Y5125D01*
X17595Y5083D01*
X17704Y5082D01*
X17805Y5124D01*
X17882Y5202D01*
X17924Y5303D01*
X17925Y5412D01*
X17883Y5513D01*
X17805Y5590D01*
X17738Y5619D01*
X18257Y5619D01*
X18418Y5643D01*
X18417Y5575D01*
X18459Y5474D01*
X18537Y5397D01*
X18638Y5355D01*
X18747Y5354D01*
X18848Y5396D01*
X18925Y5474D01*
X18967Y5575D01*
X18968Y5684D01*
X18928Y5779D01*
X21505Y6593D01*
X21739Y6536D01*
X22206Y6069D01*
X22267Y5833D01*
X22267Y5833D01*
G37*
G54D23*
X22267Y5833D02*
X22098Y5241D01*
X22098Y5697D01*
X22056Y5798D01*
X21978Y5875D01*
X21877Y5917D01*
X21768Y5918D01*
X21667Y5876D01*
X21590Y5798D01*
X21548Y5697D01*
X21547Y5588D01*
X21589Y5487D01*
X21667Y5410D01*
X21768Y5368D01*
X21877Y5367D01*
X21978Y5409D01*
X22055Y5487D01*
X22097Y5588D01*
X22098Y5697D01*
X22098Y5241D01*
X21620Y3568D01*
X21595Y3629D01*
X21517Y3706D01*
X21416Y3748D01*
X21307Y3749D01*
X21206Y3707D01*
X21129Y3629D01*
X21087Y3528D01*
X21086Y3419D01*
X21128Y3318D01*
X21169Y3278D01*
X20590Y3278D01*
X20590Y3715D01*
X20548Y3816D01*
X20470Y3893D01*
X20369Y3935D01*
X20354Y3935D01*
X20354Y5605D01*
X20312Y5706D01*
X20234Y5783D01*
X20133Y5825D01*
X20024Y5826D01*
X19948Y5794D01*
X19879Y5862D01*
X19778Y5904D01*
X19669Y5905D01*
X19568Y5863D01*
X19491Y5785D01*
X19449Y5684D01*
X19448Y5575D01*
X19490Y5474D01*
X19568Y5397D01*
X19669Y5355D01*
X19778Y5354D01*
X19854Y5386D01*
X19923Y5318D01*
X20024Y5276D01*
X20133Y5275D01*
X20234Y5317D01*
X20311Y5395D01*
X20353Y5496D01*
X20354Y5605D01*
X20354Y3935D01*
X20260Y3936D01*
X20159Y3894D01*
X20082Y3816D01*
X20040Y3715D01*
X20039Y3606D01*
X20081Y3505D01*
X20159Y3428D01*
X20260Y3386D01*
X20369Y3385D01*
X20470Y3427D01*
X20547Y3505D01*
X20589Y3606D01*
X20590Y3715D01*
X20590Y3278D01*
X18679Y3278D01*
X18493Y3091D01*
X18493Y2993D01*
X18479Y2998D01*
X18370Y2999D01*
X18269Y2957D01*
X18192Y2879D01*
X18150Y2778D01*
X18149Y2669D01*
X18191Y2568D01*
X18269Y2491D01*
X18370Y2449D01*
X18479Y2448D01*
X18493Y2454D01*
X18493Y2393D01*
X18421Y2364D01*
X18344Y2286D01*
X18302Y2186D01*
X18264Y2277D01*
X18186Y2354D01*
X18110Y2386D01*
X18110Y3164D01*
X18068Y3265D01*
X17990Y3342D01*
X17889Y3384D01*
X17780Y3385D01*
X17679Y3343D01*
X17602Y3265D01*
X17560Y3164D01*
X17560Y3144D01*
X17465Y3145D01*
X17364Y3103D01*
X17287Y3025D01*
X17245Y2924D01*
X17244Y2815D01*
X17286Y2714D01*
X17364Y2637D01*
X17465Y2595D01*
X17574Y2594D01*
X17675Y2636D01*
X17752Y2714D01*
X17794Y2815D01*
X17794Y2835D01*
X17889Y2834D01*
X17990Y2876D01*
X18067Y2954D01*
X18109Y3055D01*
X18110Y3164D01*
X18110Y2386D01*
X18085Y2396D01*
X17976Y2397D01*
X17875Y2355D01*
X17798Y2277D01*
X17756Y2176D01*
X17755Y2067D01*
X17797Y1966D01*
X17875Y1889D01*
X17976Y1847D01*
X18085Y1846D01*
X18186Y1888D01*
X18263Y1966D01*
X18305Y2066D01*
X18343Y1975D01*
X18421Y1898D01*
X18493Y1868D01*
X18493Y1450D01*
X18490Y1452D01*
X18389Y1494D01*
X18280Y1495D01*
X18179Y1453D01*
X18102Y1375D01*
X18060Y1274D01*
X18059Y1165D01*
X18093Y1085D01*
X18082Y1074D01*
X17452Y1074D01*
X17452Y2138D01*
X17410Y2239D01*
X17332Y2316D01*
X17231Y2358D01*
X17122Y2359D01*
X17105Y2351D01*
X17105Y3932D01*
X17063Y4033D01*
X16985Y4110D01*
X16884Y4152D01*
X16775Y4153D01*
X16674Y4111D01*
X16597Y4033D01*
X16555Y3932D01*
X16554Y3823D01*
X16596Y3722D01*
X16674Y3645D01*
X16775Y3603D01*
X16884Y3602D01*
X16985Y3644D01*
X17062Y3722D01*
X17104Y3823D01*
X17105Y3932D01*
X17105Y2351D01*
X17086Y2343D01*
X17086Y2967D01*
X17044Y3068D01*
X16966Y3145D01*
X16865Y3187D01*
X16756Y3188D01*
X16746Y3184D01*
X16729Y3226D01*
X16651Y3303D01*
X16550Y3345D01*
X16441Y3346D01*
X16340Y3304D01*
X16263Y3226D01*
X16221Y3125D01*
X16220Y3016D01*
X16262Y2915D01*
X16340Y2838D01*
X16441Y2796D01*
X16550Y2795D01*
X16560Y2799D01*
X16577Y2757D01*
X16655Y2680D01*
X16756Y2638D01*
X16865Y2637D01*
X16966Y2679D01*
X17043Y2757D01*
X17085Y2858D01*
X17086Y2967D01*
X17086Y2343D01*
X17021Y2317D01*
X16944Y2239D01*
X16902Y2138D01*
X16901Y2029D01*
X16943Y1928D01*
X17021Y1851D01*
X17122Y1809D01*
X17231Y1808D01*
X17332Y1850D01*
X17409Y1928D01*
X17451Y2029D01*
X17452Y2138D01*
X17452Y1074D01*
X16544Y1074D01*
X16564Y1124D01*
X16564Y1153D01*
X16614Y1153D01*
X16715Y1195D01*
X16792Y1273D01*
X16834Y1374D01*
X16835Y1483D01*
X16793Y1584D01*
X16715Y1661D01*
X16614Y1703D01*
X16505Y1704D01*
X16404Y1662D01*
X16327Y1584D01*
X16285Y1483D01*
X16285Y1454D01*
X16258Y1454D01*
X16264Y1470D01*
X16265Y1579D01*
X16223Y1680D01*
X16145Y1757D01*
X16044Y1799D01*
X15935Y1800D01*
X15834Y1758D01*
X15757Y1680D01*
X15715Y1579D01*
X15714Y1470D01*
X15756Y1369D01*
X15834Y1292D01*
X15935Y1250D01*
X16021Y1249D01*
X16015Y1233D01*
X16014Y1124D01*
X16035Y1074D01*
X15689Y1074D01*
X15562Y1201D01*
X15562Y1989D01*
X15375Y2176D01*
X14965Y2176D01*
X14965Y2725D01*
X14923Y2826D01*
X14845Y2903D01*
X14744Y2945D01*
X14736Y2945D01*
X14736Y2948D01*
X14694Y3049D01*
X14616Y3126D01*
X14515Y3168D01*
X14406Y3169D01*
X14305Y3127D01*
X14228Y3049D01*
X14212Y3011D01*
X14212Y3389D01*
X14170Y3490D01*
X14092Y3567D01*
X13991Y3609D01*
X13983Y3609D01*
X14014Y3685D01*
X14015Y3794D01*
X13973Y3895D01*
X13895Y3972D01*
X13794Y4014D01*
X13685Y4015D01*
X13584Y3973D01*
X13507Y3896D01*
X13507Y4345D01*
X13465Y4446D01*
X13387Y4523D01*
X13286Y4565D01*
X13177Y4566D01*
X13076Y4524D01*
X12999Y4446D01*
X12957Y4345D01*
X12956Y4236D01*
X12998Y4135D01*
X13076Y4058D01*
X13177Y4016D01*
X13286Y4015D01*
X13387Y4057D01*
X13464Y4135D01*
X13506Y4236D01*
X13507Y4345D01*
X13507Y3896D01*
X13507Y3895D01*
X13465Y3794D01*
X13464Y3685D01*
X13506Y3584D01*
X13584Y3507D01*
X13685Y3465D01*
X13693Y3465D01*
X13662Y3389D01*
X13661Y3280D01*
X13703Y3179D01*
X13781Y3102D01*
X13882Y3060D01*
X13991Y3059D01*
X14092Y3101D01*
X14169Y3179D01*
X14211Y3280D01*
X14212Y3389D01*
X14212Y3011D01*
X14186Y2948D01*
X14185Y2839D01*
X14227Y2738D01*
X14305Y2661D01*
X14406Y2619D01*
X14414Y2619D01*
X14414Y2616D01*
X14456Y2515D01*
X14534Y2438D01*
X14635Y2396D01*
X14744Y2395D01*
X14845Y2437D01*
X14922Y2515D01*
X14964Y2616D01*
X14965Y2725D01*
X14965Y2176D01*
X14082Y2176D01*
X14082Y2700D01*
X14040Y2801D01*
X13962Y2878D01*
X13861Y2920D01*
X13752Y2921D01*
X13651Y2879D01*
X13574Y2801D01*
X13532Y2700D01*
X13531Y2591D01*
X13573Y2490D01*
X13651Y2413D01*
X13752Y2371D01*
X13861Y2370D01*
X13962Y2412D01*
X14039Y2490D01*
X14081Y2591D01*
X14082Y2700D01*
X14082Y2176D01*
X13413Y2176D01*
X13413Y2648D01*
X13371Y2749D01*
X13293Y2826D01*
X13227Y2854D01*
X13228Y2928D01*
X13186Y3029D01*
X13108Y3106D01*
X13007Y3148D01*
X12898Y3149D01*
X12797Y3107D01*
X12720Y3029D01*
X12678Y2928D01*
X12677Y2819D01*
X12719Y2718D01*
X12797Y2641D01*
X12863Y2613D01*
X12862Y2539D01*
X12904Y2438D01*
X12982Y2361D01*
X13083Y2319D01*
X13192Y2318D01*
X13293Y2360D01*
X13370Y2438D01*
X13412Y2539D01*
X13413Y2648D01*
X13413Y2176D01*
X12280Y2176D01*
X12276Y2186D01*
X12198Y2263D01*
X12097Y2305D01*
X11988Y2306D01*
X11887Y2264D01*
X11810Y2186D01*
X11805Y2176D01*
X11428Y2176D01*
X11443Y2250D01*
X11420Y2367D01*
X11353Y2467D01*
X11253Y2534D01*
X11136Y2557D01*
X11023Y2557D01*
X11023Y3125D01*
X10981Y3226D01*
X10903Y3303D01*
X10802Y3345D01*
X10693Y3346D01*
X10592Y3304D01*
X10515Y3226D01*
X10473Y3125D01*
X10472Y3016D01*
X10514Y2915D01*
X10592Y2838D01*
X10693Y2796D01*
X10802Y2795D01*
X10903Y2837D01*
X10980Y2915D01*
X11022Y3016D01*
X11023Y3125D01*
X11023Y2557D01*
X10963Y2557D01*
X10846Y2534D01*
X10746Y2467D01*
X10679Y2367D01*
X10656Y2250D01*
X10671Y2176D01*
X10216Y2176D01*
X10089Y2303D01*
X10089Y3234D01*
X10024Y3545D01*
X9942Y3731D01*
X10057Y3709D01*
X10230Y3709D01*
X10363Y3735D01*
X10408Y3765D01*
X10441Y3731D01*
X10496Y3709D01*
X10556Y3708D01*
X10894Y3708D01*
X10893Y3606D01*
X10935Y3505D01*
X11013Y3428D01*
X11114Y3386D01*
X11223Y3385D01*
X11324Y3427D01*
X11401Y3505D01*
X11443Y3606D01*
X11444Y3715D01*
X11402Y3816D01*
X11324Y3893D01*
X11227Y3934D01*
X11227Y4282D01*
X11204Y4337D01*
X11162Y4380D01*
X11107Y4402D01*
X11047Y4403D01*
X10496Y4403D01*
X10441Y4380D01*
X10408Y4346D01*
X10363Y4376D01*
X10230Y4403D01*
X10057Y4403D01*
X9924Y4376D01*
X9811Y4301D01*
X9741Y4195D01*
X9376Y5032D01*
X9378Y5032D01*
X9487Y5031D01*
X9588Y5073D01*
X9665Y5151D01*
X9707Y5252D01*
X9708Y5361D01*
X9666Y5462D01*
X9588Y5539D01*
X9487Y5581D01*
X9378Y5582D01*
X9277Y5540D01*
X9200Y5462D01*
X9194Y5450D01*
X9090Y5688D01*
X9133Y5913D01*
X9405Y6185D01*
X9654Y6289D01*
X13090Y6289D01*
X13218Y6161D01*
X13218Y5805D01*
X13404Y5619D01*
X14127Y5619D01*
X14058Y5549D01*
X14016Y5448D01*
X14015Y5339D01*
X14057Y5238D01*
X14135Y5161D01*
X14236Y5119D01*
X14345Y5118D01*
X14446Y5160D01*
X14523Y5238D01*
X14565Y5339D01*
X14566Y5448D01*
X14524Y5549D01*
X14454Y5619D01*
X16266Y5619D01*
X16250Y5612D01*
X16173Y5534D01*
X16131Y5433D01*
X16130Y5324D01*
X16172Y5223D01*
X16250Y5146D01*
X16351Y5104D01*
X16460Y5103D01*
X16561Y5145D01*
X16638Y5223D01*
X16680Y5324D01*
X16681Y5433D01*
X16639Y5534D01*
X16561Y5611D01*
X16545Y5619D01*
X17561Y5619D01*
X17494Y5591D01*
X17417Y5513D01*
X17375Y5412D01*
X17374Y5303D01*
X17416Y5202D01*
X17494Y5125D01*
X17595Y5083D01*
X17704Y5082D01*
X17805Y5124D01*
X17882Y5202D01*
X17924Y5303D01*
X17925Y5412D01*
X17883Y5513D01*
X17805Y5590D01*
X17738Y5619D01*
X18257Y5619D01*
X18418Y5643D01*
X18417Y5575D01*
X18459Y5474D01*
X18537Y5397D01*
X18638Y5355D01*
X18747Y5354D01*
X18848Y5396D01*
X18925Y5474D01*
X18967Y5575D01*
X18968Y5684D01*
X18928Y5779D01*
X21505Y6593D01*
X21739Y6536D01*
X22206Y6069D01*
X22267Y5833D01*
G54D10*
G36*
X19399Y-5491D02*
X19271Y-5619D01*
X19236Y-5619D01*
X19236Y-4697D01*
X19194Y-4596D01*
X19116Y-4519D01*
X19015Y-4477D01*
X18906Y-4476D01*
X18805Y-4518D01*
X18728Y-4596D01*
X18686Y-4697D01*
X18685Y-4806D01*
X18727Y-4907D01*
X18805Y-4984D01*
X18906Y-5026D01*
X19015Y-5027D01*
X19116Y-4985D01*
X19193Y-4907D01*
X19235Y-4806D01*
X19236Y-4697D01*
X19236Y-5619D01*
X18675Y-5619D01*
X18675Y-4921D01*
X18675Y-3740D01*
X18675Y-2559D01*
X18675Y-1378D01*
X18649Y-1245D01*
X18574Y-1132D01*
X18461Y-1057D01*
X18328Y-1031D01*
X18155Y-1031D01*
X18022Y-1057D01*
X17977Y-1087D01*
X17944Y-1053D01*
X17889Y-1031D01*
X17829Y-1030D01*
X17401Y-1030D01*
X17401Y-693D01*
X17359Y-592D01*
X17281Y-515D01*
X17180Y-473D01*
X17071Y-472D01*
X16970Y-514D01*
X16893Y-592D01*
X16851Y-693D01*
X16850Y-802D01*
X16892Y-903D01*
X16970Y-980D01*
X17071Y-1022D01*
X17180Y-1023D01*
X17281Y-981D01*
X17358Y-903D01*
X17400Y-802D01*
X17401Y-693D01*
X17401Y-1030D01*
X17278Y-1030D01*
X17223Y-1053D01*
X17181Y-1095D01*
X17158Y-1151D01*
X17158Y-1210D01*
X17158Y-1604D01*
X17181Y-1659D01*
X17223Y-1702D01*
X17278Y-1724D01*
X17338Y-1725D01*
X17889Y-1725D01*
X17944Y-1702D01*
X17977Y-1668D01*
X18022Y-1698D01*
X18155Y-1725D01*
X18328Y-1725D01*
X18461Y-1698D01*
X18574Y-1623D01*
X18649Y-1510D01*
X18675Y-1378D01*
X18675Y-2559D01*
X18649Y-2426D01*
X18574Y-2313D01*
X18461Y-2238D01*
X18328Y-2212D01*
X18155Y-2212D01*
X18022Y-2238D01*
X17977Y-2268D01*
X17944Y-2234D01*
X17889Y-2212D01*
X17829Y-2211D01*
X17278Y-2211D01*
X17223Y-2234D01*
X17181Y-2276D01*
X17158Y-2332D01*
X17158Y-2391D01*
X17158Y-2785D01*
X17181Y-2840D01*
X17223Y-2883D01*
X17278Y-2905D01*
X17338Y-2906D01*
X17889Y-2906D01*
X17944Y-2883D01*
X17977Y-2849D01*
X18022Y-2879D01*
X18155Y-2906D01*
X18328Y-2906D01*
X18461Y-2879D01*
X18574Y-2804D01*
X18649Y-2691D01*
X18675Y-2559D01*
X18675Y-3740D01*
X18649Y-3607D01*
X18574Y-3494D01*
X18461Y-3419D01*
X18328Y-3393D01*
X18155Y-3393D01*
X18022Y-3419D01*
X17977Y-3449D01*
X17944Y-3415D01*
X17889Y-3393D01*
X17829Y-3392D01*
X17278Y-3392D01*
X17223Y-3415D01*
X17181Y-3457D01*
X17158Y-3513D01*
X17158Y-3572D01*
X17158Y-3966D01*
X17181Y-4021D01*
X17223Y-4064D01*
X17278Y-4086D01*
X17338Y-4087D01*
X17889Y-4087D01*
X17944Y-4064D01*
X17977Y-4030D01*
X18022Y-4060D01*
X18155Y-4087D01*
X18328Y-4087D01*
X18461Y-4060D01*
X18574Y-3985D01*
X18649Y-3872D01*
X18675Y-3740D01*
X18675Y-4921D01*
X18649Y-4788D01*
X18574Y-4675D01*
X18461Y-4600D01*
X18328Y-4574D01*
X18155Y-4574D01*
X18022Y-4600D01*
X17977Y-4630D01*
X17944Y-4596D01*
X17889Y-4574D01*
X17829Y-4573D01*
X17278Y-4573D01*
X17223Y-4596D01*
X17181Y-4638D01*
X17158Y-4694D01*
X17158Y-4753D01*
X17158Y-5147D01*
X17181Y-5202D01*
X17223Y-5245D01*
X17278Y-5267D01*
X17338Y-5268D01*
X17889Y-5268D01*
X17944Y-5245D01*
X17977Y-5211D01*
X18022Y-5241D01*
X18155Y-5268D01*
X18328Y-5268D01*
X18461Y-5241D01*
X18574Y-5166D01*
X18649Y-5053D01*
X18675Y-4921D01*
X18675Y-5619D01*
X16684Y-5619D01*
X16684Y-5008D01*
X16642Y-4907D01*
X16564Y-4830D01*
X16463Y-4788D01*
X16440Y-4788D01*
X16440Y-4118D01*
X16398Y-4017D01*
X16352Y-3971D01*
X16376Y-3912D01*
X16377Y-3803D01*
X16335Y-3702D01*
X16314Y-3681D01*
X16374Y-3620D01*
X16416Y-3519D01*
X16417Y-3410D01*
X16375Y-3309D01*
X16313Y-3247D01*
X16374Y-3186D01*
X16416Y-3085D01*
X16417Y-2976D01*
X16375Y-2875D01*
X16297Y-2798D01*
X16196Y-2756D01*
X16087Y-2755D01*
X16074Y-2761D01*
X16109Y-2676D01*
X16110Y-2581D01*
X16171Y-2556D01*
X16248Y-2478D01*
X16290Y-2377D01*
X16291Y-2268D01*
X16249Y-2167D01*
X16171Y-2090D01*
X16070Y-2048D01*
X15961Y-2047D01*
X15860Y-2089D01*
X15783Y-2167D01*
X15741Y-2268D01*
X15740Y-2363D01*
X15679Y-2388D01*
X15636Y-2431D01*
X15636Y-2332D01*
X15636Y-1938D01*
X15613Y-1883D01*
X15571Y-1840D01*
X15516Y-1818D01*
X15456Y-1817D01*
X14905Y-1817D01*
X14850Y-1840D01*
X14808Y-1882D01*
X14785Y-1938D01*
X14785Y-1997D01*
X14785Y-2391D01*
X14808Y-2446D01*
X14850Y-2489D01*
X14905Y-2511D01*
X14965Y-2512D01*
X15516Y-2512D01*
X15571Y-2489D01*
X15613Y-2447D01*
X15636Y-2391D01*
X15636Y-2332D01*
X15636Y-2431D01*
X15602Y-2466D01*
X15560Y-2567D01*
X15559Y-2676D01*
X15601Y-2777D01*
X15679Y-2854D01*
X15780Y-2896D01*
X15889Y-2897D01*
X15902Y-2891D01*
X15867Y-2976D01*
X15866Y-3085D01*
X15908Y-3186D01*
X15970Y-3248D01*
X15909Y-3309D01*
X15867Y-3410D01*
X15866Y-3519D01*
X15908Y-3620D01*
X15929Y-3641D01*
X15869Y-3702D01*
X15827Y-3803D01*
X15826Y-3912D01*
X15868Y-4013D01*
X15914Y-4059D01*
X15899Y-4094D01*
X15850Y-4094D01*
X15749Y-4136D01*
X15672Y-4214D01*
X15630Y-4315D01*
X15629Y-4424D01*
X15671Y-4525D01*
X15749Y-4602D01*
X15850Y-4644D01*
X15959Y-4645D01*
X16060Y-4603D01*
X16137Y-4525D01*
X16170Y-4448D01*
X16219Y-4448D01*
X16320Y-4406D01*
X16397Y-4328D01*
X16439Y-4227D01*
X16440Y-4118D01*
X16440Y-4788D01*
X16354Y-4787D01*
X16253Y-4829D01*
X16176Y-4907D01*
X16134Y-5008D01*
X16133Y-5117D01*
X16175Y-5218D01*
X16253Y-5295D01*
X16354Y-5337D01*
X16463Y-5338D01*
X16564Y-5296D01*
X16641Y-5218D01*
X16683Y-5117D01*
X16684Y-5008D01*
X16684Y-5619D01*
X14716Y-5619D01*
X14716Y-835D01*
X14674Y-734D01*
X14596Y-657D01*
X14495Y-615D01*
X14386Y-614D01*
X14285Y-656D01*
X14208Y-734D01*
X14166Y-835D01*
X14165Y-944D01*
X14207Y-1045D01*
X14285Y-1122D01*
X14386Y-1164D01*
X14495Y-1165D01*
X14596Y-1123D01*
X14673Y-1045D01*
X14715Y-944D01*
X14716Y-835D01*
X14716Y-5619D01*
X14607Y-5619D01*
X14637Y-5588D01*
X14679Y-5487D01*
X14680Y-5378D01*
X14638Y-5277D01*
X14560Y-5200D01*
X14459Y-5158D01*
X14350Y-5157D01*
X14249Y-5199D01*
X14172Y-5277D01*
X14130Y-5378D01*
X14129Y-5487D01*
X14171Y-5588D01*
X14202Y-5619D01*
X13001Y-5619D01*
X12744Y-5520D01*
X12205Y-5035D01*
X12106Y-4814D01*
X12224Y-4696D01*
X13721Y-4696D01*
X13908Y-4509D01*
X13908Y-3207D01*
X13725Y-3024D01*
X13725Y-160D01*
X13683Y-59D01*
X13605Y17D01*
X13504Y59D01*
X13395Y60D01*
X13294Y18D01*
X13217Y-59D01*
X13175Y-160D01*
X13174Y-269D01*
X13216Y-370D01*
X13294Y-447D01*
X13395Y-489D01*
X13504Y-490D01*
X13605Y-448D01*
X13682Y-370D01*
X13724Y-269D01*
X13725Y-160D01*
X13725Y-3024D01*
X13721Y-3021D01*
X12921Y-3021D01*
X12921Y-843D01*
X12879Y-742D01*
X12801Y-665D01*
X12700Y-623D01*
X12591Y-622D01*
X12490Y-664D01*
X12440Y-715D01*
X12440Y999D01*
X12398Y1100D01*
X12320Y1177D01*
X12219Y1219D01*
X12110Y1220D01*
X12009Y1178D01*
X12006Y1175D01*
X12021Y1250D01*
X11998Y1367D01*
X11931Y1467D01*
X11831Y1534D01*
X11714Y1557D01*
X11541Y1557D01*
X11424Y1534D01*
X11339Y1477D01*
X11253Y1534D01*
X11136Y1557D01*
X10963Y1557D01*
X10846Y1534D01*
X10746Y1467D01*
X10679Y1367D01*
X10656Y1250D01*
X10671Y1174D01*
X10667Y1177D01*
X10566Y1219D01*
X10457Y1220D01*
X10356Y1178D01*
X10279Y1100D01*
X10237Y999D01*
X10236Y890D01*
X10278Y789D01*
X10356Y712D01*
X10457Y670D01*
X10566Y669D01*
X10664Y710D01*
X10679Y632D01*
X10746Y532D01*
X10795Y500D01*
X10746Y467D01*
X10679Y367D01*
X10656Y250D01*
X10679Y132D01*
X10746Y32D01*
X10795Y0D01*
X10746Y-32D01*
X10679Y-132D01*
X10656Y-250D01*
X10659Y-263D01*
X10585Y-233D01*
X10476Y-232D01*
X10375Y-274D01*
X10298Y-352D01*
X10256Y-453D01*
X10255Y-562D01*
X10297Y-663D01*
X10375Y-740D01*
X10476Y-782D01*
X10585Y-783D01*
X10657Y-753D01*
X10679Y-867D01*
X10746Y-967D01*
X10795Y-1000D01*
X10746Y-1032D01*
X10679Y-1132D01*
X10656Y-1250D01*
X10679Y-1367D01*
X10746Y-1467D01*
X10795Y-1500D01*
X10746Y-1532D01*
X10679Y-1632D01*
X10656Y-1750D01*
X10679Y-1867D01*
X10746Y-1967D01*
X10795Y-2000D01*
X10746Y-2032D01*
X10679Y-2132D01*
X10656Y-2250D01*
X10679Y-2367D01*
X10746Y-2467D01*
X10846Y-2534D01*
X10963Y-2557D01*
X11136Y-2557D01*
X11253Y-2534D01*
X11285Y-2512D01*
X11306Y-2534D01*
X11362Y-2557D01*
X11421Y-2557D01*
X11893Y-2557D01*
X11948Y-2534D01*
X11991Y-2492D01*
X12013Y-2437D01*
X12014Y-2377D01*
X12014Y-2062D01*
X11991Y-2007D01*
X11949Y-1965D01*
X11936Y-1960D01*
X11998Y-1867D01*
X12021Y-1750D01*
X11998Y-1632D01*
X11931Y-1532D01*
X11882Y-1500D01*
X11931Y-1467D01*
X11998Y-1367D01*
X12021Y-1250D01*
X11998Y-1132D01*
X11931Y-1032D01*
X11882Y-1000D01*
X11931Y-967D01*
X11998Y-867D01*
X12021Y-750D01*
X11998Y-632D01*
X11931Y-532D01*
X11831Y-465D01*
X11714Y-442D01*
X11541Y-442D01*
X11424Y-465D01*
X11339Y-522D01*
X11304Y-500D01*
X11353Y-467D01*
X11420Y-367D01*
X11443Y-250D01*
X11420Y-132D01*
X11353Y-32D01*
X11304Y0D01*
X11339Y22D01*
X11424Y-34D01*
X11541Y-57D01*
X11714Y-57D01*
X11831Y-34D01*
X11931Y32D01*
X11998Y132D01*
X12021Y250D01*
X11998Y367D01*
X11931Y467D01*
X11882Y500D01*
X11931Y532D01*
X11998Y632D01*
X12013Y710D01*
X12110Y670D01*
X12219Y669D01*
X12320Y711D01*
X12397Y789D01*
X12439Y890D01*
X12440Y999D01*
X12440Y-715D01*
X12413Y-742D01*
X12371Y-843D01*
X12370Y-952D01*
X12412Y-1053D01*
X12490Y-1130D01*
X12591Y-1172D01*
X12700Y-1173D01*
X12801Y-1131D01*
X12878Y-1053D01*
X12920Y-952D01*
X12921Y-843D01*
X12921Y-3021D01*
X12656Y-3021D01*
X12470Y-3207D01*
X12470Y-3287D01*
X12342Y-3415D01*
X10757Y-3415D01*
X10508Y-3311D01*
X10232Y-3035D01*
X10129Y-2786D01*
X10129Y1712D01*
X10256Y1840D01*
X11845Y1840D01*
X11887Y1798D01*
X11988Y1756D01*
X12097Y1755D01*
X12198Y1797D01*
X12240Y1840D01*
X12331Y1840D01*
X12330Y1748D01*
X12372Y1647D01*
X12450Y1570D01*
X12551Y1528D01*
X12660Y1527D01*
X12761Y1569D01*
X12838Y1647D01*
X12880Y1748D01*
X12881Y1840D01*
X13423Y1840D01*
X13369Y1785D01*
X13327Y1684D01*
X13326Y1575D01*
X13368Y1474D01*
X13446Y1397D01*
X13547Y1355D01*
X13656Y1354D01*
X13757Y1396D01*
X13834Y1474D01*
X13876Y1575D01*
X13877Y1684D01*
X13835Y1785D01*
X13780Y1840D01*
X15098Y1840D01*
X15226Y1712D01*
X15226Y1459D01*
X15122Y1460D01*
X15021Y1418D01*
X15013Y1410D01*
X14912Y1451D01*
X14803Y1452D01*
X14702Y1410D01*
X14625Y1332D01*
X14583Y1231D01*
X14583Y1194D01*
X14505Y1162D01*
X14428Y1084D01*
X14386Y983D01*
X14385Y874D01*
X14427Y773D01*
X14505Y696D01*
X14606Y654D01*
X14715Y653D01*
X14816Y695D01*
X14893Y773D01*
X14935Y874D01*
X14935Y911D01*
X15013Y943D01*
X15021Y951D01*
X15122Y910D01*
X15231Y909D01*
X15237Y912D01*
X15412Y737D01*
X15681Y737D01*
X15681Y733D01*
X15723Y632D01*
X15801Y555D01*
X15902Y513D01*
X15955Y513D01*
X15893Y487D01*
X15816Y409D01*
X15774Y308D01*
X15773Y199D01*
X15815Y98D01*
X15891Y22D01*
X15886Y7D01*
X15885Y-55D01*
X15795Y-17D01*
X15795Y30D01*
X15753Y131D01*
X15675Y208D01*
X15574Y250D01*
X15465Y251D01*
X15364Y209D01*
X15287Y131D01*
X15245Y30D01*
X15244Y-78D01*
X15277Y-157D01*
X15268Y-160D01*
X15191Y-238D01*
X15149Y-339D01*
X15148Y-448D01*
X15190Y-549D01*
X15268Y-626D01*
X15369Y-668D01*
X15478Y-669D01*
X15579Y-627D01*
X15652Y-554D01*
X15683Y-566D01*
X15792Y-567D01*
X15893Y-525D01*
X15970Y-447D01*
X16012Y-346D01*
X16013Y-283D01*
X16106Y-321D01*
X16215Y-322D01*
X16316Y-280D01*
X16393Y-202D01*
X16435Y-101D01*
X16436Y7D01*
X16394Y108D01*
X16318Y184D01*
X16323Y199D01*
X16324Y304D01*
X16354Y292D01*
X16463Y291D01*
X16486Y301D01*
X16486Y301D01*
X16522Y265D01*
X16493Y195D01*
X16492Y86D01*
X16534Y-14D01*
X16612Y-91D01*
X16713Y-133D01*
X16822Y-134D01*
X16923Y-92D01*
X17000Y-14D01*
X17042Y86D01*
X17043Y195D01*
X17001Y296D01*
X16965Y332D01*
X16994Y402D01*
X16995Y511D01*
X16953Y612D01*
X16875Y689D01*
X16774Y731D01*
X16665Y732D01*
X16642Y722D01*
X16642Y722D01*
X16627Y737D01*
X18045Y737D01*
X18004Y637D01*
X18003Y528D01*
X18045Y427D01*
X18123Y350D01*
X18224Y308D01*
X18333Y307D01*
X18336Y309D01*
X18336Y293D01*
X18433Y195D01*
X18433Y158D01*
X18475Y57D01*
X18553Y-19D01*
X18651Y-60D01*
X18651Y-454D01*
X18837Y-641D01*
X19271Y-641D01*
X19399Y-768D01*
X19399Y-5491D01*
X19399Y-5491D01*
G37*
G54D23*
X19399Y-5491D02*
X19271Y-5619D01*
X19236Y-5619D01*
X19236Y-4697D01*
X19194Y-4596D01*
X19116Y-4519D01*
X19015Y-4477D01*
X18906Y-4476D01*
X18805Y-4518D01*
X18728Y-4596D01*
X18686Y-4697D01*
X18685Y-4806D01*
X18727Y-4907D01*
X18805Y-4984D01*
X18906Y-5026D01*
X19015Y-5027D01*
X19116Y-4985D01*
X19193Y-4907D01*
X19235Y-4806D01*
X19236Y-4697D01*
X19236Y-5619D01*
X18675Y-5619D01*
X18675Y-4921D01*
X18675Y-3740D01*
X18675Y-2559D01*
X18675Y-1378D01*
X18649Y-1245D01*
X18574Y-1132D01*
X18461Y-1057D01*
X18328Y-1031D01*
X18155Y-1031D01*
X18022Y-1057D01*
X17977Y-1087D01*
X17944Y-1053D01*
X17889Y-1031D01*
X17829Y-1030D01*
X17401Y-1030D01*
X17401Y-693D01*
X17359Y-592D01*
X17281Y-515D01*
X17180Y-473D01*
X17071Y-472D01*
X16970Y-514D01*
X16893Y-592D01*
X16851Y-693D01*
X16850Y-802D01*
X16892Y-903D01*
X16970Y-980D01*
X17071Y-1022D01*
X17180Y-1023D01*
X17281Y-981D01*
X17358Y-903D01*
X17400Y-802D01*
X17401Y-693D01*
X17401Y-1030D01*
X17278Y-1030D01*
X17223Y-1053D01*
X17181Y-1095D01*
X17158Y-1151D01*
X17158Y-1210D01*
X17158Y-1604D01*
X17181Y-1659D01*
X17223Y-1702D01*
X17278Y-1724D01*
X17338Y-1725D01*
X17889Y-1725D01*
X17944Y-1702D01*
X17977Y-1668D01*
X18022Y-1698D01*
X18155Y-1725D01*
X18328Y-1725D01*
X18461Y-1698D01*
X18574Y-1623D01*
X18649Y-1510D01*
X18675Y-1378D01*
X18675Y-2559D01*
X18649Y-2426D01*
X18574Y-2313D01*
X18461Y-2238D01*
X18328Y-2212D01*
X18155Y-2212D01*
X18022Y-2238D01*
X17977Y-2268D01*
X17944Y-2234D01*
X17889Y-2212D01*
X17829Y-2211D01*
X17278Y-2211D01*
X17223Y-2234D01*
X17181Y-2276D01*
X17158Y-2332D01*
X17158Y-2391D01*
X17158Y-2785D01*
X17181Y-2840D01*
X17223Y-2883D01*
X17278Y-2905D01*
X17338Y-2906D01*
X17889Y-2906D01*
X17944Y-2883D01*
X17977Y-2849D01*
X18022Y-2879D01*
X18155Y-2906D01*
X18328Y-2906D01*
X18461Y-2879D01*
X18574Y-2804D01*
X18649Y-2691D01*
X18675Y-2559D01*
X18675Y-3740D01*
X18649Y-3607D01*
X18574Y-3494D01*
X18461Y-3419D01*
X18328Y-3393D01*
X18155Y-3393D01*
X18022Y-3419D01*
X17977Y-3449D01*
X17944Y-3415D01*
X17889Y-3393D01*
X17829Y-3392D01*
X17278Y-3392D01*
X17223Y-3415D01*
X17181Y-3457D01*
X17158Y-3513D01*
X17158Y-3572D01*
X17158Y-3966D01*
X17181Y-4021D01*
X17223Y-4064D01*
X17278Y-4086D01*
X17338Y-4087D01*
X17889Y-4087D01*
X17944Y-4064D01*
X17977Y-4030D01*
X18022Y-4060D01*
X18155Y-4087D01*
X18328Y-4087D01*
X18461Y-4060D01*
X18574Y-3985D01*
X18649Y-3872D01*
X18675Y-3740D01*
X18675Y-4921D01*
X18649Y-4788D01*
X18574Y-4675D01*
X18461Y-4600D01*
X18328Y-4574D01*
X18155Y-4574D01*
X18022Y-4600D01*
X17977Y-4630D01*
X17944Y-4596D01*
X17889Y-4574D01*
X17829Y-4573D01*
X17278Y-4573D01*
X17223Y-4596D01*
X17181Y-4638D01*
X17158Y-4694D01*
X17158Y-4753D01*
X17158Y-5147D01*
X17181Y-5202D01*
X17223Y-5245D01*
X17278Y-5267D01*
X17338Y-5268D01*
X17889Y-5268D01*
X17944Y-5245D01*
X17977Y-5211D01*
X18022Y-5241D01*
X18155Y-5268D01*
X18328Y-5268D01*
X18461Y-5241D01*
X18574Y-5166D01*
X18649Y-5053D01*
X18675Y-4921D01*
X18675Y-5619D01*
X16684Y-5619D01*
X16684Y-5008D01*
X16642Y-4907D01*
X16564Y-4830D01*
X16463Y-4788D01*
X16440Y-4788D01*
X16440Y-4118D01*
X16398Y-4017D01*
X16352Y-3971D01*
X16376Y-3912D01*
X16377Y-3803D01*
X16335Y-3702D01*
X16314Y-3681D01*
X16374Y-3620D01*
X16416Y-3519D01*
X16417Y-3410D01*
X16375Y-3309D01*
X16313Y-3247D01*
X16374Y-3186D01*
X16416Y-3085D01*
X16417Y-2976D01*
X16375Y-2875D01*
X16297Y-2798D01*
X16196Y-2756D01*
X16087Y-2755D01*
X16074Y-2761D01*
X16109Y-2676D01*
X16110Y-2581D01*
X16171Y-2556D01*
X16248Y-2478D01*
X16290Y-2377D01*
X16291Y-2268D01*
X16249Y-2167D01*
X16171Y-2090D01*
X16070Y-2048D01*
X15961Y-2047D01*
X15860Y-2089D01*
X15783Y-2167D01*
X15741Y-2268D01*
X15740Y-2363D01*
X15679Y-2388D01*
X15636Y-2431D01*
X15636Y-2332D01*
X15636Y-1938D01*
X15613Y-1883D01*
X15571Y-1840D01*
X15516Y-1818D01*
X15456Y-1817D01*
X14905Y-1817D01*
X14850Y-1840D01*
X14808Y-1882D01*
X14785Y-1938D01*
X14785Y-1997D01*
X14785Y-2391D01*
X14808Y-2446D01*
X14850Y-2489D01*
X14905Y-2511D01*
X14965Y-2512D01*
X15516Y-2512D01*
X15571Y-2489D01*
X15613Y-2447D01*
X15636Y-2391D01*
X15636Y-2332D01*
X15636Y-2431D01*
X15602Y-2466D01*
X15560Y-2567D01*
X15559Y-2676D01*
X15601Y-2777D01*
X15679Y-2854D01*
X15780Y-2896D01*
X15889Y-2897D01*
X15902Y-2891D01*
X15867Y-2976D01*
X15866Y-3085D01*
X15908Y-3186D01*
X15970Y-3248D01*
X15909Y-3309D01*
X15867Y-3410D01*
X15866Y-3519D01*
X15908Y-3620D01*
X15929Y-3641D01*
X15869Y-3702D01*
X15827Y-3803D01*
X15826Y-3912D01*
X15868Y-4013D01*
X15914Y-4059D01*
X15899Y-4094D01*
X15850Y-4094D01*
X15749Y-4136D01*
X15672Y-4214D01*
X15630Y-4315D01*
X15629Y-4424D01*
X15671Y-4525D01*
X15749Y-4602D01*
X15850Y-4644D01*
X15959Y-4645D01*
X16060Y-4603D01*
X16137Y-4525D01*
X16170Y-4448D01*
X16219Y-4448D01*
X16320Y-4406D01*
X16397Y-4328D01*
X16439Y-4227D01*
X16440Y-4118D01*
X16440Y-4788D01*
X16354Y-4787D01*
X16253Y-4829D01*
X16176Y-4907D01*
X16134Y-5008D01*
X16133Y-5117D01*
X16175Y-5218D01*
X16253Y-5295D01*
X16354Y-5337D01*
X16463Y-5338D01*
X16564Y-5296D01*
X16641Y-5218D01*
X16683Y-5117D01*
X16684Y-5008D01*
X16684Y-5619D01*
X14716Y-5619D01*
X14716Y-835D01*
X14674Y-734D01*
X14596Y-657D01*
X14495Y-615D01*
X14386Y-614D01*
X14285Y-656D01*
X14208Y-734D01*
X14166Y-835D01*
X14165Y-944D01*
X14207Y-1045D01*
X14285Y-1122D01*
X14386Y-1164D01*
X14495Y-1165D01*
X14596Y-1123D01*
X14673Y-1045D01*
X14715Y-944D01*
X14716Y-835D01*
X14716Y-5619D01*
X14607Y-5619D01*
X14637Y-5588D01*
X14679Y-5487D01*
X14680Y-5378D01*
X14638Y-5277D01*
X14560Y-5200D01*
X14459Y-5158D01*
X14350Y-5157D01*
X14249Y-5199D01*
X14172Y-5277D01*
X14130Y-5378D01*
X14129Y-5487D01*
X14171Y-5588D01*
X14202Y-5619D01*
X13001Y-5619D01*
X12744Y-5520D01*
X12205Y-5035D01*
X12106Y-4814D01*
X12224Y-4696D01*
X13721Y-4696D01*
X13908Y-4509D01*
X13908Y-3207D01*
X13725Y-3024D01*
X13725Y-160D01*
X13683Y-59D01*
X13605Y17D01*
X13504Y59D01*
X13395Y60D01*
X13294Y18D01*
X13217Y-59D01*
X13175Y-160D01*
X13174Y-269D01*
X13216Y-370D01*
X13294Y-447D01*
X13395Y-489D01*
X13504Y-490D01*
X13605Y-448D01*
X13682Y-370D01*
X13724Y-269D01*
X13725Y-160D01*
X13725Y-3024D01*
X13721Y-3021D01*
X12921Y-3021D01*
X12921Y-843D01*
X12879Y-742D01*
X12801Y-665D01*
X12700Y-623D01*
X12591Y-622D01*
X12490Y-664D01*
X12440Y-715D01*
X12440Y999D01*
X12398Y1100D01*
X12320Y1177D01*
X12219Y1219D01*
X12110Y1220D01*
X12009Y1178D01*
X12006Y1175D01*
X12021Y1250D01*
X11998Y1367D01*
X11931Y1467D01*
X11831Y1534D01*
X11714Y1557D01*
X11541Y1557D01*
X11424Y1534D01*
X11339Y1477D01*
X11253Y1534D01*
X11136Y1557D01*
X10963Y1557D01*
X10846Y1534D01*
X10746Y1467D01*
X10679Y1367D01*
X10656Y1250D01*
X10671Y1174D01*
X10667Y1177D01*
X10566Y1219D01*
X10457Y1220D01*
X10356Y1178D01*
X10279Y1100D01*
X10237Y999D01*
X10236Y890D01*
X10278Y789D01*
X10356Y712D01*
X10457Y670D01*
X10566Y669D01*
X10664Y710D01*
X10679Y632D01*
X10746Y532D01*
X10795Y500D01*
X10746Y467D01*
X10679Y367D01*
X10656Y250D01*
X10679Y132D01*
X10746Y32D01*
X10795Y0D01*
X10746Y-32D01*
X10679Y-132D01*
X10656Y-250D01*
X10659Y-263D01*
X10585Y-233D01*
X10476Y-232D01*
X10375Y-274D01*
X10298Y-352D01*
X10256Y-453D01*
X10255Y-562D01*
X10297Y-663D01*
X10375Y-740D01*
X10476Y-782D01*
X10585Y-783D01*
X10657Y-753D01*
X10679Y-867D01*
X10746Y-967D01*
X10795Y-1000D01*
X10746Y-1032D01*
X10679Y-1132D01*
X10656Y-1250D01*
X10679Y-1367D01*
X10746Y-1467D01*
X10795Y-1500D01*
X10746Y-1532D01*
X10679Y-1632D01*
X10656Y-1750D01*
X10679Y-1867D01*
X10746Y-1967D01*
X10795Y-2000D01*
X10746Y-2032D01*
X10679Y-2132D01*
X10656Y-2250D01*
X10679Y-2367D01*
X10746Y-2467D01*
X10846Y-2534D01*
X10963Y-2557D01*
X11136Y-2557D01*
X11253Y-2534D01*
X11285Y-2512D01*
X11306Y-2534D01*
X11362Y-2557D01*
X11421Y-2557D01*
X11893Y-2557D01*
X11948Y-2534D01*
X11991Y-2492D01*
X12013Y-2437D01*
X12014Y-2377D01*
X12014Y-2062D01*
X11991Y-2007D01*
X11949Y-1965D01*
X11936Y-1960D01*
X11998Y-1867D01*
X12021Y-1750D01*
X11998Y-1632D01*
X11931Y-1532D01*
X11882Y-1500D01*
X11931Y-1467D01*
X11998Y-1367D01*
X12021Y-1250D01*
X11998Y-1132D01*
X11931Y-1032D01*
X11882Y-1000D01*
X11931Y-967D01*
X11998Y-867D01*
X12021Y-750D01*
X11998Y-632D01*
X11931Y-532D01*
X11831Y-465D01*
X11714Y-442D01*
X11541Y-442D01*
X11424Y-465D01*
X11339Y-522D01*
X11304Y-500D01*
X11353Y-467D01*
X11420Y-367D01*
X11443Y-250D01*
X11420Y-132D01*
X11353Y-32D01*
X11304Y0D01*
X11339Y22D01*
X11424Y-34D01*
X11541Y-57D01*
X11714Y-57D01*
X11831Y-34D01*
X11931Y32D01*
X11998Y132D01*
X12021Y250D01*
X11998Y367D01*
X11931Y467D01*
X11882Y500D01*
X11931Y532D01*
X11998Y632D01*
X12013Y710D01*
X12110Y670D01*
X12219Y669D01*
X12320Y711D01*
X12397Y789D01*
X12439Y890D01*
X12440Y999D01*
X12440Y-715D01*
X12413Y-742D01*
X12371Y-843D01*
X12370Y-952D01*
X12412Y-1053D01*
X12490Y-1130D01*
X12591Y-1172D01*
X12700Y-1173D01*
X12801Y-1131D01*
X12878Y-1053D01*
X12920Y-952D01*
X12921Y-843D01*
X12921Y-3021D01*
X12656Y-3021D01*
X12470Y-3207D01*
X12470Y-3287D01*
X12342Y-3415D01*
X10757Y-3415D01*
X10508Y-3311D01*
X10232Y-3035D01*
X10129Y-2786D01*
X10129Y1712D01*
X10256Y1840D01*
X11845Y1840D01*
X11887Y1798D01*
X11988Y1756D01*
X12097Y1755D01*
X12198Y1797D01*
X12240Y1840D01*
X12331Y1840D01*
X12330Y1748D01*
X12372Y1647D01*
X12450Y1570D01*
X12551Y1528D01*
X12660Y1527D01*
X12761Y1569D01*
X12838Y1647D01*
X12880Y1748D01*
X12881Y1840D01*
X13423Y1840D01*
X13369Y1785D01*
X13327Y1684D01*
X13326Y1575D01*
X13368Y1474D01*
X13446Y1397D01*
X13547Y1355D01*
X13656Y1354D01*
X13757Y1396D01*
X13834Y1474D01*
X13876Y1575D01*
X13877Y1684D01*
X13835Y1785D01*
X13780Y1840D01*
X15098Y1840D01*
X15226Y1712D01*
X15226Y1459D01*
X15122Y1460D01*
X15021Y1418D01*
X15013Y1410D01*
X14912Y1451D01*
X14803Y1452D01*
X14702Y1410D01*
X14625Y1332D01*
X14583Y1231D01*
X14583Y1194D01*
X14505Y1162D01*
X14428Y1084D01*
X14386Y983D01*
X14385Y874D01*
X14427Y773D01*
X14505Y696D01*
X14606Y654D01*
X14715Y653D01*
X14816Y695D01*
X14893Y773D01*
X14935Y874D01*
X14935Y911D01*
X15013Y943D01*
X15021Y951D01*
X15122Y910D01*
X15231Y909D01*
X15237Y912D01*
X15412Y737D01*
X15681Y737D01*
X15681Y733D01*
X15723Y632D01*
X15801Y555D01*
X15902Y513D01*
X15955Y513D01*
X15893Y487D01*
X15816Y409D01*
X15774Y308D01*
X15773Y199D01*
X15815Y98D01*
X15891Y22D01*
X15886Y7D01*
X15885Y-55D01*
X15795Y-17D01*
X15795Y30D01*
X15753Y131D01*
X15675Y208D01*
X15574Y250D01*
X15465Y251D01*
X15364Y209D01*
X15287Y131D01*
X15245Y30D01*
X15244Y-78D01*
X15277Y-157D01*
X15268Y-160D01*
X15191Y-238D01*
X15149Y-339D01*
X15148Y-448D01*
X15190Y-549D01*
X15268Y-626D01*
X15369Y-668D01*
X15478Y-669D01*
X15579Y-627D01*
X15652Y-554D01*
X15683Y-566D01*
X15792Y-567D01*
X15893Y-525D01*
X15970Y-447D01*
X16012Y-346D01*
X16013Y-283D01*
X16106Y-321D01*
X16215Y-322D01*
X16316Y-280D01*
X16393Y-202D01*
X16435Y-101D01*
X16436Y7D01*
X16394Y108D01*
X16318Y184D01*
X16323Y199D01*
X16324Y304D01*
X16354Y292D01*
X16463Y291D01*
X16486Y301D01*
X16486Y301D01*
X16522Y265D01*
X16493Y195D01*
X16492Y86D01*
X16534Y-14D01*
X16612Y-91D01*
X16713Y-133D01*
X16822Y-134D01*
X16923Y-92D01*
X17000Y-14D01*
X17042Y86D01*
X17043Y195D01*
X17001Y296D01*
X16965Y332D01*
X16994Y402D01*
X16995Y511D01*
X16953Y612D01*
X16875Y689D01*
X16774Y731D01*
X16665Y732D01*
X16642Y722D01*
X16642Y722D01*
X16627Y737D01*
X18045Y737D01*
X18004Y637D01*
X18003Y528D01*
X18045Y427D01*
X18123Y350D01*
X18224Y308D01*
X18333Y307D01*
X18336Y309D01*
X18336Y293D01*
X18433Y195D01*
X18433Y158D01*
X18475Y57D01*
X18553Y-19D01*
X18651Y-60D01*
X18651Y-454D01*
X18837Y-641D01*
X19271Y-641D01*
X19399Y-768D01*
X19399Y-5491D01*
G54D10*
G36*
X22337Y-5760D02*
X22284Y-5991D01*
X21739Y-6536D01*
X21574Y-6576D01*
X21574Y-4236D01*
X21532Y-4135D01*
X21491Y-4094D01*
X21531Y-4053D01*
X21573Y-3952D01*
X21574Y-3843D01*
X21532Y-3742D01*
X21454Y-3665D01*
X21353Y-3623D01*
X21244Y-3622D01*
X21143Y-3664D01*
X21134Y-3674D01*
X21134Y404D01*
X21134Y1034D01*
X21111Y1089D01*
X21069Y1132D01*
X21013Y1154D01*
X20954Y1155D01*
X20482Y1155D01*
X20427Y1132D01*
X20384Y1090D01*
X20362Y1034D01*
X20361Y975D01*
X20361Y345D01*
X20384Y290D01*
X20426Y247D01*
X20482Y225D01*
X20541Y224D01*
X21013Y224D01*
X21068Y247D01*
X21111Y289D01*
X21133Y345D01*
X21134Y404D01*
X21134Y-3674D01*
X21066Y-3742D01*
X21047Y-3787D01*
X21047Y-2642D01*
X21005Y-2541D01*
X20927Y-2464D01*
X20826Y-2422D01*
X20717Y-2421D01*
X20616Y-2463D01*
X20539Y-2541D01*
X20497Y-2642D01*
X20496Y-2751D01*
X20538Y-2852D01*
X20616Y-2929D01*
X20717Y-2971D01*
X20826Y-2972D01*
X20927Y-2930D01*
X21004Y-2852D01*
X21046Y-2751D01*
X21047Y-2642D01*
X21047Y-3787D01*
X21024Y-3843D01*
X21023Y-3952D01*
X21065Y-4053D01*
X21106Y-4094D01*
X21066Y-4135D01*
X21024Y-4236D01*
X21023Y-4345D01*
X21065Y-4446D01*
X21143Y-4523D01*
X21244Y-4565D01*
X21353Y-4566D01*
X21454Y-4524D01*
X21531Y-4446D01*
X21573Y-4345D01*
X21574Y-4236D01*
X21574Y-6576D01*
X21506Y-6593D01*
X21169Y-6485D01*
X21169Y-5063D01*
X21127Y-4962D01*
X21049Y-4885D01*
X20948Y-4843D01*
X20839Y-4842D01*
X20738Y-4884D01*
X20661Y-4962D01*
X20619Y-5063D01*
X20618Y-5172D01*
X20660Y-5273D01*
X20738Y-5350D01*
X20839Y-5392D01*
X20948Y-5393D01*
X21049Y-5351D01*
X21126Y-5273D01*
X21168Y-5172D01*
X21169Y-5063D01*
X21169Y-6485D01*
X19992Y-6108D01*
X19992Y1601D01*
X19950Y1702D01*
X19872Y1779D01*
X19771Y1821D01*
X19662Y1822D01*
X19561Y1780D01*
X19484Y1702D01*
X19442Y1601D01*
X19441Y1492D01*
X19483Y1391D01*
X19561Y1314D01*
X19662Y1272D01*
X19771Y1271D01*
X19872Y1313D01*
X19949Y1391D01*
X19991Y1492D01*
X19992Y1601D01*
X19992Y-6108D01*
X19865Y-6068D01*
X19735Y-5889D01*
X19735Y-530D01*
X19548Y-344D01*
X19504Y-344D01*
X19526Y-290D01*
X19527Y-181D01*
X19485Y-80D01*
X19407Y-3D01*
X19306Y38D01*
X19197Y39D01*
X19096Y-2D01*
X19026Y-73D01*
X19026Y237D01*
X18975Y287D01*
X18942Y368D01*
X18864Y445D01*
X18783Y479D01*
X18751Y512D01*
X18751Y1448D01*
X18787Y1433D01*
X18896Y1432D01*
X18997Y1474D01*
X19074Y1552D01*
X19116Y1653D01*
X19117Y1762D01*
X19075Y1863D01*
X18997Y1940D01*
X18896Y1982D01*
X18813Y1983D01*
X18851Y2076D01*
X18852Y2185D01*
X18810Y2286D01*
X18757Y2338D01*
X18794Y2338D01*
X18892Y2379D01*
X18942Y2330D01*
X19043Y2288D01*
X19152Y2287D01*
X19253Y2329D01*
X19330Y2407D01*
X19372Y2508D01*
X19373Y2617D01*
X19331Y2718D01*
X19253Y2795D01*
X19152Y2837D01*
X19043Y2838D01*
X18945Y2797D01*
X18895Y2846D01*
X18816Y2879D01*
X18878Y2942D01*
X21239Y2942D01*
X21367Y2814D01*
X21367Y483D01*
X21342Y458D01*
X21300Y357D01*
X21299Y248D01*
X21341Y147D01*
X21367Y122D01*
X21367Y101D01*
X21342Y76D01*
X21300Y-24D01*
X21299Y-133D01*
X21341Y-234D01*
X21367Y-259D01*
X21367Y-2808D01*
X21419Y-3121D01*
X22337Y-5760D01*
X22337Y-5760D01*
G37*
G54D23*
X22337Y-5760D02*
X22284Y-5991D01*
X21739Y-6536D01*
X21574Y-6576D01*
X21574Y-4236D01*
X21532Y-4135D01*
X21491Y-4094D01*
X21531Y-4053D01*
X21573Y-3952D01*
X21574Y-3843D01*
X21532Y-3742D01*
X21454Y-3665D01*
X21353Y-3623D01*
X21244Y-3622D01*
X21143Y-3664D01*
X21134Y-3674D01*
X21134Y404D01*
X21134Y1034D01*
X21111Y1089D01*
X21069Y1132D01*
X21013Y1154D01*
X20954Y1155D01*
X20482Y1155D01*
X20427Y1132D01*
X20384Y1090D01*
X20362Y1034D01*
X20361Y975D01*
X20361Y345D01*
X20384Y290D01*
X20426Y247D01*
X20482Y225D01*
X20541Y224D01*
X21013Y224D01*
X21068Y247D01*
X21111Y289D01*
X21133Y345D01*
X21134Y404D01*
X21134Y-3674D01*
X21066Y-3742D01*
X21047Y-3787D01*
X21047Y-2642D01*
X21005Y-2541D01*
X20927Y-2464D01*
X20826Y-2422D01*
X20717Y-2421D01*
X20616Y-2463D01*
X20539Y-2541D01*
X20497Y-2642D01*
X20496Y-2751D01*
X20538Y-2852D01*
X20616Y-2929D01*
X20717Y-2971D01*
X20826Y-2972D01*
X20927Y-2930D01*
X21004Y-2852D01*
X21046Y-2751D01*
X21047Y-2642D01*
X21047Y-3787D01*
X21024Y-3843D01*
X21023Y-3952D01*
X21065Y-4053D01*
X21106Y-4094D01*
X21066Y-4135D01*
X21024Y-4236D01*
X21023Y-4345D01*
X21065Y-4446D01*
X21143Y-4523D01*
X21244Y-4565D01*
X21353Y-4566D01*
X21454Y-4524D01*
X21531Y-4446D01*
X21573Y-4345D01*
X21574Y-4236D01*
X21574Y-6576D01*
X21506Y-6593D01*
X21169Y-6485D01*
X21169Y-5063D01*
X21127Y-4962D01*
X21049Y-4885D01*
X20948Y-4843D01*
X20839Y-4842D01*
X20738Y-4884D01*
X20661Y-4962D01*
X20619Y-5063D01*
X20618Y-5172D01*
X20660Y-5273D01*
X20738Y-5350D01*
X20839Y-5392D01*
X20948Y-5393D01*
X21049Y-5351D01*
X21126Y-5273D01*
X21168Y-5172D01*
X21169Y-5063D01*
X21169Y-6485D01*
X19992Y-6108D01*
X19992Y1601D01*
X19950Y1702D01*
X19872Y1779D01*
X19771Y1821D01*
X19662Y1822D01*
X19561Y1780D01*
X19484Y1702D01*
X19442Y1601D01*
X19441Y1492D01*
X19483Y1391D01*
X19561Y1314D01*
X19662Y1272D01*
X19771Y1271D01*
X19872Y1313D01*
X19949Y1391D01*
X19991Y1492D01*
X19992Y1601D01*
X19992Y-6108D01*
X19865Y-6068D01*
X19735Y-5889D01*
X19735Y-530D01*
X19548Y-344D01*
X19504Y-344D01*
X19526Y-290D01*
X19527Y-181D01*
X19485Y-80D01*
X19407Y-3D01*
X19306Y38D01*
X19197Y39D01*
X19096Y-2D01*
X19026Y-73D01*
X19026Y237D01*
X18975Y287D01*
X18942Y368D01*
X18864Y445D01*
X18783Y479D01*
X18751Y512D01*
X18751Y1448D01*
X18787Y1433D01*
X18896Y1432D01*
X18997Y1474D01*
X19074Y1552D01*
X19116Y1653D01*
X19117Y1762D01*
X19075Y1863D01*
X18997Y1940D01*
X18896Y1982D01*
X18813Y1983D01*
X18851Y2076D01*
X18852Y2185D01*
X18810Y2286D01*
X18757Y2338D01*
X18794Y2338D01*
X18892Y2379D01*
X18942Y2330D01*
X19043Y2288D01*
X19152Y2287D01*
X19253Y2329D01*
X19330Y2407D01*
X19372Y2508D01*
X19373Y2617D01*
X19331Y2718D01*
X19253Y2795D01*
X19152Y2837D01*
X19043Y2838D01*
X18945Y2797D01*
X18895Y2846D01*
X18816Y2879D01*
X18878Y2942D01*
X21239Y2942D01*
X21367Y2814D01*
X21367Y483D01*
X21342Y458D01*
X21300Y357D01*
X21299Y248D01*
X21341Y147D01*
X21367Y122D01*
X21367Y101D01*
X21342Y76D01*
X21300Y-24D01*
X21299Y-133D01*
X21341Y-234D01*
X21367Y-259D01*
X21367Y-2808D01*
X21419Y-3121D01*
X22337Y-5760D01*
M02*
