G04 (created by PCBNEW (2013-07-07 BZR 4022)-stable) date 07/06/2014 15:45:14*
%MOIN*%
G04 Gerber Fmt 3.4, Leading zero omitted, Abs format*
%FSLAX34Y34*%
G01*
G70*
G90*
G04 APERTURE LIST*
%ADD10C,0.00590551*%
%ADD11C,0.007875*%
%ADD12C,0.0079*%
%ADD13R,0.0394X0.0197*%
%ADD14R,0.045X0.025*%
%ADD15R,0.025X0.045*%
%ADD16O,0.063X0.0472*%
%ADD17R,0.0551X0.0394*%
%ADD18O,0.0551X0.0394*%
%ADD19O,0.0472X0.0315*%
%ADD20R,0.0472X0.0315*%
%ADD21O,0.0315X0.0098*%
%ADD22O,0.0098X0.0315*%
%ADD23R,0.0394X0.0276*%
%ADD24R,0.036X0.036*%
%ADD25R,0.0669X0.0669*%
%ADD26C,0.015*%
%ADD27R,0.0138X0.0335*%
%ADD28R,0.0335X0.0138*%
%ADD29R,0.0118X0.025*%
%ADD30R,0.025X0.0118*%
%ADD31R,0.0157X0.0236*%
%ADD32R,0.0236X0.0157*%
%ADD33R,0.0472X0.063*%
%ADD34O,0.0472X0.063*%
%ADD35C,0.025*%
%ADD36C,0.008*%
%ADD37C,0.012*%
%ADD38C,0.01*%
%ADD39C,0.006*%
%ADD40C,0.015*%
%ADD41C,0.007*%
G04 APERTURE END LIST*
G54D10*
G54D11*
X15875Y6389D02*
X15875Y6209D01*
X15875Y6299D02*
X15560Y6299D01*
X15605Y6269D01*
X15635Y6239D01*
X15650Y6209D01*
G54D12*
G54D10*
G36*
X9027Y-6063D02*
X9305Y-5785D01*
X10001Y-6481D01*
X9723Y-6759D01*
X9027Y-6063D01*
X9027Y-6063D01*
G37*
G36*
X10864Y-4226D02*
X11142Y-3948D01*
X11838Y-4644D01*
X11560Y-4922D01*
X10864Y-4226D01*
X10864Y-4226D01*
G37*
G54D13*
X11634Y4714D03*
X11634Y4222D03*
X11634Y3730D03*
X11634Y3238D03*
X12618Y3238D03*
X12618Y3730D03*
X12622Y4222D03*
X12618Y4714D03*
G54D14*
X13307Y3804D03*
X13307Y3204D03*
X18031Y4031D03*
X18031Y4631D03*
G54D15*
X19237Y5079D03*
X18637Y5079D03*
G54D14*
X20236Y4424D03*
X20236Y5024D03*
G54D15*
X17653Y2126D03*
X18253Y2126D03*
X17259Y1142D03*
X17859Y1142D03*
G54D16*
X20827Y-1732D03*
G54D17*
X10802Y4056D03*
G54D18*
X10144Y4056D03*
G54D14*
X18268Y-694D03*
X18268Y-94D03*
G54D17*
X17584Y-2559D03*
G54D18*
X18242Y-2559D03*
G54D17*
X15211Y-2165D03*
G54D18*
X14553Y-2165D03*
G54D17*
X17584Y-4921D03*
G54D18*
X18242Y-4921D03*
G54D17*
X17584Y-1378D03*
G54D18*
X18242Y-1378D03*
G54D17*
X17584Y-3740D03*
G54D18*
X18242Y-3740D03*
G54D15*
X17859Y551D03*
X17259Y551D03*
G54D19*
X11628Y2250D03*
X11628Y1750D03*
X11050Y2250D03*
X11050Y1750D03*
G54D20*
X11628Y-2250D03*
G54D19*
X11050Y-2250D03*
X11050Y-1750D03*
X11050Y-1250D03*
X11050Y-750D03*
X11050Y-250D03*
X11050Y250D03*
X11050Y750D03*
X11050Y1250D03*
X11628Y-1750D03*
X11628Y-1250D03*
X11628Y-750D03*
X11628Y-250D03*
X11628Y250D03*
X11628Y750D03*
X11628Y1250D03*
G54D10*
G36*
X22241Y5854D02*
X22019Y5632D01*
X21797Y5854D01*
X22019Y6076D01*
X22241Y5854D01*
X22241Y5854D01*
G37*
G36*
X21824Y6271D02*
X21602Y6049D01*
X21380Y6271D01*
X21602Y6493D01*
X21824Y6271D01*
X21824Y6271D01*
G37*
G36*
X9476Y5671D02*
X9254Y5893D01*
X9476Y6115D01*
X9698Y5893D01*
X9476Y5671D01*
X9476Y5671D01*
G37*
G36*
X9893Y6088D02*
X9671Y6310D01*
X9893Y6532D01*
X10115Y6310D01*
X9893Y6088D01*
X9893Y6088D01*
G37*
G54D14*
X13425Y-1078D03*
X13425Y-1678D03*
X14016Y-1078D03*
X14016Y-1678D03*
X19685Y2465D03*
X19685Y1865D03*
G54D21*
X15512Y-4331D03*
X15511Y-4133D03*
X15511Y-3936D03*
X15511Y-3740D03*
X15511Y-3543D03*
G54D22*
X15157Y-3189D03*
X14960Y-3189D03*
X14763Y-3189D03*
X14566Y-3189D03*
X14370Y-3189D03*
G54D21*
X14016Y-3543D03*
X14016Y-3740D03*
X14016Y-3938D03*
X14016Y-4134D03*
X14016Y-4332D03*
G54D22*
X14370Y-4685D03*
X14567Y-4685D03*
X14764Y-4685D03*
X14961Y-4685D03*
X15158Y-4685D03*
G54D14*
X20276Y-1284D03*
X20276Y-684D03*
X20276Y-2662D03*
X20276Y-2062D03*
X20276Y-4040D03*
X20276Y-3440D03*
X20276Y-5418D03*
X20276Y-4818D03*
G54D15*
X10015Y5157D03*
X10615Y5157D03*
X20212Y5984D03*
X20812Y5984D03*
X12898Y-591D03*
X12298Y-591D03*
X12898Y-1181D03*
X12298Y-1181D03*
G54D14*
X20866Y-1284D03*
X20866Y-684D03*
G54D15*
X20772Y-197D03*
X20172Y-197D03*
G54D14*
X17677Y-694D03*
X17677Y-94D03*
G54D15*
X21914Y-4921D03*
X21314Y-4921D03*
X13686Y-5433D03*
X13086Y-5433D03*
G54D14*
X11811Y6048D03*
X11811Y5448D03*
X12402Y6048D03*
X12402Y5448D03*
G54D15*
X16009Y5551D03*
X15409Y5551D03*
G54D14*
X17441Y4031D03*
X17441Y4631D03*
X14173Y4464D03*
X14173Y5064D03*
G54D15*
X17535Y3543D03*
X18135Y3543D03*
X15054Y-5433D03*
X15654Y-5433D03*
X14670Y-5433D03*
X14070Y-5433D03*
G54D14*
X20866Y-4040D03*
X20866Y-3440D03*
G54D23*
X21248Y3052D03*
X21248Y2677D03*
X21248Y2302D03*
X20248Y2302D03*
X20248Y2677D03*
X20248Y3052D03*
G54D24*
X19692Y-4768D03*
X19692Y-5468D03*
X18892Y-5118D03*
X19692Y-3390D03*
X19692Y-4090D03*
X18892Y-3740D03*
X19692Y-2012D03*
X19692Y-2712D03*
X18892Y-2362D03*
X19692Y-634D03*
X19692Y-1334D03*
X18892Y-984D03*
G54D25*
X19291Y787D03*
G54D21*
X19882Y491D03*
X19882Y689D03*
X19882Y885D03*
X19882Y1082D03*
G54D22*
X19586Y1378D03*
X19389Y1378D03*
X19192Y1378D03*
X18996Y1378D03*
G54D21*
X18700Y1081D03*
X18700Y885D03*
X18700Y688D03*
X18700Y491D03*
G54D22*
X18996Y196D03*
X19192Y196D03*
X19389Y196D03*
X19586Y196D03*
G54D26*
X19291Y787D03*
X19094Y590D03*
X19488Y590D03*
X19094Y984D03*
X19488Y984D03*
G54D27*
X15886Y3328D03*
X15493Y3328D03*
X15689Y3328D03*
X16083Y3328D03*
X15296Y3328D03*
X15099Y3328D03*
G54D28*
X14794Y3681D03*
X14794Y3878D03*
X14794Y4075D03*
X14794Y4468D03*
X14794Y4271D03*
X14794Y4665D03*
G54D27*
X15099Y5018D03*
X15296Y5018D03*
X16083Y5018D03*
X15689Y5018D03*
X15493Y5018D03*
X15886Y5018D03*
G54D28*
X16387Y4665D03*
X16387Y4271D03*
X16387Y4468D03*
X16387Y4075D03*
X16387Y3878D03*
X16387Y3681D03*
G54D29*
X19075Y3199D03*
X18888Y3199D03*
X19271Y3199D03*
X19468Y3199D03*
X19075Y4271D03*
X18878Y4271D03*
X19271Y4271D03*
X19468Y4271D03*
G54D30*
X19704Y3642D03*
X19704Y3838D03*
X19704Y4025D03*
X19704Y3455D03*
X18632Y4025D03*
X18632Y3838D03*
X18632Y3642D03*
X18632Y3455D03*
G54D31*
X12067Y-4055D03*
X12421Y-4055D03*
G54D32*
X11732Y-3996D03*
X11732Y-3642D03*
G54D31*
X12736Y-3307D03*
X12382Y-3307D03*
X12736Y-4055D03*
X13090Y-4055D03*
G54D32*
X13465Y-4075D03*
X13465Y-3721D03*
X13071Y-3366D03*
X13071Y-3720D03*
G54D10*
G36*
X22058Y-5671D02*
X22280Y-5893D01*
X22058Y-6115D01*
X21836Y-5893D01*
X22058Y-5671D01*
X22058Y-5671D01*
G37*
G36*
X21641Y-6088D02*
X21863Y-6310D01*
X21641Y-6532D01*
X21419Y-6310D01*
X21641Y-6088D01*
X21641Y-6088D01*
G37*
G54D15*
X13056Y-2874D03*
X12456Y-2874D03*
G54D33*
X20748Y690D03*
G54D34*
X20748Y1438D03*
G54D10*
G36*
X22291Y5286D02*
X22169Y4911D01*
X21533Y5118D01*
X21654Y5493D01*
X22291Y5286D01*
X22291Y5286D01*
G37*
G36*
X21852Y3937D02*
X21731Y3562D01*
X21094Y3769D01*
X21216Y4144D01*
X21852Y3937D01*
X21852Y3937D01*
G37*
G54D32*
X16693Y-904D03*
X16693Y-1258D03*
X16339Y-904D03*
X16339Y-1258D03*
X15984Y-904D03*
X15984Y-1258D03*
X15630Y-904D03*
X15630Y-1258D03*
G54D35*
X15738Y-292D03*
X15424Y-394D03*
X16560Y1429D03*
X15957Y788D03*
X16049Y254D03*
X16290Y1179D03*
X13232Y4291D03*
X14661Y929D03*
X16406Y5379D03*
X13138Y2594D03*
X18693Y5630D03*
X13807Y2646D03*
X10531Y-508D03*
X16720Y457D03*
X16409Y567D03*
X16161Y-47D03*
X15520Y-24D03*
X16768Y141D03*
X14690Y2671D03*
X19717Y1547D03*
X17177Y2084D03*
X18842Y1708D03*
X18577Y2131D03*
X14858Y1177D03*
X12606Y1803D03*
X15177Y1185D03*
X12043Y2031D03*
X13937Y3335D03*
X11169Y3661D03*
X16811Y2913D03*
X14461Y2894D03*
X18031Y2122D03*
X10748Y3071D03*
X18709Y213D03*
X15990Y1525D03*
X12165Y945D03*
X13450Y-215D03*
X16142Y-3031D03*
X16142Y-3465D03*
X16102Y-3858D03*
X15905Y-4370D03*
X16016Y-2323D03*
X16165Y-4173D03*
X15835Y-2622D03*
X20905Y5551D03*
X19122Y4622D03*
X14764Y3386D03*
X18193Y5402D03*
X13543Y2874D03*
X21142Y5787D03*
X18169Y3142D03*
X16000Y2650D03*
X14646Y5394D03*
X14988Y3020D03*
X21457Y5709D03*
X16760Y5327D03*
X10236Y-2953D03*
X12598Y-4921D03*
X18976Y-1614D03*
X10630Y-2953D03*
X12165Y-3307D03*
X19201Y-5713D03*
X16024Y-5433D03*
X12335Y-1646D03*
X18925Y-5539D03*
X10236Y-2362D03*
X14921Y-4134D03*
X11732Y-3425D03*
X11220Y-3346D03*
X14764Y-3583D03*
X15551Y-4724D03*
X14055Y-3228D03*
X13665Y1217D03*
X11024Y-2953D03*
X13386Y-4921D03*
X12677Y-2480D03*
X12441Y-2244D03*
X12992Y-2205D03*
X10236Y-1772D03*
X18898Y-4193D03*
X12165Y-2953D03*
X11811Y-2953D03*
X14819Y-1524D03*
X10236Y-1181D03*
X19291Y-1732D03*
X12205Y-4921D03*
X13661Y-2953D03*
X12992Y-4921D03*
X13386Y-2559D03*
X10630Y-3346D03*
X14016Y-2559D03*
X12795Y-5512D03*
X13661Y-2205D03*
X14409Y-4134D03*
X14134Y-5000D03*
X11417Y-2953D03*
X12165Y-2480D03*
X20276Y-4449D03*
X20354Y1496D03*
X20839Y-4512D03*
X19689Y2224D03*
X21220Y-3071D03*
X21339Y-3425D03*
X21260Y-2756D03*
X20039Y-945D03*
X17835Y3110D03*
X18740Y2614D03*
X18425Y2724D03*
X17520Y2870D03*
X19252Y-236D03*
X21362Y3474D03*
X13602Y1630D03*
X21575Y303D03*
X17126Y-748D03*
X14405Y-5433D03*
X20894Y-5118D03*
X10512Y945D03*
X16409Y-5063D03*
X21823Y5643D03*
X18961Y-4752D03*
X14441Y-890D03*
X12646Y-898D03*
X9433Y5307D03*
X12953Y2874D03*
X14291Y5394D03*
X17650Y5358D03*
X16830Y3878D03*
X20079Y5551D03*
X19724Y5630D03*
X16496Y3071D03*
X20315Y3661D03*
X13740Y3740D03*
X18335Y1220D03*
X19098Y2563D03*
X21299Y-4291D03*
X21575Y-79D03*
X21299Y-3898D03*
X20772Y-2697D03*
X18279Y583D03*
X18303Y906D03*
G54D36*
X21378Y1852D02*
X21378Y985D01*
G54D37*
X20219Y885D02*
X20295Y809D01*
G54D38*
X20727Y689D02*
X20748Y769D01*
G54D37*
X20786Y689D02*
X20906Y809D01*
G54D36*
X21182Y2048D02*
X21378Y1852D01*
X20984Y2048D02*
X21182Y2048D01*
X20964Y3052D02*
X20866Y2954D01*
G54D38*
X19882Y689D02*
X20727Y689D01*
G54D37*
X19882Y689D02*
X20786Y689D01*
G54D36*
X21202Y809D02*
X20906Y809D01*
X20866Y2954D02*
X20866Y2166D01*
X21378Y985D02*
X21202Y809D01*
X21248Y3052D02*
X20964Y3052D01*
X20866Y2166D02*
X20984Y2048D01*
G54D37*
X20295Y809D02*
X20906Y809D01*
X19882Y885D02*
X20219Y885D01*
G54D36*
X12579Y-1248D02*
X12512Y-1181D01*
X12512Y-1181D02*
X12298Y-1181D01*
X13425Y-1185D02*
X13546Y-1306D01*
X13425Y-1306D02*
X13546Y-1306D01*
X12579Y-1489D02*
X12579Y-1248D01*
X13425Y-1306D02*
X13316Y-1306D01*
X13425Y-1078D02*
X13425Y-1185D01*
X13269Y-1306D02*
X13000Y-1575D01*
X13425Y-1185D02*
X13425Y-1197D01*
X15315Y-622D02*
X15519Y-622D01*
X11589Y-1750D02*
X11620Y-1750D01*
X15519Y-622D02*
X15738Y-403D01*
X11620Y-1750D02*
X12189Y-1181D01*
X13000Y-1575D02*
X12665Y-1575D01*
X13316Y-1306D02*
X13269Y-1306D01*
X13546Y-1306D02*
X14631Y-1306D01*
X13425Y-1197D02*
X13425Y-1306D01*
X12189Y-1181D02*
X12298Y-1181D01*
X12665Y-1575D02*
X12579Y-1489D01*
X15738Y-403D02*
X15738Y-292D01*
X14631Y-1306D02*
X15315Y-622D01*
X13425Y-1197D02*
X13316Y-1306D01*
X11698Y-1250D02*
X12008Y-940D01*
X12298Y-591D02*
X12526Y-591D01*
X12640Y-249D02*
X12526Y-363D01*
X15271Y-394D02*
X15424Y-394D01*
X12526Y-363D02*
X12526Y-591D01*
X13539Y-719D02*
X13069Y-249D01*
X14016Y-719D02*
X14016Y-1078D01*
X11589Y-1250D02*
X11698Y-1250D01*
X12008Y-677D02*
X12094Y-591D01*
X14016Y-719D02*
X14088Y-647D01*
X12008Y-940D02*
X12008Y-677D01*
X12094Y-591D02*
X12298Y-591D01*
X14088Y-647D02*
X15018Y-647D01*
X13069Y-249D02*
X12640Y-249D01*
X14016Y-719D02*
X13539Y-719D01*
X15018Y-647D02*
X15271Y-394D01*
X11968Y250D02*
X11989Y271D01*
X15628Y366D02*
X15775Y513D01*
X15257Y271D02*
X15352Y366D01*
X15352Y366D02*
X15628Y366D01*
X11989Y271D02*
X15257Y271D01*
X16013Y513D02*
X16560Y1060D01*
X16560Y1060D02*
X16560Y1429D01*
X15775Y513D02*
X16013Y513D01*
X11589Y250D02*
X11968Y250D01*
G54D39*
X11089Y750D02*
X11092Y750D01*
G54D36*
X15847Y788D02*
X15957Y788D01*
X15197Y414D02*
X15292Y509D01*
G54D39*
X11342Y500D02*
X12067Y500D01*
G54D36*
X15292Y509D02*
X15568Y509D01*
X15568Y509D02*
X15847Y788D01*
G54D39*
X11092Y750D02*
X11342Y500D01*
G54D36*
X12153Y414D02*
X15197Y414D01*
X12067Y500D02*
X12153Y414D01*
G54D39*
X11089Y250D02*
X11089Y234D01*
G54D36*
X16018Y223D02*
X16049Y254D01*
G54D39*
X11089Y234D02*
X11323Y0D01*
G54D36*
X15313Y124D02*
X15412Y223D01*
X15412Y223D02*
X16018Y223D01*
X12087Y0D02*
X12211Y124D01*
G54D39*
X11323Y0D02*
X12087Y0D01*
G54D36*
X12211Y124D02*
X15313Y124D01*
X12134Y674D02*
X12251Y557D01*
X12251Y557D02*
X15137Y557D01*
X11968Y750D02*
X12044Y674D01*
X16023Y1179D02*
X16290Y1179D01*
X15252Y672D02*
X15516Y672D01*
X15137Y557D02*
X15252Y672D01*
X11589Y750D02*
X11968Y750D01*
X15516Y672D02*
X16023Y1179D01*
X12044Y674D02*
X12134Y674D01*
X14232Y3878D02*
X14794Y3878D01*
X12618Y4941D02*
X12402Y5157D01*
X12402Y5157D02*
X12402Y5448D01*
X12618Y4714D02*
X12618Y4941D01*
X13632Y4714D02*
X13779Y4567D01*
X13232Y4291D02*
X12809Y4714D01*
X12618Y4714D02*
X13632Y4714D01*
X13779Y4567D02*
X13779Y4331D01*
X13779Y4331D02*
X14232Y3878D01*
X12809Y4714D02*
X12618Y4714D01*
X14748Y842D02*
X14661Y929D01*
X15019Y842D02*
X14748Y842D01*
X12943Y4222D02*
X13110Y4055D01*
X12393Y4222D02*
X12087Y4528D01*
X13780Y4055D02*
X14174Y3661D01*
X12622Y4222D02*
X12393Y4222D01*
X15405Y1027D02*
X15335Y957D01*
X14167Y3655D02*
X14167Y2624D01*
X15134Y957D02*
X15019Y842D01*
X15335Y957D02*
X15134Y957D01*
X14167Y3655D02*
X14174Y3662D01*
X14174Y3661D02*
X14174Y3662D01*
X15405Y1386D02*
X15405Y1027D01*
X14193Y3681D02*
X14794Y3681D01*
X12087Y4528D02*
X12087Y4920D01*
X14174Y3662D02*
X14193Y3681D01*
X11811Y5196D02*
X11811Y5448D01*
X12622Y4222D02*
X12943Y4222D01*
X12087Y4920D02*
X11811Y5196D01*
X14167Y2624D02*
X15405Y1386D01*
X13110Y4055D02*
X13780Y4055D01*
X16657Y4665D02*
X16387Y4665D01*
X16406Y5355D02*
X16406Y5379D01*
X16657Y5104D02*
X16406Y5355D01*
X16657Y4665D02*
X16657Y5104D01*
X18724Y5661D02*
X18693Y5630D01*
X20212Y5984D02*
X20150Y5984D01*
X20150Y5984D02*
X20052Y5886D01*
X13807Y2646D02*
X13755Y2594D01*
X20052Y5886D02*
X19626Y5886D01*
X19401Y5661D02*
X18724Y5661D01*
X19626Y5886D02*
X19401Y5661D01*
X13755Y2594D02*
X13138Y2594D01*
X10209Y2848D02*
X10045Y3012D01*
X10209Y-186D02*
X10209Y2848D01*
X10045Y3012D02*
X10045Y3631D01*
X9736Y5079D02*
X9814Y5157D01*
X9736Y3940D02*
X9736Y5079D01*
X10531Y-508D02*
X10209Y-186D01*
X10045Y3631D02*
X9736Y3940D01*
X9814Y5157D02*
X10015Y5157D01*
X16535Y-588D02*
X16693Y-746D01*
X16535Y-126D02*
X16535Y-588D01*
X16535Y272D02*
X16720Y457D01*
X16693Y-746D02*
X16693Y-904D01*
X16535Y-126D02*
X16535Y272D01*
X16409Y472D02*
X16393Y456D01*
X16393Y-299D02*
X16393Y-575D01*
X16393Y-575D02*
X16339Y-629D01*
X16409Y567D02*
X16409Y472D01*
X16393Y456D02*
X16393Y-184D01*
X16339Y-629D02*
X16339Y-904D01*
X16393Y-184D02*
X16393Y-299D01*
X15984Y-747D02*
X15984Y-904D01*
X16161Y-152D02*
X16161Y-47D01*
X16161Y-152D02*
X16161Y-570D01*
X16161Y-570D02*
X15984Y-747D01*
X15984Y-432D02*
X15630Y-786D01*
X15630Y-786D02*
X15630Y-904D01*
X15551Y-55D02*
X15826Y-55D01*
X15826Y-55D02*
X15843Y-55D01*
X15520Y-24D02*
X15551Y-55D01*
X15984Y-196D02*
X15984Y-432D01*
X15843Y-55D02*
X15984Y-196D01*
X16823Y1311D02*
X16823Y756D01*
X18431Y1481D02*
X16993Y1481D01*
X16961Y618D02*
X16961Y334D01*
X16823Y756D02*
X16961Y618D01*
X16993Y1481D02*
X16823Y1311D01*
X18700Y1212D02*
X18431Y1481D01*
X18700Y1081D02*
X18700Y1212D01*
X16961Y334D02*
X16768Y141D01*
X15046Y2315D02*
X14690Y2671D01*
X17481Y1782D02*
X17411Y1852D01*
X18708Y1936D02*
X18554Y1782D01*
X18554Y1782D02*
X17481Y1782D01*
X19389Y1378D02*
X19389Y1665D01*
X19389Y1665D02*
X19118Y1936D01*
X17411Y1852D02*
X17411Y2200D01*
X19118Y1936D02*
X18708Y1936D01*
X17296Y2315D02*
X15046Y2315D01*
X17411Y2200D02*
X17296Y2315D01*
X19586Y1378D02*
X19586Y1416D01*
X19586Y1416D02*
X19717Y1547D01*
X17177Y2084D02*
X17177Y1858D01*
X17177Y1858D02*
X17411Y1624D01*
X17411Y1624D02*
X18783Y1624D01*
X18783Y1624D02*
X18842Y1683D01*
X18842Y1683D02*
X19148Y1683D01*
X19192Y1378D02*
X19192Y1639D01*
X18842Y1683D02*
X18842Y1708D01*
X19148Y1683D02*
X19192Y1639D01*
X19685Y1865D02*
X19419Y2131D01*
X20248Y2302D02*
X20122Y2302D01*
X19419Y2131D02*
X18577Y2131D01*
X20122Y2302D02*
X19685Y1865D01*
X12692Y1889D02*
X14273Y1889D01*
X14273Y1889D02*
X14858Y1304D01*
X12692Y1889D02*
X12606Y1803D01*
X14858Y1304D02*
X14858Y1177D01*
X15177Y1185D02*
X14331Y2031D01*
X14331Y2031D02*
X12043Y2031D01*
X16181Y2913D02*
X15353Y2913D01*
X13797Y3341D02*
X13931Y3341D01*
X16693Y2795D02*
X16299Y2795D01*
X16811Y2913D02*
X16693Y2795D01*
X11169Y3661D02*
X11268Y3760D01*
X11319Y3965D02*
X11881Y3965D01*
X11268Y3760D02*
X11268Y3914D01*
X14484Y2917D02*
X14461Y2894D01*
X16299Y2795D02*
X16181Y2913D01*
X13642Y3496D02*
X13797Y3341D01*
X15196Y2756D02*
X14929Y2756D01*
X15353Y2913D02*
X15196Y2756D01*
X12905Y3480D02*
X12921Y3496D01*
X14929Y2756D02*
X14768Y2917D01*
X11268Y3914D02*
X11319Y3965D01*
X12366Y3480D02*
X12905Y3480D01*
X13931Y3341D02*
X13937Y3335D01*
X14768Y2917D02*
X14484Y2917D01*
X12921Y3496D02*
X13642Y3496D01*
X11881Y3965D02*
X12366Y3480D01*
X18035Y2126D02*
X18253Y2126D01*
G54D37*
X18726Y196D02*
X18709Y213D01*
G54D36*
X18031Y2122D02*
X18035Y2126D01*
G54D37*
X18996Y196D02*
X18726Y196D01*
G54D36*
X15456Y815D02*
X15990Y1349D01*
X12410Y700D02*
X15077Y700D01*
X15192Y815D02*
X15456Y815D01*
X15990Y1349D02*
X15990Y1525D01*
X12165Y945D02*
X12410Y700D01*
X15077Y700D02*
X15192Y815D01*
X11089Y-750D02*
X11339Y-500D01*
X11890Y-500D02*
X12329Y-61D01*
G54D39*
X11339Y-500D02*
X11890Y-500D01*
G54D36*
X13296Y-61D02*
X13450Y-215D01*
X12329Y-61D02*
X13296Y-61D01*
X15511Y-3543D02*
X15786Y-3543D01*
X15905Y-3423D02*
X15905Y-3267D01*
X15786Y-3543D02*
X15905Y-3423D01*
X15905Y-3267D02*
X16142Y-3031D01*
X15867Y-3740D02*
X16142Y-3465D01*
X15511Y-3740D02*
X15867Y-3740D01*
X15511Y-3936D02*
X16024Y-3936D01*
X16024Y-3936D02*
X16102Y-3858D01*
X15512Y-4331D02*
X15866Y-4331D01*
X15866Y-4331D02*
X15905Y-4370D01*
X15788Y-2323D02*
X15183Y-2928D01*
X15183Y-2928D02*
X14370Y-2928D01*
X16016Y-2323D02*
X15788Y-2323D01*
X14370Y-2928D02*
X14370Y-3189D01*
X16125Y-4133D02*
X16165Y-4173D01*
X15511Y-4133D02*
X16125Y-4133D01*
X15157Y-3189D02*
X15724Y-2622D01*
X15724Y-2622D02*
X15835Y-2622D01*
G54D40*
X14473Y5064D02*
X14646Y5237D01*
X14646Y5237D02*
X14646Y5394D01*
G54D36*
X20669Y4724D02*
X20905Y4960D01*
X19075Y4271D02*
X19075Y4575D01*
X19468Y4402D02*
X19790Y4724D01*
G54D40*
X15099Y5256D02*
X15099Y5414D01*
X14961Y5394D02*
X15099Y5256D01*
X11634Y3730D02*
X11634Y3238D01*
G54D38*
X13307Y3204D02*
X13307Y3110D01*
G54D40*
X14173Y5064D02*
X14473Y5064D01*
G54D36*
X19075Y4575D02*
X19122Y4622D01*
G54D38*
X18401Y5079D02*
X18193Y5287D01*
X15099Y5018D02*
X15099Y5256D01*
X18135Y3176D02*
X18169Y3142D01*
X18453Y4630D02*
X18032Y4630D01*
G54D40*
X15099Y5414D02*
X15236Y5551D01*
G54D38*
X18031Y4631D02*
X17441Y4631D01*
X15099Y3328D02*
X15099Y3131D01*
X13307Y3110D02*
X13543Y2874D01*
X15099Y3131D02*
X14988Y3020D01*
G54D36*
X20905Y4960D02*
X20905Y5551D01*
X19468Y4271D02*
X19468Y4402D01*
G54D38*
X18032Y4630D02*
X18031Y4631D01*
X12618Y3238D02*
X13273Y3238D01*
X21457Y5709D02*
X21166Y5418D01*
X18193Y5287D02*
X18193Y5402D01*
X13273Y3238D02*
X13307Y3204D01*
G54D40*
X11634Y3238D02*
X12618Y3238D01*
G54D36*
X19790Y4724D02*
X20669Y4724D01*
G54D38*
X18637Y5079D02*
X18401Y5079D01*
G54D40*
X15236Y5551D02*
X15409Y5551D01*
G54D38*
X21166Y5418D02*
X21166Y5330D01*
X21166Y5330D02*
X20905Y5551D01*
X18637Y5079D02*
X18637Y4814D01*
X18135Y3543D02*
X18135Y3176D01*
G54D40*
X14961Y5394D02*
X14646Y5394D01*
G54D38*
X18637Y4814D02*
X18453Y4630D01*
X15158Y-4804D02*
X15393Y-5039D01*
G54D40*
X10222Y3085D02*
X10223Y4056D01*
G54D38*
X10237Y-2953D02*
X10236Y-2953D01*
X14921Y-4134D02*
X14409Y-4134D01*
X14763Y-3189D02*
X14763Y-3582D01*
X14070Y-5064D02*
X14134Y-5000D01*
X12382Y-2303D02*
X12382Y-2913D01*
G54D40*
X11850Y-3307D02*
X11732Y-3425D01*
X11089Y1750D02*
X10810Y1750D01*
G54D38*
X11732Y-3642D02*
X11732Y-3464D01*
X14567Y-4894D02*
X14461Y-5000D01*
X14461Y-5000D02*
X14134Y-5000D01*
X15654Y-5433D02*
X15654Y-5142D01*
G54D40*
X12382Y-2913D02*
X12382Y-3307D01*
G54D38*
X12992Y-4921D02*
X13086Y-5015D01*
X14567Y-4685D02*
X14567Y-4894D01*
X10236Y-1181D02*
X10433Y-1378D01*
X11811Y-2953D02*
X11851Y-2913D01*
G54D40*
X10551Y2009D02*
X10551Y2756D01*
G54D38*
X13661Y-2205D02*
X12992Y-2205D01*
X12205Y-4921D02*
X12598Y-4921D01*
X15654Y-5433D02*
X16024Y-5433D01*
X12441Y-2244D02*
X12382Y-2303D01*
X15654Y-4827D02*
X15551Y-4724D01*
X21641Y-6287D02*
X21641Y-6311D01*
X14764Y-3977D02*
X14921Y-4134D01*
G54D40*
X19275Y-5787D02*
X19279Y-5787D01*
G54D38*
X15654Y-5142D02*
X15654Y-4827D01*
X13086Y-5015D02*
X13086Y-5433D01*
X10630Y-3346D02*
X10237Y-2953D01*
X15158Y-4685D02*
X15158Y-4804D01*
G54D40*
X10551Y2756D02*
X10222Y3085D01*
X12382Y-3307D02*
X11850Y-3307D01*
X10810Y1750D02*
X10551Y2009D01*
G54D38*
X15551Y-5039D02*
X15654Y-5142D01*
X14016Y-3189D02*
X14016Y-2559D01*
X10236Y-2362D02*
X10236Y-1772D01*
X10433Y-1378D02*
X10433Y-2756D01*
X12165Y-2480D02*
X12677Y-2480D01*
X10433Y-2756D02*
X10630Y-2953D01*
X11732Y-3464D02*
X11614Y-3346D01*
X14409Y-4134D02*
X14016Y-4134D01*
X11024Y-2953D02*
X11417Y-2953D01*
X21641Y-6287D02*
X21141Y-5787D01*
X15393Y-5039D02*
X15551Y-5039D01*
X21141Y-5787D02*
X19279Y-5787D01*
X14763Y-3582D02*
X14764Y-3583D01*
G54D40*
X19201Y-5713D02*
X19275Y-5787D01*
G54D38*
X12335Y-1646D02*
X12331Y-1642D01*
X14764Y-3583D02*
X14764Y-3977D01*
X13086Y-5433D02*
X12795Y-5512D01*
X12165Y-3307D02*
X12165Y-2953D01*
X11851Y-2913D02*
X12382Y-2913D01*
X14070Y-5433D02*
X14070Y-5064D01*
X13661Y-2952D02*
X13661Y-2953D01*
X11614Y-3346D02*
X11220Y-3346D01*
X13386Y-2559D02*
X13661Y-2952D01*
X14055Y-3228D02*
X14016Y-3189D01*
X11732Y-3642D02*
X11732Y-3425D01*
X13425Y-1678D02*
X14016Y-1678D01*
G54D37*
X19586Y1082D02*
X19291Y787D01*
G54D36*
X18996Y1082D02*
X19291Y787D01*
G54D37*
X20276Y-4818D02*
X20533Y-4818D01*
X19685Y2228D02*
X19685Y2465D01*
G54D38*
X20620Y2530D02*
X20620Y1980D01*
G54D37*
X20827Y-2441D02*
X20945Y-2441D01*
G54D40*
X20866Y-1284D02*
X20866Y-1693D01*
G54D38*
X20748Y1852D02*
X20748Y1359D01*
G54D40*
X20772Y-197D02*
X20752Y-197D01*
X20276Y-2062D02*
X20276Y-1929D01*
G54D36*
X18469Y2472D02*
X18571Y2370D01*
G54D37*
X19742Y-3440D02*
X19692Y-3390D01*
X20945Y-2441D02*
X21260Y-2756D01*
X18357Y-694D02*
X18394Y-657D01*
X20655Y-2441D02*
X20827Y-2441D01*
G54D36*
X20473Y2677D02*
X20248Y2677D01*
G54D37*
X20571Y1359D02*
X20748Y1359D01*
X20276Y-2062D02*
X19742Y-2062D01*
X20533Y-4818D02*
X20839Y-4512D01*
X21220Y-2796D02*
X21260Y-2756D01*
X18394Y-657D02*
X19669Y-657D01*
X19882Y1082D02*
X20294Y1082D01*
X21220Y-3071D02*
X21220Y-2796D01*
G54D40*
X20276Y-1929D02*
X20473Y-1732D01*
G54D36*
X21474Y3854D02*
X21486Y3892D01*
G54D37*
X20827Y-1732D02*
X20827Y-2441D01*
G54D38*
X20473Y2677D02*
X20620Y2530D01*
G54D36*
X19867Y2465D02*
X19685Y2465D01*
G54D37*
X21339Y-3425D02*
X21339Y-3190D01*
G54D36*
X20945Y3898D02*
X21063Y4016D01*
X20248Y2677D02*
X20079Y2677D01*
X19685Y2228D02*
X19689Y2224D01*
X17653Y2204D02*
X17921Y2472D01*
G54D37*
X19669Y-657D02*
X19692Y-634D01*
G54D36*
X18996Y1378D02*
X18996Y1082D01*
X19394Y2465D02*
X19685Y2465D01*
G54D40*
X20866Y-1693D02*
X20827Y-1732D01*
G54D37*
X19882Y1082D02*
X19586Y1082D01*
G54D38*
X20620Y1980D02*
X20748Y1852D01*
G54D37*
X20294Y1082D02*
X20571Y1359D01*
G54D40*
X20276Y-673D02*
X20276Y-684D01*
G54D37*
X20276Y-2062D02*
X20655Y-2441D01*
G54D36*
X21063Y4016D02*
X21362Y4016D01*
X18961Y2370D02*
X19016Y2315D01*
X20473Y2677D02*
X20511Y2677D01*
G54D37*
X19742Y-4818D02*
X19692Y-4768D01*
G54D36*
X20630Y3307D02*
X20945Y3622D01*
G54D37*
X19742Y-2062D02*
X19692Y-2012D01*
G54D36*
X21362Y4016D02*
X21486Y3892D01*
G54D40*
X20473Y-1732D02*
X20827Y-1732D01*
G54D36*
X19016Y2315D02*
X19244Y2315D01*
G54D37*
X20276Y-4818D02*
X19742Y-4818D01*
X20276Y-4818D02*
X20276Y-4449D01*
G54D40*
X20752Y-197D02*
X20276Y-673D01*
G54D36*
X17653Y2126D02*
X17653Y2204D01*
G54D37*
X18268Y-694D02*
X17677Y-694D01*
X20866Y-3440D02*
X21324Y-3440D01*
G54D36*
X19244Y2315D02*
X19394Y2465D01*
G54D37*
X20276Y-3440D02*
X19742Y-3440D01*
X18268Y-694D02*
X18357Y-694D01*
X21324Y-3440D02*
X21339Y-3425D01*
G54D36*
X20630Y2796D02*
X20511Y2677D01*
G54D37*
X21339Y-3190D02*
X21220Y-3071D01*
G54D36*
X18571Y2370D02*
X18961Y2370D01*
X20079Y2677D02*
X19867Y2465D01*
X20630Y3307D02*
X20630Y2796D01*
X17921Y2472D02*
X18469Y2472D01*
X20945Y3622D02*
X20945Y3898D01*
X20276Y-2662D02*
X20025Y-2662D01*
X20025Y-2662D02*
X19975Y-2712D01*
X19146Y-2035D02*
X19299Y-2188D01*
X19299Y-2188D02*
X19299Y-2618D01*
X16575Y-1613D02*
X16830Y-1613D01*
X18491Y-2035D02*
X19146Y-2035D01*
X16339Y-1377D02*
X16575Y-1613D01*
X17174Y-1957D02*
X18413Y-1957D01*
X16339Y-1258D02*
X16339Y-1377D01*
X16830Y-1613D02*
X17058Y-1841D01*
X19975Y-2712D02*
X19692Y-2712D01*
X19299Y-2618D02*
X19393Y-2712D01*
X18413Y-1957D02*
X18491Y-2035D01*
X19393Y-2712D02*
X19692Y-2712D01*
X17058Y-1841D02*
X17174Y-1957D01*
X15984Y-1376D02*
X15984Y-1396D01*
X19027Y-3055D02*
X17217Y-3055D01*
X17050Y-2054D02*
X17050Y-2049D01*
X17050Y-2049D02*
X16771Y-1770D01*
X17050Y-2888D02*
X17050Y-2054D01*
X19692Y-4090D02*
X19507Y-4090D01*
X19331Y-3359D02*
X19027Y-3055D01*
X15984Y-1376D02*
X15984Y-1258D01*
X17217Y-3055D02*
X17050Y-2888D01*
X19507Y-4090D02*
X19331Y-3914D01*
X19331Y-3914D02*
X19331Y-3359D01*
X16532Y-1770D02*
X16771Y-1770D01*
X16298Y-1536D02*
X16532Y-1770D01*
X16124Y-1536D02*
X16298Y-1536D01*
X15984Y-1396D02*
X16124Y-1536D01*
X20025Y-4040D02*
X19975Y-4090D01*
X20276Y-4040D02*
X20025Y-4040D01*
X19975Y-4090D02*
X19692Y-4090D01*
G54D40*
X18163Y-3740D02*
X18892Y-3740D01*
G54D36*
X15630Y-1377D02*
X15630Y-1397D01*
X16908Y-2107D02*
X16713Y-1912D01*
X19692Y-5468D02*
X19516Y-5468D01*
X18969Y-3197D02*
X17130Y-3197D01*
X15630Y-1377D02*
X15630Y-1258D01*
X19189Y-5141D02*
X19189Y-3417D01*
X16908Y-2112D02*
X16908Y-2107D01*
X19189Y-3417D02*
X18969Y-3197D01*
X19516Y-5468D02*
X19189Y-5141D01*
X16908Y-2112D02*
X16908Y-2975D01*
X16474Y-1912D02*
X16713Y-1912D01*
X16240Y-1678D02*
X16474Y-1912D01*
X16066Y-1678D02*
X16240Y-1678D01*
X15924Y-1536D02*
X16066Y-1678D01*
X15769Y-1536D02*
X15924Y-1536D01*
X15630Y-1397D02*
X15769Y-1536D01*
X20025Y-5418D02*
X20276Y-5418D01*
X19975Y-5468D02*
X20025Y-5418D01*
X19692Y-5468D02*
X19975Y-5468D01*
X17130Y-3197D02*
X16908Y-2975D01*
X21432Y6102D02*
X21602Y6272D01*
X20945Y5984D02*
X21063Y6102D01*
X21063Y6102D02*
X21432Y6102D01*
X20812Y5984D02*
X20945Y5984D01*
X9910Y6311D02*
X10615Y5606D01*
X10615Y5606D02*
X10615Y5157D01*
X9894Y6311D02*
X9910Y6311D01*
X17232Y-1815D02*
X16813Y-1396D01*
X18906Y-1334D02*
X18425Y-1815D01*
X19948Y-1284D02*
X20276Y-1284D01*
X16813Y-1396D02*
X16693Y-1258D01*
X19692Y-1334D02*
X19898Y-1334D01*
X17236Y-1815D02*
X17232Y-1815D01*
X18425Y-1815D02*
X17236Y-1815D01*
X19692Y-1334D02*
X18906Y-1334D01*
X19898Y-1334D02*
X19948Y-1284D01*
G54D40*
X18892Y-984D02*
X18557Y-984D01*
X18557Y-984D02*
X18163Y-1378D01*
X18653Y-2362D02*
X18456Y-2559D01*
X18892Y-2362D02*
X18653Y-2362D01*
X18456Y-2559D02*
X18163Y-2559D01*
X18418Y-4921D02*
X18615Y-5118D01*
X18163Y-4921D02*
X18418Y-4921D01*
X18615Y-5118D02*
X18892Y-5118D01*
G54D38*
X18787Y4690D02*
X18937Y4840D01*
X19019Y5476D02*
X19388Y5476D01*
X18937Y5394D02*
X19019Y5476D01*
X18787Y4512D02*
X18787Y4690D01*
X19840Y5024D02*
X20236Y5024D01*
X18878Y4421D02*
X18787Y4512D01*
X19388Y5476D02*
X19840Y5024D01*
X18937Y4840D02*
X18937Y5394D01*
X18878Y4271D02*
X18878Y4421D01*
G54D36*
X19271Y4271D02*
X19271Y4405D01*
X19237Y4873D02*
X19237Y5079D01*
X19402Y4708D02*
X19237Y4873D01*
X19402Y4536D02*
X19402Y4708D01*
X19271Y4405D02*
X19402Y4536D01*
G54D38*
X20009Y4025D02*
X19704Y4025D01*
X20236Y4252D02*
X20009Y4025D01*
X20236Y4424D02*
X20236Y4252D01*
X17072Y4031D02*
X17441Y4031D01*
X16387Y4271D02*
X16832Y4271D01*
X16832Y4271D02*
X17072Y4031D01*
G54D36*
X17244Y3110D02*
X16674Y3680D01*
X16674Y3680D02*
X16388Y3680D01*
X18888Y2762D02*
X18740Y2614D01*
X16388Y3680D02*
X16387Y3681D01*
X18888Y3199D02*
X18888Y2762D01*
X17835Y3110D02*
X17244Y3110D01*
X17284Y2870D02*
X17520Y2870D01*
X16083Y3328D02*
X16826Y3328D01*
X18632Y3455D02*
X18632Y2931D01*
X16826Y3328D02*
X17284Y2870D01*
X18632Y2931D02*
X18425Y2724D01*
G54D38*
X14177Y4468D02*
X14173Y4464D01*
X14794Y4468D02*
X14177Y4468D01*
G54D36*
X18287Y-75D02*
X18268Y-94D01*
X19192Y196D02*
X19192Y58D01*
X19059Y-75D02*
X18287Y-75D01*
X19192Y58D02*
X19059Y-75D01*
X19389Y-99D02*
X19389Y196D01*
X19252Y-236D02*
X19389Y-99D01*
G54D41*
X21571Y3283D02*
X21362Y3474D01*
X21571Y2882D02*
X21571Y3283D01*
X21376Y2302D02*
X21543Y2469D01*
X21543Y2807D02*
X21571Y2882D01*
X21543Y2469D02*
X21543Y2807D01*
X21376Y2302D02*
X21248Y2302D01*
G54D36*
X20096Y491D02*
X19882Y491D01*
X21051Y-540D02*
X21051Y44D01*
X20441Y146D02*
X20096Y491D01*
X20866Y-684D02*
X20907Y-684D01*
X20949Y146D02*
X20441Y146D01*
X21051Y44D02*
X20949Y146D01*
X20907Y-684D02*
X21051Y-540D01*
X20172Y-197D02*
X19944Y-197D01*
X19586Y60D02*
X19586Y196D01*
X19812Y-65D02*
X19711Y-65D01*
X19711Y-65D02*
X19586Y60D01*
X19944Y-197D02*
X19812Y-65D01*
X17756Y197D02*
X17677Y118D01*
X17677Y118D02*
X17677Y-94D01*
X18346Y197D02*
X17756Y197D01*
X18640Y491D02*
X18346Y197D01*
X18700Y491D02*
X18640Y491D01*
G54D38*
X22059Y-5484D02*
X21914Y-5339D01*
X21914Y-5339D02*
X21914Y-4921D01*
X22059Y-5893D02*
X22059Y-5484D01*
G54D36*
X21900Y5164D02*
X21912Y5202D01*
X20630Y3622D02*
X20248Y3240D01*
X20630Y4016D02*
X20630Y3622D01*
X21900Y5164D02*
X21778Y5164D01*
X20248Y3240D02*
X20248Y3052D01*
X21778Y5164D02*
X20630Y4016D01*
X13686Y-5094D02*
X13686Y-5433D01*
X14370Y-4685D02*
X14095Y-4685D01*
X14095Y-4685D02*
X13686Y-5094D01*
G54D40*
X12736Y-4055D02*
X12421Y-4055D01*
X11732Y-3996D02*
X11732Y-4055D01*
X11732Y-4055D02*
X11352Y-4435D01*
X11732Y-3996D02*
X12008Y-3996D01*
X12008Y-3996D02*
X12067Y-4055D01*
G54D36*
X13150Y-2874D02*
X13819Y-3543D01*
G54D39*
X13071Y-3366D02*
X12795Y-3366D01*
G54D36*
X13819Y-3543D02*
X14016Y-3543D01*
X12736Y-3307D02*
X12736Y-3194D01*
G54D39*
X12795Y-3366D02*
X12736Y-3307D01*
G54D36*
X12736Y-3194D02*
X13056Y-2874D01*
X13056Y-2874D02*
X13150Y-2874D01*
X14961Y-5012D02*
X15054Y-5105D01*
X15054Y-5105D02*
X15054Y-5433D01*
X14961Y-4685D02*
X14961Y-5012D01*
G54D39*
X13072Y-3721D02*
X13071Y-3720D01*
G54D36*
X14016Y-3740D02*
X13484Y-3740D01*
G54D40*
X13465Y-3721D02*
X13072Y-3721D01*
G54D36*
X13484Y-3740D02*
X13465Y-3721D01*
X13110Y-4075D02*
X13090Y-4055D01*
X13778Y-3938D02*
X13641Y-4075D01*
X13641Y-4075D02*
X13465Y-4075D01*
X14016Y-3938D02*
X13778Y-3938D01*
G54D40*
X13465Y-4075D02*
X13110Y-4075D01*
G54D38*
X9476Y5350D02*
X9476Y5893D01*
X14764Y-4370D02*
X15129Y-4370D01*
X22020Y5839D02*
X22020Y5854D01*
X21442Y-2309D02*
X21429Y-2252D01*
X12898Y-898D02*
X12898Y-1181D01*
X21429Y-2252D02*
X21429Y-1768D01*
X14764Y-5001D02*
X14764Y-4685D01*
X21575Y303D02*
X21264Y-8D01*
G54D40*
X18725Y-4516D02*
X16956Y-4516D01*
G54D38*
X21264Y-630D02*
X21264Y-8D01*
G54D40*
X16956Y-4516D02*
X16409Y-5063D01*
G54D38*
X15157Y-4342D02*
X15157Y-3582D01*
X21260Y-906D02*
X21264Y-630D01*
X21625Y-3480D02*
X21442Y-2309D01*
X20894Y-5118D02*
X21091Y-4921D01*
X14016Y-4332D02*
X14054Y-4370D01*
X21314Y-4733D02*
X21630Y-4417D01*
X15129Y-4370D02*
X15157Y-4342D01*
X14405Y-5433D02*
X14670Y-5433D01*
X21314Y-4921D02*
X21314Y-4733D01*
X21630Y-4417D02*
X21625Y-3480D01*
X21823Y5643D02*
X22020Y5839D01*
X21429Y-1768D02*
X21260Y-906D01*
X14670Y-5095D02*
X14764Y-5001D01*
X15157Y-3582D02*
X14960Y-3385D01*
X14960Y-3385D02*
X14960Y-3189D01*
X14764Y-4685D02*
X14764Y-4370D01*
X12898Y-898D02*
X12646Y-898D01*
X21091Y-4921D02*
X21314Y-4921D01*
X9433Y5307D02*
X9476Y5350D01*
X14670Y-5433D02*
X14670Y-5095D01*
G54D40*
X18961Y-4752D02*
X18725Y-4516D01*
G54D38*
X12898Y-591D02*
X12898Y-898D01*
X14054Y-4370D02*
X14764Y-4370D01*
G54D36*
X20296Y3642D02*
X20315Y3661D01*
G54D38*
X19853Y3199D02*
X19468Y3199D01*
X16830Y3878D02*
X16830Y3996D01*
X18037Y4025D02*
X18031Y4031D01*
X11634Y4222D02*
X12037Y4222D01*
X13676Y3804D02*
X13740Y3740D01*
X17382Y5626D02*
X17650Y5358D01*
G54D40*
X12677Y2598D02*
X12953Y2874D01*
G54D38*
X17717Y3543D02*
X17535Y3543D01*
X11634Y4222D02*
X11634Y4714D01*
X19853Y3199D02*
X20315Y3661D01*
X19075Y3199D02*
X19075Y2933D01*
X19331Y2835D02*
X19468Y2972D01*
X16083Y5477D02*
X16009Y5551D01*
G54D40*
X12692Y6048D02*
X13346Y5394D01*
G54D38*
X18632Y4025D02*
X18037Y4025D01*
X17165Y3543D02*
X17535Y3543D01*
X17795Y3819D02*
X17795Y3621D01*
X16387Y3878D02*
X16830Y3878D01*
X16181Y5551D02*
X16256Y5626D01*
G54D40*
X11220Y2598D02*
X12677Y2598D01*
X11089Y2467D02*
X11220Y2598D01*
G54D38*
X12875Y3976D02*
X13047Y3804D01*
G54D40*
X13346Y5394D02*
X14291Y5394D01*
G54D38*
X16830Y3878D02*
X17165Y3543D01*
G54D36*
X16256Y5626D02*
X17382Y5626D01*
G54D40*
X12402Y6048D02*
X12692Y6048D01*
G54D38*
X18031Y4031D02*
X18007Y4031D01*
X12283Y3976D02*
X12875Y3976D01*
X13307Y3804D02*
X13676Y3804D01*
X16009Y5551D02*
X16181Y5551D01*
G54D36*
X19704Y3642D02*
X20296Y3642D01*
G54D38*
X19075Y2933D02*
X19173Y2835D01*
X19173Y2835D02*
X19331Y2835D01*
X16083Y5018D02*
X16083Y5477D01*
G54D40*
X11089Y2250D02*
X11089Y2467D01*
G54D38*
X11811Y6048D02*
X12402Y6048D01*
X12037Y4222D02*
X12283Y3976D01*
X13047Y3804D02*
X13307Y3804D01*
X16830Y3996D02*
X16751Y4075D01*
X16751Y4075D02*
X16387Y4075D01*
X18007Y4031D02*
X17795Y3819D01*
X19468Y2972D02*
X19468Y3199D01*
X17795Y3621D02*
X17717Y3543D01*
G54D37*
X21157Y-4040D02*
X20866Y-4040D01*
G54D40*
X18384Y688D02*
X18303Y607D01*
X18700Y688D02*
X18384Y688D01*
X18303Y906D02*
X18324Y885D01*
X18303Y1188D02*
X18335Y1220D01*
G54D37*
X21157Y-4040D02*
X21299Y-3898D01*
G54D40*
X18324Y885D02*
X18700Y885D01*
G54D37*
X21299Y-4291D02*
X21299Y-4182D01*
G54D40*
X18303Y906D02*
X18303Y607D01*
X18303Y607D02*
X18279Y583D01*
X18303Y906D02*
X18303Y1188D01*
G54D37*
X21299Y-4182D02*
X21157Y-4040D01*
X21299Y-4182D02*
X21299Y-3898D01*
G54D10*
G36*
X13965Y-4547D02*
X13960Y-4550D01*
X13960Y-4550D01*
X13551Y-4959D01*
X13510Y-5021D01*
X13500Y-5070D01*
X13476Y-5080D01*
X13433Y-5122D01*
X13411Y-5178D01*
X13410Y-5237D01*
X13410Y-5659D01*
X13003Y-5659D01*
X12756Y-5553D01*
X12171Y-4939D01*
X12105Y-4776D01*
X12185Y-4696D01*
X13642Y-4696D01*
X13823Y-4514D01*
X13825Y-4515D01*
X13901Y-4531D01*
X13941Y-4531D01*
X13955Y-4540D01*
X13965Y-4547D01*
X13965Y-4547D01*
G37*
G54D38*
X13965Y-4547D02*
X13960Y-4550D01*
X13960Y-4550D01*
X13551Y-4959D01*
X13510Y-5021D01*
X13500Y-5070D01*
X13476Y-5080D01*
X13433Y-5122D01*
X13411Y-5178D01*
X13410Y-5237D01*
X13410Y-5659D01*
X13003Y-5659D01*
X12756Y-5553D01*
X12171Y-4939D01*
X12105Y-4776D01*
X12185Y-4696D01*
X13642Y-4696D01*
X13823Y-4514D01*
X13825Y-4515D01*
X13901Y-4531D01*
X13941Y-4531D01*
X13955Y-4540D01*
X13965Y-4547D01*
G54D10*
G36*
X14564Y-4918D02*
X14528Y-4953D01*
X14485Y-5018D01*
X14473Y-5075D01*
X14460Y-5080D01*
X14417Y-5122D01*
X14403Y-5157D01*
X14350Y-5157D01*
X14249Y-5199D01*
X14172Y-5277D01*
X14130Y-5378D01*
X14129Y-5487D01*
X14171Y-5588D01*
X14242Y-5659D01*
X13960Y-5659D01*
X13961Y-5628D01*
X13961Y-5178D01*
X13938Y-5123D01*
X13931Y-5116D01*
X14173Y-4875D01*
X14186Y-4875D01*
X14186Y-4875D01*
X14229Y-4940D01*
X14293Y-4983D01*
X14370Y-4998D01*
X14446Y-4983D01*
X14510Y-4940D01*
X14553Y-4875D01*
X14564Y-4824D01*
X14564Y-4918D01*
X14564Y-4918D01*
G37*
G54D38*
X14564Y-4918D02*
X14528Y-4953D01*
X14485Y-5018D01*
X14473Y-5075D01*
X14460Y-5080D01*
X14417Y-5122D01*
X14403Y-5157D01*
X14350Y-5157D01*
X14249Y-5199D01*
X14172Y-5277D01*
X14130Y-5378D01*
X14129Y-5487D01*
X14171Y-5588D01*
X14242Y-5659D01*
X13960Y-5659D01*
X13961Y-5628D01*
X13961Y-5178D01*
X13938Y-5123D01*
X13931Y-5116D01*
X14173Y-4875D01*
X14186Y-4875D01*
X14186Y-4875D01*
X14229Y-4940D01*
X14293Y-4983D01*
X14370Y-4998D01*
X14446Y-4983D01*
X14510Y-4940D01*
X14553Y-4875D01*
X14564Y-4824D01*
X14564Y-4918D01*
G54D10*
G36*
X14957Y-4170D02*
X14764Y-4170D01*
X14239Y-4170D01*
X14206Y-4148D01*
X14140Y-4135D01*
X14206Y-4121D01*
X14271Y-4078D01*
X14314Y-4014D01*
X14329Y-3938D01*
X14314Y-3861D01*
X14299Y-3839D01*
X14314Y-3816D01*
X14329Y-3740D01*
X14314Y-3663D01*
X14299Y-3641D01*
X14314Y-3619D01*
X14329Y-3543D01*
X14319Y-3492D01*
X14370Y-3502D01*
X14446Y-3487D01*
X14468Y-3472D01*
X14489Y-3487D01*
X14566Y-3502D01*
X14642Y-3487D01*
X14706Y-3444D01*
X14749Y-3379D01*
X14760Y-3328D01*
X14760Y-3385D01*
X14775Y-3461D01*
X14818Y-3526D01*
X14957Y-3664D01*
X14957Y-4170D01*
X14957Y-4170D01*
G37*
G54D38*
X14957Y-4170D02*
X14764Y-4170D01*
X14239Y-4170D01*
X14206Y-4148D01*
X14140Y-4135D01*
X14206Y-4121D01*
X14271Y-4078D01*
X14314Y-4014D01*
X14329Y-3938D01*
X14314Y-3861D01*
X14299Y-3839D01*
X14314Y-3816D01*
X14329Y-3740D01*
X14314Y-3663D01*
X14299Y-3641D01*
X14314Y-3619D01*
X14329Y-3543D01*
X14319Y-3492D01*
X14370Y-3502D01*
X14446Y-3487D01*
X14468Y-3472D01*
X14489Y-3487D01*
X14566Y-3502D01*
X14642Y-3487D01*
X14706Y-3444D01*
X14749Y-3379D01*
X14760Y-3328D01*
X14760Y-3385D01*
X14775Y-3461D01*
X14818Y-3526D01*
X14957Y-3664D01*
X14957Y-4170D01*
G54D10*
G36*
X16604Y-5531D02*
X16476Y-5659D01*
X15328Y-5659D01*
X15329Y-5628D01*
X15329Y-5178D01*
X15306Y-5123D01*
X15264Y-5080D01*
X15236Y-5069D01*
X15229Y-5032D01*
X15188Y-4970D01*
X15188Y-4970D01*
X15151Y-4933D01*
X15151Y-4844D01*
X15160Y-4799D01*
X15160Y-4570D01*
X15158Y-4564D01*
X15205Y-4554D01*
X15270Y-4511D01*
X15288Y-4493D01*
X15321Y-4514D01*
X15397Y-4530D01*
X15626Y-4530D01*
X15669Y-4521D01*
X15671Y-4525D01*
X15749Y-4602D01*
X15850Y-4644D01*
X15959Y-4645D01*
X16060Y-4603D01*
X16137Y-4525D01*
X16170Y-4448D01*
X16219Y-4448D01*
X16320Y-4406D01*
X16397Y-4328D01*
X16439Y-4227D01*
X16440Y-4118D01*
X16398Y-4017D01*
X16352Y-3971D01*
X16376Y-3912D01*
X16377Y-3803D01*
X16335Y-3702D01*
X16314Y-3681D01*
X16374Y-3620D01*
X16416Y-3519D01*
X16417Y-3410D01*
X16375Y-3309D01*
X16313Y-3247D01*
X16374Y-3186D01*
X16416Y-3085D01*
X16417Y-2976D01*
X16375Y-2875D01*
X16297Y-2798D01*
X16196Y-2756D01*
X16087Y-2755D01*
X16074Y-2761D01*
X16109Y-2676D01*
X16110Y-2581D01*
X16171Y-2556D01*
X16248Y-2478D01*
X16290Y-2377D01*
X16291Y-2268D01*
X16249Y-2167D01*
X16171Y-2090D01*
X16070Y-2048D01*
X15961Y-2047D01*
X15860Y-2089D01*
X15817Y-2133D01*
X15788Y-2133D01*
X15787Y-2133D01*
X15773Y-2135D01*
X15715Y-2147D01*
X15653Y-2188D01*
X15653Y-2188D01*
X15636Y-2205D01*
X15636Y-1938D01*
X15613Y-1883D01*
X15571Y-1840D01*
X15516Y-1818D01*
X15456Y-1817D01*
X14905Y-1817D01*
X14850Y-1840D01*
X14808Y-1882D01*
X14785Y-1938D01*
X14785Y-1997D01*
X14785Y-2391D01*
X14808Y-2446D01*
X14850Y-2489D01*
X14905Y-2511D01*
X14965Y-2512D01*
X15330Y-2512D01*
X15104Y-2738D01*
X14370Y-2738D01*
X14297Y-2752D01*
X14235Y-2793D01*
X14194Y-2855D01*
X14180Y-2928D01*
X14180Y-3029D01*
X14171Y-3074D01*
X14171Y-3303D01*
X14181Y-3354D01*
X14130Y-3344D01*
X13901Y-3344D01*
X13890Y-3346D01*
X13331Y-2786D01*
X13331Y-2619D01*
X13308Y-2564D01*
X13266Y-2521D01*
X13210Y-2499D01*
X13151Y-2498D01*
X12901Y-2498D01*
X12846Y-2521D01*
X12803Y-2563D01*
X12781Y-2619D01*
X12780Y-2678D01*
X12780Y-2880D01*
X12618Y-3042D01*
X12572Y-3061D01*
X12530Y-3103D01*
X12507Y-3159D01*
X12507Y-3218D01*
X12507Y-3415D01*
X12203Y-3415D01*
X12129Y-3489D01*
X12084Y-3534D01*
X10827Y-3534D01*
X10769Y-3533D01*
X10776Y-3541D01*
X10709Y-3512D01*
X10232Y-3035D01*
X10129Y-2786D01*
X10129Y-1083D01*
X10256Y-956D01*
X10738Y-956D01*
X10746Y-967D01*
X10795Y-1000D01*
X10746Y-1032D01*
X10679Y-1132D01*
X10656Y-1250D01*
X10679Y-1367D01*
X10746Y-1467D01*
X10795Y-1500D01*
X10746Y-1532D01*
X10679Y-1632D01*
X10656Y-1750D01*
X10679Y-1867D01*
X10746Y-1967D01*
X10795Y-2000D01*
X10746Y-2032D01*
X10679Y-2132D01*
X10656Y-2250D01*
X10679Y-2367D01*
X10746Y-2467D01*
X10846Y-2534D01*
X10963Y-2557D01*
X11136Y-2557D01*
X11253Y-2534D01*
X11285Y-2512D01*
X11306Y-2534D01*
X11362Y-2557D01*
X11421Y-2557D01*
X11893Y-2557D01*
X11948Y-2534D01*
X11991Y-2492D01*
X12013Y-2437D01*
X12014Y-2377D01*
X12014Y-2062D01*
X11991Y-2007D01*
X11949Y-1965D01*
X11936Y-1960D01*
X11998Y-1867D01*
X12021Y-1750D01*
X11999Y-1639D01*
X12100Y-1538D01*
X12143Y-1555D01*
X12202Y-1556D01*
X12402Y-1556D01*
X12403Y-1561D01*
X12444Y-1623D01*
X12530Y-1709D01*
X12530Y-1709D01*
X12592Y-1750D01*
X12652Y-1762D01*
X12664Y-1765D01*
X12664Y-1764D01*
X12665Y-1765D01*
X13000Y-1765D01*
X13072Y-1750D01*
X13134Y-1709D01*
X13347Y-1496D01*
X13425Y-1496D01*
X13546Y-1496D01*
X14631Y-1496D01*
X14703Y-1481D01*
X14765Y-1440D01*
X15249Y-956D01*
X15361Y-956D01*
X15361Y-1012D01*
X15384Y-1067D01*
X15398Y-1080D01*
X15384Y-1094D01*
X15362Y-1149D01*
X15361Y-1209D01*
X15361Y-1366D01*
X15384Y-1421D01*
X15426Y-1463D01*
X15459Y-1477D01*
X15495Y-1531D01*
X15634Y-1670D01*
X15696Y-1711D01*
X15769Y-1726D01*
X15845Y-1726D01*
X15931Y-1812D01*
X15931Y-1812D01*
X15993Y-1853D01*
X16066Y-1868D01*
X16161Y-1868D01*
X16339Y-2046D01*
X16339Y-2046D01*
X16401Y-2087D01*
X16401Y-2087D01*
X16459Y-2099D01*
X16473Y-2102D01*
X16473Y-2101D01*
X16474Y-2102D01*
X16604Y-2102D01*
X16604Y-4549D01*
X16365Y-4787D01*
X16354Y-4787D01*
X16253Y-4829D01*
X16176Y-4907D01*
X16134Y-5008D01*
X16133Y-5117D01*
X16175Y-5218D01*
X16253Y-5295D01*
X16354Y-5337D01*
X16463Y-5338D01*
X16564Y-5296D01*
X16604Y-5256D01*
X16604Y-5531D01*
X16604Y-5531D01*
G37*
G54D38*
X16604Y-5531D02*
X16476Y-5659D01*
X15328Y-5659D01*
X15329Y-5628D01*
X15329Y-5178D01*
X15306Y-5123D01*
X15264Y-5080D01*
X15236Y-5069D01*
X15229Y-5032D01*
X15188Y-4970D01*
X15188Y-4970D01*
X15151Y-4933D01*
X15151Y-4844D01*
X15160Y-4799D01*
X15160Y-4570D01*
X15158Y-4564D01*
X15205Y-4554D01*
X15270Y-4511D01*
X15288Y-4493D01*
X15321Y-4514D01*
X15397Y-4530D01*
X15626Y-4530D01*
X15669Y-4521D01*
X15671Y-4525D01*
X15749Y-4602D01*
X15850Y-4644D01*
X15959Y-4645D01*
X16060Y-4603D01*
X16137Y-4525D01*
X16170Y-4448D01*
X16219Y-4448D01*
X16320Y-4406D01*
X16397Y-4328D01*
X16439Y-4227D01*
X16440Y-4118D01*
X16398Y-4017D01*
X16352Y-3971D01*
X16376Y-3912D01*
X16377Y-3803D01*
X16335Y-3702D01*
X16314Y-3681D01*
X16374Y-3620D01*
X16416Y-3519D01*
X16417Y-3410D01*
X16375Y-3309D01*
X16313Y-3247D01*
X16374Y-3186D01*
X16416Y-3085D01*
X16417Y-2976D01*
X16375Y-2875D01*
X16297Y-2798D01*
X16196Y-2756D01*
X16087Y-2755D01*
X16074Y-2761D01*
X16109Y-2676D01*
X16110Y-2581D01*
X16171Y-2556D01*
X16248Y-2478D01*
X16290Y-2377D01*
X16291Y-2268D01*
X16249Y-2167D01*
X16171Y-2090D01*
X16070Y-2048D01*
X15961Y-2047D01*
X15860Y-2089D01*
X15817Y-2133D01*
X15788Y-2133D01*
X15787Y-2133D01*
X15773Y-2135D01*
X15715Y-2147D01*
X15653Y-2188D01*
X15653Y-2188D01*
X15636Y-2205D01*
X15636Y-1938D01*
X15613Y-1883D01*
X15571Y-1840D01*
X15516Y-1818D01*
X15456Y-1817D01*
X14905Y-1817D01*
X14850Y-1840D01*
X14808Y-1882D01*
X14785Y-1938D01*
X14785Y-1997D01*
X14785Y-2391D01*
X14808Y-2446D01*
X14850Y-2489D01*
X14905Y-2511D01*
X14965Y-2512D01*
X15330Y-2512D01*
X15104Y-2738D01*
X14370Y-2738D01*
X14297Y-2752D01*
X14235Y-2793D01*
X14194Y-2855D01*
X14180Y-2928D01*
X14180Y-3029D01*
X14171Y-3074D01*
X14171Y-3303D01*
X14181Y-3354D01*
X14130Y-3344D01*
X13901Y-3344D01*
X13890Y-3346D01*
X13331Y-2786D01*
X13331Y-2619D01*
X13308Y-2564D01*
X13266Y-2521D01*
X13210Y-2499D01*
X13151Y-2498D01*
X12901Y-2498D01*
X12846Y-2521D01*
X12803Y-2563D01*
X12781Y-2619D01*
X12780Y-2678D01*
X12780Y-2880D01*
X12618Y-3042D01*
X12572Y-3061D01*
X12530Y-3103D01*
X12507Y-3159D01*
X12507Y-3218D01*
X12507Y-3415D01*
X12203Y-3415D01*
X12129Y-3489D01*
X12084Y-3534D01*
X10827Y-3534D01*
X10769Y-3533D01*
X10776Y-3541D01*
X10709Y-3512D01*
X10232Y-3035D01*
X10129Y-2786D01*
X10129Y-1083D01*
X10256Y-956D01*
X10738Y-956D01*
X10746Y-967D01*
X10795Y-1000D01*
X10746Y-1032D01*
X10679Y-1132D01*
X10656Y-1250D01*
X10679Y-1367D01*
X10746Y-1467D01*
X10795Y-1500D01*
X10746Y-1532D01*
X10679Y-1632D01*
X10656Y-1750D01*
X10679Y-1867D01*
X10746Y-1967D01*
X10795Y-2000D01*
X10746Y-2032D01*
X10679Y-2132D01*
X10656Y-2250D01*
X10679Y-2367D01*
X10746Y-2467D01*
X10846Y-2534D01*
X10963Y-2557D01*
X11136Y-2557D01*
X11253Y-2534D01*
X11285Y-2512D01*
X11306Y-2534D01*
X11362Y-2557D01*
X11421Y-2557D01*
X11893Y-2557D01*
X11948Y-2534D01*
X11991Y-2492D01*
X12013Y-2437D01*
X12014Y-2377D01*
X12014Y-2062D01*
X11991Y-2007D01*
X11949Y-1965D01*
X11936Y-1960D01*
X11998Y-1867D01*
X12021Y-1750D01*
X11999Y-1639D01*
X12100Y-1538D01*
X12143Y-1555D01*
X12202Y-1556D01*
X12402Y-1556D01*
X12403Y-1561D01*
X12444Y-1623D01*
X12530Y-1709D01*
X12530Y-1709D01*
X12592Y-1750D01*
X12652Y-1762D01*
X12664Y-1765D01*
X12664Y-1764D01*
X12665Y-1765D01*
X13000Y-1765D01*
X13072Y-1750D01*
X13134Y-1709D01*
X13347Y-1496D01*
X13425Y-1496D01*
X13546Y-1496D01*
X14631Y-1496D01*
X14703Y-1481D01*
X14765Y-1440D01*
X15249Y-956D01*
X15361Y-956D01*
X15361Y-1012D01*
X15384Y-1067D01*
X15398Y-1080D01*
X15384Y-1094D01*
X15362Y-1149D01*
X15361Y-1209D01*
X15361Y-1366D01*
X15384Y-1421D01*
X15426Y-1463D01*
X15459Y-1477D01*
X15495Y-1531D01*
X15634Y-1670D01*
X15696Y-1711D01*
X15769Y-1726D01*
X15845Y-1726D01*
X15931Y-1812D01*
X15931Y-1812D01*
X15993Y-1853D01*
X16066Y-1868D01*
X16161Y-1868D01*
X16339Y-2046D01*
X16339Y-2046D01*
X16401Y-2087D01*
X16401Y-2087D01*
X16459Y-2099D01*
X16473Y-2102D01*
X16473Y-2101D01*
X16474Y-2102D01*
X16604Y-2102D01*
X16604Y-4549D01*
X16365Y-4787D01*
X16354Y-4787D01*
X16253Y-4829D01*
X16176Y-4907D01*
X16134Y-5008D01*
X16133Y-5117D01*
X16175Y-5218D01*
X16253Y-5295D01*
X16354Y-5337D01*
X16463Y-5338D01*
X16564Y-5296D01*
X16604Y-5256D01*
X16604Y-5531D01*
G54D10*
G36*
X18806Y690D02*
X18585Y690D01*
X18509Y674D01*
X18444Y631D01*
X18401Y567D01*
X18390Y509D01*
X18324Y444D01*
X17854Y444D01*
X17727Y571D01*
X17727Y1291D01*
X18352Y1291D01*
X18435Y1207D01*
X18401Y1157D01*
X18386Y1081D01*
X18401Y1004D01*
X18444Y940D01*
X18509Y897D01*
X18585Y882D01*
X18806Y882D01*
X18806Y690D01*
X18806Y690D01*
G37*
G54D38*
X18806Y690D02*
X18585Y690D01*
X18509Y674D01*
X18444Y631D01*
X18401Y567D01*
X18390Y509D01*
X18324Y444D01*
X17854Y444D01*
X17727Y571D01*
X17727Y1291D01*
X18352Y1291D01*
X18435Y1207D01*
X18401Y1157D01*
X18386Y1081D01*
X18401Y1004D01*
X18444Y940D01*
X18509Y897D01*
X18585Y882D01*
X18806Y882D01*
X18806Y690D01*
G54D10*
G36*
X21181Y-1542D02*
X21044Y-1406D01*
X20651Y-1406D01*
X20651Y-1379D01*
X20651Y-1129D01*
X20628Y-1074D01*
X20586Y-1031D01*
X20530Y-1009D01*
X20471Y-1008D01*
X20021Y-1008D01*
X19966Y-1031D01*
X19964Y-1033D01*
X19957Y-1026D01*
X19901Y-1004D01*
X19842Y-1003D01*
X19482Y-1003D01*
X19427Y-1026D01*
X19384Y-1068D01*
X19362Y-1124D01*
X19362Y-1144D01*
X19222Y-1144D01*
X19222Y-1134D01*
X19222Y-774D01*
X19199Y-719D01*
X19157Y-676D01*
X19101Y-654D01*
X19042Y-653D01*
X18682Y-653D01*
X18627Y-676D01*
X18584Y-718D01*
X18568Y-759D01*
X18557Y-759D01*
X18470Y-776D01*
X18397Y-824D01*
X18397Y-824D01*
X18191Y-1031D01*
X18155Y-1031D01*
X18022Y-1057D01*
X17977Y-1087D01*
X17944Y-1053D01*
X17889Y-1031D01*
X17829Y-1030D01*
X17278Y-1030D01*
X17223Y-1053D01*
X17181Y-1095D01*
X17158Y-1151D01*
X17158Y-1210D01*
X17158Y-1472D01*
X16961Y-1275D01*
X16961Y-1149D01*
X16940Y-1098D01*
X16940Y-1062D01*
X16960Y-1012D01*
X16961Y-971D01*
X16970Y-980D01*
X17071Y-1022D01*
X17180Y-1023D01*
X17281Y-981D01*
X17358Y-903D01*
X17400Y-802D01*
X17401Y-693D01*
X17359Y-592D01*
X17281Y-515D01*
X17180Y-473D01*
X17071Y-472D01*
X16970Y-514D01*
X16940Y-545D01*
X16940Y-415D01*
X16763Y-199D01*
X16725Y-191D01*
X16725Y-133D01*
X16822Y-134D01*
X16923Y-92D01*
X17000Y-14D01*
X17042Y86D01*
X17043Y147D01*
X17095Y199D01*
X17095Y199D01*
X17095Y199D01*
X17136Y261D01*
X17151Y333D01*
X17150Y334D01*
X17151Y334D01*
X17151Y618D01*
X17136Y690D01*
X17095Y752D01*
X17013Y834D01*
X17013Y1232D01*
X17071Y1291D01*
X17430Y1291D01*
X17430Y181D01*
X17422Y181D01*
X17367Y158D01*
X17324Y116D01*
X17302Y60D01*
X17301Y1D01*
X17301Y-248D01*
X17324Y-303D01*
X17366Y-346D01*
X17422Y-368D01*
X17481Y-369D01*
X17931Y-369D01*
X17972Y-352D01*
X18013Y-368D01*
X18072Y-369D01*
X18522Y-369D01*
X18577Y-346D01*
X18620Y-304D01*
X18636Y-265D01*
X18976Y-265D01*
X18976Y-290D01*
X19018Y-391D01*
X19096Y-468D01*
X19197Y-510D01*
X19306Y-511D01*
X19407Y-469D01*
X19484Y-391D01*
X19526Y-290D01*
X19526Y-247D01*
X19670Y-247D01*
X19670Y-247D01*
X19698Y-252D01*
X19710Y-255D01*
X19710Y-254D01*
X19711Y-255D01*
X19733Y-255D01*
X19809Y-331D01*
X19809Y-331D01*
X19871Y-372D01*
X19896Y-377D01*
X19896Y-451D01*
X19919Y-506D01*
X19961Y-549D01*
X20017Y-571D01*
X20076Y-572D01*
X20326Y-572D01*
X20381Y-549D01*
X20424Y-507D01*
X20446Y-451D01*
X20447Y-392D01*
X20447Y-247D01*
X20861Y-247D01*
X20861Y-408D01*
X20611Y-408D01*
X20556Y-431D01*
X20513Y-473D01*
X20491Y-529D01*
X20490Y-588D01*
X20490Y-838D01*
X20513Y-893D01*
X20555Y-936D01*
X20611Y-958D01*
X20670Y-959D01*
X21066Y-959D01*
X21181Y-1542D01*
X21181Y-1542D01*
G37*
G54D38*
X21181Y-1542D02*
X21044Y-1406D01*
X20651Y-1406D01*
X20651Y-1379D01*
X20651Y-1129D01*
X20628Y-1074D01*
X20586Y-1031D01*
X20530Y-1009D01*
X20471Y-1008D01*
X20021Y-1008D01*
X19966Y-1031D01*
X19964Y-1033D01*
X19957Y-1026D01*
X19901Y-1004D01*
X19842Y-1003D01*
X19482Y-1003D01*
X19427Y-1026D01*
X19384Y-1068D01*
X19362Y-1124D01*
X19362Y-1144D01*
X19222Y-1144D01*
X19222Y-1134D01*
X19222Y-774D01*
X19199Y-719D01*
X19157Y-676D01*
X19101Y-654D01*
X19042Y-653D01*
X18682Y-653D01*
X18627Y-676D01*
X18584Y-718D01*
X18568Y-759D01*
X18557Y-759D01*
X18470Y-776D01*
X18397Y-824D01*
X18397Y-824D01*
X18191Y-1031D01*
X18155Y-1031D01*
X18022Y-1057D01*
X17977Y-1087D01*
X17944Y-1053D01*
X17889Y-1031D01*
X17829Y-1030D01*
X17278Y-1030D01*
X17223Y-1053D01*
X17181Y-1095D01*
X17158Y-1151D01*
X17158Y-1210D01*
X17158Y-1472D01*
X16961Y-1275D01*
X16961Y-1149D01*
X16940Y-1098D01*
X16940Y-1062D01*
X16960Y-1012D01*
X16961Y-971D01*
X16970Y-980D01*
X17071Y-1022D01*
X17180Y-1023D01*
X17281Y-981D01*
X17358Y-903D01*
X17400Y-802D01*
X17401Y-693D01*
X17359Y-592D01*
X17281Y-515D01*
X17180Y-473D01*
X17071Y-472D01*
X16970Y-514D01*
X16940Y-545D01*
X16940Y-415D01*
X16763Y-199D01*
X16725Y-191D01*
X16725Y-133D01*
X16822Y-134D01*
X16923Y-92D01*
X17000Y-14D01*
X17042Y86D01*
X17043Y147D01*
X17095Y199D01*
X17095Y199D01*
X17095Y199D01*
X17136Y261D01*
X17151Y333D01*
X17150Y334D01*
X17151Y334D01*
X17151Y618D01*
X17136Y690D01*
X17095Y752D01*
X17013Y834D01*
X17013Y1232D01*
X17071Y1291D01*
X17430Y1291D01*
X17430Y181D01*
X17422Y181D01*
X17367Y158D01*
X17324Y116D01*
X17302Y60D01*
X17301Y1D01*
X17301Y-248D01*
X17324Y-303D01*
X17366Y-346D01*
X17422Y-368D01*
X17481Y-369D01*
X17931Y-369D01*
X17972Y-352D01*
X18013Y-368D01*
X18072Y-369D01*
X18522Y-369D01*
X18577Y-346D01*
X18620Y-304D01*
X18636Y-265D01*
X18976Y-265D01*
X18976Y-290D01*
X19018Y-391D01*
X19096Y-468D01*
X19197Y-510D01*
X19306Y-511D01*
X19407Y-469D01*
X19484Y-391D01*
X19526Y-290D01*
X19526Y-247D01*
X19670Y-247D01*
X19670Y-247D01*
X19698Y-252D01*
X19710Y-255D01*
X19710Y-254D01*
X19711Y-255D01*
X19733Y-255D01*
X19809Y-331D01*
X19809Y-331D01*
X19871Y-372D01*
X19896Y-377D01*
X19896Y-451D01*
X19919Y-506D01*
X19961Y-549D01*
X20017Y-571D01*
X20076Y-572D01*
X20326Y-572D01*
X20381Y-549D01*
X20424Y-507D01*
X20446Y-451D01*
X20447Y-392D01*
X20447Y-247D01*
X20861Y-247D01*
X20861Y-408D01*
X20611Y-408D01*
X20556Y-431D01*
X20513Y-473D01*
X20491Y-529D01*
X20490Y-588D01*
X20490Y-838D01*
X20513Y-893D01*
X20555Y-936D01*
X20611Y-958D01*
X20670Y-959D01*
X21066Y-959D01*
X21181Y-1542D01*
G54D10*
G36*
X21367Y-3628D02*
X21353Y-3623D01*
X21244Y-3622D01*
X21231Y-3628D01*
X21143Y-3664D01*
X21066Y-3742D01*
X21056Y-3764D01*
X20611Y-3764D01*
X20570Y-3781D01*
X20530Y-3765D01*
X20471Y-3764D01*
X20021Y-3764D01*
X19966Y-3787D01*
X19964Y-3789D01*
X19957Y-3782D01*
X19901Y-3760D01*
X19842Y-3759D01*
X19521Y-3759D01*
X19521Y-3359D01*
X19506Y-3286D01*
X19465Y-3224D01*
X19161Y-2920D01*
X19099Y-2879D01*
X19027Y-2865D01*
X18483Y-2865D01*
X18574Y-2804D01*
X18649Y-2691D01*
X18651Y-2681D01*
X18653Y-2680D01*
X18682Y-2691D01*
X18741Y-2692D01*
X19101Y-2692D01*
X19122Y-2683D01*
X19123Y-2690D01*
X19164Y-2752D01*
X19258Y-2846D01*
X19258Y-2846D01*
X19320Y-2887D01*
X19361Y-2895D01*
X19361Y-2921D01*
X19384Y-2976D01*
X19426Y-3019D01*
X19482Y-3041D01*
X19541Y-3042D01*
X19901Y-3042D01*
X19956Y-3019D01*
X19999Y-2977D01*
X20016Y-2935D01*
X20021Y-2936D01*
X20080Y-2937D01*
X20530Y-2937D01*
X20585Y-2914D01*
X20593Y-2907D01*
X20616Y-2929D01*
X20717Y-2971D01*
X20826Y-2972D01*
X20927Y-2930D01*
X21004Y-2852D01*
X21046Y-2751D01*
X21047Y-2642D01*
X21005Y-2541D01*
X20927Y-2464D01*
X20826Y-2422D01*
X20717Y-2421D01*
X20630Y-2457D01*
X20628Y-2452D01*
X20586Y-2409D01*
X20530Y-2387D01*
X20471Y-2386D01*
X20021Y-2386D01*
X19966Y-2409D01*
X19964Y-2411D01*
X19957Y-2404D01*
X19901Y-2382D01*
X19842Y-2381D01*
X19489Y-2381D01*
X19489Y-2188D01*
X19474Y-2115D01*
X19433Y-2053D01*
X19433Y-2053D01*
X19374Y-1994D01*
X19446Y-1965D01*
X19523Y-1887D01*
X19565Y-1786D01*
X19566Y-1677D01*
X19560Y-1664D01*
X19901Y-1664D01*
X19956Y-1641D01*
X19999Y-1599D01*
X20016Y-1557D01*
X20021Y-1558D01*
X20080Y-1559D01*
X20456Y-1559D01*
X20423Y-1592D01*
X20423Y-1872D01*
X20609Y-2059D01*
X21044Y-2059D01*
X21229Y-1874D01*
X21229Y-2252D01*
X21231Y-2262D01*
X21233Y-2273D01*
X21233Y-2296D01*
X21245Y-2347D01*
X21367Y-3122D01*
X21367Y-3628D01*
X21367Y-3628D01*
G37*
G54D38*
X21367Y-3628D02*
X21353Y-3623D01*
X21244Y-3622D01*
X21231Y-3628D01*
X21143Y-3664D01*
X21066Y-3742D01*
X21056Y-3764D01*
X20611Y-3764D01*
X20570Y-3781D01*
X20530Y-3765D01*
X20471Y-3764D01*
X20021Y-3764D01*
X19966Y-3787D01*
X19964Y-3789D01*
X19957Y-3782D01*
X19901Y-3760D01*
X19842Y-3759D01*
X19521Y-3759D01*
X19521Y-3359D01*
X19506Y-3286D01*
X19465Y-3224D01*
X19161Y-2920D01*
X19099Y-2879D01*
X19027Y-2865D01*
X18483Y-2865D01*
X18574Y-2804D01*
X18649Y-2691D01*
X18651Y-2681D01*
X18653Y-2680D01*
X18682Y-2691D01*
X18741Y-2692D01*
X19101Y-2692D01*
X19122Y-2683D01*
X19123Y-2690D01*
X19164Y-2752D01*
X19258Y-2846D01*
X19258Y-2846D01*
X19320Y-2887D01*
X19361Y-2895D01*
X19361Y-2921D01*
X19384Y-2976D01*
X19426Y-3019D01*
X19482Y-3041D01*
X19541Y-3042D01*
X19901Y-3042D01*
X19956Y-3019D01*
X19999Y-2977D01*
X20016Y-2935D01*
X20021Y-2936D01*
X20080Y-2937D01*
X20530Y-2937D01*
X20585Y-2914D01*
X20593Y-2907D01*
X20616Y-2929D01*
X20717Y-2971D01*
X20826Y-2972D01*
X20927Y-2930D01*
X21004Y-2852D01*
X21046Y-2751D01*
X21047Y-2642D01*
X21005Y-2541D01*
X20927Y-2464D01*
X20826Y-2422D01*
X20717Y-2421D01*
X20630Y-2457D01*
X20628Y-2452D01*
X20586Y-2409D01*
X20530Y-2387D01*
X20471Y-2386D01*
X20021Y-2386D01*
X19966Y-2409D01*
X19964Y-2411D01*
X19957Y-2404D01*
X19901Y-2382D01*
X19842Y-2381D01*
X19489Y-2381D01*
X19489Y-2188D01*
X19474Y-2115D01*
X19433Y-2053D01*
X19433Y-2053D01*
X19374Y-1994D01*
X19446Y-1965D01*
X19523Y-1887D01*
X19565Y-1786D01*
X19566Y-1677D01*
X19560Y-1664D01*
X19901Y-1664D01*
X19956Y-1641D01*
X19999Y-1599D01*
X20016Y-1557D01*
X20021Y-1558D01*
X20080Y-1559D01*
X20456Y-1559D01*
X20423Y-1592D01*
X20423Y-1872D01*
X20609Y-2059D01*
X21044Y-2059D01*
X21229Y-1874D01*
X21229Y-2252D01*
X21231Y-2262D01*
X21233Y-2273D01*
X21233Y-2296D01*
X21245Y-2347D01*
X21367Y-3122D01*
X21367Y-3628D01*
G54D10*
G36*
X21367Y-5531D02*
X21264Y-5633D01*
X21231Y-5611D01*
X21217Y-5602D01*
X21141Y-5587D01*
X20645Y-5587D01*
X20650Y-5572D01*
X20651Y-5513D01*
X20651Y-5263D01*
X20628Y-5208D01*
X20586Y-5165D01*
X20530Y-5143D01*
X20471Y-5142D01*
X20021Y-5142D01*
X19966Y-5165D01*
X19964Y-5167D01*
X19957Y-5160D01*
X19901Y-5138D01*
X19842Y-5137D01*
X19482Y-5137D01*
X19462Y-5146D01*
X19379Y-5062D01*
X19379Y-4340D01*
X19384Y-4354D01*
X19426Y-4397D01*
X19482Y-4419D01*
X19541Y-4420D01*
X19901Y-4420D01*
X19956Y-4397D01*
X19999Y-4355D01*
X20016Y-4313D01*
X20021Y-4314D01*
X20080Y-4315D01*
X20530Y-4315D01*
X20571Y-4298D01*
X20611Y-4314D01*
X20670Y-4315D01*
X21023Y-4315D01*
X21023Y-4345D01*
X21065Y-4446D01*
X21143Y-4523D01*
X21195Y-4545D01*
X21159Y-4545D01*
X21104Y-4568D01*
X21061Y-4610D01*
X21039Y-4666D01*
X21038Y-4725D01*
X21038Y-4731D01*
X21014Y-4736D01*
X20949Y-4779D01*
X20886Y-4842D01*
X20839Y-4842D01*
X20738Y-4884D01*
X20661Y-4962D01*
X20619Y-5063D01*
X20618Y-5172D01*
X20660Y-5273D01*
X20738Y-5350D01*
X20839Y-5392D01*
X20948Y-5393D01*
X21049Y-5351D01*
X21120Y-5280D01*
X21159Y-5295D01*
X21218Y-5296D01*
X21231Y-5296D01*
X21367Y-5296D01*
X21367Y-5531D01*
X21367Y-5531D01*
G37*
G54D38*
X21367Y-5531D02*
X21264Y-5633D01*
X21231Y-5611D01*
X21217Y-5602D01*
X21141Y-5587D01*
X20645Y-5587D01*
X20650Y-5572D01*
X20651Y-5513D01*
X20651Y-5263D01*
X20628Y-5208D01*
X20586Y-5165D01*
X20530Y-5143D01*
X20471Y-5142D01*
X20021Y-5142D01*
X19966Y-5165D01*
X19964Y-5167D01*
X19957Y-5160D01*
X19901Y-5138D01*
X19842Y-5137D01*
X19482Y-5137D01*
X19462Y-5146D01*
X19379Y-5062D01*
X19379Y-4340D01*
X19384Y-4354D01*
X19426Y-4397D01*
X19482Y-4419D01*
X19541Y-4420D01*
X19901Y-4420D01*
X19956Y-4397D01*
X19999Y-4355D01*
X20016Y-4313D01*
X20021Y-4314D01*
X20080Y-4315D01*
X20530Y-4315D01*
X20571Y-4298D01*
X20611Y-4314D01*
X20670Y-4315D01*
X21023Y-4315D01*
X21023Y-4345D01*
X21065Y-4446D01*
X21143Y-4523D01*
X21195Y-4545D01*
X21159Y-4545D01*
X21104Y-4568D01*
X21061Y-4610D01*
X21039Y-4666D01*
X21038Y-4725D01*
X21038Y-4731D01*
X21014Y-4736D01*
X20949Y-4779D01*
X20886Y-4842D01*
X20839Y-4842D01*
X20738Y-4884D01*
X20661Y-4962D01*
X20619Y-5063D01*
X20618Y-5172D01*
X20660Y-5273D01*
X20738Y-5350D01*
X20839Y-5392D01*
X20948Y-5393D01*
X21049Y-5351D01*
X21120Y-5280D01*
X21159Y-5295D01*
X21218Y-5296D01*
X21231Y-5296D01*
X21367Y-5296D01*
X21367Y-5531D01*
G54D10*
G36*
X13977Y2864D02*
X13962Y2878D01*
X13861Y2920D01*
X13752Y2921D01*
X13651Y2879D01*
X13574Y2801D01*
X13566Y2784D01*
X13336Y2784D01*
X13293Y2826D01*
X13227Y2854D01*
X13228Y2928D01*
X13186Y3029D01*
X13108Y3106D01*
X13007Y3148D01*
X12898Y3149D01*
X12797Y3107D01*
X12720Y3029D01*
X12678Y2928D01*
X12678Y2917D01*
X12583Y2823D01*
X11220Y2823D01*
X11133Y2805D01*
X11060Y2757D01*
X11060Y2757D01*
X10929Y2626D01*
X10881Y2553D01*
X10878Y2540D01*
X10846Y2534D01*
X10776Y2487D01*
X10776Y2756D01*
X10768Y2795D01*
X10802Y2795D01*
X10903Y2837D01*
X10980Y2915D01*
X11022Y3016D01*
X11023Y3125D01*
X10981Y3226D01*
X10903Y3303D01*
X10802Y3345D01*
X10693Y3346D01*
X10592Y3304D01*
X10515Y3226D01*
X10480Y3144D01*
X10447Y3178D01*
X10448Y3729D01*
X10496Y3709D01*
X10556Y3708D01*
X10894Y3708D01*
X10893Y3606D01*
X10935Y3505D01*
X11013Y3428D01*
X11114Y3386D01*
X11223Y3385D01*
X11324Y3427D01*
X11401Y3505D01*
X11443Y3606D01*
X11444Y3689D01*
X11458Y3760D01*
X11458Y3775D01*
X11802Y3775D01*
X12231Y3345D01*
X12231Y3345D01*
X12293Y3304D01*
X12366Y3290D01*
X12905Y3290D01*
X12977Y3304D01*
X12980Y3306D01*
X13563Y3306D01*
X13662Y3206D01*
X13662Y3206D01*
X13704Y3178D01*
X13781Y3102D01*
X13882Y3060D01*
X13977Y3059D01*
X13977Y2864D01*
X13977Y2864D01*
G37*
G54D38*
X13977Y2864D02*
X13962Y2878D01*
X13861Y2920D01*
X13752Y2921D01*
X13651Y2879D01*
X13574Y2801D01*
X13566Y2784D01*
X13336Y2784D01*
X13293Y2826D01*
X13227Y2854D01*
X13228Y2928D01*
X13186Y3029D01*
X13108Y3106D01*
X13007Y3148D01*
X12898Y3149D01*
X12797Y3107D01*
X12720Y3029D01*
X12678Y2928D01*
X12678Y2917D01*
X12583Y2823D01*
X11220Y2823D01*
X11133Y2805D01*
X11060Y2757D01*
X11060Y2757D01*
X10929Y2626D01*
X10881Y2553D01*
X10878Y2540D01*
X10846Y2534D01*
X10776Y2487D01*
X10776Y2756D01*
X10768Y2795D01*
X10802Y2795D01*
X10903Y2837D01*
X10980Y2915D01*
X11022Y3016D01*
X11023Y3125D01*
X10981Y3226D01*
X10903Y3303D01*
X10802Y3345D01*
X10693Y3346D01*
X10592Y3304D01*
X10515Y3226D01*
X10480Y3144D01*
X10447Y3178D01*
X10448Y3729D01*
X10496Y3709D01*
X10556Y3708D01*
X10894Y3708D01*
X10893Y3606D01*
X10935Y3505D01*
X11013Y3428D01*
X11114Y3386D01*
X11223Y3385D01*
X11324Y3427D01*
X11401Y3505D01*
X11443Y3606D01*
X11444Y3689D01*
X11458Y3760D01*
X11458Y3775D01*
X11802Y3775D01*
X12231Y3345D01*
X12231Y3345D01*
X12293Y3304D01*
X12366Y3290D01*
X12905Y3290D01*
X12977Y3304D01*
X12980Y3306D01*
X13563Y3306D01*
X13662Y3206D01*
X13662Y3206D01*
X13704Y3178D01*
X13781Y3102D01*
X13882Y3060D01*
X13977Y3059D01*
X13977Y2864D01*
G54D10*
G36*
X15186Y3014D02*
X15117Y2946D01*
X15007Y2946D01*
X14902Y3051D01*
X14840Y3092D01*
X14768Y3107D01*
X14636Y3107D01*
X14616Y3126D01*
X14515Y3168D01*
X14406Y3169D01*
X14357Y3148D01*
X14357Y3491D01*
X14535Y3491D01*
X14541Y3484D01*
X14596Y3462D01*
X14656Y3461D01*
X14991Y3461D01*
X15046Y3484D01*
X15077Y3515D01*
X15076Y3465D01*
X15076Y3130D01*
X15099Y3075D01*
X15141Y3033D01*
X15186Y3014D01*
X15186Y3014D01*
G37*
G54D38*
X15186Y3014D02*
X15117Y2946D01*
X15007Y2946D01*
X14902Y3051D01*
X14840Y3092D01*
X14768Y3107D01*
X14636Y3107D01*
X14616Y3126D01*
X14515Y3168D01*
X14406Y3169D01*
X14357Y3148D01*
X14357Y3491D01*
X14535Y3491D01*
X14541Y3484D01*
X14596Y3462D01*
X14656Y3461D01*
X14991Y3461D01*
X15046Y3484D01*
X15077Y3515D01*
X15076Y3465D01*
X15076Y3130D01*
X15099Y3075D01*
X15141Y3033D01*
X15186Y3014D01*
G54D10*
G36*
X15733Y5335D02*
X15728Y5335D01*
X15590Y5335D01*
X15590Y5335D01*
X15532Y5335D01*
X15394Y5335D01*
X15394Y5335D01*
X15335Y5335D01*
X15197Y5335D01*
X15142Y5312D01*
X15099Y5270D01*
X15077Y5215D01*
X15076Y5155D01*
X15076Y4830D01*
X15046Y4861D01*
X14991Y4883D01*
X14931Y4884D01*
X14596Y4884D01*
X14541Y4861D01*
X14499Y4819D01*
X14476Y4763D01*
X14476Y4718D01*
X14427Y4738D01*
X14368Y4739D01*
X13918Y4739D01*
X13888Y4726D01*
X13766Y4848D01*
X13704Y4889D01*
X13632Y4904D01*
X12935Y4904D01*
X12900Y4939D01*
X12844Y4962D01*
X12803Y4962D01*
X12793Y5013D01*
X12752Y5075D01*
X12654Y5172D01*
X12656Y5172D01*
X12711Y5195D01*
X12754Y5237D01*
X12776Y5293D01*
X12777Y5352D01*
X12777Y5602D01*
X12754Y5657D01*
X12712Y5700D01*
X12656Y5722D01*
X12597Y5723D01*
X12147Y5723D01*
X12106Y5706D01*
X12065Y5722D01*
X12006Y5723D01*
X11556Y5723D01*
X11501Y5700D01*
X11458Y5658D01*
X11436Y5602D01*
X11435Y5543D01*
X11435Y5293D01*
X11458Y5238D01*
X11500Y5195D01*
X11556Y5173D01*
X11615Y5172D01*
X11625Y5172D01*
X11635Y5123D01*
X11676Y5061D01*
X11775Y4962D01*
X11407Y4962D01*
X11352Y4939D01*
X11309Y4897D01*
X11287Y4842D01*
X11286Y4782D01*
X11286Y4585D01*
X11309Y4530D01*
X11351Y4488D01*
X11401Y4467D01*
X11352Y4447D01*
X11309Y4405D01*
X11287Y4350D01*
X11286Y4290D01*
X11286Y4148D01*
X11246Y4140D01*
X11227Y4127D01*
X11227Y4282D01*
X11204Y4337D01*
X11162Y4380D01*
X11107Y4402D01*
X11047Y4403D01*
X10496Y4403D01*
X10441Y4380D01*
X10408Y4346D01*
X10363Y4376D01*
X10230Y4403D01*
X10057Y4403D01*
X9926Y4376D01*
X9926Y4781D01*
X10169Y4781D01*
X10224Y4804D01*
X10267Y4846D01*
X10289Y4902D01*
X10290Y4961D01*
X10290Y5411D01*
X10267Y5466D01*
X10225Y5509D01*
X10169Y5531D01*
X10110Y5532D01*
X9860Y5532D01*
X9805Y5509D01*
X9762Y5467D01*
X9740Y5411D01*
X9739Y5352D01*
X9739Y5331D01*
X9708Y5310D01*
X9708Y5361D01*
X9676Y5439D01*
X9676Y5658D01*
X9825Y5808D01*
X9848Y5863D01*
X9848Y5923D01*
X9837Y5949D01*
X9863Y5938D01*
X9923Y5938D01*
X9978Y5961D01*
X9984Y5967D01*
X10425Y5527D01*
X10425Y5517D01*
X10405Y5509D01*
X10362Y5467D01*
X10340Y5411D01*
X10339Y5352D01*
X10339Y4902D01*
X10362Y4847D01*
X10404Y4804D01*
X10460Y4782D01*
X10519Y4781D01*
X10769Y4781D01*
X10824Y4804D01*
X10867Y4846D01*
X10889Y4902D01*
X10890Y4961D01*
X10890Y5411D01*
X10867Y5466D01*
X10825Y5509D01*
X10805Y5517D01*
X10805Y5606D01*
X10790Y5678D01*
X10749Y5740D01*
X10249Y6240D01*
X10265Y6280D01*
X10265Y6289D01*
X11489Y6289D01*
X11458Y6258D01*
X11436Y6202D01*
X11435Y6143D01*
X11435Y5893D01*
X11458Y5838D01*
X11500Y5795D01*
X11556Y5773D01*
X11615Y5772D01*
X12065Y5772D01*
X12106Y5789D01*
X12147Y5773D01*
X12206Y5772D01*
X12648Y5772D01*
X13186Y5234D01*
X13259Y5186D01*
X13259Y5186D01*
X13274Y5183D01*
X13346Y5168D01*
X13346Y5169D01*
X13346Y5169D01*
X14127Y5169D01*
X14135Y5161D01*
X14236Y5119D01*
X14345Y5118D01*
X14446Y5160D01*
X14523Y5238D01*
X14565Y5339D01*
X14566Y5448D01*
X14524Y5549D01*
X14454Y5619D01*
X15733Y5619D01*
X15733Y5335D01*
X15733Y5335D01*
G37*
G54D38*
X15733Y5335D02*
X15728Y5335D01*
X15590Y5335D01*
X15590Y5335D01*
X15532Y5335D01*
X15394Y5335D01*
X15394Y5335D01*
X15335Y5335D01*
X15197Y5335D01*
X15142Y5312D01*
X15099Y5270D01*
X15077Y5215D01*
X15076Y5155D01*
X15076Y4830D01*
X15046Y4861D01*
X14991Y4883D01*
X14931Y4884D01*
X14596Y4884D01*
X14541Y4861D01*
X14499Y4819D01*
X14476Y4763D01*
X14476Y4718D01*
X14427Y4738D01*
X14368Y4739D01*
X13918Y4739D01*
X13888Y4726D01*
X13766Y4848D01*
X13704Y4889D01*
X13632Y4904D01*
X12935Y4904D01*
X12900Y4939D01*
X12844Y4962D01*
X12803Y4962D01*
X12793Y5013D01*
X12752Y5075D01*
X12654Y5172D01*
X12656Y5172D01*
X12711Y5195D01*
X12754Y5237D01*
X12776Y5293D01*
X12777Y5352D01*
X12777Y5602D01*
X12754Y5657D01*
X12712Y5700D01*
X12656Y5722D01*
X12597Y5723D01*
X12147Y5723D01*
X12106Y5706D01*
X12065Y5722D01*
X12006Y5723D01*
X11556Y5723D01*
X11501Y5700D01*
X11458Y5658D01*
X11436Y5602D01*
X11435Y5543D01*
X11435Y5293D01*
X11458Y5238D01*
X11500Y5195D01*
X11556Y5173D01*
X11615Y5172D01*
X11625Y5172D01*
X11635Y5123D01*
X11676Y5061D01*
X11775Y4962D01*
X11407Y4962D01*
X11352Y4939D01*
X11309Y4897D01*
X11287Y4842D01*
X11286Y4782D01*
X11286Y4585D01*
X11309Y4530D01*
X11351Y4488D01*
X11401Y4467D01*
X11352Y4447D01*
X11309Y4405D01*
X11287Y4350D01*
X11286Y4290D01*
X11286Y4148D01*
X11246Y4140D01*
X11227Y4127D01*
X11227Y4282D01*
X11204Y4337D01*
X11162Y4380D01*
X11107Y4402D01*
X11047Y4403D01*
X10496Y4403D01*
X10441Y4380D01*
X10408Y4346D01*
X10363Y4376D01*
X10230Y4403D01*
X10057Y4403D01*
X9926Y4376D01*
X9926Y4781D01*
X10169Y4781D01*
X10224Y4804D01*
X10267Y4846D01*
X10289Y4902D01*
X10290Y4961D01*
X10290Y5411D01*
X10267Y5466D01*
X10225Y5509D01*
X10169Y5531D01*
X10110Y5532D01*
X9860Y5532D01*
X9805Y5509D01*
X9762Y5467D01*
X9740Y5411D01*
X9739Y5352D01*
X9739Y5331D01*
X9708Y5310D01*
X9708Y5361D01*
X9676Y5439D01*
X9676Y5658D01*
X9825Y5808D01*
X9848Y5863D01*
X9848Y5923D01*
X9837Y5949D01*
X9863Y5938D01*
X9923Y5938D01*
X9978Y5961D01*
X9984Y5967D01*
X10425Y5527D01*
X10425Y5517D01*
X10405Y5509D01*
X10362Y5467D01*
X10340Y5411D01*
X10339Y5352D01*
X10339Y4902D01*
X10362Y4847D01*
X10404Y4804D01*
X10460Y4782D01*
X10519Y4781D01*
X10769Y4781D01*
X10824Y4804D01*
X10867Y4846D01*
X10889Y4902D01*
X10890Y4961D01*
X10890Y5411D01*
X10867Y5466D01*
X10825Y5509D01*
X10805Y5517D01*
X10805Y5606D01*
X10790Y5678D01*
X10749Y5740D01*
X10249Y6240D01*
X10265Y6280D01*
X10265Y6289D01*
X11489Y6289D01*
X11458Y6258D01*
X11436Y6202D01*
X11435Y6143D01*
X11435Y5893D01*
X11458Y5838D01*
X11500Y5795D01*
X11556Y5773D01*
X11615Y5772D01*
X12065Y5772D01*
X12106Y5789D01*
X12147Y5773D01*
X12206Y5772D01*
X12648Y5772D01*
X13186Y5234D01*
X13259Y5186D01*
X13259Y5186D01*
X13274Y5183D01*
X13346Y5168D01*
X13346Y5169D01*
X13346Y5169D01*
X14127Y5169D01*
X14135Y5161D01*
X14236Y5119D01*
X14345Y5118D01*
X14446Y5160D01*
X14523Y5238D01*
X14565Y5339D01*
X14566Y5448D01*
X14524Y5549D01*
X14454Y5619D01*
X15733Y5619D01*
X15733Y5335D01*
G54D10*
G36*
X18442Y3009D02*
X18431Y2998D01*
X18370Y2999D01*
X18269Y2957D01*
X18192Y2879D01*
X18150Y2778D01*
X18149Y2669D01*
X18153Y2662D01*
X17921Y2662D01*
X17848Y2647D01*
X17786Y2606D01*
X17786Y2606D01*
X17681Y2501D01*
X17498Y2501D01*
X17443Y2478D01*
X17420Y2455D01*
X17368Y2490D01*
X17296Y2505D01*
X15124Y2505D01*
X15063Y2566D01*
X15196Y2566D01*
X15268Y2580D01*
X15330Y2621D01*
X15431Y2723D01*
X16102Y2723D01*
X16164Y2660D01*
X16226Y2619D01*
X16299Y2605D01*
X16693Y2605D01*
X16765Y2619D01*
X16793Y2638D01*
X16865Y2637D01*
X16966Y2679D01*
X17043Y2757D01*
X17068Y2816D01*
X17149Y2735D01*
X17149Y2735D01*
X17211Y2694D01*
X17211Y2694D01*
X17269Y2682D01*
X17283Y2680D01*
X17283Y2680D01*
X17284Y2680D01*
X17321Y2680D01*
X17364Y2637D01*
X17465Y2595D01*
X17574Y2594D01*
X17675Y2636D01*
X17752Y2714D01*
X17794Y2815D01*
X17794Y2835D01*
X17889Y2834D01*
X17990Y2876D01*
X18067Y2954D01*
X18109Y3055D01*
X18110Y3164D01*
X18068Y3265D01*
X17990Y3342D01*
X17889Y3384D01*
X17833Y3385D01*
X17858Y3401D01*
X17936Y3479D01*
X17936Y3479D01*
X17965Y3522D01*
X17979Y3544D01*
X17979Y3544D01*
X17994Y3620D01*
X17995Y3621D01*
X17995Y3736D01*
X18014Y3755D01*
X18285Y3755D01*
X18340Y3778D01*
X18356Y3794D01*
X18356Y3749D01*
X18360Y3740D01*
X18357Y3730D01*
X18356Y3671D01*
X18356Y3553D01*
X18358Y3548D01*
X18357Y3543D01*
X18356Y3484D01*
X18356Y3366D01*
X18379Y3311D01*
X18421Y3268D01*
X18442Y3260D01*
X18442Y3009D01*
X18442Y3009D01*
G37*
G54D38*
X18442Y3009D02*
X18431Y2998D01*
X18370Y2999D01*
X18269Y2957D01*
X18192Y2879D01*
X18150Y2778D01*
X18149Y2669D01*
X18153Y2662D01*
X17921Y2662D01*
X17848Y2647D01*
X17786Y2606D01*
X17786Y2606D01*
X17681Y2501D01*
X17498Y2501D01*
X17443Y2478D01*
X17420Y2455D01*
X17368Y2490D01*
X17296Y2505D01*
X15124Y2505D01*
X15063Y2566D01*
X15196Y2566D01*
X15268Y2580D01*
X15330Y2621D01*
X15431Y2723D01*
X16102Y2723D01*
X16164Y2660D01*
X16226Y2619D01*
X16299Y2605D01*
X16693Y2605D01*
X16765Y2619D01*
X16793Y2638D01*
X16865Y2637D01*
X16966Y2679D01*
X17043Y2757D01*
X17068Y2816D01*
X17149Y2735D01*
X17149Y2735D01*
X17211Y2694D01*
X17211Y2694D01*
X17269Y2682D01*
X17283Y2680D01*
X17283Y2680D01*
X17284Y2680D01*
X17321Y2680D01*
X17364Y2637D01*
X17465Y2595D01*
X17574Y2594D01*
X17675Y2636D01*
X17752Y2714D01*
X17794Y2815D01*
X17794Y2835D01*
X17889Y2834D01*
X17990Y2876D01*
X18067Y2954D01*
X18109Y3055D01*
X18110Y3164D01*
X18068Y3265D01*
X17990Y3342D01*
X17889Y3384D01*
X17833Y3385D01*
X17858Y3401D01*
X17936Y3479D01*
X17936Y3479D01*
X17965Y3522D01*
X17979Y3544D01*
X17979Y3544D01*
X17994Y3620D01*
X17995Y3621D01*
X17995Y3736D01*
X18014Y3755D01*
X18285Y3755D01*
X18340Y3778D01*
X18356Y3794D01*
X18356Y3749D01*
X18360Y3740D01*
X18357Y3730D01*
X18356Y3671D01*
X18356Y3553D01*
X18358Y3548D01*
X18357Y3543D01*
X18356Y3484D01*
X18356Y3366D01*
X18379Y3311D01*
X18421Y3268D01*
X18442Y3260D01*
X18442Y3009D01*
G54D10*
G36*
X18737Y4922D02*
X18645Y4831D01*
X18602Y4766D01*
X18587Y4690D01*
X18587Y4512D01*
X18602Y4435D01*
X18645Y4370D01*
X18668Y4347D01*
X18668Y4234D01*
X18477Y4234D01*
X18455Y4225D01*
X18389Y4225D01*
X18383Y4240D01*
X18341Y4283D01*
X18285Y4305D01*
X18226Y4306D01*
X17776Y4306D01*
X17735Y4289D01*
X17695Y4305D01*
X17636Y4306D01*
X17186Y4306D01*
X17131Y4283D01*
X17116Y4268D01*
X16973Y4412D01*
X16908Y4455D01*
X16832Y4471D01*
X16704Y4471D01*
X16704Y4484D01*
X16729Y4489D01*
X16791Y4530D01*
X16832Y4592D01*
X16847Y4665D01*
X16847Y5104D01*
X16846Y5104D01*
X16847Y5104D01*
X16832Y5176D01*
X16791Y5238D01*
X16791Y5238D01*
X16680Y5348D01*
X16681Y5433D01*
X16679Y5436D01*
X17289Y5436D01*
X17374Y5350D01*
X17374Y5303D01*
X17416Y5202D01*
X17494Y5125D01*
X17595Y5083D01*
X17704Y5082D01*
X17805Y5124D01*
X17882Y5202D01*
X17924Y5303D01*
X17925Y5412D01*
X17883Y5513D01*
X17805Y5590D01*
X17738Y5619D01*
X18257Y5619D01*
X18418Y5643D01*
X18417Y5575D01*
X18459Y5474D01*
X18537Y5397D01*
X18638Y5355D01*
X18737Y5354D01*
X18737Y4922D01*
X18737Y4922D01*
G37*
G54D38*
X18737Y4922D02*
X18645Y4831D01*
X18602Y4766D01*
X18587Y4690D01*
X18587Y4512D01*
X18602Y4435D01*
X18645Y4370D01*
X18668Y4347D01*
X18668Y4234D01*
X18477Y4234D01*
X18455Y4225D01*
X18389Y4225D01*
X18383Y4240D01*
X18341Y4283D01*
X18285Y4305D01*
X18226Y4306D01*
X17776Y4306D01*
X17735Y4289D01*
X17695Y4305D01*
X17636Y4306D01*
X17186Y4306D01*
X17131Y4283D01*
X17116Y4268D01*
X16973Y4412D01*
X16908Y4455D01*
X16832Y4471D01*
X16704Y4471D01*
X16704Y4484D01*
X16729Y4489D01*
X16791Y4530D01*
X16832Y4592D01*
X16847Y4665D01*
X16847Y5104D01*
X16846Y5104D01*
X16847Y5104D01*
X16832Y5176D01*
X16791Y5238D01*
X16791Y5238D01*
X16680Y5348D01*
X16681Y5433D01*
X16679Y5436D01*
X17289Y5436D01*
X17374Y5350D01*
X17374Y5303D01*
X17416Y5202D01*
X17494Y5125D01*
X17595Y5083D01*
X17704Y5082D01*
X17805Y5124D01*
X17882Y5202D01*
X17924Y5303D01*
X17925Y5412D01*
X17883Y5513D01*
X17805Y5590D01*
X17738Y5619D01*
X18257Y5619D01*
X18418Y5643D01*
X18417Y5575D01*
X18459Y5474D01*
X18537Y5397D01*
X18638Y5355D01*
X18737Y5354D01*
X18737Y4922D01*
G54D10*
G36*
X19212Y4614D02*
X19136Y4539D01*
X19123Y4519D01*
X19084Y4481D01*
X19074Y4456D01*
X19067Y4472D01*
X19067Y4472D01*
X19065Y4484D01*
X19062Y4497D01*
X19062Y4497D01*
X19019Y4562D01*
X18987Y4594D01*
X18987Y4607D01*
X19078Y4698D01*
X19078Y4698D01*
X19082Y4704D01*
X19082Y4704D01*
X19137Y4703D01*
X19212Y4629D01*
X19212Y4614D01*
X19212Y4614D01*
G37*
G54D38*
X19212Y4614D02*
X19136Y4539D01*
X19123Y4519D01*
X19084Y4481D01*
X19074Y4456D01*
X19067Y4472D01*
X19067Y4472D01*
X19065Y4484D01*
X19062Y4497D01*
X19062Y4497D01*
X19019Y4562D01*
X18987Y4594D01*
X18987Y4607D01*
X19078Y4698D01*
X19078Y4698D01*
X19082Y4704D01*
X19082Y4704D01*
X19137Y4703D01*
X19212Y4629D01*
X19212Y4614D01*
G54D10*
G36*
X21658Y5910D02*
X21647Y5884D01*
X21647Y5856D01*
X21590Y5798D01*
X21548Y5697D01*
X21547Y5598D01*
X21521Y5567D01*
X21502Y5511D01*
X21381Y5136D01*
X21385Y5076D01*
X21398Y5052D01*
X20608Y4263D01*
X20610Y4269D01*
X20611Y4328D01*
X20611Y4578D01*
X20588Y4633D01*
X20546Y4676D01*
X20490Y4698D01*
X20431Y4699D01*
X19981Y4699D01*
X19926Y4676D01*
X19883Y4634D01*
X19861Y4578D01*
X19860Y4519D01*
X19860Y4269D01*
X19879Y4225D01*
X19858Y4233D01*
X19799Y4234D01*
X19549Y4234D01*
X19494Y4211D01*
X19480Y4197D01*
X19480Y4345D01*
X19536Y4401D01*
X19536Y4401D01*
X19536Y4401D01*
X19577Y4463D01*
X19592Y4536D01*
X19592Y4708D01*
X19591Y4708D01*
X19592Y4708D01*
X19589Y4720D01*
X19577Y4780D01*
X19536Y4842D01*
X19536Y4842D01*
X19512Y4866D01*
X19512Y4883D01*
X19512Y5069D01*
X19698Y4882D01*
X19763Y4839D01*
X19763Y4839D01*
X19776Y4836D01*
X19840Y4824D01*
X19879Y4824D01*
X19883Y4814D01*
X19925Y4771D01*
X19981Y4749D01*
X20040Y4748D01*
X20490Y4748D01*
X20545Y4771D01*
X20588Y4813D01*
X20610Y4869D01*
X20611Y4928D01*
X20611Y5178D01*
X20588Y5233D01*
X20546Y5276D01*
X20490Y5298D01*
X20431Y5299D01*
X20189Y5299D01*
X20234Y5317D01*
X20311Y5395D01*
X20353Y5496D01*
X20354Y5605D01*
X20352Y5608D01*
X20366Y5608D01*
X20421Y5631D01*
X20464Y5673D01*
X20486Y5729D01*
X20487Y5788D01*
X20487Y6238D01*
X20474Y6268D01*
X20561Y6295D01*
X20559Y6294D01*
X20537Y6238D01*
X20536Y6179D01*
X20536Y5729D01*
X20559Y5674D01*
X20601Y5631D01*
X20657Y5609D01*
X20716Y5608D01*
X20966Y5608D01*
X21021Y5631D01*
X21064Y5673D01*
X21086Y5729D01*
X21087Y5788D01*
X21087Y5857D01*
X21141Y5912D01*
X21432Y5912D01*
X21504Y5926D01*
X21509Y5929D01*
X21517Y5922D01*
X21572Y5899D01*
X21632Y5899D01*
X21658Y5910D01*
X21658Y5910D01*
G37*
G54D38*
X21658Y5910D02*
X21647Y5884D01*
X21647Y5856D01*
X21590Y5798D01*
X21548Y5697D01*
X21547Y5598D01*
X21521Y5567D01*
X21502Y5511D01*
X21381Y5136D01*
X21385Y5076D01*
X21398Y5052D01*
X20608Y4263D01*
X20610Y4269D01*
X20611Y4328D01*
X20611Y4578D01*
X20588Y4633D01*
X20546Y4676D01*
X20490Y4698D01*
X20431Y4699D01*
X19981Y4699D01*
X19926Y4676D01*
X19883Y4634D01*
X19861Y4578D01*
X19860Y4519D01*
X19860Y4269D01*
X19879Y4225D01*
X19858Y4233D01*
X19799Y4234D01*
X19549Y4234D01*
X19494Y4211D01*
X19480Y4197D01*
X19480Y4345D01*
X19536Y4401D01*
X19536Y4401D01*
X19536Y4401D01*
X19577Y4463D01*
X19592Y4536D01*
X19592Y4708D01*
X19591Y4708D01*
X19592Y4708D01*
X19589Y4720D01*
X19577Y4780D01*
X19536Y4842D01*
X19536Y4842D01*
X19512Y4866D01*
X19512Y4883D01*
X19512Y5069D01*
X19698Y4882D01*
X19763Y4839D01*
X19763Y4839D01*
X19776Y4836D01*
X19840Y4824D01*
X19879Y4824D01*
X19883Y4814D01*
X19925Y4771D01*
X19981Y4749D01*
X20040Y4748D01*
X20490Y4748D01*
X20545Y4771D01*
X20588Y4813D01*
X20610Y4869D01*
X20611Y4928D01*
X20611Y5178D01*
X20588Y5233D01*
X20546Y5276D01*
X20490Y5298D01*
X20431Y5299D01*
X20189Y5299D01*
X20234Y5317D01*
X20311Y5395D01*
X20353Y5496D01*
X20354Y5605D01*
X20352Y5608D01*
X20366Y5608D01*
X20421Y5631D01*
X20464Y5673D01*
X20486Y5729D01*
X20487Y5788D01*
X20487Y6238D01*
X20474Y6268D01*
X20561Y6295D01*
X20559Y6294D01*
X20537Y6238D01*
X20536Y6179D01*
X20536Y5729D01*
X20559Y5674D01*
X20601Y5631D01*
X20657Y5609D01*
X20716Y5608D01*
X20966Y5608D01*
X21021Y5631D01*
X21064Y5673D01*
X21086Y5729D01*
X21087Y5788D01*
X21087Y5857D01*
X21141Y5912D01*
X21432Y5912D01*
X21504Y5926D01*
X21509Y5929D01*
X21517Y5922D01*
X21572Y5899D01*
X21632Y5899D01*
X21658Y5910D01*
M02*
