G04 (created by PCBNEW (2013-07-07 BZR 4022)-stable) date 07/06/2014 15:45:15*
%MOIN*%
G04 Gerber Fmt 3.4, Leading zero omitted, Abs format*
%FSLAX34Y34*%
G01*
G70*
G90*
G04 APERTURE LIST*
%ADD10C,0.00590551*%
%ADD11C,0.007875*%
%ADD12C,0.0079*%
%ADD13C,0.0098*%
%ADD14C,0.0118*%
%ADD15C,0.00985*%
%ADD16C,0.0099*%
%ADD17C,0.005*%
%ADD18C,0.0001*%
G04 APERTURE END LIST*
G54D10*
G54D11*
X10714Y-5718D02*
X10819Y-5568D01*
X10894Y-5718D02*
X10894Y-5403D01*
X10774Y-5403D01*
X10744Y-5418D01*
X10729Y-5433D01*
X10714Y-5463D01*
X10714Y-5508D01*
X10729Y-5538D01*
X10744Y-5553D01*
X10774Y-5568D01*
X10894Y-5568D01*
X10534Y-5718D02*
X10564Y-5703D01*
X10579Y-5688D01*
X10594Y-5658D01*
X10594Y-5568D01*
X10579Y-5538D01*
X10564Y-5523D01*
X10534Y-5508D01*
X10489Y-5508D01*
X10459Y-5523D01*
X10444Y-5538D01*
X10429Y-5568D01*
X10429Y-5658D01*
X10444Y-5688D01*
X10459Y-5703D01*
X10489Y-5718D01*
X10534Y-5718D01*
X10294Y-5718D02*
X10294Y-5403D01*
X10294Y-5553D02*
X10114Y-5553D01*
X10114Y-5718D02*
X10114Y-5403D01*
X9979Y-5703D02*
X9934Y-5718D01*
X9859Y-5718D01*
X9829Y-5703D01*
X9814Y-5688D01*
X9799Y-5658D01*
X9799Y-5628D01*
X9814Y-5598D01*
X9829Y-5583D01*
X9859Y-5568D01*
X9919Y-5553D01*
X9949Y-5538D01*
X9964Y-5523D01*
X9979Y-5493D01*
X9979Y-5463D01*
X9964Y-5433D01*
X9949Y-5418D01*
X9919Y-5403D01*
X9844Y-5403D01*
X9799Y-5418D01*
G54D12*
G54D13*
X21422Y-1886D02*
X21422Y-1585D01*
G54D14*
X15470Y-4963D02*
X15470Y-4372D01*
X15470Y-4597D02*
X15425Y-4569D01*
X15335Y-4569D01*
X15290Y-4597D01*
X15268Y-4625D01*
X15245Y-4681D01*
X15245Y-4850D01*
X15268Y-4906D01*
X15290Y-4935D01*
X15335Y-4963D01*
X15425Y-4963D01*
X15470Y-4935D01*
X15043Y-4963D02*
X15043Y-4569D01*
X15043Y-4372D02*
X15065Y-4400D01*
X15043Y-4428D01*
X15020Y-4400D01*
X15043Y-4372D01*
X15043Y-4428D01*
X14885Y-4569D02*
X14706Y-4569D01*
X14818Y-4372D02*
X14818Y-4878D01*
X14796Y-4935D01*
X14751Y-4963D01*
X14706Y-4963D01*
X14346Y-4935D02*
X14391Y-4963D01*
X14481Y-4963D01*
X14526Y-4935D01*
X14548Y-4906D01*
X14571Y-4850D01*
X14571Y-4681D01*
X14548Y-4625D01*
X14526Y-4597D01*
X14481Y-4569D01*
X14391Y-4569D01*
X14346Y-4597D01*
X14144Y-4963D02*
X14144Y-4569D01*
X14144Y-4681D02*
X14121Y-4625D01*
X14099Y-4597D01*
X14054Y-4569D01*
X14009Y-4569D01*
X13649Y-4963D02*
X13649Y-4653D01*
X13672Y-4597D01*
X13717Y-4569D01*
X13807Y-4569D01*
X13852Y-4597D01*
X13649Y-4935D02*
X13694Y-4963D01*
X13807Y-4963D01*
X13852Y-4935D01*
X13874Y-4878D01*
X13874Y-4822D01*
X13852Y-4766D01*
X13807Y-4738D01*
X13694Y-4738D01*
X13649Y-4709D01*
X13469Y-4569D02*
X13222Y-4569D01*
X13469Y-4963D01*
X13222Y-4963D01*
X12863Y-4935D02*
X12908Y-4963D01*
X12997Y-4963D01*
X13042Y-4935D01*
X13065Y-4878D01*
X13065Y-4653D01*
X13042Y-4597D01*
X12997Y-4569D01*
X12908Y-4569D01*
X12863Y-4597D01*
X12840Y-4653D01*
X12840Y-4709D01*
X13065Y-4766D01*
X12638Y-4906D02*
X12615Y-4935D01*
X12638Y-4963D01*
X12660Y-4935D01*
X12638Y-4906D01*
X12638Y-4963D01*
X12436Y-4935D02*
X12391Y-4963D01*
X12301Y-4963D01*
X12256Y-4935D01*
X12233Y-4878D01*
X12233Y-4850D01*
X12256Y-4794D01*
X12301Y-4766D01*
X12368Y-4766D01*
X12413Y-4738D01*
X12436Y-4681D01*
X12436Y-4653D01*
X12413Y-4597D01*
X12368Y-4569D01*
X12301Y-4569D01*
X12256Y-4597D01*
X11851Y-4935D02*
X11896Y-4963D01*
X11986Y-4963D01*
X12031Y-4935D01*
X12053Y-4878D01*
X12053Y-4653D01*
X12031Y-4597D01*
X11986Y-4569D01*
X11896Y-4569D01*
X11851Y-4597D01*
X11829Y-4653D01*
X11829Y-4709D01*
X12053Y-4766D01*
G54D12*
X8269Y359D02*
X7875Y359D01*
X8157Y228D01*
X7875Y96D01*
X8269Y96D01*
X8007Y-259D02*
X8269Y-259D01*
X7857Y-165D02*
X8138Y-71D01*
X8138Y-315D01*
X15370Y-7457D02*
X15370Y-7851D01*
X15501Y-7569D01*
X15632Y-7851D01*
X15632Y-7457D01*
X15782Y-7851D02*
X16026Y-7851D01*
X15895Y-7701D01*
X15951Y-7701D01*
X15989Y-7682D01*
X16008Y-7663D01*
X16026Y-7626D01*
X16026Y-7532D01*
X16008Y-7494D01*
X15989Y-7476D01*
X15951Y-7457D01*
X15839Y-7457D01*
X15801Y-7476D01*
X15782Y-7494D01*
X23265Y-357D02*
X23659Y-357D01*
X23378Y-225D01*
X23659Y-94D01*
X23265Y-94D01*
X23622Y74D02*
X23641Y93D01*
X23659Y130D01*
X23659Y224D01*
X23641Y262D01*
X23622Y280D01*
X23584Y299D01*
X23547Y299D01*
X23490Y280D01*
X23265Y55D01*
X23265Y299D01*
X16067Y7440D02*
X16067Y7834D01*
X15935Y7552D01*
X15804Y7834D01*
X15804Y7440D01*
X15410Y7440D02*
X15635Y7440D01*
X15522Y7440D02*
X15522Y7834D01*
X15560Y7777D01*
X15598Y7740D01*
X15635Y7721D01*
G54D11*
X17027Y-5048D02*
X17027Y-4733D01*
X16922Y-4958D01*
X16817Y-4733D01*
X16817Y-5048D01*
X16532Y-4838D02*
X16532Y-5048D01*
X16607Y-4718D02*
X16682Y-4943D01*
X16487Y-4943D01*
G54D12*
G54D11*
X17027Y-3907D02*
X17027Y-3592D01*
X16922Y-3817D01*
X16817Y-3592D01*
X16817Y-3907D01*
X16697Y-3592D02*
X16502Y-3592D01*
X16607Y-3712D01*
X16562Y-3712D01*
X16532Y-3727D01*
X16517Y-3742D01*
X16502Y-3772D01*
X16502Y-3847D01*
X16517Y-3877D01*
X16532Y-3892D01*
X16562Y-3907D01*
X16652Y-3907D01*
X16682Y-3892D01*
X16697Y-3877D01*
G54D12*
G54D11*
X17027Y-2725D02*
X17027Y-2410D01*
X16922Y-2635D01*
X16817Y-2410D01*
X16817Y-2725D01*
X16682Y-2440D02*
X16667Y-2425D01*
X16637Y-2410D01*
X16562Y-2410D01*
X16532Y-2425D01*
X16517Y-2440D01*
X16502Y-2470D01*
X16502Y-2500D01*
X16517Y-2545D01*
X16697Y-2725D01*
X16502Y-2725D01*
G54D12*
G54D11*
X16987Y-1741D02*
X16987Y-1426D01*
X16882Y-1651D01*
X16777Y-1426D01*
X16777Y-1741D01*
X16462Y-1741D02*
X16642Y-1741D01*
X16552Y-1741D02*
X16552Y-1426D01*
X16582Y-1471D01*
X16612Y-1501D01*
X16642Y-1516D01*
G54D12*
G54D15*
X21348Y1346D02*
X21348Y1647D01*
G54D16*
G54D15*
X21188Y700D02*
X21489Y700D01*
X21339Y550D02*
X21339Y850D01*
G54D16*
G54D12*
X13169Y5867D02*
X13169Y6024D01*
X9941Y5867D02*
X9941Y6024D01*
X19972Y-3544D02*
X20172Y-3344D01*
X19972Y-3744D02*
X19972Y-3344D01*
X19972Y-3344D02*
X20972Y-3344D01*
X20972Y-3344D02*
X20972Y-3744D01*
X20972Y-3744D02*
X19972Y-3744D01*
X19983Y4525D02*
X20183Y4725D01*
X20183Y4525D02*
X20183Y4925D01*
X20183Y4925D02*
X19183Y4925D01*
X19183Y4925D02*
X19183Y4525D01*
X19183Y4525D02*
X20183Y4525D01*
G54D17*
X22022Y-5568D02*
X22022Y-4668D01*
X22022Y-4668D02*
X21522Y-4668D01*
X21522Y-4668D02*
X21522Y-5568D01*
X21522Y-5568D02*
X22022Y-5568D01*
X20362Y3159D02*
X20362Y1959D01*
X20362Y1959D02*
X20662Y1959D01*
X20662Y1959D02*
X20662Y3159D01*
X20662Y3159D02*
X20362Y3159D01*
X20227Y-780D02*
X21427Y-780D01*
X21427Y-780D02*
X21427Y-480D01*
X21427Y-480D02*
X20227Y-480D01*
X20227Y-480D02*
X20227Y-780D01*
G54D12*
X20473Y-2008D02*
X21181Y-2008D01*
X21181Y-2008D02*
X21181Y-1456D01*
X21181Y-1456D02*
X20473Y-1456D01*
X20473Y-1456D02*
X20473Y-2008D01*
G54D17*
X20774Y3757D02*
X20774Y2857D01*
X20774Y2857D02*
X21274Y2857D01*
X21274Y2857D02*
X21274Y3757D01*
X21274Y3757D02*
X20774Y3757D01*
G54D12*
X18582Y-2835D02*
X18582Y-2283D01*
X18582Y-2283D02*
X17244Y-2283D01*
X17244Y-2283D02*
X17244Y-2835D01*
X17244Y-2835D02*
X18582Y-2835D01*
X18582Y-5197D02*
X18582Y-4645D01*
X18582Y-4645D02*
X17244Y-4645D01*
X17244Y-4645D02*
X17244Y-5197D01*
X17244Y-5197D02*
X18582Y-5197D01*
X18582Y-1654D02*
X18582Y-1102D01*
X18582Y-1102D02*
X17244Y-1102D01*
X17244Y-1102D02*
X17244Y-1654D01*
X17244Y-1654D02*
X18582Y-1654D01*
X18582Y-4016D02*
X18582Y-3464D01*
X18582Y-3464D02*
X17244Y-3464D01*
X17244Y-3464D02*
X17244Y-4016D01*
X17244Y-4016D02*
X18582Y-4016D01*
G54D17*
X14488Y-511D02*
X14646Y-669D01*
X14646Y-669D02*
X16850Y-669D01*
X16850Y-669D02*
X17008Y-511D01*
X17008Y-511D02*
X17008Y1693D01*
X17008Y1693D02*
X16850Y1851D01*
X16850Y1851D02*
X14685Y1851D01*
X14685Y1851D02*
X14488Y1654D01*
X14488Y1654D02*
X14488Y-511D01*
X14909Y1541D02*
G75*
G03X14909Y1541I-111J0D01*
G74*
G01*
X17795Y-5236D02*
X17795Y-5788D01*
X18267Y-5315D02*
X18267Y-5236D01*
X18267Y-5788D02*
X18267Y-5709D01*
X17559Y-5709D02*
X17559Y-5788D01*
X17559Y-5236D02*
X17559Y-5315D01*
X17559Y-5236D02*
X18267Y-5236D01*
X18267Y-5788D02*
X17559Y-5788D01*
X17795Y-4055D02*
X17795Y-4607D01*
X18267Y-4134D02*
X18267Y-4055D01*
X18267Y-4607D02*
X18267Y-4528D01*
X17559Y-4528D02*
X17559Y-4607D01*
X17559Y-4055D02*
X17559Y-4134D01*
X17559Y-4055D02*
X18267Y-4055D01*
X18267Y-4607D02*
X17559Y-4607D01*
X17795Y-2874D02*
X17795Y-3426D01*
X18267Y-2953D02*
X18267Y-2874D01*
X18267Y-3426D02*
X18267Y-3347D01*
X17559Y-3347D02*
X17559Y-3426D01*
X17559Y-2874D02*
X17559Y-2953D01*
X17559Y-2874D02*
X18267Y-2874D01*
X18267Y-3426D02*
X17559Y-3426D01*
X17795Y-1693D02*
X17795Y-2245D01*
X18267Y-1772D02*
X18267Y-1693D01*
X18267Y-2245D02*
X18267Y-2166D01*
X17559Y-2166D02*
X17559Y-2245D01*
X17559Y-1693D02*
X17559Y-1772D01*
X17559Y-1693D02*
X18267Y-1693D01*
X18267Y-2245D02*
X17559Y-2245D01*
X19974Y-1316D02*
X19974Y-416D01*
X19974Y-416D02*
X19474Y-416D01*
X19474Y-416D02*
X19474Y-1316D01*
X19474Y-1316D02*
X19974Y-1316D01*
X20371Y172D02*
X19471Y172D01*
X19471Y172D02*
X19471Y-328D01*
X19471Y-328D02*
X20371Y-328D01*
X20371Y-328D02*
X20371Y172D01*
X19235Y-2613D02*
X20135Y-2613D01*
X20135Y-2613D02*
X20135Y-2113D01*
X20135Y-2113D02*
X19235Y-2113D01*
X19235Y-2113D02*
X19235Y-2613D01*
X13718Y1037D02*
X12818Y1037D01*
X12818Y1037D02*
X12818Y537D01*
X12818Y537D02*
X13718Y537D01*
X13718Y537D02*
X13718Y1037D01*
X19147Y-4585D02*
X19147Y-3685D01*
X19147Y-3685D02*
X18647Y-3685D01*
X18647Y-3685D02*
X18647Y-4585D01*
X18647Y-4585D02*
X19147Y-4585D01*
X19738Y-3600D02*
X19738Y-2700D01*
X19738Y-2700D02*
X19238Y-2700D01*
X19238Y-2700D02*
X19238Y-3600D01*
X19238Y-3600D02*
X19738Y-3600D01*
X18648Y-2700D02*
X18648Y-3600D01*
X18648Y-3600D02*
X19148Y-3600D01*
X19148Y-3600D02*
X19148Y-2700D01*
X19148Y-2700D02*
X18648Y-2700D01*
X19238Y-3685D02*
X19238Y-4585D01*
X19238Y-4585D02*
X19738Y-4585D01*
X19738Y-4585D02*
X19738Y-3685D01*
X19738Y-3685D02*
X19238Y-3685D01*
X20416Y3884D02*
X21316Y3884D01*
X21316Y3884D02*
X21316Y4384D01*
X21316Y4384D02*
X20416Y4384D01*
X20416Y4384D02*
X20416Y3884D01*
X19820Y3203D02*
X18920Y3203D01*
X18920Y3203D02*
X18920Y2703D01*
X18920Y2703D02*
X19820Y2703D01*
X19820Y2703D02*
X19820Y3203D01*
X18054Y4671D02*
X18954Y4671D01*
X18954Y4671D02*
X18954Y5171D01*
X18954Y5171D02*
X18054Y5171D01*
X18054Y5171D02*
X18054Y4671D01*
X18251Y3293D02*
X19151Y3293D01*
X19151Y3293D02*
X19151Y3793D01*
X19151Y3793D02*
X18251Y3793D01*
X18251Y3793D02*
X18251Y3293D01*
X14820Y-5183D02*
X13920Y-5183D01*
X13920Y-5183D02*
X13920Y-5683D01*
X13920Y-5683D02*
X14820Y-5683D01*
X14820Y-5683D02*
X14820Y-5183D01*
X17030Y4080D02*
X17930Y4080D01*
X17930Y4080D02*
X17930Y4580D01*
X17930Y4580D02*
X17030Y4580D01*
X17030Y4580D02*
X17030Y4080D01*
X17030Y3489D02*
X17930Y3489D01*
X17930Y3489D02*
X17930Y3989D01*
X17930Y3989D02*
X17030Y3989D01*
X17030Y3989D02*
X17030Y3489D01*
X13718Y2297D02*
X12818Y2297D01*
X12818Y2297D02*
X12818Y1797D01*
X12818Y1797D02*
X13718Y1797D01*
X13718Y1797D02*
X13718Y2297D01*
X14229Y-931D02*
X13329Y-931D01*
X13329Y-931D02*
X13329Y-1431D01*
X13329Y-1431D02*
X14229Y-1431D01*
X14229Y-1431D02*
X14229Y-931D01*
X18360Y-1041D02*
X18360Y-141D01*
X18360Y-141D02*
X17860Y-141D01*
X17860Y-141D02*
X17860Y-1041D01*
X17860Y-1041D02*
X18360Y-1041D01*
X17030Y4670D02*
X17930Y4670D01*
X17930Y4670D02*
X17930Y5170D01*
X17930Y5170D02*
X17030Y5170D01*
X17030Y5170D02*
X17030Y4670D01*
X13726Y5174D02*
X13726Y4274D01*
X13726Y4274D02*
X14226Y4274D01*
X14226Y4274D02*
X14226Y5174D01*
X14226Y5174D02*
X13726Y5174D01*
X12730Y534D02*
X12730Y1434D01*
X12730Y1434D02*
X12230Y1434D01*
X12230Y1434D02*
X12230Y534D01*
X12230Y534D02*
X12730Y534D01*
X18923Y-416D02*
X18923Y-1316D01*
X18923Y-1316D02*
X19423Y-1316D01*
X19423Y-1316D02*
X19423Y-416D01*
X19423Y-416D02*
X18923Y-416D01*
X20943Y-4668D02*
X20943Y-5568D01*
X20943Y-5568D02*
X21443Y-5568D01*
X21443Y-5568D02*
X21443Y-4668D01*
X21443Y-4668D02*
X20943Y-4668D01*
X20289Y260D02*
X20289Y1160D01*
X20289Y1160D02*
X19789Y1160D01*
X19789Y1160D02*
X19789Y260D01*
X19789Y260D02*
X20289Y260D01*
X21119Y-2113D02*
X20219Y-2113D01*
X20219Y-2113D02*
X20219Y-2613D01*
X20219Y-2613D02*
X21119Y-2613D01*
X21119Y-2613D02*
X21119Y-2113D01*
X19238Y-4669D02*
X19238Y-5569D01*
X19238Y-5569D02*
X19738Y-5569D01*
X19738Y-5569D02*
X19738Y-4669D01*
X19738Y-4669D02*
X19238Y-4669D01*
X10889Y2821D02*
X11789Y2821D01*
X11789Y2821D02*
X11789Y3321D01*
X11789Y3321D02*
X10889Y3321D01*
X10889Y3321D02*
X10889Y2821D01*
X19826Y-5171D02*
X20726Y-5171D01*
X20726Y-5171D02*
X20726Y-4671D01*
X20726Y-4671D02*
X19826Y-4671D01*
X19826Y-4671D02*
X19826Y-5171D01*
X18954Y4581D02*
X18054Y4581D01*
X18054Y4581D02*
X18054Y4081D01*
X18054Y4081D02*
X18954Y4081D01*
X18954Y4081D02*
X18954Y4581D01*
X20133Y3794D02*
X19233Y3794D01*
X19233Y3794D02*
X19233Y3294D01*
X19233Y3294D02*
X20133Y3294D01*
X20133Y3294D02*
X20133Y3794D01*
X20416Y5065D02*
X21316Y5065D01*
X21316Y5065D02*
X21316Y5565D01*
X21316Y5565D02*
X20416Y5565D01*
X20416Y5565D02*
X20416Y5065D01*
X21316Y4975D02*
X20416Y4975D01*
X20416Y4975D02*
X20416Y4475D01*
X20416Y4475D02*
X21316Y4475D01*
X21316Y4475D02*
X21316Y4975D01*
G54D12*
X11929Y3248D02*
X12540Y3248D01*
X12540Y3248D02*
X12717Y3425D01*
X12717Y3425D02*
X12717Y3602D01*
X11929Y3248D02*
X11929Y3602D01*
X11929Y3602D02*
X12717Y3602D01*
G54D18*
G36*
X14659Y-4259D02*
X14659Y-4044D01*
X14883Y-4043D01*
X14883Y-2729D01*
X13905Y-2728D01*
X13905Y-2513D01*
X13352Y-2513D01*
X13352Y-2728D01*
X12383Y-2728D01*
X12383Y-4044D01*
X12513Y-4044D01*
X12513Y-3914D01*
X12513Y-2858D01*
X13482Y-2858D01*
X13482Y-2729D01*
X13482Y-2643D01*
X13775Y-2643D01*
X13775Y-2729D01*
X13482Y-2729D01*
X13482Y-2858D01*
X14753Y-2858D01*
X14753Y-3914D01*
X12513Y-3914D01*
X12513Y-4044D01*
X12598Y-4044D01*
X12598Y-4259D01*
X12728Y-4259D01*
X12728Y-4129D01*
X12728Y-4043D01*
X13021Y-4043D01*
X13021Y-4129D01*
X12728Y-4129D01*
X12728Y-4259D01*
X13150Y-4259D01*
X13150Y-4044D01*
X14107Y-4044D01*
X14107Y-4259D01*
X14236Y-4259D01*
X14236Y-4129D01*
X14236Y-4043D01*
X14529Y-4043D01*
X14529Y-4129D01*
X14236Y-4129D01*
X14236Y-4259D01*
X14659Y-4259D01*
X14659Y-4259D01*
G37*
G36*
X12901Y-3690D02*
X12908Y-3690D01*
X12915Y-3690D01*
X12942Y-3688D01*
X12970Y-3685D01*
X12997Y-3679D01*
X13023Y-3671D01*
X13047Y-3661D01*
X13069Y-3648D01*
X13090Y-3633D01*
X13096Y-3628D01*
X13103Y-3622D01*
X13110Y-3614D01*
X13117Y-3607D01*
X13123Y-3601D01*
X13129Y-3593D01*
X13143Y-3573D01*
X13154Y-3552D01*
X13163Y-3530D01*
X13169Y-3506D01*
X13173Y-3480D01*
X13174Y-3474D01*
X13175Y-3455D01*
X13175Y-3435D01*
X13174Y-3414D01*
X13173Y-3392D01*
X13170Y-3372D01*
X13166Y-3355D01*
X13158Y-3323D01*
X13148Y-3293D01*
X13135Y-3264D01*
X13119Y-3235D01*
X13101Y-3209D01*
X13081Y-3184D01*
X13059Y-3160D01*
X13049Y-3151D01*
X13029Y-3133D01*
X13007Y-3118D01*
X12984Y-3104D01*
X12979Y-3101D01*
X12951Y-3087D01*
X12922Y-3076D01*
X12891Y-3067D01*
X12860Y-3061D01*
X12827Y-3057D01*
X12825Y-3057D01*
X12817Y-3056D01*
X12807Y-3056D01*
X12797Y-3056D01*
X12786Y-3056D01*
X12775Y-3056D01*
X12766Y-3057D01*
X12759Y-3057D01*
X12752Y-3058D01*
X12718Y-3064D01*
X12684Y-3072D01*
X12650Y-3082D01*
X12616Y-3096D01*
X12614Y-3096D01*
X12609Y-3099D01*
X12606Y-3100D01*
X12605Y-3101D01*
X12604Y-3102D01*
X12604Y-3103D01*
X12604Y-3103D01*
X12605Y-3106D01*
X12606Y-3111D01*
X12607Y-3118D01*
X12609Y-3126D01*
X12610Y-3135D01*
X12612Y-3146D01*
X12615Y-3157D01*
X12617Y-3168D01*
X12619Y-3179D01*
X12621Y-3190D01*
X12623Y-3200D01*
X12625Y-3209D01*
X12626Y-3216D01*
X12628Y-3222D01*
X12628Y-3226D01*
X12629Y-3227D01*
X12629Y-3227D01*
X12630Y-3226D01*
X12633Y-3224D01*
X12637Y-3221D01*
X12650Y-3213D01*
X12671Y-3200D01*
X12693Y-3190D01*
X12715Y-3182D01*
X12737Y-3176D01*
X12761Y-3172D01*
X12764Y-3171D01*
X12770Y-3171D01*
X12779Y-3171D01*
X12788Y-3170D01*
X12796Y-3170D01*
X12804Y-3170D01*
X12810Y-3171D01*
X12820Y-3172D01*
X12842Y-3176D01*
X12862Y-3182D01*
X12882Y-3191D01*
X12890Y-3195D01*
X12906Y-3205D01*
X12921Y-3216D01*
X12936Y-3230D01*
X12950Y-3245D01*
X12966Y-3265D01*
X12979Y-3287D01*
X12990Y-3310D01*
X12999Y-3334D01*
X13006Y-3360D01*
X13010Y-3388D01*
X13010Y-3392D01*
X13011Y-3400D01*
X13011Y-3411D01*
X13012Y-3421D01*
X13012Y-3432D01*
X13011Y-3441D01*
X13011Y-3448D01*
X13010Y-3451D01*
X13007Y-3470D01*
X13002Y-3488D01*
X12996Y-3504D01*
X12987Y-3518D01*
X12985Y-3521D01*
X12978Y-3530D01*
X12970Y-3538D01*
X12962Y-3545D01*
X12962Y-3546D01*
X12947Y-3556D01*
X12931Y-3564D01*
X12912Y-3570D01*
X12892Y-3574D01*
X12888Y-3574D01*
X12881Y-3575D01*
X12872Y-3575D01*
X12863Y-3575D01*
X12854Y-3575D01*
X12846Y-3575D01*
X12839Y-3574D01*
X12828Y-3573D01*
X12806Y-3568D01*
X12784Y-3563D01*
X12762Y-3555D01*
X12738Y-3545D01*
X12713Y-3534D01*
X12687Y-3521D01*
X12684Y-3519D01*
X12680Y-3517D01*
X12677Y-3515D01*
X12675Y-3515D01*
X12675Y-3515D01*
X12676Y-3517D01*
X12676Y-3521D01*
X12678Y-3527D01*
X12679Y-3535D01*
X12681Y-3544D01*
X12683Y-3555D01*
X12685Y-3566D01*
X12688Y-3577D01*
X12690Y-3589D01*
X12692Y-3601D01*
X12694Y-3612D01*
X12696Y-3622D01*
X12698Y-3631D01*
X12700Y-3639D01*
X12701Y-3644D01*
X12702Y-3648D01*
X12702Y-3650D01*
X12703Y-3650D01*
X12705Y-3651D01*
X12710Y-3652D01*
X12715Y-3654D01*
X12722Y-3656D01*
X12729Y-3659D01*
X12736Y-3661D01*
X12743Y-3663D01*
X12748Y-3664D01*
X12755Y-3667D01*
X12791Y-3676D01*
X12825Y-3683D01*
X12859Y-3687D01*
X12892Y-3690D01*
X12896Y-3690D01*
X12901Y-3690D01*
X12901Y-3690D01*
G37*
G36*
X14502Y-3683D02*
X14509Y-3683D01*
X14516Y-3683D01*
X14523Y-3682D01*
X14529Y-3682D01*
X14534Y-3681D01*
X14539Y-3680D01*
X14554Y-3677D01*
X14568Y-3671D01*
X14579Y-3664D01*
X14589Y-3656D01*
X14593Y-3651D01*
X14603Y-3638D01*
X14611Y-3623D01*
X14617Y-3607D01*
X14618Y-3604D01*
X14621Y-3588D01*
X14624Y-3569D01*
X14625Y-3549D01*
X14625Y-3526D01*
X14624Y-3502D01*
X14621Y-3475D01*
X14618Y-3446D01*
X14613Y-3415D01*
X14607Y-3382D01*
X14599Y-3346D01*
X14596Y-3330D01*
X14588Y-3297D01*
X14580Y-3267D01*
X14571Y-3238D01*
X14563Y-3213D01*
X14553Y-3189D01*
X14544Y-3168D01*
X14534Y-3149D01*
X14523Y-3132D01*
X14512Y-3117D01*
X14509Y-3113D01*
X14503Y-3107D01*
X14497Y-3101D01*
X14491Y-3095D01*
X14486Y-3090D01*
X14482Y-3086D01*
X14479Y-3084D01*
X14463Y-3074D01*
X14447Y-3066D01*
X14429Y-3060D01*
X14410Y-3056D01*
X14390Y-3055D01*
X14384Y-3054D01*
X14365Y-3055D01*
X14348Y-3058D01*
X14332Y-3063D01*
X14318Y-3070D01*
X14306Y-3079D01*
X14296Y-3090D01*
X14287Y-3103D01*
X14280Y-3119D01*
X14275Y-3137D01*
X14273Y-3143D01*
X14270Y-3161D01*
X14268Y-3182D01*
X14268Y-3205D01*
X14269Y-3231D01*
X14271Y-3259D01*
X14275Y-3288D01*
X14280Y-3321D01*
X14286Y-3355D01*
X14293Y-3391D01*
X14297Y-3406D01*
X14305Y-3441D01*
X14313Y-3472D01*
X14322Y-3501D01*
X14332Y-3528D01*
X14341Y-3552D01*
X14351Y-3573D01*
X14361Y-3592D01*
X14362Y-3593D01*
X14372Y-3609D01*
X14384Y-3623D01*
X14396Y-3637D01*
X14408Y-3649D01*
X14421Y-3658D01*
X14429Y-3663D01*
X14443Y-3670D01*
X14459Y-3676D01*
X14476Y-3680D01*
X14494Y-3683D01*
X14494Y-3624D01*
X14481Y-3623D01*
X14468Y-3618D01*
X14455Y-3612D01*
X14443Y-3603D01*
X14433Y-3592D01*
X14427Y-3584D01*
X14418Y-3569D01*
X14408Y-3551D01*
X14399Y-3531D01*
X14390Y-3508D01*
X14382Y-3483D01*
X14373Y-3455D01*
X14366Y-3425D01*
X14358Y-3394D01*
X14351Y-3360D01*
X14345Y-3324D01*
X14344Y-3319D01*
X14343Y-3311D01*
X14342Y-3302D01*
X14340Y-3293D01*
X14339Y-3284D01*
X14338Y-3276D01*
X14337Y-3269D01*
X14336Y-3263D01*
X14336Y-3259D01*
X14336Y-3258D01*
X14337Y-3259D01*
X14339Y-3262D01*
X14343Y-3267D01*
X14348Y-3274D01*
X14355Y-3282D01*
X14362Y-3291D01*
X14370Y-3302D01*
X14380Y-3314D01*
X14390Y-3327D01*
X14400Y-3341D01*
X14411Y-3355D01*
X14423Y-3370D01*
X14434Y-3385D01*
X14446Y-3400D01*
X14470Y-3431D01*
X14481Y-3446D01*
X14492Y-3460D01*
X14503Y-3474D01*
X14513Y-3487D01*
X14522Y-3499D01*
X14531Y-3510D01*
X14538Y-3520D01*
X14545Y-3528D01*
X14550Y-3535D01*
X14554Y-3540D01*
X14555Y-3541D01*
X14555Y-3465D01*
X14555Y-3464D01*
X14553Y-3462D01*
X14550Y-3458D01*
X14545Y-3452D01*
X14539Y-3445D01*
X14532Y-3436D01*
X14524Y-3425D01*
X14515Y-3414D01*
X14506Y-3401D01*
X14495Y-3388D01*
X14484Y-3374D01*
X14473Y-3360D01*
X14462Y-3345D01*
X14450Y-3330D01*
X14438Y-3314D01*
X14426Y-3299D01*
X14415Y-3284D01*
X14404Y-3270D01*
X14393Y-3256D01*
X14383Y-3243D01*
X14373Y-3231D01*
X14365Y-3220D01*
X14357Y-3210D01*
X14350Y-3201D01*
X14345Y-3194D01*
X14341Y-3188D01*
X14338Y-3184D01*
X14337Y-3183D01*
X14336Y-3182D01*
X14336Y-3180D01*
X14337Y-3175D01*
X14338Y-3169D01*
X14339Y-3162D01*
X14342Y-3155D01*
X14344Y-3149D01*
X14346Y-3144D01*
X14352Y-3133D01*
X14360Y-3125D01*
X14369Y-3119D01*
X14380Y-3115D01*
X14393Y-3113D01*
X14401Y-3113D01*
X14415Y-3115D01*
X14428Y-3120D01*
X14440Y-3128D01*
X14452Y-3138D01*
X14458Y-3143D01*
X14463Y-3149D01*
X14468Y-3156D01*
X14473Y-3165D01*
X14473Y-3165D01*
X14483Y-3183D01*
X14492Y-3203D01*
X14501Y-3225D01*
X14510Y-3250D01*
X14518Y-3278D01*
X14526Y-3307D01*
X14533Y-3339D01*
X14540Y-3372D01*
X14546Y-3407D01*
X14552Y-3444D01*
X14553Y-3447D01*
X14554Y-3454D01*
X14554Y-3459D01*
X14555Y-3463D01*
X14555Y-3465D01*
X14555Y-3541D01*
X14556Y-3543D01*
X14557Y-3544D01*
X14557Y-3545D01*
X14558Y-3547D01*
X14557Y-3552D01*
X14556Y-3558D01*
X14555Y-3564D01*
X14554Y-3571D01*
X14552Y-3578D01*
X14550Y-3583D01*
X14550Y-3585D01*
X14547Y-3592D01*
X14544Y-3597D01*
X14541Y-3602D01*
X14536Y-3609D01*
X14527Y-3616D01*
X14517Y-3621D01*
X14505Y-3624D01*
X14494Y-3624D01*
X14494Y-3683D01*
X14495Y-3683D01*
X14497Y-3683D01*
X14502Y-3683D01*
X14502Y-3683D01*
G37*
G36*
X13746Y-3678D02*
X13761Y-3678D01*
X13774Y-3678D01*
X13785Y-3678D01*
X13794Y-3678D01*
X13801Y-3678D01*
X13807Y-3678D01*
X13812Y-3678D01*
X13815Y-3678D01*
X13818Y-3678D01*
X13820Y-3678D01*
X13821Y-3678D01*
X13821Y-3677D01*
X13821Y-3677D01*
X13821Y-3677D01*
X13821Y-3674D01*
X13820Y-3668D01*
X13818Y-3660D01*
X13816Y-3650D01*
X13814Y-3638D01*
X13811Y-3625D01*
X13808Y-3609D01*
X13801Y-3573D01*
X13797Y-3553D01*
X13789Y-3510D01*
X13785Y-3487D01*
X13776Y-3440D01*
X13766Y-3390D01*
X13756Y-3341D01*
X13747Y-3292D01*
X13742Y-3268D01*
X13734Y-3222D01*
X13725Y-3180D01*
X13722Y-3161D01*
X13718Y-3143D01*
X13715Y-3127D01*
X13712Y-3112D01*
X13710Y-3100D01*
X13708Y-3089D01*
X13706Y-3080D01*
X13705Y-3073D01*
X13704Y-3069D01*
X13704Y-3068D01*
X13704Y-3068D01*
X13703Y-3068D01*
X13703Y-3067D01*
X13702Y-3067D01*
X13700Y-3067D01*
X13698Y-3067D01*
X13694Y-3067D01*
X13690Y-3067D01*
X13684Y-3067D01*
X13676Y-3067D01*
X13668Y-3067D01*
X13657Y-3067D01*
X13644Y-3067D01*
X13629Y-3067D01*
X13612Y-3067D01*
X13593Y-3067D01*
X13553Y-3067D01*
X13532Y-3067D01*
X13514Y-3067D01*
X13498Y-3067D01*
X13484Y-3067D01*
X13472Y-3067D01*
X13462Y-3067D01*
X13453Y-3067D01*
X13445Y-3068D01*
X13439Y-3068D01*
X13433Y-3068D01*
X13429Y-3068D01*
X13424Y-3068D01*
X13420Y-3069D01*
X13416Y-3069D01*
X13413Y-3069D01*
X13409Y-3070D01*
X13394Y-3072D01*
X13370Y-3076D01*
X13348Y-3082D01*
X13329Y-3089D01*
X13313Y-3097D01*
X13298Y-3107D01*
X13286Y-3118D01*
X13276Y-3131D01*
X13268Y-3145D01*
X13262Y-3161D01*
X13259Y-3178D01*
X13259Y-3180D01*
X13258Y-3193D01*
X13258Y-3207D01*
X13259Y-3221D01*
X13261Y-3234D01*
X13263Y-3242D01*
X13269Y-3261D01*
X13278Y-3279D01*
X13288Y-3295D01*
X13300Y-3310D01*
X13314Y-3324D01*
X13329Y-3334D01*
X13331Y-3336D01*
X13339Y-3340D01*
X13349Y-3344D01*
X13358Y-3348D01*
X13361Y-3349D01*
X13364Y-3350D01*
X13366Y-3351D01*
X13366Y-3351D01*
X13365Y-3352D01*
X13361Y-3353D01*
X13349Y-3358D01*
X13335Y-3366D01*
X13323Y-3375D01*
X13313Y-3384D01*
X13305Y-3395D01*
X13297Y-3408D01*
X13292Y-3423D01*
X13287Y-3439D01*
X13287Y-3441D01*
X13286Y-3444D01*
X13286Y-3447D01*
X13285Y-3451D01*
X13285Y-3455D01*
X13285Y-3461D01*
X13285Y-3469D01*
X13285Y-3474D01*
X13285Y-3484D01*
X13286Y-3492D01*
X13286Y-3497D01*
X13288Y-3510D01*
X13293Y-3530D01*
X13300Y-3549D01*
X13308Y-3566D01*
X13318Y-3583D01*
X13321Y-3587D01*
X13326Y-3592D01*
X13330Y-3597D01*
X13336Y-3603D01*
X13343Y-3611D01*
X13361Y-3625D01*
X13381Y-3638D01*
X13402Y-3649D01*
X13426Y-3658D01*
X13452Y-3666D01*
X13479Y-3672D01*
X13508Y-3676D01*
X13539Y-3678D01*
X13540Y-3678D01*
X13544Y-3678D01*
X13551Y-3678D01*
X13560Y-3678D01*
X13571Y-3678D01*
X13583Y-3678D01*
X13598Y-3678D01*
X13614Y-3678D01*
X13615Y-3678D01*
X13615Y-3571D01*
X13605Y-3571D01*
X13593Y-3571D01*
X13582Y-3571D01*
X13569Y-3571D01*
X13557Y-3571D01*
X13548Y-3570D01*
X13540Y-3570D01*
X13534Y-3570D01*
X13528Y-3569D01*
X13524Y-3569D01*
X13519Y-3568D01*
X13515Y-3567D01*
X13511Y-3566D01*
X13501Y-3563D01*
X13487Y-3556D01*
X13474Y-3548D01*
X13463Y-3538D01*
X13455Y-3526D01*
X13448Y-3512D01*
X13444Y-3496D01*
X13443Y-3492D01*
X13442Y-3481D01*
X13442Y-3471D01*
X13442Y-3461D01*
X13444Y-3453D01*
X13444Y-3451D01*
X13446Y-3447D01*
X13448Y-3442D01*
X13449Y-3439D01*
X13452Y-3435D01*
X13456Y-3431D01*
X13458Y-3428D01*
X13467Y-3422D01*
X13478Y-3417D01*
X13491Y-3414D01*
X13506Y-3412D01*
X13509Y-3411D01*
X13515Y-3411D01*
X13524Y-3411D01*
X13535Y-3411D01*
X13549Y-3411D01*
X13552Y-3411D01*
X13552Y-3303D01*
X13541Y-3303D01*
X13531Y-3303D01*
X13522Y-3303D01*
X13513Y-3303D01*
X13505Y-3303D01*
X13499Y-3303D01*
X13495Y-3303D01*
X13493Y-3303D01*
X13485Y-3302D01*
X13471Y-3298D01*
X13459Y-3294D01*
X13448Y-3287D01*
X13439Y-3279D01*
X13431Y-3270D01*
X13424Y-3258D01*
X13420Y-3245D01*
X13419Y-3242D01*
X13418Y-3235D01*
X13418Y-3226D01*
X13418Y-3219D01*
X13419Y-3212D01*
X13420Y-3207D01*
X13425Y-3198D01*
X13431Y-3189D01*
X13440Y-3183D01*
X13451Y-3178D01*
X13464Y-3175D01*
X13466Y-3175D01*
X13469Y-3175D01*
X13473Y-3175D01*
X13479Y-3175D01*
X13486Y-3174D01*
X13495Y-3174D01*
X13506Y-3174D01*
X13520Y-3174D01*
X13530Y-3174D01*
X13541Y-3174D01*
X13550Y-3174D01*
X13558Y-3174D01*
X13564Y-3175D01*
X13568Y-3175D01*
X13569Y-3175D01*
X13569Y-3176D01*
X13570Y-3180D01*
X13571Y-3186D01*
X13573Y-3194D01*
X13574Y-3203D01*
X13576Y-3214D01*
X13579Y-3226D01*
X13584Y-3251D01*
X13586Y-3263D01*
X13588Y-3274D01*
X13590Y-3284D01*
X13592Y-3292D01*
X13593Y-3298D01*
X13593Y-3302D01*
X13594Y-3303D01*
X13593Y-3303D01*
X13591Y-3303D01*
X13586Y-3303D01*
X13579Y-3303D01*
X13571Y-3303D01*
X13562Y-3303D01*
X13552Y-3303D01*
X13552Y-3411D01*
X13565Y-3411D01*
X13615Y-3411D01*
X13633Y-3504D01*
X13640Y-3542D01*
X13642Y-3551D01*
X13644Y-3565D01*
X13645Y-3569D01*
X13645Y-3571D01*
X13645Y-3571D01*
X13644Y-3571D01*
X13639Y-3571D01*
X13633Y-3571D01*
X13625Y-3571D01*
X13615Y-3571D01*
X13615Y-3678D01*
X13631Y-3678D01*
X13649Y-3678D01*
X13668Y-3678D01*
X13687Y-3678D01*
X13709Y-3678D01*
X13728Y-3678D01*
X13746Y-3678D01*
X13746Y-3678D01*
G37*
G36*
X14237Y-3675D02*
X14245Y-3675D01*
X14255Y-3675D01*
X14263Y-3675D01*
X14269Y-3675D01*
X14273Y-3674D01*
X14274Y-3674D01*
X14274Y-3674D01*
X14272Y-3672D01*
X14269Y-3668D01*
X14265Y-3661D01*
X14259Y-3654D01*
X14252Y-3645D01*
X14244Y-3634D01*
X14235Y-3622D01*
X14225Y-3609D01*
X14215Y-3595D01*
X14204Y-3581D01*
X14188Y-3559D01*
X14176Y-3544D01*
X14165Y-3529D01*
X14155Y-3515D01*
X14146Y-3503D01*
X14137Y-3491D01*
X14130Y-3481D01*
X14123Y-3473D01*
X14118Y-3466D01*
X14115Y-3460D01*
X14112Y-3457D01*
X14111Y-3456D01*
X14112Y-3455D01*
X14113Y-3453D01*
X14114Y-3448D01*
X14117Y-3441D01*
X14120Y-3431D01*
X14124Y-3421D01*
X14128Y-3408D01*
X14133Y-3395D01*
X14138Y-3380D01*
X14144Y-3364D01*
X14150Y-3348D01*
X14153Y-3339D01*
X14158Y-3323D01*
X14164Y-3308D01*
X14169Y-3294D01*
X14173Y-3281D01*
X14178Y-3269D01*
X14181Y-3259D01*
X14184Y-3251D01*
X14186Y-3245D01*
X14187Y-3241D01*
X14188Y-3240D01*
X14188Y-3239D01*
X14188Y-3239D01*
X14187Y-3239D01*
X14185Y-3239D01*
X14182Y-3239D01*
X14177Y-3239D01*
X14170Y-3238D01*
X14161Y-3238D01*
X14150Y-3238D01*
X14112Y-3238D01*
X14112Y-3240D01*
X14111Y-3241D01*
X14110Y-3245D01*
X14108Y-3251D01*
X14106Y-3259D01*
X14104Y-3268D01*
X14101Y-3279D01*
X14097Y-3290D01*
X14094Y-3303D01*
X14090Y-3316D01*
X14086Y-3329D01*
X14083Y-3343D01*
X14079Y-3356D01*
X14075Y-3368D01*
X14072Y-3380D01*
X14069Y-3391D01*
X14066Y-3400D01*
X14064Y-3408D01*
X14063Y-3414D01*
X14062Y-3417D01*
X14061Y-3419D01*
X14061Y-3419D01*
X14061Y-3419D01*
X14059Y-3417D01*
X14058Y-3415D01*
X14055Y-3412D01*
X14052Y-3407D01*
X14048Y-3401D01*
X14042Y-3394D01*
X14036Y-3384D01*
X14029Y-3374D01*
X14020Y-3361D01*
X14010Y-3346D01*
X13998Y-3329D01*
X13937Y-3239D01*
X13901Y-3239D01*
X13893Y-3239D01*
X13883Y-3239D01*
X13876Y-3239D01*
X13871Y-3239D01*
X13868Y-3239D01*
X13866Y-3239D01*
X13865Y-3239D01*
X13865Y-3239D01*
X13865Y-3240D01*
X13865Y-3240D01*
X13867Y-3242D01*
X13870Y-3246D01*
X13874Y-3252D01*
X13880Y-3260D01*
X13895Y-3280D01*
X13914Y-3305D01*
X13952Y-3355D01*
X13963Y-3370D01*
X13974Y-3385D01*
X13984Y-3398D01*
X13993Y-3410D01*
X14001Y-3422D01*
X14009Y-3432D01*
X14015Y-3440D01*
X14020Y-3447D01*
X14024Y-3452D01*
X14026Y-3455D01*
X14027Y-3457D01*
X14027Y-3457D01*
X14026Y-3460D01*
X14025Y-3465D01*
X14022Y-3472D01*
X14019Y-3482D01*
X14015Y-3492D01*
X14011Y-3505D01*
X14006Y-3518D01*
X14001Y-3533D01*
X13995Y-3549D01*
X13989Y-3566D01*
X13986Y-3575D01*
X13980Y-3591D01*
X13975Y-3607D01*
X13970Y-3621D01*
X13965Y-3634D01*
X13961Y-3645D01*
X13958Y-3655D01*
X13955Y-3663D01*
X13953Y-3669D01*
X13951Y-3673D01*
X13951Y-3674D01*
X13952Y-3674D01*
X13955Y-3675D01*
X13960Y-3675D01*
X13968Y-3675D01*
X13978Y-3675D01*
X13990Y-3675D01*
X14029Y-3675D01*
X14041Y-3629D01*
X14047Y-3606D01*
X14053Y-3586D01*
X14058Y-3568D01*
X14062Y-3552D01*
X14066Y-3539D01*
X14069Y-3528D01*
X14071Y-3518D01*
X14073Y-3511D01*
X14075Y-3505D01*
X14076Y-3500D01*
X14077Y-3497D01*
X14078Y-3495D01*
X14078Y-3495D01*
X14079Y-3495D01*
X14079Y-3495D01*
X14080Y-3496D01*
X14083Y-3500D01*
X14087Y-3506D01*
X14092Y-3514D01*
X14098Y-3523D01*
X14105Y-3533D01*
X14113Y-3545D01*
X14121Y-3557D01*
X14130Y-3571D01*
X14140Y-3585D01*
X14200Y-3675D01*
X14237Y-3675D01*
X14237Y-3675D01*
G37*
G54D17*
X21710Y-6046D02*
X21905Y-6241D01*
X21347Y-6297D02*
G75*
G03X21347Y-6297I-26J0D01*
G74*
G01*
X22253Y-6005D02*
X21753Y-6505D01*
X21753Y-6505D02*
X21724Y-6477D01*
X22225Y-5976D02*
X22253Y-6005D01*
X21975Y-5726D02*
X21946Y-5698D01*
X21946Y-5698D02*
X21446Y-6198D01*
X21446Y-6198D02*
X21474Y-6227D01*
G54D10*
X20748Y-1938D02*
X20906Y-1938D01*
X20748Y-1525D02*
X20906Y-1525D01*
X20906Y-1938D02*
G75*
G03X20906Y-1525I0J206D01*
G74*
G01*
X20748Y-1525D02*
G75*
G03X20748Y-1938I0J-206D01*
G74*
G01*
X17338Y-2391D02*
X17338Y-2726D01*
X17829Y-2726D01*
X17829Y-2391D01*
X17338Y-2391D01*
X18163Y-2726D02*
X18320Y-2726D01*
X18163Y-2391D02*
X18320Y-2391D01*
X18320Y-2726D02*
G75*
G03X18320Y-2391I0J167D01*
G74*
G01*
X18163Y-2391D02*
G75*
G03X18163Y-2726I0J-167D01*
G74*
G01*
X17338Y-4753D02*
X17338Y-5088D01*
X17829Y-5088D01*
X17829Y-4753D01*
X17338Y-4753D01*
X18163Y-5088D02*
X18320Y-5088D01*
X18163Y-4753D02*
X18320Y-4753D01*
X18320Y-5088D02*
G75*
G03X18320Y-4753I0J167D01*
G74*
G01*
X18163Y-4753D02*
G75*
G03X18163Y-5088I0J-167D01*
G74*
G01*
X17338Y-1210D02*
X17338Y-1545D01*
X17829Y-1545D01*
X17829Y-1210D01*
X17338Y-1210D01*
X18163Y-1545D02*
X18320Y-1545D01*
X18163Y-1210D02*
X18320Y-1210D01*
X18320Y-1545D02*
G75*
G03X18320Y-1210I0J167D01*
G74*
G01*
X18163Y-1210D02*
G75*
G03X18163Y-1545I0J-167D01*
G74*
G01*
X17338Y-3572D02*
X17338Y-3907D01*
X17829Y-3907D01*
X17829Y-3572D01*
X17338Y-3572D01*
X18163Y-3907D02*
X18320Y-3907D01*
X18163Y-3572D02*
X18320Y-3572D01*
X18320Y-3907D02*
G75*
G03X18320Y-3572I0J167D01*
G74*
G01*
X18163Y-3572D02*
G75*
G03X18163Y-3907I0J-167D01*
G74*
G01*
X19336Y787D02*
G75*
G03X19336Y787I-45J0D01*
G74*
G01*
X19139Y590D02*
G75*
G03X19139Y590I-45J0D01*
G74*
G01*
X19533Y590D02*
G75*
G03X19533Y590I-45J0D01*
G74*
G01*
X19139Y984D02*
G75*
G03X19139Y984I-45J0D01*
G74*
G01*
X19533Y984D02*
G75*
G03X19533Y984I-45J0D01*
G74*
G01*
G54D11*
X11807Y5859D02*
X11807Y6174D01*
X11687Y6174D01*
X11657Y6159D01*
X11642Y6144D01*
X11627Y6114D01*
X11627Y6069D01*
X11642Y6039D01*
X11657Y6024D01*
X11687Y6009D01*
X11807Y6009D01*
X11522Y6174D02*
X11312Y6174D01*
X11447Y5859D01*
G54D12*
G54D11*
X20713Y-2901D02*
X20713Y-3156D01*
X20698Y-3186D01*
X20683Y-3201D01*
X20653Y-3216D01*
X20593Y-3216D01*
X20563Y-3201D01*
X20548Y-3186D01*
X20533Y-3156D01*
X20533Y-2901D01*
X20368Y-3216D02*
X20308Y-3216D01*
X20278Y-3201D01*
X20263Y-3186D01*
X20233Y-3141D01*
X20218Y-3081D01*
X20218Y-2961D01*
X20233Y-2931D01*
X20248Y-2916D01*
X20278Y-2901D01*
X20338Y-2901D01*
X20368Y-2916D01*
X20383Y-2931D01*
X20398Y-2961D01*
X20398Y-3036D01*
X20383Y-3066D01*
X20368Y-3081D01*
X20338Y-3096D01*
X20278Y-3096D01*
X20248Y-3081D01*
X20233Y-3066D01*
X20218Y-3036D01*
G54D12*
G54D11*
X19945Y5365D02*
X19945Y5110D01*
X19930Y5080D01*
X19915Y5065D01*
X19885Y5050D01*
X19825Y5050D01*
X19795Y5065D01*
X19780Y5080D01*
X19765Y5110D01*
X19765Y5365D01*
X19645Y5365D02*
X19435Y5365D01*
X19570Y5050D01*
G54D12*
G54D11*
X21899Y-4915D02*
X21749Y-4810D01*
X21899Y-4735D02*
X21584Y-4735D01*
X21584Y-4855D01*
X21599Y-4885D01*
X21614Y-4900D01*
X21644Y-4915D01*
X21689Y-4915D01*
X21719Y-4900D01*
X21734Y-4885D01*
X21749Y-4855D01*
X21749Y-4735D01*
X21584Y-5020D02*
X21584Y-5215D01*
X21704Y-5110D01*
X21704Y-5155D01*
X21719Y-5185D01*
X21734Y-5200D01*
X21764Y-5215D01*
X21839Y-5215D01*
X21869Y-5200D01*
X21884Y-5185D01*
X21899Y-5155D01*
X21899Y-5065D01*
X21884Y-5035D01*
X21869Y-5020D01*
X21719Y-5395D02*
X21704Y-5365D01*
X21689Y-5350D01*
X21659Y-5335D01*
X21644Y-5335D01*
X21614Y-5350D01*
X21599Y-5365D01*
X21584Y-5395D01*
X21584Y-5455D01*
X21599Y-5485D01*
X21614Y-5500D01*
X21644Y-5515D01*
X21659Y-5515D01*
X21689Y-5500D01*
X21704Y-5485D01*
X21719Y-5455D01*
X21719Y-5395D01*
X21734Y-5365D01*
X21749Y-5350D01*
X21779Y-5335D01*
X21839Y-5335D01*
X21869Y-5350D01*
X21884Y-5365D01*
X21899Y-5395D01*
X21899Y-5455D01*
X21884Y-5485D01*
X21869Y-5500D01*
X21839Y-5515D01*
X21779Y-5515D01*
X21749Y-5500D01*
X21734Y-5485D01*
X21719Y-5455D01*
G54D12*
G54D11*
X20295Y2551D02*
X20280Y2581D01*
X20250Y2611D01*
X20205Y2656D01*
X20190Y2686D01*
X20190Y2716D01*
X20265Y2701D02*
X20250Y2731D01*
X20220Y2761D01*
X20160Y2776D01*
X20055Y2776D01*
X19995Y2761D01*
X19965Y2731D01*
X19950Y2701D01*
X19950Y2641D01*
X19965Y2611D01*
X19995Y2581D01*
X20055Y2566D01*
X20160Y2566D01*
X20220Y2581D01*
X20250Y2611D01*
X20265Y2641D01*
X20265Y2701D01*
X19950Y2296D02*
X19950Y2356D01*
X19965Y2386D01*
X19980Y2401D01*
X20025Y2431D01*
X20085Y2446D01*
X20205Y2446D01*
X20235Y2431D01*
X20250Y2416D01*
X20265Y2386D01*
X20265Y2326D01*
X20250Y2296D01*
X20235Y2281D01*
X20205Y2266D01*
X20130Y2266D01*
X20100Y2281D01*
X20085Y2296D01*
X20070Y2326D01*
X20070Y2386D01*
X20085Y2416D01*
X20100Y2431D01*
X20130Y2446D01*
G54D12*
G54D11*
X20837Y-1199D02*
X20867Y-1184D01*
X20897Y-1154D01*
X20942Y-1109D01*
X20972Y-1094D01*
X21002Y-1094D01*
X20987Y-1169D02*
X21017Y-1154D01*
X21047Y-1124D01*
X21062Y-1064D01*
X21062Y-959D01*
X21047Y-899D01*
X21017Y-869D01*
X20987Y-854D01*
X20927Y-854D01*
X20897Y-869D01*
X20867Y-899D01*
X20852Y-959D01*
X20852Y-1064D01*
X20867Y-1124D01*
X20897Y-1154D01*
X20927Y-1169D01*
X20987Y-1169D01*
X20567Y-854D02*
X20717Y-854D01*
X20732Y-1004D01*
X20717Y-989D01*
X20687Y-974D01*
X20612Y-974D01*
X20582Y-989D01*
X20567Y-1004D01*
X20552Y-1034D01*
X20552Y-1109D01*
X20567Y-1139D01*
X20582Y-1154D01*
X20612Y-1169D01*
X20687Y-1169D01*
X20717Y-1154D01*
X20732Y-1139D01*
G54D12*
G54D11*
X21059Y-1878D02*
X21059Y-1563D01*
X20939Y-1563D01*
X20909Y-1578D01*
X20894Y-1593D01*
X20879Y-1623D01*
X20879Y-1668D01*
X20894Y-1698D01*
X20909Y-1713D01*
X20939Y-1728D01*
X21059Y-1728D01*
X20729Y-1878D02*
X20669Y-1878D01*
X20639Y-1863D01*
X20624Y-1848D01*
X20594Y-1803D01*
X20579Y-1743D01*
X20579Y-1623D01*
X20594Y-1593D01*
X20609Y-1578D01*
X20639Y-1563D01*
X20699Y-1563D01*
X20729Y-1578D01*
X20744Y-1593D01*
X20759Y-1623D01*
X20759Y-1698D01*
X20744Y-1728D01*
X20729Y-1743D01*
X20699Y-1758D01*
X20639Y-1758D01*
X20609Y-1743D01*
X20594Y-1728D01*
X20579Y-1698D01*
G54D12*
G54D11*
X21151Y3509D02*
X21001Y3614D01*
X21151Y3689D02*
X20836Y3689D01*
X20836Y3569D01*
X20851Y3539D01*
X20866Y3524D01*
X20896Y3509D01*
X20941Y3509D01*
X20971Y3524D01*
X20986Y3539D01*
X21001Y3569D01*
X21001Y3689D01*
X20836Y3404D02*
X20836Y3209D01*
X20956Y3314D01*
X20956Y3269D01*
X20971Y3239D01*
X20986Y3224D01*
X21016Y3209D01*
X21091Y3209D01*
X21121Y3224D01*
X21136Y3239D01*
X21151Y3269D01*
X21151Y3359D01*
X21136Y3389D01*
X21121Y3404D01*
X20836Y3104D02*
X20836Y2909D01*
X20956Y3014D01*
X20956Y2969D01*
X20971Y2939D01*
X20986Y2924D01*
X21016Y2909D01*
X21091Y2909D01*
X21121Y2924D01*
X21136Y2939D01*
X21151Y2969D01*
X21151Y3059D01*
X21136Y3089D01*
X21121Y3104D01*
G54D12*
G54D11*
X18165Y-2705D02*
X18165Y-2390D01*
X18045Y-2390D01*
X18015Y-2405D01*
X18000Y-2420D01*
X17985Y-2450D01*
X17985Y-2495D01*
X18000Y-2525D01*
X18015Y-2540D01*
X18045Y-2555D01*
X18165Y-2555D01*
X17865Y-2420D02*
X17850Y-2405D01*
X17820Y-2390D01*
X17745Y-2390D01*
X17715Y-2405D01*
X17700Y-2420D01*
X17685Y-2450D01*
X17685Y-2480D01*
X17700Y-2525D01*
X17880Y-2705D01*
X17685Y-2705D01*
G54D12*
G54D11*
X18185Y-5086D02*
X18185Y-4771D01*
X18065Y-4771D01*
X18035Y-4786D01*
X18020Y-4801D01*
X18005Y-4831D01*
X18005Y-4876D01*
X18020Y-4906D01*
X18035Y-4921D01*
X18065Y-4936D01*
X18185Y-4936D01*
X17735Y-4876D02*
X17735Y-5086D01*
X17810Y-4756D02*
X17885Y-4981D01*
X17690Y-4981D01*
G54D12*
G54D11*
X18165Y-1523D02*
X18165Y-1208D01*
X18045Y-1208D01*
X18015Y-1223D01*
X18000Y-1238D01*
X17985Y-1268D01*
X17985Y-1313D01*
X18000Y-1343D01*
X18015Y-1358D01*
X18045Y-1373D01*
X18165Y-1373D01*
X17685Y-1523D02*
X17865Y-1523D01*
X17775Y-1523D02*
X17775Y-1208D01*
X17805Y-1253D01*
X17835Y-1283D01*
X17865Y-1298D01*
G54D12*
G54D11*
X18165Y-3886D02*
X18165Y-3571D01*
X18045Y-3571D01*
X18015Y-3586D01*
X18000Y-3601D01*
X17985Y-3631D01*
X17985Y-3676D01*
X18000Y-3706D01*
X18015Y-3721D01*
X18045Y-3736D01*
X18165Y-3736D01*
X17880Y-3571D02*
X17685Y-3571D01*
X17790Y-3691D01*
X17745Y-3691D01*
X17715Y-3706D01*
X17700Y-3721D01*
X17685Y-3751D01*
X17685Y-3826D01*
X17700Y-3856D01*
X17715Y-3871D01*
X17745Y-3886D01*
X17835Y-3886D01*
X17865Y-3871D01*
X17880Y-3856D01*
G54D12*
G54D11*
X15968Y1033D02*
X15968Y778D01*
X15953Y748D01*
X15938Y733D01*
X15908Y718D01*
X15848Y718D01*
X15818Y733D01*
X15803Y748D01*
X15788Y778D01*
X15788Y1033D01*
X15473Y718D02*
X15653Y718D01*
X15563Y718D02*
X15563Y1033D01*
X15593Y988D01*
X15623Y958D01*
X15653Y943D01*
G54D12*
G54D11*
X17437Y-5677D02*
X17437Y-5362D01*
X17362Y-5362D01*
X17317Y-5377D01*
X17287Y-5407D01*
X17272Y-5437D01*
X17257Y-5497D01*
X17257Y-5542D01*
X17272Y-5602D01*
X17287Y-5632D01*
X17317Y-5662D01*
X17362Y-5677D01*
X17437Y-5677D01*
X16987Y-5467D02*
X16987Y-5677D01*
X17062Y-5347D02*
X17137Y-5572D01*
X16942Y-5572D01*
G54D12*
G54D11*
X17437Y-4476D02*
X17437Y-4161D01*
X17362Y-4161D01*
X17317Y-4176D01*
X17287Y-4206D01*
X17272Y-4236D01*
X17257Y-4296D01*
X17257Y-4341D01*
X17272Y-4401D01*
X17287Y-4431D01*
X17317Y-4461D01*
X17362Y-4476D01*
X17437Y-4476D01*
X17152Y-4161D02*
X16957Y-4161D01*
X17062Y-4281D01*
X17017Y-4281D01*
X16987Y-4296D01*
X16972Y-4311D01*
X16957Y-4341D01*
X16957Y-4416D01*
X16972Y-4446D01*
X16987Y-4461D01*
X17017Y-4476D01*
X17107Y-4476D01*
X17137Y-4461D01*
X17152Y-4446D01*
G54D12*
G54D11*
X17437Y-3315D02*
X17437Y-3000D01*
X17362Y-3000D01*
X17317Y-3015D01*
X17287Y-3045D01*
X17272Y-3075D01*
X17257Y-3135D01*
X17257Y-3180D01*
X17272Y-3240D01*
X17287Y-3270D01*
X17317Y-3300D01*
X17362Y-3315D01*
X17437Y-3315D01*
X17137Y-3030D02*
X17122Y-3015D01*
X17092Y-3000D01*
X17017Y-3000D01*
X16987Y-3015D01*
X16972Y-3030D01*
X16957Y-3060D01*
X16957Y-3090D01*
X16972Y-3135D01*
X17152Y-3315D01*
X16957Y-3315D01*
G54D12*
G54D11*
X17456Y-2094D02*
X17456Y-1779D01*
X17381Y-1779D01*
X17336Y-1794D01*
X17306Y-1824D01*
X17291Y-1854D01*
X17276Y-1914D01*
X17276Y-1959D01*
X17291Y-2019D01*
X17306Y-2049D01*
X17336Y-2079D01*
X17381Y-2094D01*
X17456Y-2094D01*
X16976Y-2094D02*
X17156Y-2094D01*
X17066Y-2094D02*
X17066Y-1779D01*
X17096Y-1824D01*
X17126Y-1854D01*
X17156Y-1869D01*
G54D12*
G54D11*
X19811Y-663D02*
X19661Y-558D01*
X19811Y-483D02*
X19496Y-483D01*
X19496Y-603D01*
X19511Y-633D01*
X19526Y-648D01*
X19556Y-663D01*
X19601Y-663D01*
X19631Y-648D01*
X19646Y-633D01*
X19661Y-603D01*
X19661Y-483D01*
X19496Y-768D02*
X19496Y-963D01*
X19616Y-858D01*
X19616Y-903D01*
X19631Y-933D01*
X19646Y-948D01*
X19676Y-963D01*
X19751Y-963D01*
X19781Y-948D01*
X19796Y-933D01*
X19811Y-903D01*
X19811Y-813D01*
X19796Y-783D01*
X19781Y-768D01*
X19526Y-1083D02*
X19511Y-1098D01*
X19496Y-1128D01*
X19496Y-1203D01*
X19511Y-1233D01*
X19526Y-1248D01*
X19556Y-1263D01*
X19586Y-1263D01*
X19631Y-1248D01*
X19811Y-1068D01*
X19811Y-1263D01*
G54D12*
G54D11*
X20123Y-245D02*
X20228Y-95D01*
X20303Y-245D02*
X20303Y69D01*
X20183Y69D01*
X20153Y54D01*
X20138Y39D01*
X20123Y9D01*
X20123Y-35D01*
X20138Y-65D01*
X20153Y-80D01*
X20183Y-95D01*
X20303Y-95D01*
X20018Y69D02*
X19823Y69D01*
X19928Y-50D01*
X19883Y-50D01*
X19853Y-65D01*
X19838Y-80D01*
X19823Y-110D01*
X19823Y-185D01*
X19838Y-215D01*
X19853Y-230D01*
X19883Y-245D01*
X19973Y-245D01*
X20003Y-230D01*
X20018Y-215D01*
X19628Y69D02*
X19598Y69D01*
X19568Y54D01*
X19553Y39D01*
X19538Y9D01*
X19523Y-50D01*
X19523Y-125D01*
X19538Y-185D01*
X19553Y-215D01*
X19568Y-230D01*
X19598Y-245D01*
X19628Y-245D01*
X19658Y-230D01*
X19673Y-215D01*
X19688Y-185D01*
X19703Y-125D01*
X19703Y-50D01*
X19688Y9D01*
X19673Y39D01*
X19658Y54D01*
X19628Y69D01*
G54D12*
G54D11*
X19887Y-2529D02*
X19992Y-2379D01*
X20067Y-2529D02*
X20067Y-2214D01*
X19947Y-2214D01*
X19917Y-2229D01*
X19902Y-2244D01*
X19887Y-2274D01*
X19887Y-2319D01*
X19902Y-2349D01*
X19917Y-2364D01*
X19947Y-2379D01*
X20067Y-2379D01*
X19767Y-2244D02*
X19752Y-2229D01*
X19722Y-2214D01*
X19647Y-2214D01*
X19617Y-2229D01*
X19602Y-2244D01*
X19587Y-2274D01*
X19587Y-2304D01*
X19602Y-2349D01*
X19782Y-2529D01*
X19587Y-2529D01*
X19437Y-2529D02*
X19377Y-2529D01*
X19347Y-2514D01*
X19332Y-2499D01*
X19302Y-2454D01*
X19287Y-2394D01*
X19287Y-2274D01*
X19302Y-2244D01*
X19317Y-2229D01*
X19347Y-2214D01*
X19407Y-2214D01*
X19437Y-2229D01*
X19452Y-2244D01*
X19467Y-2274D01*
X19467Y-2349D01*
X19452Y-2379D01*
X19437Y-2394D01*
X19407Y-2409D01*
X19347Y-2409D01*
X19317Y-2394D01*
X19302Y-2379D01*
X19287Y-2349D01*
G54D12*
G54D11*
X13320Y620D02*
X13425Y770D01*
X13500Y620D02*
X13500Y935D01*
X13380Y935D01*
X13350Y920D01*
X13335Y905D01*
X13320Y875D01*
X13320Y830D01*
X13335Y800D01*
X13350Y785D01*
X13380Y770D01*
X13500Y770D01*
X13215Y935D02*
X13005Y935D01*
X13140Y620D01*
G54D12*
G54D11*
X19064Y-3931D02*
X18914Y-3826D01*
X19064Y-3751D02*
X18749Y-3751D01*
X18749Y-3871D01*
X18764Y-3901D01*
X18779Y-3916D01*
X18809Y-3931D01*
X18854Y-3931D01*
X18884Y-3916D01*
X18899Y-3901D01*
X18914Y-3871D01*
X18914Y-3751D01*
X18779Y-4051D02*
X18764Y-4066D01*
X18749Y-4096D01*
X18749Y-4171D01*
X18764Y-4201D01*
X18779Y-4216D01*
X18809Y-4231D01*
X18839Y-4231D01*
X18884Y-4216D01*
X19064Y-4036D01*
X19064Y-4231D01*
X18884Y-4411D02*
X18869Y-4381D01*
X18854Y-4366D01*
X18824Y-4351D01*
X18809Y-4351D01*
X18779Y-4366D01*
X18764Y-4381D01*
X18749Y-4411D01*
X18749Y-4471D01*
X18764Y-4501D01*
X18779Y-4516D01*
X18809Y-4531D01*
X18824Y-4531D01*
X18854Y-4516D01*
X18869Y-4501D01*
X18884Y-4471D01*
X18884Y-4411D01*
X18899Y-4381D01*
X18914Y-4366D01*
X18944Y-4351D01*
X19004Y-4351D01*
X19034Y-4366D01*
X19049Y-4381D01*
X19064Y-4411D01*
X19064Y-4471D01*
X19049Y-4501D01*
X19034Y-4516D01*
X19004Y-4531D01*
X18944Y-4531D01*
X18914Y-4516D01*
X18899Y-4501D01*
X18884Y-4471D01*
G54D12*
G54D11*
X19655Y-2947D02*
X19505Y-2842D01*
X19655Y-2767D02*
X19340Y-2767D01*
X19340Y-2887D01*
X19355Y-2917D01*
X19370Y-2932D01*
X19400Y-2947D01*
X19445Y-2947D01*
X19475Y-2932D01*
X19490Y-2917D01*
X19505Y-2887D01*
X19505Y-2767D01*
X19370Y-3067D02*
X19355Y-3082D01*
X19340Y-3112D01*
X19340Y-3187D01*
X19355Y-3217D01*
X19370Y-3232D01*
X19400Y-3247D01*
X19430Y-3247D01*
X19475Y-3232D01*
X19655Y-3052D01*
X19655Y-3247D01*
X19340Y-3352D02*
X19340Y-3547D01*
X19460Y-3442D01*
X19460Y-3487D01*
X19475Y-3517D01*
X19490Y-3532D01*
X19520Y-3547D01*
X19595Y-3547D01*
X19625Y-3532D01*
X19640Y-3517D01*
X19655Y-3487D01*
X19655Y-3397D01*
X19640Y-3367D01*
X19625Y-3352D01*
G54D12*
G54D11*
X19064Y-2986D02*
X18914Y-2881D01*
X19064Y-2806D02*
X18749Y-2806D01*
X18749Y-2926D01*
X18764Y-2956D01*
X18779Y-2971D01*
X18809Y-2986D01*
X18854Y-2986D01*
X18884Y-2971D01*
X18899Y-2956D01*
X18914Y-2926D01*
X18914Y-2806D01*
X18779Y-3106D02*
X18764Y-3121D01*
X18749Y-3151D01*
X18749Y-3226D01*
X18764Y-3256D01*
X18779Y-3271D01*
X18809Y-3286D01*
X18839Y-3286D01*
X18884Y-3271D01*
X19064Y-3091D01*
X19064Y-3286D01*
X19064Y-3586D02*
X19064Y-3406D01*
X19064Y-3496D02*
X18749Y-3496D01*
X18794Y-3466D01*
X18824Y-3436D01*
X18839Y-3406D01*
G54D12*
G54D11*
X19655Y-3931D02*
X19505Y-3826D01*
X19655Y-3751D02*
X19340Y-3751D01*
X19340Y-3871D01*
X19355Y-3901D01*
X19370Y-3916D01*
X19400Y-3931D01*
X19445Y-3931D01*
X19475Y-3916D01*
X19490Y-3901D01*
X19505Y-3871D01*
X19505Y-3751D01*
X19370Y-4051D02*
X19355Y-4066D01*
X19340Y-4096D01*
X19340Y-4171D01*
X19355Y-4201D01*
X19370Y-4216D01*
X19400Y-4231D01*
X19430Y-4231D01*
X19475Y-4216D01*
X19655Y-4036D01*
X19655Y-4231D01*
X19340Y-4426D02*
X19340Y-4456D01*
X19355Y-4486D01*
X19370Y-4501D01*
X19400Y-4516D01*
X19460Y-4531D01*
X19535Y-4531D01*
X19595Y-4516D01*
X19625Y-4501D01*
X19640Y-4486D01*
X19655Y-4456D01*
X19655Y-4426D01*
X19640Y-4396D01*
X19625Y-4381D01*
X19595Y-4366D01*
X19535Y-4351D01*
X19460Y-4351D01*
X19400Y-4366D01*
X19370Y-4381D01*
X19355Y-4396D01*
X19340Y-4426D01*
G54D12*
G54D11*
X21068Y4006D02*
X21173Y4156D01*
X21248Y4006D02*
X21248Y4321D01*
X21128Y4321D01*
X21098Y4306D01*
X21083Y4291D01*
X21068Y4261D01*
X21068Y4216D01*
X21083Y4186D01*
X21098Y4171D01*
X21128Y4156D01*
X21248Y4156D01*
X20768Y4006D02*
X20948Y4006D01*
X20858Y4006D02*
X20858Y4321D01*
X20888Y4276D01*
X20918Y4246D01*
X20948Y4231D01*
X20498Y4321D02*
X20558Y4321D01*
X20588Y4306D01*
X20603Y4291D01*
X20633Y4246D01*
X20648Y4186D01*
X20648Y4066D01*
X20633Y4036D01*
X20618Y4021D01*
X20588Y4006D01*
X20528Y4006D01*
X20498Y4021D01*
X20483Y4036D01*
X20468Y4066D01*
X20468Y4141D01*
X20483Y4171D01*
X20498Y4186D01*
X20528Y4201D01*
X20588Y4201D01*
X20618Y4186D01*
X20633Y4171D01*
X20648Y4141D01*
G54D12*
G54D11*
X19572Y2785D02*
X19677Y2935D01*
X19752Y2785D02*
X19752Y3100D01*
X19632Y3100D01*
X19602Y3085D01*
X19587Y3070D01*
X19572Y3040D01*
X19572Y2995D01*
X19587Y2965D01*
X19602Y2950D01*
X19632Y2935D01*
X19752Y2935D01*
X19272Y2785D02*
X19452Y2785D01*
X19362Y2785D02*
X19362Y3100D01*
X19392Y3055D01*
X19422Y3025D01*
X19452Y3010D01*
X19167Y3100D02*
X18957Y3100D01*
X19092Y2785D01*
G54D12*
G54D11*
X18706Y4754D02*
X18811Y4904D01*
X18886Y4754D02*
X18886Y5069D01*
X18766Y5069D01*
X18736Y5054D01*
X18721Y5039D01*
X18706Y5009D01*
X18706Y4964D01*
X18721Y4934D01*
X18736Y4919D01*
X18766Y4904D01*
X18886Y4904D01*
X18406Y4754D02*
X18586Y4754D01*
X18496Y4754D02*
X18496Y5069D01*
X18526Y5024D01*
X18556Y4994D01*
X18586Y4979D01*
X18226Y4934D02*
X18256Y4949D01*
X18271Y4964D01*
X18286Y4994D01*
X18286Y5009D01*
X18271Y5039D01*
X18256Y5054D01*
X18226Y5069D01*
X18166Y5069D01*
X18136Y5054D01*
X18121Y5039D01*
X18106Y5009D01*
X18106Y4994D01*
X18121Y4964D01*
X18136Y4949D01*
X18166Y4934D01*
X18226Y4934D01*
X18256Y4919D01*
X18271Y4904D01*
X18286Y4874D01*
X18286Y4814D01*
X18271Y4784D01*
X18256Y4769D01*
X18226Y4754D01*
X18166Y4754D01*
X18136Y4769D01*
X18121Y4784D01*
X18106Y4814D01*
X18106Y4874D01*
X18121Y4904D01*
X18136Y4919D01*
X18166Y4934D01*
G54D12*
G54D11*
X18899Y3380D02*
X19004Y3530D01*
X19079Y3380D02*
X19079Y3695D01*
X18959Y3695D01*
X18929Y3680D01*
X18914Y3665D01*
X18899Y3635D01*
X18899Y3590D01*
X18914Y3560D01*
X18929Y3545D01*
X18959Y3530D01*
X19079Y3530D01*
X18599Y3380D02*
X18779Y3380D01*
X18689Y3380D02*
X18689Y3695D01*
X18719Y3650D01*
X18749Y3620D01*
X18779Y3605D01*
X18449Y3380D02*
X18389Y3380D01*
X18359Y3395D01*
X18344Y3410D01*
X18314Y3455D01*
X18299Y3515D01*
X18299Y3635D01*
X18314Y3665D01*
X18329Y3680D01*
X18359Y3695D01*
X18419Y3695D01*
X18449Y3680D01*
X18464Y3665D01*
X18479Y3635D01*
X18479Y3560D01*
X18464Y3530D01*
X18449Y3515D01*
X18419Y3500D01*
X18359Y3500D01*
X18329Y3515D01*
X18314Y3530D01*
X18299Y3560D01*
G54D12*
G54D11*
X14572Y-5569D02*
X14587Y-5584D01*
X14632Y-5599D01*
X14662Y-5599D01*
X14707Y-5584D01*
X14737Y-5554D01*
X14752Y-5524D01*
X14767Y-5464D01*
X14767Y-5419D01*
X14752Y-5359D01*
X14737Y-5329D01*
X14707Y-5299D01*
X14662Y-5284D01*
X14632Y-5284D01*
X14587Y-5299D01*
X14572Y-5314D01*
X14272Y-5599D02*
X14452Y-5599D01*
X14362Y-5599D02*
X14362Y-5284D01*
X14392Y-5329D01*
X14422Y-5359D01*
X14452Y-5374D01*
X14002Y-5389D02*
X14002Y-5599D01*
X14077Y-5269D02*
X14152Y-5494D01*
X13957Y-5494D01*
G54D12*
G54D11*
X17532Y4192D02*
X17547Y4177D01*
X17592Y4162D01*
X17622Y4162D01*
X17667Y4177D01*
X17697Y4207D01*
X17712Y4237D01*
X17727Y4297D01*
X17727Y4342D01*
X17712Y4402D01*
X17697Y4432D01*
X17667Y4462D01*
X17622Y4477D01*
X17592Y4477D01*
X17547Y4462D01*
X17532Y4447D01*
X17352Y4342D02*
X17382Y4357D01*
X17397Y4372D01*
X17412Y4402D01*
X17412Y4417D01*
X17397Y4447D01*
X17382Y4462D01*
X17352Y4477D01*
X17292Y4477D01*
X17262Y4462D01*
X17247Y4447D01*
X17232Y4417D01*
X17232Y4402D01*
X17247Y4372D01*
X17262Y4357D01*
X17292Y4342D01*
X17352Y4342D01*
X17382Y4327D01*
X17397Y4312D01*
X17412Y4282D01*
X17412Y4222D01*
X17397Y4192D01*
X17382Y4177D01*
X17352Y4162D01*
X17292Y4162D01*
X17262Y4177D01*
X17247Y4192D01*
X17232Y4222D01*
X17232Y4282D01*
X17247Y4312D01*
X17262Y4327D01*
X17292Y4342D01*
G54D12*
G54D11*
X17532Y3602D02*
X17547Y3587D01*
X17592Y3572D01*
X17622Y3572D01*
X17667Y3587D01*
X17697Y3617D01*
X17712Y3647D01*
X17727Y3707D01*
X17727Y3752D01*
X17712Y3812D01*
X17697Y3842D01*
X17667Y3872D01*
X17622Y3887D01*
X17592Y3887D01*
X17547Y3872D01*
X17532Y3857D01*
X17427Y3887D02*
X17217Y3887D01*
X17352Y3572D01*
G54D12*
G54D11*
X13320Y1949D02*
X13335Y1934D01*
X13380Y1919D01*
X13410Y1919D01*
X13455Y1934D01*
X13485Y1964D01*
X13500Y1994D01*
X13515Y2054D01*
X13515Y2099D01*
X13500Y2159D01*
X13485Y2189D01*
X13455Y2219D01*
X13410Y2234D01*
X13380Y2234D01*
X13335Y2219D01*
X13320Y2204D01*
X13050Y2234D02*
X13110Y2234D01*
X13140Y2219D01*
X13155Y2204D01*
X13185Y2159D01*
X13200Y2099D01*
X13200Y1979D01*
X13185Y1949D01*
X13170Y1934D01*
X13140Y1919D01*
X13080Y1919D01*
X13050Y1934D01*
X13035Y1949D01*
X13020Y1979D01*
X13020Y2054D01*
X13035Y2084D01*
X13050Y2099D01*
X13080Y2114D01*
X13140Y2114D01*
X13170Y2099D01*
X13185Y2084D01*
X13200Y2054D01*
G54D12*
G54D11*
X13831Y-1317D02*
X13846Y-1332D01*
X13891Y-1347D01*
X13921Y-1347D01*
X13966Y-1332D01*
X13996Y-1302D01*
X14011Y-1272D01*
X14026Y-1212D01*
X14026Y-1167D01*
X14011Y-1107D01*
X13996Y-1077D01*
X13966Y-1047D01*
X13921Y-1032D01*
X13891Y-1032D01*
X13846Y-1047D01*
X13831Y-1062D01*
X13546Y-1032D02*
X13696Y-1032D01*
X13711Y-1182D01*
X13696Y-1167D01*
X13666Y-1152D01*
X13591Y-1152D01*
X13561Y-1167D01*
X13546Y-1182D01*
X13531Y-1212D01*
X13531Y-1287D01*
X13546Y-1317D01*
X13561Y-1332D01*
X13591Y-1347D01*
X13666Y-1347D01*
X13696Y-1332D01*
X13711Y-1317D01*
G54D12*
G54D11*
X18247Y-498D02*
X18262Y-483D01*
X18277Y-438D01*
X18277Y-408D01*
X18262Y-363D01*
X18232Y-333D01*
X18202Y-318D01*
X18142Y-303D01*
X18097Y-303D01*
X18037Y-318D01*
X18007Y-333D01*
X17977Y-363D01*
X17962Y-408D01*
X17962Y-438D01*
X17977Y-483D01*
X17992Y-498D01*
X18067Y-768D02*
X18277Y-768D01*
X17947Y-693D02*
X18172Y-618D01*
X18172Y-813D01*
G54D12*
G54D11*
X17533Y4860D02*
X17548Y4845D01*
X17593Y4830D01*
X17623Y4830D01*
X17668Y4845D01*
X17698Y4875D01*
X17713Y4905D01*
X17728Y4965D01*
X17728Y5010D01*
X17713Y5070D01*
X17698Y5100D01*
X17668Y5130D01*
X17623Y5145D01*
X17593Y5145D01*
X17548Y5130D01*
X17533Y5115D01*
X17428Y5145D02*
X17233Y5145D01*
X17338Y5025D01*
X17293Y5025D01*
X17263Y5010D01*
X17248Y4995D01*
X17233Y4965D01*
X17233Y4890D01*
X17248Y4860D01*
X17263Y4845D01*
X17293Y4830D01*
X17383Y4830D01*
X17413Y4845D01*
X17428Y4860D01*
G54D12*
G54D11*
X14089Y4816D02*
X14104Y4831D01*
X14119Y4876D01*
X14119Y4906D01*
X14104Y4951D01*
X14074Y4981D01*
X14044Y4996D01*
X13984Y5011D01*
X13939Y5011D01*
X13879Y4996D01*
X13849Y4981D01*
X13819Y4951D01*
X13804Y4906D01*
X13804Y4876D01*
X13819Y4831D01*
X13834Y4816D01*
X13834Y4696D02*
X13819Y4681D01*
X13804Y4651D01*
X13804Y4576D01*
X13819Y4546D01*
X13834Y4531D01*
X13864Y4516D01*
X13894Y4516D01*
X13939Y4531D01*
X14119Y4711D01*
X14119Y4516D01*
G54D12*
G54D11*
X12616Y1036D02*
X12631Y1051D01*
X12646Y1096D01*
X12646Y1126D01*
X12631Y1171D01*
X12601Y1201D01*
X12571Y1216D01*
X12511Y1231D01*
X12466Y1231D01*
X12406Y1216D01*
X12376Y1201D01*
X12346Y1171D01*
X12331Y1126D01*
X12331Y1096D01*
X12346Y1051D01*
X12361Y1036D01*
X12646Y736D02*
X12646Y916D01*
X12646Y826D02*
X12331Y826D01*
X12376Y856D01*
X12406Y886D01*
X12421Y916D01*
G54D12*
G54D11*
X19233Y-663D02*
X19248Y-648D01*
X19263Y-603D01*
X19263Y-573D01*
X19248Y-528D01*
X19218Y-498D01*
X19188Y-483D01*
X19128Y-468D01*
X19083Y-468D01*
X19023Y-483D01*
X18993Y-498D01*
X18963Y-528D01*
X18948Y-573D01*
X18948Y-603D01*
X18963Y-648D01*
X18978Y-663D01*
X19053Y-933D02*
X19263Y-933D01*
X18933Y-858D02*
X19158Y-783D01*
X19158Y-978D01*
X19263Y-1263D02*
X19263Y-1083D01*
X19263Y-1173D02*
X18948Y-1173D01*
X18993Y-1143D01*
X19023Y-1113D01*
X19038Y-1083D01*
G54D12*
G54D11*
X21329Y-4915D02*
X21344Y-4900D01*
X21359Y-4855D01*
X21359Y-4825D01*
X21344Y-4780D01*
X21314Y-4750D01*
X21284Y-4735D01*
X21224Y-4720D01*
X21179Y-4720D01*
X21119Y-4735D01*
X21089Y-4750D01*
X21059Y-4780D01*
X21044Y-4825D01*
X21044Y-4855D01*
X21059Y-4900D01*
X21074Y-4915D01*
X21149Y-5185D02*
X21359Y-5185D01*
X21029Y-5110D02*
X21254Y-5035D01*
X21254Y-5230D01*
X21044Y-5410D02*
X21044Y-5440D01*
X21059Y-5470D01*
X21074Y-5485D01*
X21104Y-5500D01*
X21164Y-5515D01*
X21239Y-5515D01*
X21299Y-5500D01*
X21329Y-5485D01*
X21344Y-5470D01*
X21359Y-5440D01*
X21359Y-5410D01*
X21344Y-5380D01*
X21329Y-5365D01*
X21299Y-5350D01*
X21239Y-5335D01*
X21164Y-5335D01*
X21104Y-5350D01*
X21074Y-5365D01*
X21059Y-5380D01*
X21044Y-5410D01*
G54D12*
G54D11*
X20136Y912D02*
X20151Y927D01*
X20166Y972D01*
X20166Y1002D01*
X20151Y1047D01*
X20121Y1077D01*
X20091Y1092D01*
X20031Y1107D01*
X19986Y1107D01*
X19926Y1092D01*
X19896Y1077D01*
X19866Y1047D01*
X19851Y1002D01*
X19851Y972D01*
X19866Y927D01*
X19881Y912D01*
X19851Y807D02*
X19851Y612D01*
X19971Y717D01*
X19971Y672D01*
X19986Y642D01*
X20001Y627D01*
X20031Y612D01*
X20106Y612D01*
X20136Y627D01*
X20151Y642D01*
X20166Y672D01*
X20166Y762D01*
X20151Y792D01*
X20136Y807D01*
X20166Y462D02*
X20166Y402D01*
X20151Y372D01*
X20136Y357D01*
X20091Y327D01*
X20031Y312D01*
X19911Y312D01*
X19881Y327D01*
X19866Y342D01*
X19851Y372D01*
X19851Y432D01*
X19866Y462D01*
X19881Y477D01*
X19911Y492D01*
X19986Y492D01*
X20016Y477D01*
X20031Y462D01*
X20046Y432D01*
X20046Y372D01*
X20031Y342D01*
X20016Y327D01*
X19986Y312D01*
G54D12*
G54D11*
X20871Y-2499D02*
X20886Y-2514D01*
X20931Y-2529D01*
X20961Y-2529D01*
X21006Y-2514D01*
X21036Y-2484D01*
X21051Y-2454D01*
X21066Y-2394D01*
X21066Y-2349D01*
X21051Y-2289D01*
X21036Y-2259D01*
X21006Y-2229D01*
X20961Y-2214D01*
X20931Y-2214D01*
X20886Y-2229D01*
X20871Y-2244D01*
X20766Y-2214D02*
X20571Y-2214D01*
X20676Y-2334D01*
X20631Y-2334D01*
X20601Y-2349D01*
X20586Y-2364D01*
X20571Y-2394D01*
X20571Y-2469D01*
X20586Y-2499D01*
X20601Y-2514D01*
X20631Y-2529D01*
X20721Y-2529D01*
X20751Y-2514D01*
X20766Y-2499D01*
X20391Y-2349D02*
X20421Y-2334D01*
X20436Y-2319D01*
X20451Y-2289D01*
X20451Y-2274D01*
X20436Y-2244D01*
X20421Y-2229D01*
X20391Y-2214D01*
X20331Y-2214D01*
X20301Y-2229D01*
X20286Y-2244D01*
X20271Y-2274D01*
X20271Y-2289D01*
X20286Y-2319D01*
X20301Y-2334D01*
X20331Y-2349D01*
X20391Y-2349D01*
X20421Y-2364D01*
X20436Y-2379D01*
X20451Y-2409D01*
X20451Y-2469D01*
X20436Y-2499D01*
X20421Y-2514D01*
X20391Y-2529D01*
X20331Y-2529D01*
X20301Y-2514D01*
X20286Y-2499D01*
X20271Y-2469D01*
X20271Y-2409D01*
X20286Y-2379D01*
X20301Y-2364D01*
X20331Y-2349D01*
G54D12*
G54D11*
X19625Y-4915D02*
X19640Y-4900D01*
X19655Y-4855D01*
X19655Y-4825D01*
X19640Y-4780D01*
X19610Y-4750D01*
X19580Y-4735D01*
X19520Y-4720D01*
X19475Y-4720D01*
X19415Y-4735D01*
X19385Y-4750D01*
X19355Y-4780D01*
X19340Y-4825D01*
X19340Y-4855D01*
X19355Y-4900D01*
X19370Y-4915D01*
X19340Y-5020D02*
X19340Y-5215D01*
X19460Y-5110D01*
X19460Y-5155D01*
X19475Y-5185D01*
X19490Y-5200D01*
X19520Y-5215D01*
X19595Y-5215D01*
X19625Y-5200D01*
X19640Y-5185D01*
X19655Y-5155D01*
X19655Y-5065D01*
X19640Y-5035D01*
X19625Y-5020D01*
X19340Y-5320D02*
X19340Y-5530D01*
X19655Y-5395D01*
G54D12*
G54D11*
X11560Y2945D02*
X11575Y2930D01*
X11620Y2915D01*
X11650Y2915D01*
X11695Y2930D01*
X11725Y2960D01*
X11740Y2990D01*
X11755Y3050D01*
X11755Y3095D01*
X11740Y3155D01*
X11725Y3185D01*
X11695Y3215D01*
X11650Y3230D01*
X11620Y3230D01*
X11575Y3215D01*
X11560Y3200D01*
X11455Y3230D02*
X11260Y3230D01*
X11365Y3110D01*
X11320Y3110D01*
X11290Y3095D01*
X11275Y3080D01*
X11260Y3050D01*
X11260Y2975D01*
X11275Y2945D01*
X11290Y2930D01*
X11320Y2915D01*
X11410Y2915D01*
X11440Y2930D01*
X11455Y2945D01*
X10990Y3230D02*
X11050Y3230D01*
X11080Y3215D01*
X11095Y3200D01*
X11125Y3155D01*
X11140Y3095D01*
X11140Y2975D01*
X11125Y2945D01*
X11110Y2930D01*
X11080Y2915D01*
X11020Y2915D01*
X10990Y2930D01*
X10975Y2945D01*
X10960Y2975D01*
X10960Y3050D01*
X10975Y3080D01*
X10990Y3095D01*
X11020Y3110D01*
X11080Y3110D01*
X11110Y3095D01*
X11125Y3080D01*
X11140Y3050D01*
G54D12*
G54D11*
X20478Y-5058D02*
X20493Y-5073D01*
X20538Y-5088D01*
X20568Y-5088D01*
X20613Y-5073D01*
X20643Y-5043D01*
X20658Y-5013D01*
X20673Y-4953D01*
X20673Y-4908D01*
X20658Y-4848D01*
X20643Y-4818D01*
X20613Y-4788D01*
X20568Y-4773D01*
X20538Y-4773D01*
X20493Y-4788D01*
X20478Y-4803D01*
X20373Y-4773D02*
X20178Y-4773D01*
X20283Y-4893D01*
X20238Y-4893D01*
X20208Y-4908D01*
X20193Y-4923D01*
X20178Y-4953D01*
X20178Y-5028D01*
X20193Y-5058D01*
X20208Y-5073D01*
X20238Y-5088D01*
X20328Y-5088D01*
X20358Y-5073D01*
X20373Y-5058D01*
X19893Y-4773D02*
X20043Y-4773D01*
X20058Y-4923D01*
X20043Y-4908D01*
X20013Y-4893D01*
X19938Y-4893D01*
X19908Y-4908D01*
X19893Y-4923D01*
X19878Y-4953D01*
X19878Y-5028D01*
X19893Y-5058D01*
X19908Y-5073D01*
X19938Y-5088D01*
X20013Y-5088D01*
X20043Y-5073D01*
X20058Y-5058D01*
G54D12*
G54D11*
X18706Y4193D02*
X18721Y4178D01*
X18766Y4163D01*
X18796Y4163D01*
X18841Y4178D01*
X18871Y4208D01*
X18886Y4238D01*
X18901Y4298D01*
X18901Y4343D01*
X18886Y4403D01*
X18871Y4433D01*
X18841Y4463D01*
X18796Y4478D01*
X18766Y4478D01*
X18721Y4463D01*
X18706Y4448D01*
X18601Y4478D02*
X18406Y4478D01*
X18511Y4358D01*
X18466Y4358D01*
X18436Y4343D01*
X18421Y4328D01*
X18406Y4298D01*
X18406Y4223D01*
X18421Y4193D01*
X18436Y4178D01*
X18466Y4163D01*
X18556Y4163D01*
X18586Y4178D01*
X18601Y4193D01*
X18286Y4448D02*
X18271Y4463D01*
X18241Y4478D01*
X18166Y4478D01*
X18136Y4463D01*
X18121Y4448D01*
X18106Y4418D01*
X18106Y4388D01*
X18121Y4343D01*
X18301Y4163D01*
X18106Y4163D01*
G54D12*
G54D11*
X19879Y3410D02*
X19894Y3395D01*
X19939Y3380D01*
X19969Y3380D01*
X20014Y3395D01*
X20044Y3425D01*
X20059Y3455D01*
X20074Y3515D01*
X20074Y3560D01*
X20059Y3620D01*
X20044Y3650D01*
X20014Y3680D01*
X19969Y3695D01*
X19939Y3695D01*
X19894Y3680D01*
X19879Y3665D01*
X19774Y3695D02*
X19579Y3695D01*
X19684Y3575D01*
X19639Y3575D01*
X19609Y3560D01*
X19594Y3545D01*
X19579Y3515D01*
X19579Y3440D01*
X19594Y3410D01*
X19609Y3395D01*
X19639Y3380D01*
X19729Y3380D01*
X19759Y3395D01*
X19774Y3410D01*
X19279Y3380D02*
X19459Y3380D01*
X19369Y3380D02*
X19369Y3695D01*
X19399Y3650D01*
X19429Y3620D01*
X19459Y3605D01*
G54D12*
G54D11*
X21068Y5178D02*
X21083Y5163D01*
X21128Y5148D01*
X21158Y5148D01*
X21203Y5163D01*
X21233Y5193D01*
X21248Y5223D01*
X21263Y5283D01*
X21263Y5328D01*
X21248Y5388D01*
X21233Y5418D01*
X21203Y5448D01*
X21158Y5463D01*
X21128Y5463D01*
X21083Y5448D01*
X21068Y5433D01*
X20963Y5463D02*
X20768Y5463D01*
X20873Y5343D01*
X20828Y5343D01*
X20798Y5328D01*
X20783Y5313D01*
X20768Y5283D01*
X20768Y5208D01*
X20783Y5178D01*
X20798Y5163D01*
X20828Y5148D01*
X20918Y5148D01*
X20948Y5163D01*
X20963Y5178D01*
X20573Y5463D02*
X20543Y5463D01*
X20513Y5448D01*
X20498Y5433D01*
X20483Y5403D01*
X20468Y5343D01*
X20468Y5268D01*
X20483Y5208D01*
X20498Y5178D01*
X20513Y5163D01*
X20543Y5148D01*
X20573Y5148D01*
X20603Y5163D01*
X20618Y5178D01*
X20633Y5208D01*
X20648Y5268D01*
X20648Y5343D01*
X20633Y5403D01*
X20618Y5433D01*
X20603Y5448D01*
X20573Y5463D01*
G54D12*
G54D11*
X21068Y4587D02*
X21083Y4572D01*
X21128Y4557D01*
X21158Y4557D01*
X21203Y4572D01*
X21233Y4602D01*
X21248Y4632D01*
X21263Y4692D01*
X21263Y4737D01*
X21248Y4797D01*
X21233Y4827D01*
X21203Y4857D01*
X21158Y4872D01*
X21128Y4872D01*
X21083Y4857D01*
X21068Y4842D01*
X20948Y4842D02*
X20933Y4857D01*
X20903Y4872D01*
X20828Y4872D01*
X20798Y4857D01*
X20783Y4842D01*
X20768Y4812D01*
X20768Y4782D01*
X20783Y4737D01*
X20963Y4557D01*
X20768Y4557D01*
X20618Y4557D02*
X20558Y4557D01*
X20528Y4572D01*
X20513Y4587D01*
X20483Y4632D01*
X20468Y4692D01*
X20468Y4812D01*
X20483Y4842D01*
X20498Y4857D01*
X20528Y4872D01*
X20588Y4872D01*
X20618Y4857D01*
X20633Y4842D01*
X20648Y4812D01*
X20648Y4737D01*
X20633Y4707D01*
X20618Y4692D01*
X20588Y4677D01*
X20528Y4677D01*
X20498Y4692D01*
X20483Y4707D01*
X20468Y4737D01*
G54D12*
G54D11*
X15648Y4598D02*
X15438Y4283D01*
X15438Y4598D02*
X15648Y4283D01*
X15153Y4283D02*
X15333Y4283D01*
X15243Y4283D02*
X15243Y4598D01*
X15273Y4553D01*
X15303Y4523D01*
X15333Y4508D01*
G54D12*
G54D11*
X12559Y4053D02*
X12559Y3798D01*
X12544Y3768D01*
X12529Y3753D01*
X12499Y3738D01*
X12439Y3738D01*
X12409Y3753D01*
X12394Y3768D01*
X12379Y3798D01*
X12379Y4053D01*
X12094Y4053D02*
X12154Y4053D01*
X12184Y4038D01*
X12199Y4023D01*
X12229Y3978D01*
X12244Y3918D01*
X12244Y3798D01*
X12229Y3768D01*
X12214Y3753D01*
X12184Y3738D01*
X12124Y3738D01*
X12094Y3753D01*
X12079Y3768D01*
X12064Y3798D01*
X12064Y3873D01*
X12079Y3903D01*
X12094Y3918D01*
X12124Y3933D01*
X12184Y3933D01*
X12214Y3918D01*
X12229Y3903D01*
X12244Y3873D01*
G54D12*
G54D11*
X22459Y-6381D02*
X22236Y-6158D01*
X22183Y-6211D01*
X22162Y-6254D01*
X22162Y-6296D01*
X22173Y-6328D01*
X22204Y-6381D01*
X22236Y-6413D01*
X22289Y-6444D01*
X22321Y-6455D01*
X22364Y-6455D01*
X22406Y-6434D01*
X22459Y-6381D01*
X22077Y-6508D02*
X22088Y-6476D01*
X22088Y-6455D01*
X22077Y-6423D01*
X22067Y-6413D01*
X22035Y-6402D01*
X22014Y-6402D01*
X21982Y-6413D01*
X21939Y-6455D01*
X21929Y-6487D01*
X21929Y-6508D01*
X21939Y-6540D01*
X21950Y-6551D01*
X21982Y-6561D01*
X22003Y-6561D01*
X22035Y-6551D01*
X22077Y-6508D01*
X22109Y-6497D01*
X22130Y-6497D01*
X22162Y-6508D01*
X22204Y-6551D01*
X22215Y-6582D01*
X22215Y-6604D01*
X22204Y-6635D01*
X22162Y-6678D01*
X22130Y-6688D01*
X22109Y-6688D01*
X22077Y-6678D01*
X22035Y-6635D01*
X22024Y-6604D01*
X22024Y-6582D01*
X22035Y-6551D01*
G54D12*
M02*
